G04*
G04 #@! TF.GenerationSoftware,Altium Limited,Altium Designer,21.9.1 (22)*
G04*
G04 Layer_Physical_Order=1*
G04 Layer_Color=255*
%FSAX44Y44*%
%MOMM*%
G71*
G04*
G04 #@! TF.SameCoordinates,0D14A302-91A5-4368-AE17-AEAA60D505F3*
G04*
G04*
G04 #@! TF.FilePolarity,Positive*
G04*
G01*
G75*
%ADD12C,0.2000*%
%ADD29C,2.1000*%
%ADD36C,2.2000*%
%ADD40R,0.9500X0.6000*%
%ADD41R,0.6000X0.9500*%
G04:AMPARAMS|DCode=42|XSize=0.6mm|YSize=1.7mm|CornerRadius=0.15mm|HoleSize=0mm|Usage=FLASHONLY|Rotation=0.000|XOffset=0mm|YOffset=0mm|HoleType=Round|Shape=RoundedRectangle|*
%AMROUNDEDRECTD42*
21,1,0.6000,1.4000,0,0,0.0*
21,1,0.3000,1.7000,0,0,0.0*
1,1,0.3000,0.1500,-0.7000*
1,1,0.3000,-0.1500,-0.7000*
1,1,0.3000,-0.1500,0.7000*
1,1,0.3000,0.1500,0.7000*
%
%ADD42ROUNDEDRECTD42*%
G04:AMPARAMS|DCode=43|XSize=0.6mm|YSize=1.7mm|CornerRadius=0.15mm|HoleSize=0mm|Usage=FLASHONLY|Rotation=270.000|XOffset=0mm|YOffset=0mm|HoleType=Round|Shape=RoundedRectangle|*
%AMROUNDEDRECTD43*
21,1,0.6000,1.4000,0,0,270.0*
21,1,0.3000,1.7000,0,0,270.0*
1,1,0.3000,-0.7000,-0.1500*
1,1,0.3000,-0.7000,0.1500*
1,1,0.3000,0.7000,0.1500*
1,1,0.3000,0.7000,-0.1500*
%
%ADD43ROUNDEDRECTD43*%
G04:AMPARAMS|DCode=44|XSize=0.6mm|YSize=0.5mm|CornerRadius=0.125mm|HoleSize=0mm|Usage=FLASHONLY|Rotation=180.000|XOffset=0mm|YOffset=0mm|HoleType=Round|Shape=RoundedRectangle|*
%AMROUNDEDRECTD44*
21,1,0.6000,0.2500,0,0,180.0*
21,1,0.3500,0.5000,0,0,180.0*
1,1,0.2500,-0.1750,0.1250*
1,1,0.2500,0.1750,0.1250*
1,1,0.2500,0.1750,-0.1250*
1,1,0.2500,-0.1750,-0.1250*
%
%ADD44ROUNDEDRECTD44*%
%ADD45O,0.4000X1.6000*%
%ADD46R,1.6500X0.8000*%
%ADD47C,0.5000*%
%ADD48C,0.0889*%
%ADD49C,5.0000*%
%ADD50C,1.6000*%
%ADD51C,2.0000*%
%ADD52O,3.0000X1.9000*%
%ADD53R,3.0000X1.9000*%
%ADD54R,1.9000X3.0000*%
%ADD55O,1.9000X3.0000*%
%ADD56R,1.3000X1.3000*%
%ADD57C,1.3000*%
%ADD58R,2.1000X2.1000*%
%ADD59C,0.7000*%
%ADD60C,0.5400*%
G36*
X00592625Y00598654D02*
X00594263Y00597976D01*
X00595737Y00596991D01*
X00596991Y00595737D01*
X00597976Y00594263D01*
X00598654Y00592625D01*
X00599000Y00590886D01*
Y00590000D01*
Y00405000D01*
X00562102D01*
X00561671Y00406270D01*
X00563345Y00407555D01*
X00565108Y00409853D01*
X00566217Y00412528D01*
X00566397Y00413900D01*
X00550000D01*
X00533603D01*
X00533783Y00412528D01*
X00534892Y00409853D01*
X00536655Y00407555D01*
X00538329Y00406270D01*
X00537898Y00405000D01*
X00516250D01*
Y00406250D01*
X00510000D01*
Y00407750D01*
X00508500D01*
Y00412250D01*
X00503750D01*
Y00406909D01*
X00502577Y00406423D01*
X00484000Y00425000D01*
X00440000D01*
Y00345000D01*
X00160000D01*
Y00430000D01*
X00001000D01*
Y00590000D01*
Y00590886D01*
X00001346Y00592625D01*
X00002024Y00594263D01*
X00003009Y00595737D01*
X00004263Y00596991D01*
X00005737Y00597976D01*
X00007375Y00598654D01*
X00009114Y00599000D01*
X00590886D01*
X00592625Y00598654D01*
D02*
G37*
G36*
X00392450Y00274941D02*
X00393620Y00275174D01*
X00394613Y00275837D01*
X00395276Y00276829D01*
X00395509Y00278000D01*
Y00280000D01*
X00399326D01*
Y00278000D01*
X00399541Y00276919D01*
X00400153Y00276003D01*
X00401069Y00275391D01*
X00402150Y00275176D01*
X00405150D01*
X00406231Y00275391D01*
X00407147Y00276003D01*
X00407759Y00276919D01*
X00407974Y00278000D01*
Y00280000D01*
X00412026D01*
Y00278000D01*
X00412241Y00276919D01*
X00412853Y00276003D01*
X00413769Y00275391D01*
X00414850Y00275176D01*
X00417850D01*
X00418931Y00275391D01*
X00419847Y00276003D01*
X00420459Y00276919D01*
X00420674Y00278000D01*
Y00280000D01*
X00424726D01*
Y00278000D01*
X00424941Y00276919D01*
X00425553Y00276003D01*
X00426469Y00275391D01*
X00427550Y00275176D01*
X00430550D01*
X00431631Y00275391D01*
X00432547Y00276003D01*
X00433159Y00276919D01*
X00433374Y00278000D01*
Y00280000D01*
X00599000D01*
Y00010000D01*
Y00009114D01*
X00598654Y00007375D01*
X00597976Y00005737D01*
X00596991Y00004263D01*
X00595737Y00003009D01*
X00594263Y00002024D01*
X00592625Y00001346D01*
X00590886Y00001000D01*
X00340000D01*
Y00048230D01*
X00356520D01*
Y00058770D01*
X00340000D01*
Y00079230D01*
X00356520D01*
Y00089770D01*
X00346299D01*
Y00095980D01*
X00348020D01*
Y00108020D01*
X00346299D01*
Y00119250D01*
X00346105Y00120225D01*
X00345552Y00121052D01*
X00340000Y00126605D01*
Y00254600D01*
Y00257102D01*
X00340976Y00262009D01*
X00342891Y00266631D01*
X00345671Y00270791D01*
X00349208Y00274329D01*
X00353369Y00277109D01*
X00357991Y00279024D01*
X00362898Y00280000D01*
X00386391D01*
Y00278000D01*
X00386624Y00276829D01*
X00387287Y00275837D01*
X00388279Y00275174D01*
X00389450Y00274941D01*
Y00285000D01*
X00392450D01*
Y00274941D01*
D02*
G37*
%LPC*%
G36*
X00555500Y00426495D02*
X00551500D01*
Y00416900D01*
X00566397D01*
X00566217Y00418272D01*
X00565108Y00420947D01*
X00563345Y00423245D01*
X00561047Y00425009D01*
X00558372Y00426117D01*
X00555500Y00426495D01*
D02*
G37*
G36*
X00548500D02*
X00544500D01*
X00541628Y00426117D01*
X00538952Y00425009D01*
X00536655Y00423245D01*
X00534892Y00420947D01*
X00533783Y00418272D01*
X00533603Y00416900D01*
X00548500D01*
Y00426495D01*
D02*
G37*
G36*
X00516250Y00412250D02*
X00511500D01*
Y00409250D01*
X00516250D01*
Y00412250D01*
D02*
G37*
G36*
X00430550Y00245059D02*
Y00236500D01*
X00433609D01*
Y00242000D01*
X00433376Y00243171D01*
X00432713Y00244163D01*
X00431721Y00244826D01*
X00430550Y00245059D01*
D02*
G37*
G36*
X00427550D02*
X00426380Y00244826D01*
X00425387Y00244163D01*
X00424724Y00243171D01*
X00424491Y00242000D01*
Y00236500D01*
X00427550D01*
Y00245059D01*
D02*
G37*
G36*
X00577046Y00237900D02*
X00576900D01*
Y00226900D01*
X00587900D01*
Y00227046D01*
X00587048Y00230225D01*
X00585402Y00233075D01*
X00583075Y00235403D01*
X00580225Y00237048D01*
X00577046Y00237900D01*
D02*
G37*
G36*
X00573900D02*
X00573754D01*
X00570575Y00237048D01*
X00567725Y00235403D01*
X00565397Y00233075D01*
X00563752Y00230225D01*
X00562900Y00227046D01*
Y00226900D01*
X00573900D01*
Y00237900D01*
D02*
G37*
G36*
X00526246D02*
X00526100D01*
Y00226900D01*
X00537100D01*
Y00227046D01*
X00536248Y00230225D01*
X00534603Y00233075D01*
X00532275Y00235403D01*
X00529425Y00237048D01*
X00526246Y00237900D01*
D02*
G37*
G36*
X00523100D02*
X00522954D01*
X00519775Y00237048D01*
X00516925Y00235403D01*
X00514598Y00233075D01*
X00512952Y00230225D01*
X00512100Y00227046D01*
Y00226900D01*
X00523100D01*
Y00237900D01*
D02*
G37*
G36*
X00392450Y00244824D02*
X00389450D01*
X00388369Y00244609D01*
X00387453Y00243997D01*
X00386841Y00243081D01*
X00386626Y00242000D01*
Y00228000D01*
X00386841Y00226919D01*
X00387453Y00226003D01*
X00388369Y00225391D01*
X00389450Y00225176D01*
X00392450D01*
X00393531Y00225391D01*
X00394447Y00226003D01*
X00395059Y00226919D01*
X00395274Y00228000D01*
Y00242000D01*
X00395059Y00243081D01*
X00394447Y00243997D01*
X00393531Y00244609D01*
X00392450Y00244824D01*
D02*
G37*
G36*
X00433609Y00233500D02*
X00430550D01*
Y00224941D01*
X00431721Y00225174D01*
X00432713Y00225837D01*
X00433376Y00226829D01*
X00433609Y00228000D01*
Y00233500D01*
D02*
G37*
G36*
X00427550D02*
X00424491D01*
Y00228000D01*
X00424724Y00226829D01*
X00425387Y00225837D01*
X00426380Y00225174D01*
X00427550Y00224941D01*
Y00233500D01*
D02*
G37*
G36*
X00435250Y00218250D02*
X00432250D01*
Y00213500D01*
X00435250D01*
Y00218250D01*
D02*
G37*
G36*
X00429250D02*
X00426250D01*
Y00213500D01*
X00429250D01*
Y00218250D01*
D02*
G37*
G36*
X00587900Y00223900D02*
X00576900D01*
Y00212900D01*
X00577046D01*
X00580225Y00213752D01*
X00583075Y00215397D01*
X00585402Y00217725D01*
X00587048Y00220575D01*
X00587900Y00223754D01*
Y00223900D01*
D02*
G37*
G36*
X00573900D02*
X00562900D01*
Y00223754D01*
X00563752Y00220575D01*
X00565397Y00217725D01*
X00567725Y00215397D01*
X00570575Y00213752D01*
X00573754Y00212900D01*
X00573900D01*
Y00223900D01*
D02*
G37*
G36*
X00537100Y00223900D02*
X00526100D01*
Y00212900D01*
X00526246D01*
X00529425Y00213752D01*
X00532275Y00215397D01*
X00534603Y00217725D01*
X00536248Y00220575D01*
X00537100Y00223754D01*
Y00223900D01*
D02*
G37*
G36*
X00523100D02*
X00512100D01*
Y00223754D01*
X00512952Y00220575D01*
X00514598Y00217725D01*
X00516925Y00215397D01*
X00519775Y00213752D01*
X00522954Y00212900D01*
X00523100D01*
Y00223900D01*
D02*
G37*
G36*
X00435250Y00210500D02*
X00432250D01*
Y00205750D01*
X00435250D01*
Y00210500D01*
D02*
G37*
G36*
X00429250D02*
X00426250D01*
Y00205750D01*
X00429250D01*
Y00210500D01*
D02*
G37*
G36*
X00551316Y00210000D02*
X00548684D01*
X00546140Y00209319D01*
X00543860Y00208002D01*
X00541998Y00206140D01*
X00540681Y00203860D01*
X00540330Y00202549D01*
X00495020D01*
Y00206020D01*
X00486480D01*
Y00193980D01*
X00495020D01*
Y00197451D01*
X00540330D01*
X00540681Y00196140D01*
X00541998Y00193860D01*
X00543860Y00191998D01*
X00546140Y00190681D01*
X00548684Y00190000D01*
X00551316D01*
X00553860Y00190681D01*
X00556140Y00191998D01*
X00558002Y00193860D01*
X00559319Y00196140D01*
X00560000Y00198683D01*
Y00201317D01*
X00559319Y00203860D01*
X00558002Y00206140D01*
X00556140Y00208002D01*
X00553860Y00209319D01*
X00551316Y00210000D01*
D02*
G37*
G36*
X00417850Y00244824D02*
X00414850D01*
X00413769Y00244609D01*
X00412853Y00243997D01*
X00412241Y00243081D01*
X00412026Y00242000D01*
Y00228000D01*
X00412241Y00226919D01*
X00412272Y00226873D01*
Y00222942D01*
X00411482Y00221761D01*
X00411172Y00220200D01*
X00411172Y00220200D01*
Y00218020D01*
X00410980D01*
Y00205980D01*
X00410980D01*
X00410558Y00204968D01*
X00409760Y00203042D01*
Y00200958D01*
X00410558Y00199032D01*
X00411771Y00197819D01*
X00411418Y00196605D01*
X00411381Y00196549D01*
X00410056D01*
X00406199Y00200406D01*
Y00225384D01*
X00406231Y00225391D01*
X00407147Y00226003D01*
X00407759Y00226919D01*
X00407974Y00228000D01*
Y00242000D01*
X00407759Y00243081D01*
X00407147Y00243997D01*
X00406231Y00244609D01*
X00405150Y00244824D01*
X00402150D01*
X00401069Y00244609D01*
X00400153Y00243997D01*
X00399541Y00243081D01*
X00399326Y00242000D01*
Y00228000D01*
X00399541Y00226919D01*
X00400153Y00226003D01*
X00401069Y00225391D01*
X00401101Y00225384D01*
Y00199350D01*
X00401295Y00198375D01*
X00401848Y00197548D01*
X00407198Y00192198D01*
X00408024Y00191645D01*
X00409000Y00191451D01*
X00446000D01*
X00446976Y00191645D01*
X00447802Y00192198D01*
X00453056Y00197451D01*
X00470980D01*
Y00193980D01*
X00479520D01*
Y00206020D01*
X00470980D01*
Y00202549D01*
X00452000D01*
X00451025Y00202355D01*
X00450198Y00201802D01*
X00444944Y00196549D01*
X00418619D01*
X00418582Y00196605D01*
X00418229Y00197819D01*
X00419442Y00199032D01*
X00420240Y00200958D01*
Y00203042D01*
X00419545Y00204720D01*
X00419520Y00205980D01*
X00419520Y00205980D01*
X00419520Y00205980D01*
Y00218020D01*
X00419520Y00218020D01*
X00419520D01*
X00419520Y00218020D01*
X00419753Y00219193D01*
X00420118Y00219739D01*
X00420428Y00221300D01*
Y00226873D01*
X00420459Y00226919D01*
X00420674Y00228000D01*
Y00242000D01*
X00420459Y00243081D01*
X00419847Y00243997D01*
X00418931Y00244609D01*
X00417850Y00244824D01*
D02*
G37*
G36*
X00577046Y00187100D02*
X00576900D01*
Y00176100D01*
X00587900D01*
Y00176246D01*
X00587048Y00179425D01*
X00585402Y00182275D01*
X00583075Y00184603D01*
X00580225Y00186248D01*
X00577046Y00187100D01*
D02*
G37*
G36*
X00573900D02*
X00573754D01*
X00570575Y00186248D01*
X00567725Y00184603D01*
X00565397Y00182275D01*
X00563752Y00179425D01*
X00562900Y00176246D01*
Y00176100D01*
X00573900D01*
Y00187100D01*
D02*
G37*
G36*
X00526246D02*
X00526100D01*
Y00176100D01*
X00537100D01*
Y00176246D01*
X00536248Y00179425D01*
X00534603Y00182275D01*
X00532275Y00184603D01*
X00529425Y00186248D01*
X00526246Y00187100D01*
D02*
G37*
G36*
X00523100D02*
X00522954D01*
X00519775Y00186248D01*
X00516925Y00184603D01*
X00514598Y00182275D01*
X00512952Y00179425D01*
X00512100Y00176246D01*
Y00176100D01*
X00523100D01*
Y00187100D01*
D02*
G37*
G36*
X00587900Y00173100D02*
X00576900D01*
Y00162100D01*
X00577046D01*
X00580225Y00162952D01*
X00583075Y00164597D01*
X00585402Y00166925D01*
X00587048Y00169775D01*
X00587900Y00172954D01*
Y00173100D01*
D02*
G37*
G36*
X00573900D02*
X00562900D01*
Y00172954D01*
X00563752Y00169775D01*
X00565397Y00166925D01*
X00567725Y00164597D01*
X00570575Y00162952D01*
X00573754Y00162100D01*
X00573900D01*
Y00173100D01*
D02*
G37*
G36*
X00537100Y00173100D02*
X00526100D01*
Y00162100D01*
X00526246D01*
X00529425Y00162952D01*
X00532275Y00164597D01*
X00534603Y00166925D01*
X00536248Y00169775D01*
X00537100Y00172954D01*
Y00173100D01*
D02*
G37*
G36*
X00523100D02*
X00512100D01*
Y00172954D01*
X00512952Y00169775D01*
X00514598Y00166925D01*
X00516925Y00164597D01*
X00519775Y00162952D01*
X00522954Y00162100D01*
X00523100D01*
Y00173100D01*
D02*
G37*
G36*
X00490500Y00138000D02*
X00484000D01*
Y00131500D01*
X00490500D01*
Y00138000D01*
D02*
G37*
G36*
X00481000D02*
X00474500D01*
Y00131500D01*
X00481000D01*
Y00138000D01*
D02*
G37*
G36*
X00389000Y00137880D02*
Y00131500D01*
X00395380D01*
X00394955Y00133088D01*
X00393902Y00134912D01*
X00392412Y00136402D01*
X00390588Y00137455D01*
X00389000Y00137880D01*
D02*
G37*
G36*
X00386000D02*
X00384412Y00137455D01*
X00382588Y00136402D01*
X00381098Y00134912D01*
X00380045Y00133088D01*
X00379620Y00131500D01*
X00386000D01*
Y00137880D01*
D02*
G37*
G36*
X00395380Y00128500D02*
X00389000D01*
Y00122120D01*
X00390588Y00122545D01*
X00392412Y00123598D01*
X00393902Y00125088D01*
X00394955Y00126912D01*
X00395380Y00128500D01*
D02*
G37*
G36*
X00386000D02*
X00379620D01*
X00380045Y00126912D01*
X00381098Y00125088D01*
X00382588Y00123598D01*
X00384412Y00122545D01*
X00386000Y00122120D01*
Y00128500D01*
D02*
G37*
G36*
X00490500D02*
X00484000D01*
Y00122000D01*
X00490500D01*
Y00128500D01*
D02*
G37*
G36*
X00481000D02*
X00474500D01*
Y00122000D01*
X00481000D01*
Y00128500D01*
D02*
G37*
G36*
X00458619Y00138500D02*
X00456381D01*
X00454219Y00137921D01*
X00452281Y00136802D01*
X00450698Y00135219D01*
X00449579Y00133281D01*
X00449000Y00131119D01*
Y00128881D01*
X00449579Y00126719D01*
X00450698Y00124781D01*
X00452281Y00123198D01*
X00454219Y00122079D01*
X00456381Y00121500D01*
X00458619D01*
X00460781Y00122079D01*
X00462719Y00123198D01*
X00464302Y00124781D01*
X00465421Y00126719D01*
X00466000Y00128881D01*
Y00131119D01*
X00465421Y00133281D01*
X00464302Y00135219D01*
X00462719Y00136802D01*
X00460781Y00137921D01*
X00458619Y00138500D01*
D02*
G37*
G36*
X00421000D02*
X00404000D01*
Y00121500D01*
X00421000D01*
Y00138500D01*
D02*
G37*
G36*
X00441580Y00091001D02*
X00441500D01*
Y00080501D01*
X00452000D01*
Y00080581D01*
X00451182Y00083633D01*
X00449602Y00086369D01*
X00447368Y00088603D01*
X00444632Y00090183D01*
X00441580Y00091001D01*
D02*
G37*
G36*
X00438500D02*
X00438420D01*
X00435368Y00090183D01*
X00432632Y00088603D01*
X00430397Y00086369D01*
X00428818Y00083633D01*
X00428000Y00080581D01*
Y00080501D01*
X00438500D01*
Y00091001D01*
D02*
G37*
G36*
X00452000Y00077501D02*
X00441500D01*
Y00067001D01*
X00441580D01*
X00444632Y00067819D01*
X00447368Y00069398D01*
X00449602Y00071633D01*
X00451182Y00074369D01*
X00452000Y00077421D01*
Y00077501D01*
D02*
G37*
G36*
X00438500D02*
X00428000D01*
Y00077421D01*
X00428818Y00074369D01*
X00430397Y00071633D01*
X00432632Y00069398D01*
X00435368Y00067819D01*
X00438420Y00067001D01*
X00438500D01*
Y00077501D01*
D02*
G37*
G36*
X00476646Y00091501D02*
X00473354D01*
X00470175Y00090649D01*
X00467325Y00089003D01*
X00464997Y00086676D01*
X00463352Y00083826D01*
X00462500Y00080646D01*
Y00077355D01*
X00463352Y00074176D01*
X00464997Y00071326D01*
X00467325Y00068998D01*
X00470175Y00067353D01*
X00473354Y00066501D01*
X00476646D01*
X00479825Y00067353D01*
X00482675Y00068998D01*
X00485002Y00071326D01*
X00486648Y00074176D01*
X00487500Y00077355D01*
Y00080646D01*
X00486648Y00083826D01*
X00485002Y00086676D01*
X00482675Y00089003D01*
X00479825Y00090649D01*
X00476646Y00091501D01*
D02*
G37*
G36*
X00417500D02*
X00392500D01*
Y00066501D01*
X00417500D01*
Y00091501D01*
D02*
G37*
%LPD*%
D12*
X00310000Y00270750D02*
X00327000D01*
X00308250D02*
X00310000D01*
Y00255250D02*
X00327000D01*
X00238000Y00119000D02*
X00246000Y00127000D01*
Y00134250D01*
X00064430Y00268650D02*
X00066080Y00267000D01*
X00067000D01*
X00050000Y00268650D02*
X00064430D01*
X00490750Y00200000D02*
X00550000D01*
X00446000Y00194000D02*
X00452000Y00200000D01*
X00475250D01*
X00409000Y00194000D02*
X00446000D01*
X00403650Y00199350D02*
Y00235000D01*
Y00199350D02*
X00409000Y00194000D01*
X00416350Y00285000D02*
Y00303600D01*
X00418000Y00305250D01*
X00434000D01*
X00403650Y00285000D02*
Y00327650D01*
X00413000Y00337000D01*
X00458000D01*
X00471250Y00323750D02*
X00534000D01*
X00458000Y00337000D02*
X00471250Y00323750D01*
X00534000D02*
X00550000D01*
Y00337250D01*
Y00352750D02*
Y00390000D01*
X00547750Y00392250D02*
X00550000Y00390000D01*
X00510000Y00392250D02*
X00547750D01*
X00496000Y00392000D02*
X00509750D01*
X00510000Y00392250D01*
X00477000Y00411000D02*
X00496000Y00392000D01*
X00461000Y00411000D02*
X00477000D01*
X00100000Y00268650D02*
X00112350D01*
X00132675Y00248325D02*
X00140675D01*
X00112350Y00268650D02*
X00132675Y00248325D01*
X00140675D02*
X00158000Y00231000D01*
X00258500Y00164000D02*
Y00177000D01*
Y00162500D02*
Y00164000D01*
X00251000D02*
X00258500D01*
X00244760Y00185760D02*
X00250000Y00191000D01*
X00246000Y00149750D02*
Y00160175D01*
X00244760Y00161415D02*
X00246000Y00160175D01*
X00244760Y00161415D02*
Y00185760D01*
X00343750Y00087500D02*
Y00102000D01*
Y00087500D02*
X00346750Y00084500D01*
X00347000D01*
X00297500Y00165500D02*
X00343750Y00119250D01*
Y00102000D02*
Y00119250D01*
X00297500Y00165500D02*
Y00177000D01*
X00291000Y00163000D02*
Y00177000D01*
X00328250Y00102000D02*
Y00125750D01*
X00291000Y00163000D02*
X00328250Y00125750D01*
X00325000Y00097000D02*
X00328250Y00100250D01*
Y00102000D01*
X00325000Y00084500D02*
Y00097000D01*
X00302750Y00102000D02*
X00303000Y00101750D01*
Y00084500D02*
Y00101750D01*
X00302750Y00102000D02*
Y00138250D01*
X00284500Y00156500D02*
X00302750Y00138250D01*
X00284500Y00156500D02*
Y00177000D01*
X00250000Y00191000D02*
X00268000D01*
X00271500Y00187500D01*
Y00177000D02*
Y00187500D01*
X00230000Y00149750D02*
X00246000D01*
X00262000Y00134250D02*
Y00139828D01*
X00263172Y00141000D01*
X00265243D01*
X00269750Y00145507D01*
Y00161250D01*
X00265000Y00166000D02*
X00269750Y00161250D01*
X00265000Y00166000D02*
Y00177000D01*
X00258500Y00162500D02*
X00262000Y00159000D01*
Y00149750D02*
Y00159000D01*
Y00121750D02*
Y00134250D01*
X00250000Y00109172D02*
X00252922Y00106250D01*
X00262000D01*
X00250000Y00109172D02*
Y00114000D01*
X00297250Y00232750D02*
X00297500Y00233000D01*
X00297250Y00197250D02*
Y00232750D01*
X00297000Y00197000D02*
X00297250Y00197250D01*
X00271500Y00215500D02*
Y00233000D01*
X00269000Y00213000D02*
X00271500Y00215500D01*
X00294000Y00270750D02*
Y00280000D01*
X00306250Y00251500D02*
Y00253250D01*
X00301000Y00246250D02*
X00306250Y00251500D01*
X00301000Y00242571D02*
Y00246250D01*
X00308250Y00255250D02*
X00310000D01*
X00306250Y00253250D02*
X00308250Y00255250D01*
X00297500Y00233000D02*
Y00239071D01*
X00301000Y00242571D01*
X00294750Y00254250D02*
X00297750Y00257250D01*
X00293000Y00254250D02*
X00294750D01*
X00297750Y00260250D02*
X00308250Y00270750D01*
X00297750Y00257250D02*
Y00260250D01*
X00293000Y00247000D02*
Y00254250D01*
X00291000Y00233000D02*
Y00245000D01*
X00293000Y00247000D01*
X00257750Y00246250D02*
X00258500Y00245500D01*
X00257000Y00247000D02*
X00257750Y00246250D01*
X00250920Y00243000D02*
X00254170Y00246250D01*
X00250000Y00243000D02*
X00250920D01*
X00254170Y00246250D02*
X00257750D01*
X00258500Y00233000D02*
Y00245500D01*
X00257000Y00247000D02*
Y00254250D01*
X00241000Y00269750D02*
X00257000D01*
X00265828D02*
X00267000Y00268578D01*
X00257000Y00269750D02*
X00265828D01*
X00267000Y00250000D02*
Y00268578D01*
X00265000Y00248000D02*
X00267000Y00250000D01*
X00265000Y00233000D02*
Y00248000D01*
X00211250Y00242750D02*
X00241000Y00213000D01*
X00269000D01*
X00197000Y00242750D02*
X00211250D01*
X00170000Y00050000D02*
Y00141000D01*
X00178250Y00149250D02*
Y00211000D01*
X00170000Y00141000D02*
X00178250Y00149250D01*
X00196000Y00243750D02*
X00197000Y00242750D01*
X00196000Y00243750D02*
Y00261000D01*
X00198750Y00227250D02*
X00205349Y00220651D01*
X00197000Y00227250D02*
X00198750D01*
X00205349Y00219650D02*
Y00220651D01*
Y00219650D02*
X00206000Y00219000D01*
X00193750Y00211000D02*
X00204000D01*
X00175000Y00216000D02*
Y00227250D01*
Y00216000D02*
X00178250Y00212750D01*
Y00211000D02*
Y00212750D01*
X00174000Y00243750D02*
X00175000Y00242750D01*
X00174000Y00243750D02*
Y00261000D01*
X00157000Y00299000D02*
X00174000Y00282000D01*
Y00261000D02*
Y00282000D01*
X00137750Y00299000D02*
X00157000D01*
X00116000D02*
X00122250D01*
X00111050Y00294050D02*
X00116000Y00299000D01*
X00100000Y00294050D02*
X00111050D01*
X00091000Y00411000D02*
X00139000D01*
X00065750Y00385750D02*
X00091000Y00411000D01*
X00065750Y00369000D02*
Y00385750D01*
X00066000Y00353750D02*
Y00368750D01*
X00065750Y00369000D02*
X00066000Y00368750D01*
X00050000Y00353750D02*
X00066000D01*
X00050000Y00338250D02*
X00066000D01*
X00050000Y00324750D02*
Y00338250D01*
X00050000Y00338250D02*
X00050000Y00338250D01*
Y00294050D02*
Y00309250D01*
X00098000Y00253988D02*
X00099962Y00255950D01*
X00098000Y00246000D02*
Y00253988D01*
X00099962Y00255950D02*
X00100000D01*
X00097750Y00245750D02*
X00098000Y00246000D01*
X00097750Y00235000D02*
Y00245750D01*
X00050000Y00245000D02*
Y00255950D01*
X00051155Y00236095D02*
Y00243845D01*
Y00236095D02*
X00052250Y00235000D01*
X00050000Y00245000D02*
X00051155Y00243845D01*
X00052250Y00224750D02*
Y00235000D01*
X00057250Y00210000D02*
Y00219750D01*
X00052250Y00224750D02*
X00057250Y00219750D01*
X00072750Y00196250D02*
Y00210000D01*
X00075000Y00150000D02*
Y00194000D01*
X00072750Y00196250D02*
X00075000Y00194000D01*
D29*
X00440000Y00079001D02*
D03*
X00475000D02*
D03*
D36*
X00524600Y00174600D02*
D03*
X00575400D02*
D03*
Y00225400D02*
D03*
X00524600D02*
D03*
X00049600Y00124600D02*
D03*
X00100400D02*
D03*
Y00175400D02*
D03*
X00049600D02*
D03*
X00144600Y00024600D02*
D03*
X00195400D02*
D03*
Y00075400D02*
D03*
X00144600D02*
D03*
D40*
X00327000Y00255250D02*
D03*
Y00270750D02*
D03*
X00175000Y00227250D02*
D03*
Y00242750D02*
D03*
X00568000Y00323750D02*
D03*
Y00308250D02*
D03*
X00418000Y00320750D02*
D03*
Y00305250D02*
D03*
X00550000Y00308250D02*
D03*
Y00323750D02*
D03*
X00066000Y00338250D02*
D03*
Y00353750D02*
D03*
X00550000Y00352750D02*
D03*
Y00337250D02*
D03*
X00050000Y00309250D02*
D03*
Y00324750D02*
D03*
X00050000Y00338250D02*
D03*
Y00353750D02*
D03*
X00510000Y00407750D02*
D03*
Y00392250D02*
D03*
X00434000Y00305250D02*
D03*
Y00320750D02*
D03*
X00534000Y00323750D02*
D03*
Y00308250D02*
D03*
X00241000Y00254250D02*
D03*
Y00269750D02*
D03*
X00257000D02*
D03*
Y00254250D02*
D03*
X00246000Y00134250D02*
D03*
Y00149750D02*
D03*
X00310000Y00255250D02*
D03*
Y00270750D02*
D03*
X00262000Y00149750D02*
D03*
Y00134250D02*
D03*
X00294000Y00255250D02*
D03*
Y00270750D02*
D03*
X00262000Y00121750D02*
D03*
Y00106250D02*
D03*
X00197000Y00227250D02*
D03*
Y00242750D02*
D03*
X00230000Y00149750D02*
D03*
Y00134250D02*
D03*
X00278000Y00270750D02*
D03*
Y00255250D02*
D03*
Y00133250D02*
D03*
Y00148750D02*
D03*
D41*
X00178250Y00211000D02*
D03*
X00193750D02*
D03*
X00490750Y00200000D02*
D03*
X00475250D02*
D03*
X00072750Y00210000D02*
D03*
X00057250D02*
D03*
X00050250Y00369000D02*
D03*
X00065750D02*
D03*
X00097750Y00235000D02*
D03*
X00082250D02*
D03*
X00052250D02*
D03*
X00067750D02*
D03*
X00122250Y00299000D02*
D03*
X00137750D02*
D03*
X00343750Y00102000D02*
D03*
X00328250D02*
D03*
X00137750Y00282000D02*
D03*
X00122250D02*
D03*
X00012250D02*
D03*
X00027750D02*
D03*
X00302750Y00102000D02*
D03*
X00287250D02*
D03*
X00430750Y00212000D02*
D03*
X00415250D02*
D03*
D42*
X00429050Y00285000D02*
D03*
X00416350D02*
D03*
X00403650D02*
D03*
X00390950D02*
D03*
X00429050Y00235000D02*
D03*
X00416350D02*
D03*
X00403650D02*
D03*
X00390950D02*
D03*
D43*
X00100000Y00255950D02*
D03*
Y00268650D02*
D03*
Y00281350D02*
D03*
Y00294050D02*
D03*
X00050000Y00255950D02*
D03*
Y00268650D02*
D03*
Y00281350D02*
D03*
Y00294050D02*
D03*
D44*
X00174000Y00261000D02*
D03*
X00196000D02*
D03*
D45*
X00297500Y00233000D02*
D03*
X00291000D02*
D03*
X00284500D02*
D03*
X00278000D02*
D03*
X00271500D02*
D03*
X00265000D02*
D03*
X00258500D02*
D03*
X00297500Y00177000D02*
D03*
X00291000D02*
D03*
X00284500D02*
D03*
X00278000D02*
D03*
X00271500D02*
D03*
X00265000D02*
D03*
X00258500D02*
D03*
D46*
X00325000Y00084500D02*
D03*
Y00053500D02*
D03*
X00347000D02*
D03*
Y00084500D02*
D03*
X00303000D02*
D03*
Y00053500D02*
D03*
D47*
X00429025Y00235025D02*
X00429050Y00235000D01*
X00429025Y00235025D02*
Y00248975D01*
X00429000Y00249000D02*
X00429025Y00248975D01*
X00390950Y00285000D02*
X00390975Y00284975D01*
Y00270025D02*
X00391000Y00270000D01*
X00390975Y00270025D02*
Y00284975D01*
X00510000Y00407750D02*
Y00416000D01*
X00042000Y00369000D02*
X00050250D01*
X00012000Y00272108D02*
X00012250Y00272358D01*
Y00282000D01*
X00012000Y00272000D02*
Y00272108D01*
X00067750Y00235000D02*
Y00243250D01*
X00082250Y00235000D02*
Y00243250D01*
X00137750Y00282000D02*
X00146000D01*
X00230000Y00126000D02*
Y00134250D01*
X00287250Y00102000D02*
Y00110250D01*
X00278000Y00133250D02*
X00286250D01*
X00284000Y00220000D02*
Y00220108D01*
X00284500Y00220608D01*
Y00233000D01*
X00284500Y00233000D01*
X00241000Y00246000D02*
Y00254250D01*
X00278000Y00270750D02*
Y00279000D01*
X00416350Y00221300D02*
Y00235000D01*
X00415250Y00212000D02*
Y00220200D01*
X00416350Y00221300D01*
X00415000Y00202000D02*
Y00202108D01*
X00415250Y00202358D02*
Y00212000D01*
X00415000Y00202108D02*
X00415250Y00202358D01*
X00430750Y00212000D02*
X00442000D01*
X00434000Y00320750D02*
Y00329000D01*
X00418000Y00320750D02*
Y00330000D01*
X00534000Y00299000D02*
Y00308250D01*
X00568000Y00323750D02*
Y00334000D01*
Y00299000D02*
Y00308250D01*
X00550000D02*
X00568000D01*
X00278000Y00162875D02*
Y00177000D01*
Y00148750D02*
Y00160000D01*
Y00233000D02*
Y00247000D01*
Y00255250D01*
X00122000Y00270108D02*
X00122250Y00270358D01*
X00122000Y00270000D02*
Y00270108D01*
X00122250Y00270358D02*
Y00282000D01*
X00105500Y00281350D02*
X00106150Y00282000D01*
X00122250D01*
X00100000Y00281350D02*
X00105500D01*
X00027750Y00281850D02*
Y00282000D01*
Y00271858D02*
Y00281850D01*
X00027000Y00271108D02*
X00027750Y00271858D01*
X00027000Y00271000D02*
Y00271108D01*
X00028250Y00281350D02*
X00050000D01*
X00027750Y00281850D02*
X00028250Y00281350D01*
D48*
X00278000Y00160000D02*
Y00162875D01*
D49*
X00550000Y00050000D02*
D03*
X00050000D02*
D03*
X00550000Y00550000D02*
D03*
X00050000D02*
D03*
D50*
X00550000Y00200000D02*
D03*
X00075000Y00150000D02*
D03*
X00170000Y00050000D02*
D03*
D51*
X00461000Y00411000D02*
D03*
Y00453000D02*
D03*
X00419000Y00411000D02*
D03*
X00181000D02*
D03*
X00139000Y00453000D02*
D03*
Y00411000D02*
D03*
D52*
X00550000Y00415400D02*
D03*
D53*
Y00390000D02*
D03*
D54*
X00251600Y00316000D02*
D03*
D55*
X00277000D02*
D03*
X00302400D02*
D03*
D56*
X00412500Y00130000D02*
D03*
X00482500D02*
D03*
D57*
X00387500D02*
D03*
X00457500D02*
D03*
D58*
X00405000Y00079001D02*
D03*
D59*
X00570002Y00510001D02*
D03*
Y00490001D02*
D03*
Y00470001D02*
D03*
Y00450001D02*
D03*
Y00430001D02*
D03*
Y00410001D02*
D03*
Y00370001D02*
D03*
X00550002Y00510001D02*
D03*
Y00490001D02*
D03*
Y00470001D02*
D03*
Y00450001D02*
D03*
Y00430001D02*
D03*
X00530002Y00510001D02*
D03*
Y00490001D02*
D03*
Y00470001D02*
D03*
Y00450001D02*
D03*
Y00430001D02*
D03*
Y00410001D02*
D03*
Y00370001D02*
D03*
X00510002Y00570001D02*
D03*
Y00550001D02*
D03*
Y00530001D02*
D03*
Y00510001D02*
D03*
Y00490001D02*
D03*
Y00470001D02*
D03*
Y00450001D02*
D03*
Y00430001D02*
D03*
Y00370001D02*
D03*
X00490002Y00570001D02*
D03*
Y00550001D02*
D03*
Y00530001D02*
D03*
Y00510001D02*
D03*
Y00490001D02*
D03*
Y00470001D02*
D03*
Y00450001D02*
D03*
Y00430001D02*
D03*
Y00410001D02*
D03*
Y00370001D02*
D03*
X00470002Y00570001D02*
D03*
Y00550001D02*
D03*
Y00530001D02*
D03*
Y00510001D02*
D03*
Y00490001D02*
D03*
Y00470001D02*
D03*
Y00430001D02*
D03*
Y00390001D02*
D03*
Y00370001D02*
D03*
X00450002Y00570001D02*
D03*
Y00550001D02*
D03*
Y00530001D02*
D03*
Y00510001D02*
D03*
Y00490001D02*
D03*
Y00470001D02*
D03*
Y00430001D02*
D03*
Y00390001D02*
D03*
Y00370001D02*
D03*
X00430002Y00570001D02*
D03*
Y00550001D02*
D03*
Y00530001D02*
D03*
Y00510001D02*
D03*
Y00490001D02*
D03*
Y00470001D02*
D03*
Y00450001D02*
D03*
Y00430001D02*
D03*
Y00390001D02*
D03*
Y00370001D02*
D03*
X00410002Y00570001D02*
D03*
Y00550001D02*
D03*
Y00530001D02*
D03*
Y00510001D02*
D03*
Y00490001D02*
D03*
Y00470001D02*
D03*
Y00450001D02*
D03*
Y00430001D02*
D03*
Y00390001D02*
D03*
Y00370001D02*
D03*
X00390002Y00570001D02*
D03*
Y00550001D02*
D03*
Y00530001D02*
D03*
Y00510001D02*
D03*
Y00490001D02*
D03*
Y00470001D02*
D03*
Y00450001D02*
D03*
Y00430001D02*
D03*
Y00410001D02*
D03*
Y00390001D02*
D03*
Y00370001D02*
D03*
X00370001Y00570001D02*
D03*
Y00550001D02*
D03*
Y00530001D02*
D03*
Y00510001D02*
D03*
Y00490001D02*
D03*
Y00470001D02*
D03*
Y00450001D02*
D03*
Y00430001D02*
D03*
Y00410001D02*
D03*
Y00390001D02*
D03*
Y00370001D02*
D03*
X00350001Y00570001D02*
D03*
Y00550001D02*
D03*
Y00530001D02*
D03*
Y00510001D02*
D03*
Y00490001D02*
D03*
Y00470001D02*
D03*
Y00450001D02*
D03*
Y00430001D02*
D03*
Y00410001D02*
D03*
Y00390001D02*
D03*
Y00370001D02*
D03*
X00330001Y00570001D02*
D03*
Y00550001D02*
D03*
Y00530001D02*
D03*
Y00510001D02*
D03*
Y00490001D02*
D03*
Y00470001D02*
D03*
Y00450001D02*
D03*
Y00430001D02*
D03*
Y00410001D02*
D03*
Y00390001D02*
D03*
Y00370001D02*
D03*
X00310002Y00570001D02*
D03*
Y00550001D02*
D03*
Y00530001D02*
D03*
Y00510001D02*
D03*
Y00490001D02*
D03*
Y00470001D02*
D03*
Y00450001D02*
D03*
Y00430001D02*
D03*
Y00410001D02*
D03*
Y00390001D02*
D03*
Y00370001D02*
D03*
X00290002Y00570001D02*
D03*
Y00550001D02*
D03*
Y00530001D02*
D03*
Y00510001D02*
D03*
Y00490001D02*
D03*
Y00470001D02*
D03*
Y00450001D02*
D03*
Y00430001D02*
D03*
Y00410001D02*
D03*
Y00390001D02*
D03*
Y00370001D02*
D03*
X00270002Y00570001D02*
D03*
Y00550001D02*
D03*
Y00530001D02*
D03*
Y00510001D02*
D03*
Y00490001D02*
D03*
Y00470001D02*
D03*
Y00450001D02*
D03*
Y00430001D02*
D03*
Y00410001D02*
D03*
Y00390001D02*
D03*
Y00370001D02*
D03*
X00250002Y00570001D02*
D03*
Y00550001D02*
D03*
Y00530001D02*
D03*
Y00510001D02*
D03*
Y00490001D02*
D03*
Y00470001D02*
D03*
Y00450001D02*
D03*
Y00430001D02*
D03*
Y00410001D02*
D03*
Y00390001D02*
D03*
Y00370001D02*
D03*
X00230002Y00570001D02*
D03*
Y00550001D02*
D03*
Y00530001D02*
D03*
Y00510001D02*
D03*
Y00490001D02*
D03*
Y00470001D02*
D03*
Y00450001D02*
D03*
Y00430001D02*
D03*
Y00410001D02*
D03*
Y00390001D02*
D03*
Y00370001D02*
D03*
X00210002Y00570001D02*
D03*
Y00550001D02*
D03*
Y00530001D02*
D03*
Y00510001D02*
D03*
Y00490001D02*
D03*
Y00470001D02*
D03*
Y00450001D02*
D03*
Y00430001D02*
D03*
Y00410001D02*
D03*
Y00390001D02*
D03*
Y00370001D02*
D03*
X00190001Y00570001D02*
D03*
Y00550001D02*
D03*
Y00530001D02*
D03*
Y00510001D02*
D03*
Y00490001D02*
D03*
Y00470001D02*
D03*
Y00450001D02*
D03*
Y00430001D02*
D03*
Y00390001D02*
D03*
Y00370001D02*
D03*
X00170001Y00570001D02*
D03*
Y00550001D02*
D03*
Y00530001D02*
D03*
Y00510001D02*
D03*
Y00490001D02*
D03*
Y00470001D02*
D03*
Y00450001D02*
D03*
Y00430001D02*
D03*
Y00390001D02*
D03*
Y00370001D02*
D03*
X00150001Y00570001D02*
D03*
Y00550001D02*
D03*
Y00530001D02*
D03*
Y00510001D02*
D03*
Y00490001D02*
D03*
Y00470001D02*
D03*
Y00390001D02*
D03*
Y00370001D02*
D03*
X00130001Y00570001D02*
D03*
Y00550001D02*
D03*
Y00530001D02*
D03*
Y00510001D02*
D03*
Y00490001D02*
D03*
Y00470001D02*
D03*
Y00390001D02*
D03*
Y00370001D02*
D03*
X00110001Y00570001D02*
D03*
Y00550001D02*
D03*
Y00530001D02*
D03*
Y00510001D02*
D03*
Y00490001D02*
D03*
Y00470001D02*
D03*
Y00450001D02*
D03*
Y00390001D02*
D03*
Y00370001D02*
D03*
X00090001Y00570001D02*
D03*
Y00550001D02*
D03*
Y00530001D02*
D03*
Y00510001D02*
D03*
Y00490001D02*
D03*
Y00470001D02*
D03*
Y00450001D02*
D03*
Y00390001D02*
D03*
Y00370001D02*
D03*
X00070001Y00510001D02*
D03*
Y00490001D02*
D03*
Y00470001D02*
D03*
Y00450001D02*
D03*
Y00410001D02*
D03*
X00050001Y00510001D02*
D03*
Y00490001D02*
D03*
Y00470001D02*
D03*
Y00450001D02*
D03*
Y00410001D02*
D03*
Y00390001D02*
D03*
X00030001Y00510001D02*
D03*
Y00490001D02*
D03*
Y00470001D02*
D03*
Y00450001D02*
D03*
Y00410001D02*
D03*
Y00390001D02*
D03*
Y00370001D02*
D03*
X00010001Y00570001D02*
D03*
Y00550001D02*
D03*
Y00530001D02*
D03*
Y00510001D02*
D03*
Y00490001D02*
D03*
Y00470001D02*
D03*
Y00450001D02*
D03*
Y00410001D02*
D03*
Y00390001D02*
D03*
Y00370001D02*
D03*
D60*
X00238000Y00119000D02*
D03*
X00067000Y00267000D02*
D03*
X00429000Y00249000D02*
D03*
X00391000Y00270000D02*
D03*
X00510000Y00416000D02*
D03*
X00042000Y00369000D02*
D03*
X00012000Y00272000D02*
D03*
X00067750Y00243250D02*
D03*
X00082250D02*
D03*
X00146000Y00282000D02*
D03*
X00230000Y00126000D02*
D03*
X00287250Y00110250D02*
D03*
X00286250Y00133250D02*
D03*
X00284000Y00220000D02*
D03*
X00241000Y00246000D02*
D03*
X00278000Y00279000D02*
D03*
X00415000Y00202000D02*
D03*
X00442000Y00212000D02*
D03*
X00434000Y00329000D02*
D03*
X00418000Y00330000D02*
D03*
X00534000Y00299000D02*
D03*
X00568000Y00334000D02*
D03*
Y00299000D02*
D03*
X00158000Y00231000D02*
D03*
X00251000Y00164000D02*
D03*
X00278000Y00160000D02*
D03*
X00250000Y00114000D02*
D03*
X00297000Y00197000D02*
D03*
X00271500Y00215500D02*
D03*
X00294000Y00280000D02*
D03*
X00250000Y00243000D02*
D03*
X00278000Y00247000D02*
D03*
X00206000Y00219000D02*
D03*
X00204000Y00211000D02*
D03*
X00122000Y00270000D02*
D03*
X00027000Y00271000D02*
D03*
M02*
