M48
;Layer_Color=9474304
;FILE_FORMAT=4:4
METRIC
;TYPE=PLATED
T1F00S00C0.2000
T2F00S00C0.3000
T3F00S00C0.8000
T4F00S00C1.1000
T5F00S00C1.1700
T6F00S00C1.2000
T7F00S00C1.4000
T8F00S00C1.5200
T9F00S00C3.2000
%
T01
X00230000Y00126000
X00238000Y00119000
X00250000Y00114000
X00287250Y00110250
X00286250Y00133250
X00278000Y00160000
X00251000Y00164000
X00415000Y00202000
X00442000Y00212000
X00429000Y00249000
X00391000Y00270000
X00418000Y00330000
X00434000Y00329000
X00534000Y00299000
X00568000
Y00334000
X00510000Y00416000
X00294000Y00280000
X00278000Y00279000
Y00247000
X00250000Y00243000
X00241000Y00246000
X00271500Y00215500
X00284000Y00220000
X00297000Y00197000
X00204000Y00211000
X00206000Y00219000
X00158000Y00231000
X00146000Y00282000
X00122000Y00270000
X00067000Y00267000
X00067750Y00243250
X00082250
X00027000Y00271000
X00012000Y00272000
X00042000Y00369000
T02
X00310002Y00370001
X00330001
X00350001
X00370001
X00390002
X00410002
X00430002
X00450002
X00470002
X00490002
X00510002
X00530002
X00570002
Y00410001
Y00430001
Y00450001
Y00470001
Y00490001
Y00510001
X00550002
Y00490001
Y00470001
Y00450001
Y00430001
X00530002
Y00450001
Y00470001
Y00490001
Y00510001
X00510002
Y00530001
Y00550001
Y00570001
X00490002
Y00550001
Y00530001
Y00510001
Y00490001
X00510002
Y00470001
Y00450001
Y00430001
X00490002
Y00450001
Y00470001
X00470002
Y00490001
Y00510001
Y00530001
Y00550001
Y00570001
X00450002
Y00550001
Y00530001
Y00510001
Y00490001
Y00470001
X00430002
Y00490001
Y00510001
Y00530001
Y00550001
Y00570001
X00410002
Y00550001
Y00530001
Y00510001
Y00490001
Y00470001
Y00450001
X00430002
Y00430001
X00450002
X00470002
X00490002Y00410001
X00530002
X00470002Y00390001
X00450002
X00430002
X00410002
X00390002
Y00410001
Y00430001
X00410002
X00390002Y00450001
Y00470001
Y00490001
Y00510001
Y00530001
Y00550001
Y00570001
X00370001
Y00550001
Y00530001
Y00510001
Y00490001
Y00470001
Y00450001
Y00430001
Y00410001
Y00390001
X00350001
Y00410001
Y00430001
Y00450001
Y00470001
Y00490001
Y00510001
Y00530001
Y00550001
Y00570001
X00330001
Y00550001
Y00530001
Y00510001
Y00490001
Y00470001
Y00450001
Y00430001
Y00410001
Y00390001
X00310002
Y00410001
Y00430001
Y00450001
Y00470001
Y00490001
Y00510001
Y00530001
Y00550001
Y00570001
X00290002
Y00550001
Y00530001
Y00510001
Y00490001
Y00470001
Y00450001
Y00430001
Y00410001
Y00390001
Y00370001
X00270002
Y00390001
Y00410001
Y00430001
Y00450001
Y00470001
Y00490001
Y00510001
Y00530001
Y00550001
Y00570001
X00250002
Y00550001
Y00530001
Y00510001
Y00490001
Y00470001
Y00450001
Y00430001
Y00410001
Y00390001
Y00370001
X00230002
Y00390001
Y00410001
Y00430001
Y00450001
Y00470001
Y00490001
Y00510001
Y00530001
Y00550001
Y00570001
X00210002
Y00550001
Y00530001
Y00510001
Y00490001
Y00470001
Y00450001
Y00430001
Y00410001
Y00390001
Y00370001
X00190001
Y00390001
X00170001
Y00370001
X00150001
Y00390001
X00130001
Y00370001
X00110001
Y00390001
X00090001
Y00370001
X00070001Y00410001
X00050001
Y00390001
X00030001
Y00410001
X00010001
Y00390001
Y00370001
X00030001
Y00450001
X00050001
X00070001
X00090001
X00110001
Y00470001
X00130001
X00150001
X00170001
X00190001
Y00490001
Y00510001
Y00530001
Y00550001
Y00570001
X00170001
Y00550001
Y00530001
Y00510001
Y00490001
X00150001
Y00510001
Y00530001
Y00550001
Y00570001
X00130001
Y00550001
Y00530001
Y00510001
Y00490001
X00110001
Y00510001
Y00530001
Y00550001
Y00570001
X00090001
Y00550001
Y00530001
Y00510001
Y00490001
Y00470001
X00070001
Y00490001
Y00510001
X00050001
Y00490001
Y00470001
X00030001
Y00490001
Y00510001
X00010001
Y00530001
Y00550001
Y00570001
Y00490001
Y00470001
Y00450001
X00170001
X00190001
Y00430001
X00170001
T03
X00387500Y00130000
X00412500
X00457500
X00482500
T04
X00419000Y00411000
X00461000
Y00453000
X00181000Y00411000
X00139000
Y00453000
T05
X00170000Y00050000
X00075000Y00150000
X00550000Y00200000
T06
X00550000Y00390000
Y00415400
X00302400Y00316000
X00277000
X00251600
T07
X00405000Y00079001
X00440000
X00475000
T08
X00144600Y00024600
Y00075400
X00195400
Y00024600
X00100400Y00124600
Y00175400
X00049600
Y00124600
X00524600Y00174600
X00575400
Y00225400
X00524600
T09
X00050000Y00050000
X00550000
Y00550000
X00050000
M30
