G04*
G04 #@! TF.GenerationSoftware,Altium Limited,Altium Designer,21.9.1 (22)*
G04*
G04 Layer_Physical_Order=4*
G04 Layer_Color=16711680*
%FSAX44Y44*%
%MOMM*%
G71*
G04*
G04 #@! TF.SameCoordinates,0D14A302-91A5-4368-AE17-AEAA60D505F3*
G04*
G04*
G04 #@! TF.FilePolarity,Positive*
G04*
G01*
G75*
%ADD12C,0.2000*%
%ADD18C,1.0000*%
%ADD29C,2.1000*%
%ADD36C,2.2000*%
%ADD49C,5.0000*%
%ADD50C,1.6000*%
%ADD51C,2.0000*%
%ADD52O,3.0000X1.9000*%
%ADD53R,3.0000X1.9000*%
%ADD54R,1.9000X3.0000*%
%ADD55O,1.9000X3.0000*%
%ADD56R,1.3000X1.3000*%
%ADD57C,1.3000*%
%ADD58R,2.1000X2.1000*%
%ADD59C,0.7000*%
%ADD60C,0.5400*%
G36*
X00592625Y00598654D02*
X00594263Y00597976D01*
X00595737Y00596991D01*
X00596991Y00595737D01*
X00597976Y00594263D01*
X00598654Y00592625D01*
X00599000Y00590886D01*
Y00590000D01*
Y00010049D01*
Y00009155D01*
X00598651Y00007401D01*
X00597967Y00005749D01*
X00596973Y00004263D01*
X00595709Y00002998D01*
X00594222Y00002005D01*
X00592570Y00001320D01*
X00590817Y00000972D01*
X00589923D01*
X00215000Y00001000D01*
X00009114D01*
X00007375Y00001346D01*
X00005737Y00002024D01*
X00004263Y00003009D01*
X00003009Y00004263D01*
X00002024Y00005737D01*
X00001346Y00007375D01*
X00001000Y00009114D01*
Y00010000D01*
Y00590000D01*
Y00590886D01*
X00001346Y00592625D01*
X00002024Y00594263D01*
X00003009Y00595737D01*
X00004263Y00596991D01*
X00005737Y00597976D01*
X00007375Y00598654D01*
X00009114Y00599000D01*
X00590886D01*
X00592625Y00598654D01*
D02*
G37*
%LPC*%
G36*
X00555500Y00426495D02*
X00551500D01*
Y00416900D01*
X00566397D01*
X00566217Y00418272D01*
X00565108Y00420947D01*
X00563345Y00423245D01*
X00561047Y00425009D01*
X00558372Y00426117D01*
X00555500Y00426495D01*
D02*
G37*
G36*
X00548500D02*
X00544500D01*
X00541628Y00426117D01*
X00538952Y00425009D01*
X00536655Y00423245D01*
X00534892Y00420947D01*
X00533783Y00418272D01*
X00533603Y00416900D01*
X00548500D01*
Y00426495D01*
D02*
G37*
G36*
X00566397Y00413900D02*
X00551500D01*
Y00404305D01*
X00555500D01*
X00558372Y00404683D01*
X00561047Y00405792D01*
X00563345Y00407555D01*
X00565108Y00409853D01*
X00566217Y00412528D01*
X00566397Y00413900D01*
D02*
G37*
G36*
X00548500D02*
X00533603D01*
X00533783Y00412528D01*
X00534892Y00409853D01*
X00536655Y00407555D01*
X00538952Y00405792D01*
X00541628Y00404683D01*
X00544500Y00404305D01*
X00548500D01*
Y00413900D01*
D02*
G37*
G36*
X00462580Y00423000D02*
X00459420D01*
X00456368Y00422182D01*
X00453632Y00420602D01*
X00451398Y00418368D01*
X00449818Y00415632D01*
X00449000Y00412580D01*
Y00409420D01*
X00449818Y00406368D01*
X00451398Y00403632D01*
X00453632Y00401398D01*
X00456368Y00399818D01*
X00459420Y00399000D01*
X00462580D01*
X00465632Y00399818D01*
X00468368Y00401398D01*
X00470602Y00403632D01*
X00472182Y00406368D01*
X00473000Y00409420D01*
Y00412580D01*
X00472182Y00415632D01*
X00470602Y00418368D01*
X00468368Y00420602D01*
X00465632Y00422182D01*
X00462580Y00423000D01*
D02*
G37*
G36*
X00140580D02*
X00137420D01*
X00134368Y00422182D01*
X00131632Y00420602D01*
X00129398Y00418368D01*
X00127818Y00415632D01*
X00127000Y00412580D01*
Y00409420D01*
X00127818Y00406368D01*
X00129398Y00403632D01*
X00131632Y00401398D01*
X00134368Y00399818D01*
X00137420Y00399000D01*
X00140580D01*
X00143632Y00399818D01*
X00146368Y00401398D01*
X00148602Y00403632D01*
X00150182Y00406368D01*
X00151000Y00409420D01*
Y00412580D01*
X00150182Y00415632D01*
X00148602Y00418368D01*
X00146368Y00420602D01*
X00143632Y00422182D01*
X00140580Y00423000D01*
D02*
G37*
G36*
X00567000Y00401500D02*
X00533000D01*
Y00378500D01*
X00567000D01*
Y00401500D01*
D02*
G37*
G36*
X00419042Y00335240D02*
X00416958D01*
X00415032Y00334442D01*
X00413558Y00332968D01*
X00412760Y00331042D01*
Y00328958D01*
X00413558Y00327032D01*
X00415032Y00325558D01*
X00416958Y00324760D01*
X00419042D01*
X00420968Y00325558D01*
X00422442Y00327032D01*
X00423240Y00328958D01*
Y00331042D01*
X00422442Y00332968D01*
X00420968Y00334442D01*
X00419042Y00335240D01*
D02*
G37*
G36*
X00303900Y00332397D02*
Y00317500D01*
X00313495D01*
Y00321500D01*
X00313117Y00324372D01*
X00312008Y00327048D01*
X00310245Y00329345D01*
X00307947Y00331109D01*
X00305272Y00332217D01*
X00303900Y00332397D01*
D02*
G37*
G36*
X00300900D02*
X00299528Y00332217D01*
X00296853Y00331109D01*
X00294555Y00329345D01*
X00292792Y00327048D01*
X00291683Y00324372D01*
X00291305Y00321500D01*
Y00317500D01*
X00300900D01*
Y00332397D01*
D02*
G37*
G36*
X00313495Y00314500D02*
X00303900D01*
Y00299603D01*
X00305272Y00299783D01*
X00307947Y00300891D01*
X00310245Y00302655D01*
X00312008Y00304953D01*
X00313117Y00307628D01*
X00313495Y00310500D01*
Y00314500D01*
D02*
G37*
G36*
X00300900D02*
X00291305D01*
Y00310500D01*
X00291683Y00307628D01*
X00292792Y00304953D01*
X00294555Y00302655D01*
X00296853Y00300891D01*
X00299528Y00299783D01*
X00300900Y00299603D01*
Y00314500D01*
D02*
G37*
G36*
X00569042Y00304240D02*
X00566958D01*
X00565032Y00303442D01*
X00563558Y00301968D01*
X00562760Y00300042D01*
Y00297958D01*
X00563558Y00296032D01*
X00565032Y00294558D01*
X00566958Y00293760D01*
X00569042D01*
X00570968Y00294558D01*
X00572442Y00296032D01*
X00573240Y00297958D01*
Y00300042D01*
X00572442Y00301968D01*
X00570968Y00303442D01*
X00569042Y00304240D01*
D02*
G37*
G36*
X00028042Y00276240D02*
X00025958D01*
X00024032Y00275442D01*
X00022558Y00273968D01*
X00021760Y00272042D01*
Y00269958D01*
X00022558Y00268032D01*
X00024032Y00266558D01*
X00025958Y00265760D01*
X00028042D01*
X00029968Y00266558D01*
X00031442Y00268032D01*
X00032240Y00269958D01*
Y00272042D01*
X00031442Y00273968D01*
X00029968Y00275442D01*
X00028042Y00276240D01*
D02*
G37*
G36*
X00279042Y00252240D02*
X00276958D01*
X00275032Y00251442D01*
X00273558Y00249968D01*
X00272760Y00248042D01*
Y00245958D01*
X00273558Y00244032D01*
X00275032Y00242558D01*
X00276958Y00241760D01*
X00279042D01*
X00280968Y00242558D01*
X00282442Y00244032D01*
X00283240Y00245958D01*
Y00248042D01*
X00282442Y00249968D01*
X00280968Y00251442D01*
X00279042Y00252240D01*
D02*
G37*
G36*
X00277000Y00333099D02*
X00273998Y00332704D01*
X00271200Y00331545D01*
X00268798Y00329702D01*
X00266955Y00327300D01*
X00265796Y00324502D01*
X00265401Y00321500D01*
Y00310500D01*
X00265796Y00307498D01*
X00266955Y00304700D01*
X00268798Y00302298D01*
X00271200Y00300455D01*
X00273998Y00299296D01*
X00274451Y00299236D01*
Y00292056D01*
X00248198Y00265802D01*
X00247645Y00264975D01*
X00247451Y00264000D01*
Y00247616D01*
X00247032Y00247442D01*
X00245558Y00245968D01*
X00244760Y00244042D01*
Y00241958D01*
X00245558Y00240032D01*
X00247032Y00238558D01*
X00248958Y00237760D01*
X00251042D01*
X00252968Y00238558D01*
X00254442Y00240032D01*
X00255240Y00241958D01*
Y00244042D01*
X00254442Y00245968D01*
X00252968Y00247442D01*
X00252549Y00247616D01*
Y00262944D01*
X00278802Y00289198D01*
X00279355Y00290025D01*
X00279549Y00291000D01*
Y00299236D01*
X00280002Y00299296D01*
X00282800Y00300455D01*
X00285202Y00302298D01*
X00287045Y00304700D01*
X00288204Y00307498D01*
X00288599Y00310500D01*
Y00321500D01*
X00288204Y00324502D01*
X00287045Y00327300D01*
X00285202Y00329702D01*
X00282800Y00331545D01*
X00280002Y00332704D01*
X00277000Y00333099D01*
D02*
G37*
G36*
X00263100Y00333000D02*
X00240100D01*
Y00299000D01*
X00247451D01*
Y00287056D01*
X00231198Y00270802D01*
X00230645Y00269975D01*
X00230451Y00269000D01*
Y00233549D01*
X00162616D01*
X00162442Y00233968D01*
X00160968Y00235442D01*
X00159042Y00236240D01*
X00156958D01*
X00155032Y00235442D01*
X00153558Y00233968D01*
X00152760Y00232042D01*
Y00229958D01*
X00153558Y00228032D01*
X00155032Y00226558D01*
X00156958Y00225760D01*
X00159042D01*
X00160968Y00226558D01*
X00162442Y00228032D01*
X00162616Y00228451D01*
X00235944D01*
X00248451Y00215944D01*
Y00168616D01*
X00248032Y00168442D01*
X00246558Y00166968D01*
X00245760Y00165042D01*
Y00162958D01*
X00246558Y00161032D01*
X00248032Y00159558D01*
X00249958Y00158760D01*
X00252042D01*
X00253968Y00159558D01*
X00255442Y00161032D01*
X00256240Y00162958D01*
Y00165042D01*
X00255442Y00166968D01*
X00253968Y00168442D01*
X00253549Y00168616D01*
Y00217000D01*
X00253355Y00217975D01*
X00252802Y00218802D01*
X00238802Y00232802D01*
X00237976Y00233355D01*
X00237000Y00233549D01*
X00235549D01*
Y00267944D01*
X00251802Y00284198D01*
X00252355Y00285025D01*
X00252549Y00286000D01*
Y00299000D01*
X00263100D01*
Y00333000D01*
D02*
G37*
G36*
X00577046Y00237900D02*
X00576900D01*
Y00226900D01*
X00587900D01*
Y00227046D01*
X00587048Y00230225D01*
X00585402Y00233075D01*
X00583075Y00235403D01*
X00580225Y00237048D01*
X00577046Y00237900D01*
D02*
G37*
G36*
X00573900D02*
X00573754D01*
X00570575Y00237048D01*
X00567725Y00235403D01*
X00565397Y00233075D01*
X00563752Y00230225D01*
X00562900Y00227046D01*
Y00226900D01*
X00573900D01*
Y00237900D01*
D02*
G37*
G36*
X00526246D02*
X00526100D01*
Y00226900D01*
X00537100D01*
Y00227046D01*
X00536248Y00230225D01*
X00534603Y00233075D01*
X00532275Y00235403D01*
X00529425Y00237048D01*
X00526246Y00237900D01*
D02*
G37*
G36*
X00523100D02*
X00522954D01*
X00519775Y00237048D01*
X00516925Y00235403D01*
X00514598Y00233075D01*
X00512952Y00230225D01*
X00512100Y00227046D01*
Y00226900D01*
X00523100D01*
Y00237900D01*
D02*
G37*
G36*
X00295042Y00285240D02*
X00292958D01*
X00291032Y00284442D01*
X00289558Y00282968D01*
X00288760Y00281042D01*
Y00278958D01*
X00289558Y00277032D01*
X00291032Y00275558D01*
X00291451Y00275384D01*
Y00239881D01*
X00275958Y00224387D01*
X00275405Y00223560D01*
X00275268Y00222873D01*
X00272962Y00220566D01*
X00272542Y00220740D01*
X00270458D01*
X00268532Y00219942D01*
X00267058Y00218468D01*
X00266260Y00216542D01*
Y00214458D01*
X00267058Y00212532D01*
X00268532Y00211058D01*
X00270458Y00210260D01*
X00272542D01*
X00274468Y00211058D01*
X00275942Y00212532D01*
X00276740Y00214458D01*
Y00216542D01*
X00276566Y00216962D01*
X00279562Y00219958D01*
X00279932Y00220510D01*
X00280115Y00220785D01*
X00280252Y00221472D01*
X00295802Y00237022D01*
X00296355Y00237849D01*
X00296549Y00238825D01*
Y00275384D01*
X00296968Y00275558D01*
X00298442Y00277032D01*
X00299240Y00278958D01*
Y00281042D01*
X00298442Y00282968D01*
X00296968Y00284442D01*
X00295042Y00285240D01*
D02*
G37*
G36*
X00587900Y00223900D02*
X00576900D01*
Y00212900D01*
X00577046D01*
X00580225Y00213752D01*
X00583075Y00215397D01*
X00585402Y00217725D01*
X00587048Y00220575D01*
X00587900Y00223754D01*
Y00223900D01*
D02*
G37*
G36*
X00573900D02*
X00562900D01*
Y00223754D01*
X00563752Y00220575D01*
X00565397Y00217725D01*
X00567725Y00215397D01*
X00570575Y00213752D01*
X00573754Y00212900D01*
X00573900D01*
Y00223900D01*
D02*
G37*
G36*
X00537100Y00223900D02*
X00526100D01*
Y00212900D01*
X00526246D01*
X00529425Y00213752D01*
X00532275Y00215397D01*
X00534603Y00217725D01*
X00536248Y00220575D01*
X00537100Y00223754D01*
Y00223900D01*
D02*
G37*
G36*
X00523100D02*
X00512100D01*
Y00223754D01*
X00512952Y00220575D01*
X00514598Y00217725D01*
X00516925Y00215397D01*
X00519775Y00213752D01*
X00522954Y00212900D01*
X00523100D01*
Y00223900D01*
D02*
G37*
G36*
X00416042Y00207240D02*
X00413958D01*
X00412032Y00206442D01*
X00410558Y00204968D01*
X00409760Y00203042D01*
Y00200958D01*
X00410558Y00199032D01*
X00412032Y00197558D01*
X00413958Y00196760D01*
X00416042D01*
X00417968Y00197558D01*
X00419442Y00199032D01*
X00420240Y00200958D01*
Y00203042D01*
X00419442Y00204968D01*
X00417968Y00206442D01*
X00416042Y00207240D01*
D02*
G37*
G36*
X00298042Y00202240D02*
X00295958D01*
X00294032Y00201442D01*
X00292558Y00199968D01*
X00291760Y00198042D01*
Y00195958D01*
X00291934Y00195538D01*
X00248198Y00151802D01*
X00247645Y00150976D01*
X00247451Y00150000D01*
Y00118616D01*
X00247032Y00118442D01*
X00245558Y00116968D01*
X00244760Y00115042D01*
Y00112958D01*
X00245558Y00111032D01*
X00247032Y00109558D01*
X00248958Y00108760D01*
X00251042D01*
X00252968Y00109558D01*
X00254442Y00111032D01*
X00255240Y00112958D01*
Y00115042D01*
X00254442Y00116968D01*
X00252968Y00118442D01*
X00252549Y00118616D01*
Y00148944D01*
X00295538Y00191934D01*
X00295958Y00191760D01*
X00298042D01*
X00299968Y00192558D01*
X00301442Y00194032D01*
X00302240Y00195958D01*
Y00198042D01*
X00301442Y00199968D01*
X00299968Y00201442D01*
X00298042Y00202240D01*
D02*
G37*
G36*
X00551316Y00210000D02*
X00548684D01*
X00546140Y00209319D01*
X00543860Y00208002D01*
X00541998Y00206140D01*
X00540681Y00203860D01*
X00540000Y00201317D01*
Y00198683D01*
X00540681Y00196140D01*
X00541998Y00193860D01*
X00543860Y00191998D01*
X00546140Y00190681D01*
X00548684Y00190000D01*
X00551316D01*
X00553860Y00190681D01*
X00556140Y00191998D01*
X00558002Y00193860D01*
X00559319Y00196140D01*
X00560000Y00198683D01*
Y00201317D01*
X00559319Y00203860D01*
X00558002Y00206140D01*
X00556140Y00208002D01*
X00553860Y00209319D01*
X00551316Y00210000D01*
D02*
G37*
G36*
X00051246Y00187900D02*
X00051100D01*
Y00176900D01*
X00062100D01*
Y00177046D01*
X00061248Y00180225D01*
X00059602Y00183075D01*
X00057275Y00185403D01*
X00054425Y00187048D01*
X00051246Y00187900D01*
D02*
G37*
G36*
X00048100D02*
X00047954D01*
X00044775Y00187048D01*
X00041925Y00185403D01*
X00039597Y00183075D01*
X00037952Y00180225D01*
X00037100Y00177046D01*
Y00176900D01*
X00048100D01*
Y00187900D01*
D02*
G37*
G36*
X00102046D02*
X00101900D01*
Y00176900D01*
X00112900D01*
Y00177046D01*
X00112048Y00180225D01*
X00110402Y00183075D01*
X00108075Y00185403D01*
X00105225Y00187048D01*
X00102046Y00187900D01*
D02*
G37*
G36*
X00098900D02*
X00098754D01*
X00095575Y00187048D01*
X00092725Y00185403D01*
X00090398Y00183075D01*
X00088752Y00180225D01*
X00087900Y00177046D01*
Y00176900D01*
X00098900D01*
Y00187900D01*
D02*
G37*
G36*
X00577046Y00187100D02*
X00576900D01*
Y00176100D01*
X00587900D01*
Y00176246D01*
X00587048Y00179425D01*
X00585402Y00182275D01*
X00583075Y00184603D01*
X00580225Y00186248D01*
X00577046Y00187100D01*
D02*
G37*
G36*
X00573900D02*
X00573754D01*
X00570575Y00186248D01*
X00567725Y00184603D01*
X00565397Y00182275D01*
X00563752Y00179425D01*
X00562900Y00176246D01*
Y00176100D01*
X00573900D01*
Y00187100D01*
D02*
G37*
G36*
X00526246D02*
X00526100D01*
Y00176100D01*
X00537100D01*
Y00176246D01*
X00536248Y00179425D01*
X00534603Y00182275D01*
X00532275Y00184603D01*
X00529425Y00186248D01*
X00526246Y00187100D01*
D02*
G37*
G36*
X00523100D02*
X00522954D01*
X00519775Y00186248D01*
X00516925Y00184603D01*
X00514598Y00182275D01*
X00512952Y00179425D01*
X00512100Y00176246D01*
Y00176100D01*
X00523100D01*
Y00187100D01*
D02*
G37*
G36*
X00112900Y00173900D02*
X00101900D01*
Y00162900D01*
X00102046D01*
X00105225Y00163752D01*
X00108075Y00165397D01*
X00110402Y00167725D01*
X00112048Y00170575D01*
X00112900Y00173754D01*
Y00173900D01*
D02*
G37*
G36*
X00098900D02*
X00087900D01*
Y00173754D01*
X00088752Y00170575D01*
X00090398Y00167725D01*
X00092725Y00165397D01*
X00095575Y00163752D01*
X00098754Y00162900D01*
X00098900D01*
Y00173900D01*
D02*
G37*
G36*
X00062100Y00173900D02*
X00051100D01*
Y00162900D01*
X00051246D01*
X00054425Y00163752D01*
X00057275Y00165397D01*
X00059602Y00167725D01*
X00061248Y00170575D01*
X00062100Y00173754D01*
Y00173900D01*
D02*
G37*
G36*
X00048100D02*
X00037100D01*
Y00173754D01*
X00037952Y00170575D01*
X00039597Y00167725D01*
X00041925Y00165397D01*
X00044775Y00163752D01*
X00047954Y00162900D01*
X00048100D01*
Y00173900D01*
D02*
G37*
G36*
X00587900Y00173100D02*
X00576900D01*
Y00162100D01*
X00577046D01*
X00580225Y00162952D01*
X00583075Y00164597D01*
X00585402Y00166925D01*
X00587048Y00169775D01*
X00587900Y00172954D01*
Y00173100D01*
D02*
G37*
G36*
X00573900D02*
X00562900D01*
Y00172954D01*
X00563752Y00169775D01*
X00565397Y00166925D01*
X00567725Y00164597D01*
X00570575Y00162952D01*
X00573754Y00162100D01*
X00573900D01*
Y00173100D01*
D02*
G37*
G36*
X00537100Y00173100D02*
X00526100D01*
Y00162100D01*
X00526246D01*
X00529425Y00162952D01*
X00532275Y00164597D01*
X00534603Y00166925D01*
X00536248Y00169775D01*
X00537100Y00172954D01*
Y00173100D01*
D02*
G37*
G36*
X00523100D02*
X00512100D01*
Y00172954D01*
X00512952Y00169775D01*
X00514598Y00166925D01*
X00516925Y00164597D01*
X00519775Y00162952D01*
X00522954Y00162100D01*
X00523100D01*
Y00173100D01*
D02*
G37*
G36*
X00076316Y00160000D02*
X00073684D01*
X00071140Y00159319D01*
X00068860Y00158002D01*
X00066998Y00156140D01*
X00065682Y00153860D01*
X00065000Y00151316D01*
Y00148684D01*
X00065682Y00146140D01*
X00066998Y00143860D01*
X00068860Y00141998D01*
X00071140Y00140681D01*
X00073684Y00140000D01*
X00076316D01*
X00078860Y00140681D01*
X00081140Y00141998D01*
X00083002Y00143860D01*
X00084319Y00146140D01*
X00085000Y00148684D01*
Y00151316D01*
X00084319Y00153860D01*
X00083002Y00156140D01*
X00081140Y00158002D01*
X00078860Y00159319D01*
X00076316Y00160000D01*
D02*
G37*
G36*
X00490500Y00138000D02*
X00484000D01*
Y00131500D01*
X00490500D01*
Y00138000D01*
D02*
G37*
G36*
X00481000D02*
X00474500D01*
Y00131500D01*
X00481000D01*
Y00138000D01*
D02*
G37*
G36*
X00389000Y00137880D02*
Y00131500D01*
X00395380D01*
X00394955Y00133088D01*
X00393902Y00134912D01*
X00392412Y00136402D01*
X00390588Y00137455D01*
X00389000Y00137880D01*
D02*
G37*
G36*
X00386000D02*
X00384412Y00137455D01*
X00382588Y00136402D01*
X00381098Y00134912D01*
X00380045Y00133088D01*
X00379620Y00131500D01*
X00386000D01*
Y00137880D01*
D02*
G37*
G36*
X00051246Y00137100D02*
X00051100D01*
Y00126100D01*
X00062100D01*
Y00126246D01*
X00061248Y00129425D01*
X00059602Y00132275D01*
X00057275Y00134602D01*
X00054425Y00136248D01*
X00051246Y00137100D01*
D02*
G37*
G36*
X00048100D02*
X00047954D01*
X00044775Y00136248D01*
X00041925Y00134602D01*
X00039597Y00132275D01*
X00037952Y00129425D01*
X00037100Y00126246D01*
Y00126100D01*
X00048100D01*
Y00137100D01*
D02*
G37*
G36*
X00102046D02*
X00101900D01*
Y00126100D01*
X00112900D01*
Y00126246D01*
X00112048Y00129425D01*
X00110402Y00132275D01*
X00108075Y00134602D01*
X00105225Y00136248D01*
X00102046Y00137100D01*
D02*
G37*
G36*
X00098900D02*
X00098754D01*
X00095575Y00136248D01*
X00092725Y00134602D01*
X00090398Y00132275D01*
X00088752Y00129425D01*
X00087900Y00126246D01*
Y00126100D01*
X00098900D01*
Y00137100D01*
D02*
G37*
G36*
X00395380Y00128500D02*
X00389000D01*
Y00122120D01*
X00390588Y00122545D01*
X00392412Y00123598D01*
X00393902Y00125088D01*
X00394955Y00126912D01*
X00395380Y00128500D01*
D02*
G37*
G36*
X00386000D02*
X00379620D01*
X00380045Y00126912D01*
X00381098Y00125088D01*
X00382588Y00123598D01*
X00384412Y00122545D01*
X00386000Y00122120D01*
Y00128500D01*
D02*
G37*
G36*
X00490500D02*
X00484000D01*
Y00122000D01*
X00490500D01*
Y00128500D01*
D02*
G37*
G36*
X00481000D02*
X00474500D01*
Y00122000D01*
X00481000D01*
Y00128500D01*
D02*
G37*
G36*
X00421000Y00138500D02*
X00404000D01*
Y00121500D01*
X00421000D01*
Y00138500D01*
D02*
G37*
G36*
X00127000Y00284549D02*
X00105000D01*
X00104186Y00284387D01*
X00104024Y00284355D01*
X00103198Y00283802D01*
X00088944Y00269549D01*
X00071616D01*
X00071442Y00269968D01*
X00069968Y00271442D01*
X00068042Y00272240D01*
X00065958D01*
X00064032Y00271442D01*
X00062558Y00269968D01*
X00061760Y00268042D01*
Y00265958D01*
X00062558Y00264032D01*
X00064032Y00262558D01*
X00065958Y00261760D01*
X00068042D01*
X00069968Y00262558D01*
X00071442Y00264032D01*
X00071616Y00264451D01*
X00090000D01*
X00090976Y00264645D01*
X00091802Y00265198D01*
X00106056Y00279451D01*
X00125944D01*
X00136451Y00268944D01*
Y00226000D01*
X00136645Y00225025D01*
X00137198Y00224198D01*
X00222198Y00139198D01*
X00223025Y00138645D01*
X00224000Y00138451D01*
X00230944D01*
X00235451Y00133944D01*
Y00123616D01*
X00235032Y00123442D01*
X00233558Y00121968D01*
X00232760Y00120042D01*
Y00117958D01*
X00233558Y00116032D01*
X00235032Y00114558D01*
X00236958Y00113760D01*
X00239042D01*
X00240968Y00114558D01*
X00242442Y00116032D01*
X00243240Y00117958D01*
Y00120042D01*
X00242442Y00121968D01*
X00240968Y00123442D01*
X00240549Y00123616D01*
Y00135000D01*
X00240355Y00135975D01*
X00239802Y00136802D01*
X00233802Y00142802D01*
X00232976Y00143355D01*
X00232000Y00143549D01*
X00225056D01*
X00141549Y00227056D01*
Y00270000D01*
X00141355Y00270975D01*
X00140802Y00271802D01*
X00128802Y00283802D01*
X00127976Y00284355D01*
X00127000Y00284549D01*
D02*
G37*
G36*
X00112900Y00123100D02*
X00101900D01*
Y00112100D01*
X00102046D01*
X00105225Y00112952D01*
X00108075Y00114598D01*
X00110402Y00116925D01*
X00112048Y00119775D01*
X00112900Y00122954D01*
Y00123100D01*
D02*
G37*
G36*
X00098900D02*
X00087900D01*
Y00122954D01*
X00088752Y00119775D01*
X00090398Y00116925D01*
X00092725Y00114598D01*
X00095575Y00112952D01*
X00098754Y00112100D01*
X00098900D01*
Y00123100D01*
D02*
G37*
G36*
X00062100Y00123100D02*
X00051100D01*
Y00112100D01*
X00051246D01*
X00054425Y00112952D01*
X00057275Y00114598D01*
X00059602Y00116925D01*
X00061248Y00119775D01*
X00062100Y00122954D01*
Y00123100D01*
D02*
G37*
G36*
X00048100D02*
X00037100D01*
Y00122954D01*
X00037952Y00119775D01*
X00039597Y00116925D01*
X00041925Y00114598D01*
X00044775Y00112952D01*
X00047954Y00112100D01*
X00048100D01*
Y00123100D01*
D02*
G37*
G36*
X00441580Y00091001D02*
X00441500D01*
Y00080501D01*
X00452000D01*
Y00080581D01*
X00451182Y00083633D01*
X00449602Y00086369D01*
X00447368Y00088603D01*
X00444632Y00090183D01*
X00441580Y00091001D01*
D02*
G37*
G36*
X00438500D02*
X00438420D01*
X00435368Y00090183D01*
X00432632Y00088603D01*
X00430397Y00086369D01*
X00428818Y00083633D01*
X00428000Y00080581D01*
Y00080501D01*
X00438500D01*
Y00091001D01*
D02*
G37*
G36*
X00146246Y00087900D02*
X00146100D01*
Y00076900D01*
X00157100D01*
Y00077046D01*
X00156248Y00080225D01*
X00154602Y00083075D01*
X00152275Y00085402D01*
X00149425Y00087048D01*
X00146246Y00087900D01*
D02*
G37*
G36*
X00197046D02*
X00196900D01*
Y00076900D01*
X00207900D01*
Y00077046D01*
X00207048Y00080225D01*
X00205403Y00083075D01*
X00203075Y00085402D01*
X00200225Y00087048D01*
X00197046Y00087900D01*
D02*
G37*
G36*
X00193900D02*
X00193754D01*
X00190575Y00087048D01*
X00187725Y00085402D01*
X00185397Y00083075D01*
X00183752Y00080225D01*
X00182900Y00077046D01*
Y00076900D01*
X00193900D01*
Y00087900D01*
D02*
G37*
G36*
X00143100D02*
X00142954D01*
X00139775Y00087048D01*
X00136925Y00085402D01*
X00134598Y00083075D01*
X00132952Y00080225D01*
X00132100Y00077046D01*
Y00076900D01*
X00143100D01*
Y00087900D01*
D02*
G37*
G36*
X00452000Y00077501D02*
X00441500D01*
Y00067001D01*
X00441580D01*
X00444632Y00067819D01*
X00447368Y00069398D01*
X00449602Y00071633D01*
X00451182Y00074369D01*
X00452000Y00077421D01*
Y00077501D01*
D02*
G37*
G36*
X00438500D02*
X00428000D01*
Y00077421D01*
X00428818Y00074369D01*
X00430397Y00071633D01*
X00432632Y00069398D01*
X00435368Y00067819D01*
X00438420Y00067001D01*
X00438500D01*
Y00077501D01*
D02*
G37*
G36*
X00122000Y00276556D02*
X00120303Y00276333D01*
X00118722Y00275678D01*
X00117364Y00274636D01*
X00116322Y00273278D01*
X00115667Y00271697D01*
X00115444Y00270000D01*
Y00204000D01*
X00115667Y00202303D01*
X00115995Y00201513D01*
X00116322Y00200722D01*
X00117364Y00199364D01*
X00225364Y00091364D01*
X00226722Y00090322D01*
X00227840Y00089859D01*
X00228303Y00089667D01*
X00230000Y00089444D01*
X00266000D01*
X00267697Y00089667D01*
X00268352Y00089939D01*
X00269278Y00090322D01*
X00270636Y00091364D01*
X00279636Y00100364D01*
X00280678Y00101722D01*
X00281141Y00102840D01*
X00281333Y00103303D01*
X00281556Y00105000D01*
Y00154284D01*
X00286716Y00159444D01*
X00418784D01*
X00449000Y00129228D01*
Y00128881D01*
X00449579Y00126719D01*
X00450698Y00124781D01*
X00450944Y00124535D01*
Y00098712D01*
X00451167Y00097015D01*
X00451439Y00096360D01*
X00451822Y00095434D01*
X00452864Y00094076D01*
X00463301Y00083638D01*
X00462500Y00080646D01*
Y00077355D01*
X00463352Y00074176D01*
X00464997Y00071326D01*
X00467325Y00068998D01*
X00470175Y00067353D01*
X00473354Y00066501D01*
X00476646D01*
X00479825Y00067353D01*
X00482675Y00068998D01*
X00485002Y00071326D01*
X00486648Y00074176D01*
X00487500Y00077355D01*
Y00080646D01*
X00486648Y00083826D01*
X00485002Y00086676D01*
X00482675Y00089003D01*
X00479825Y00090649D01*
X00476646Y00091501D01*
X00473982D01*
X00464056Y00101427D01*
Y00124535D01*
X00464302Y00124781D01*
X00465421Y00126719D01*
X00466000Y00128881D01*
Y00131119D01*
X00465421Y00133281D01*
X00464302Y00135219D01*
X00462719Y00136802D01*
X00460781Y00137921D01*
X00458619Y00138500D01*
X00458272D01*
X00426136Y00170636D01*
X00424778Y00171678D01*
X00423987Y00172005D01*
X00423197Y00172333D01*
X00421500Y00172556D01*
X00284000D01*
X00282303Y00172333D01*
X00281513Y00172005D01*
X00280722Y00171678D01*
X00279364Y00170636D01*
X00270364Y00161636D01*
X00269322Y00160278D01*
X00268995Y00159487D01*
X00268667Y00158697D01*
X00268444Y00157000D01*
Y00107716D01*
X00263284Y00102556D01*
X00232716D01*
X00128556Y00206716D01*
Y00270000D01*
X00128333Y00271697D01*
X00127678Y00273278D01*
X00126636Y00274636D01*
X00125278Y00275678D01*
X00123697Y00276333D01*
X00122000Y00276556D01*
D02*
G37*
G36*
X00417500Y00091501D02*
X00392500D01*
Y00066501D01*
X00417500D01*
Y00091501D01*
D02*
G37*
G36*
X00207900Y00073900D02*
X00196900D01*
Y00062900D01*
X00197046D01*
X00200225Y00063752D01*
X00203075Y00065398D01*
X00205403Y00067725D01*
X00207048Y00070575D01*
X00207900Y00073754D01*
Y00073900D01*
D02*
G37*
G36*
X00193900D02*
X00182900D01*
Y00073754D01*
X00183752Y00070575D01*
X00185397Y00067725D01*
X00187725Y00065398D01*
X00190575Y00063752D01*
X00193754Y00062900D01*
X00193900D01*
Y00073900D01*
D02*
G37*
G36*
X00157100D02*
X00146100D01*
Y00062900D01*
X00146246D01*
X00149425Y00063752D01*
X00152275Y00065398D01*
X00154602Y00067725D01*
X00156248Y00070575D01*
X00157100Y00073754D01*
Y00073900D01*
D02*
G37*
G36*
X00143100D02*
X00132100D01*
Y00073754D01*
X00132952Y00070575D01*
X00134598Y00067725D01*
X00136925Y00065398D01*
X00139775Y00063752D01*
X00142954Y00062900D01*
X00143100D01*
Y00073900D01*
D02*
G37*
G36*
X00171317Y00060000D02*
X00168683D01*
X00166140Y00059318D01*
X00163860Y00058002D01*
X00161998Y00056140D01*
X00160681Y00053860D01*
X00160000Y00051316D01*
Y00048684D01*
X00160681Y00046140D01*
X00161998Y00043860D01*
X00163860Y00041998D01*
X00166140Y00040682D01*
X00168683Y00040000D01*
X00171317D01*
X00173860Y00040682D01*
X00176140Y00041998D01*
X00178002Y00043860D01*
X00179319Y00046140D01*
X00180000Y00048684D01*
Y00051316D01*
X00179319Y00053860D01*
X00178002Y00056140D01*
X00176140Y00058002D01*
X00173860Y00059318D01*
X00171317Y00060000D01*
D02*
G37*
G36*
X00197046Y00037100D02*
X00196900D01*
Y00026100D01*
X00207900D01*
Y00026246D01*
X00207048Y00029425D01*
X00205403Y00032275D01*
X00203075Y00034602D01*
X00200225Y00036248D01*
X00197046Y00037100D01*
D02*
G37*
G36*
X00193900D02*
X00193754D01*
X00190575Y00036248D01*
X00187725Y00034602D01*
X00185397Y00032275D01*
X00183752Y00029425D01*
X00182900Y00026246D01*
Y00026100D01*
X00193900D01*
Y00037100D01*
D02*
G37*
G36*
X00146246D02*
X00146100D01*
Y00026100D01*
X00157100D01*
Y00026246D01*
X00156248Y00029425D01*
X00154602Y00032275D01*
X00152275Y00034602D01*
X00149425Y00036248D01*
X00146246Y00037100D01*
D02*
G37*
G36*
X00143100D02*
X00142954D01*
X00139775Y00036248D01*
X00136925Y00034602D01*
X00134598Y00032275D01*
X00132952Y00029425D01*
X00132100Y00026246D01*
Y00026100D01*
X00143100D01*
Y00037100D01*
D02*
G37*
G36*
X00207900Y00023100D02*
X00196900D01*
Y00012100D01*
X00197046D01*
X00200225Y00012952D01*
X00203075Y00014598D01*
X00205403Y00016925D01*
X00207048Y00019775D01*
X00207900Y00022954D01*
Y00023100D01*
D02*
G37*
G36*
X00193900D02*
X00182900D01*
Y00022954D01*
X00183752Y00019775D01*
X00185397Y00016925D01*
X00187725Y00014598D01*
X00190575Y00012952D01*
X00193754Y00012100D01*
X00193900D01*
Y00023100D01*
D02*
G37*
G36*
X00157100Y00023100D02*
X00146100D01*
Y00012100D01*
X00146246D01*
X00149425Y00012952D01*
X00152275Y00014598D01*
X00154602Y00016925D01*
X00156248Y00019775D01*
X00157100Y00022954D01*
Y00023100D01*
D02*
G37*
G36*
X00143100D02*
X00132100D01*
Y00022954D01*
X00132952Y00019775D01*
X00134598Y00016925D01*
X00136925Y00014598D01*
X00139775Y00012952D01*
X00142954Y00012100D01*
X00143100D01*
Y00023100D01*
D02*
G37*
%LPD*%
D12*
X00238000Y00119000D02*
Y00135000D01*
X00232000Y00141000D02*
X00238000Y00135000D01*
X00139000Y00226000D02*
X00224000Y00141000D01*
X00232000D01*
X00127000Y00282000D02*
X00139000Y00270000D01*
Y00226000D02*
Y00270000D01*
X00105000Y00282000D02*
X00127000D01*
X00067000Y00267000D02*
X00090000D01*
X00105000Y00282000D01*
X00277760Y00222585D02*
X00294000Y00238825D01*
Y00280000D01*
X00271500Y00215500D02*
X00277760Y00221760D01*
Y00222585D01*
X00158000Y00231000D02*
X00233000D01*
Y00269000D02*
X00250000Y00286000D01*
X00233000Y00231000D02*
X00237000D01*
X00233000D02*
Y00269000D01*
X00250000Y00314400D02*
X00251600Y00316000D01*
X00250000Y00286000D02*
Y00314400D01*
X00237000Y00231000D02*
X00251000Y00217000D01*
Y00164000D02*
Y00217000D01*
X00250000Y00114000D02*
Y00150000D01*
X00297000Y00197000D01*
X00277000Y00291000D02*
Y00316000D01*
X00250000Y00264000D02*
X00277000Y00291000D01*
X00250000Y00243000D02*
Y00264000D01*
D18*
X00275000Y00157000D02*
X00284000Y00166000D01*
X00122000Y00204000D02*
Y00270000D01*
X00230000Y00096000D02*
X00266000D01*
X00122000Y00204000D02*
X00230000Y00096000D01*
X00275000Y00105000D02*
Y00157000D01*
X00266000Y00096000D02*
X00275000Y00105000D01*
X00421500Y00166000D02*
X00457500Y00130000D01*
X00284000Y00166000D02*
X00421500D01*
X00457500Y00098712D02*
Y00130000D01*
X00475000Y00079001D02*
Y00081212D01*
X00457500Y00098712D02*
X00475000Y00081212D01*
D29*
X00440000Y00079001D02*
D03*
X00475000D02*
D03*
D36*
X00524600Y00174600D02*
D03*
X00575400D02*
D03*
Y00225400D02*
D03*
X00524600D02*
D03*
X00049600Y00124600D02*
D03*
X00100400D02*
D03*
Y00175400D02*
D03*
X00049600D02*
D03*
X00144600Y00024600D02*
D03*
X00195400D02*
D03*
Y00075400D02*
D03*
X00144600D02*
D03*
D49*
X00550000Y00050000D02*
D03*
X00050000D02*
D03*
X00550000Y00550000D02*
D03*
X00050000D02*
D03*
D50*
X00550000Y00200000D02*
D03*
X00075000Y00150000D02*
D03*
X00170000Y00050000D02*
D03*
D51*
X00461000Y00411000D02*
D03*
Y00453000D02*
D03*
X00419000Y00411000D02*
D03*
X00181000D02*
D03*
X00139000Y00453000D02*
D03*
Y00411000D02*
D03*
D52*
X00550000Y00415400D02*
D03*
D53*
Y00390000D02*
D03*
D54*
X00251600Y00316000D02*
D03*
D55*
X00277000D02*
D03*
X00302400D02*
D03*
D56*
X00412500Y00130000D02*
D03*
X00482500D02*
D03*
D57*
X00387500D02*
D03*
X00457500D02*
D03*
D58*
X00405000Y00079001D02*
D03*
D59*
X00570002Y00510001D02*
D03*
Y00490001D02*
D03*
Y00470001D02*
D03*
Y00450001D02*
D03*
Y00430001D02*
D03*
Y00410001D02*
D03*
Y00370001D02*
D03*
X00550002Y00510001D02*
D03*
Y00490001D02*
D03*
Y00470001D02*
D03*
Y00450001D02*
D03*
Y00430001D02*
D03*
X00530002Y00510001D02*
D03*
Y00490001D02*
D03*
Y00470001D02*
D03*
Y00450001D02*
D03*
Y00430001D02*
D03*
Y00410001D02*
D03*
Y00370001D02*
D03*
X00510002Y00570001D02*
D03*
Y00550001D02*
D03*
Y00530001D02*
D03*
Y00510001D02*
D03*
Y00490001D02*
D03*
Y00470001D02*
D03*
Y00450001D02*
D03*
Y00430001D02*
D03*
Y00370001D02*
D03*
X00490002Y00570001D02*
D03*
Y00550001D02*
D03*
Y00530001D02*
D03*
Y00510001D02*
D03*
Y00490001D02*
D03*
Y00470001D02*
D03*
Y00450001D02*
D03*
Y00430001D02*
D03*
Y00410001D02*
D03*
Y00370001D02*
D03*
X00470002Y00570001D02*
D03*
Y00550001D02*
D03*
Y00530001D02*
D03*
Y00510001D02*
D03*
Y00490001D02*
D03*
Y00470001D02*
D03*
Y00430001D02*
D03*
Y00390001D02*
D03*
Y00370001D02*
D03*
X00450002Y00570001D02*
D03*
Y00550001D02*
D03*
Y00530001D02*
D03*
Y00510001D02*
D03*
Y00490001D02*
D03*
Y00470001D02*
D03*
Y00430001D02*
D03*
Y00390001D02*
D03*
Y00370001D02*
D03*
X00430002Y00570001D02*
D03*
Y00550001D02*
D03*
Y00530001D02*
D03*
Y00510001D02*
D03*
Y00490001D02*
D03*
Y00470001D02*
D03*
Y00450001D02*
D03*
Y00430001D02*
D03*
Y00390001D02*
D03*
Y00370001D02*
D03*
X00410002Y00570001D02*
D03*
Y00550001D02*
D03*
Y00530001D02*
D03*
Y00510001D02*
D03*
Y00490001D02*
D03*
Y00470001D02*
D03*
Y00450001D02*
D03*
Y00430001D02*
D03*
Y00390001D02*
D03*
Y00370001D02*
D03*
X00390002Y00570001D02*
D03*
Y00550001D02*
D03*
Y00530001D02*
D03*
Y00510001D02*
D03*
Y00490001D02*
D03*
Y00470001D02*
D03*
Y00450001D02*
D03*
Y00430001D02*
D03*
Y00410001D02*
D03*
Y00390001D02*
D03*
Y00370001D02*
D03*
X00370001Y00570001D02*
D03*
Y00550001D02*
D03*
Y00530001D02*
D03*
Y00510001D02*
D03*
Y00490001D02*
D03*
Y00470001D02*
D03*
Y00450001D02*
D03*
Y00430001D02*
D03*
Y00410001D02*
D03*
Y00390001D02*
D03*
Y00370001D02*
D03*
X00350001Y00570001D02*
D03*
Y00550001D02*
D03*
Y00530001D02*
D03*
Y00510001D02*
D03*
Y00490001D02*
D03*
Y00470001D02*
D03*
Y00450001D02*
D03*
Y00430001D02*
D03*
Y00410001D02*
D03*
Y00390001D02*
D03*
Y00370001D02*
D03*
X00330001Y00570001D02*
D03*
Y00550001D02*
D03*
Y00530001D02*
D03*
Y00510001D02*
D03*
Y00490001D02*
D03*
Y00470001D02*
D03*
Y00450001D02*
D03*
Y00430001D02*
D03*
Y00410001D02*
D03*
Y00390001D02*
D03*
Y00370001D02*
D03*
X00310002Y00570001D02*
D03*
Y00550001D02*
D03*
Y00530001D02*
D03*
Y00510001D02*
D03*
Y00490001D02*
D03*
Y00470001D02*
D03*
Y00450001D02*
D03*
Y00430001D02*
D03*
Y00410001D02*
D03*
Y00390001D02*
D03*
Y00370001D02*
D03*
X00290002Y00570001D02*
D03*
Y00550001D02*
D03*
Y00530001D02*
D03*
Y00510001D02*
D03*
Y00490001D02*
D03*
Y00470001D02*
D03*
Y00450001D02*
D03*
Y00430001D02*
D03*
Y00410001D02*
D03*
Y00390001D02*
D03*
Y00370001D02*
D03*
X00270002Y00570001D02*
D03*
Y00550001D02*
D03*
Y00530001D02*
D03*
Y00510001D02*
D03*
Y00490001D02*
D03*
Y00470001D02*
D03*
Y00450001D02*
D03*
Y00430001D02*
D03*
Y00410001D02*
D03*
Y00390001D02*
D03*
Y00370001D02*
D03*
X00250002Y00570001D02*
D03*
Y00550001D02*
D03*
Y00530001D02*
D03*
Y00510001D02*
D03*
Y00490001D02*
D03*
Y00470001D02*
D03*
Y00450001D02*
D03*
Y00430001D02*
D03*
Y00410001D02*
D03*
Y00390001D02*
D03*
Y00370001D02*
D03*
X00230002Y00570001D02*
D03*
Y00550001D02*
D03*
Y00530001D02*
D03*
Y00510001D02*
D03*
Y00490001D02*
D03*
Y00470001D02*
D03*
Y00450001D02*
D03*
Y00430001D02*
D03*
Y00410001D02*
D03*
Y00390001D02*
D03*
Y00370001D02*
D03*
X00210002Y00570001D02*
D03*
Y00550001D02*
D03*
Y00530001D02*
D03*
Y00510001D02*
D03*
Y00490001D02*
D03*
Y00470001D02*
D03*
Y00450001D02*
D03*
Y00430001D02*
D03*
Y00410001D02*
D03*
Y00390001D02*
D03*
Y00370001D02*
D03*
X00190001Y00570001D02*
D03*
Y00550001D02*
D03*
Y00530001D02*
D03*
Y00510001D02*
D03*
Y00490001D02*
D03*
Y00470001D02*
D03*
Y00450001D02*
D03*
Y00430001D02*
D03*
Y00390001D02*
D03*
Y00370001D02*
D03*
X00170001Y00570001D02*
D03*
Y00550001D02*
D03*
Y00530001D02*
D03*
Y00510001D02*
D03*
Y00490001D02*
D03*
Y00470001D02*
D03*
Y00450001D02*
D03*
Y00430001D02*
D03*
Y00390001D02*
D03*
Y00370001D02*
D03*
X00150001Y00570001D02*
D03*
Y00550001D02*
D03*
Y00530001D02*
D03*
Y00510001D02*
D03*
Y00490001D02*
D03*
Y00470001D02*
D03*
Y00390001D02*
D03*
Y00370001D02*
D03*
X00130001Y00570001D02*
D03*
Y00550001D02*
D03*
Y00530001D02*
D03*
Y00510001D02*
D03*
Y00490001D02*
D03*
Y00470001D02*
D03*
Y00390001D02*
D03*
Y00370001D02*
D03*
X00110001Y00570001D02*
D03*
Y00550001D02*
D03*
Y00530001D02*
D03*
Y00510001D02*
D03*
Y00490001D02*
D03*
Y00470001D02*
D03*
Y00450001D02*
D03*
Y00390001D02*
D03*
Y00370001D02*
D03*
X00090001Y00570001D02*
D03*
Y00550001D02*
D03*
Y00530001D02*
D03*
Y00510001D02*
D03*
Y00490001D02*
D03*
Y00470001D02*
D03*
Y00450001D02*
D03*
Y00390001D02*
D03*
Y00370001D02*
D03*
X00070001Y00510001D02*
D03*
Y00490001D02*
D03*
Y00470001D02*
D03*
Y00450001D02*
D03*
Y00410001D02*
D03*
X00050001Y00510001D02*
D03*
Y00490001D02*
D03*
Y00470001D02*
D03*
Y00450001D02*
D03*
Y00410001D02*
D03*
Y00390001D02*
D03*
X00030001Y00510001D02*
D03*
Y00490001D02*
D03*
Y00470001D02*
D03*
Y00450001D02*
D03*
Y00410001D02*
D03*
Y00390001D02*
D03*
Y00370001D02*
D03*
X00010001Y00570001D02*
D03*
Y00550001D02*
D03*
Y00530001D02*
D03*
Y00510001D02*
D03*
Y00490001D02*
D03*
Y00470001D02*
D03*
Y00450001D02*
D03*
Y00410001D02*
D03*
Y00390001D02*
D03*
Y00370001D02*
D03*
D60*
X00238000Y00119000D02*
D03*
X00067000Y00267000D02*
D03*
X00429000Y00249000D02*
D03*
X00391000Y00270000D02*
D03*
X00510000Y00416000D02*
D03*
X00042000Y00369000D02*
D03*
X00012000Y00272000D02*
D03*
X00067750Y00243250D02*
D03*
X00082250D02*
D03*
X00146000Y00282000D02*
D03*
X00230000Y00126000D02*
D03*
X00287250Y00110250D02*
D03*
X00286250Y00133250D02*
D03*
X00284000Y00220000D02*
D03*
X00241000Y00246000D02*
D03*
X00278000Y00279000D02*
D03*
X00415000Y00202000D02*
D03*
X00442000Y00212000D02*
D03*
X00434000Y00329000D02*
D03*
X00418000Y00330000D02*
D03*
X00534000Y00299000D02*
D03*
X00568000Y00334000D02*
D03*
Y00299000D02*
D03*
X00158000Y00231000D02*
D03*
X00251000Y00164000D02*
D03*
X00278000Y00160000D02*
D03*
X00250000Y00114000D02*
D03*
X00297000Y00197000D02*
D03*
X00271500Y00215500D02*
D03*
X00294000Y00280000D02*
D03*
X00250000Y00243000D02*
D03*
X00278000Y00247000D02*
D03*
X00206000Y00219000D02*
D03*
X00204000Y00211000D02*
D03*
X00122000Y00270000D02*
D03*
X00027000Y00271000D02*
D03*
M02*
