G04*
G04 #@! TF.GenerationSoftware,Altium Limited,Altium Designer,21.9.1 (22)*
G04*
G04 Layer_Color=16711935*
%FSAX44Y44*%
%MOMM*%
G71*
G04*
G04 #@! TF.SameCoordinates,0D14A302-91A5-4368-AE17-AEAA60D505F3*
G04*
G04*
G04 #@! TF.FilePolarity,Negative*
G04*
G01*
G75*
%ADD26C,5.1000*%
%ADD27C,1.7000*%
%ADD28C,2.3000*%
%ADD29C,2.1000*%
%ADD30O,3.1000X2.0000*%
%ADD31R,3.1000X2.0000*%
%ADD32R,2.0000X3.1000*%
%ADD33O,2.0000X3.1000*%
%ADD34R,1.4000X1.4000*%
%ADD35C,1.4000*%
%ADD36C,2.2000*%
%ADD37R,2.2000X2.2000*%
%ADD38C,0.5000*%
%ADD39C,0.3400*%
D26*
X00550000Y00050000D02*
D03*
X00050000D02*
D03*
X00550000Y00550000D02*
D03*
X00050000D02*
D03*
D27*
X00550000Y00200000D02*
D03*
X00075000Y00150000D02*
D03*
X00170000Y00050000D02*
D03*
D28*
X00524600Y00174600D02*
D03*
X00575400D02*
D03*
Y00225400D02*
D03*
X00524600D02*
D03*
X00049600Y00124600D02*
D03*
X00100400D02*
D03*
Y00175400D02*
D03*
X00049600D02*
D03*
X00144600Y00024600D02*
D03*
X00195400D02*
D03*
Y00075400D02*
D03*
X00144600D02*
D03*
D29*
X00461000Y00411000D02*
D03*
Y00453000D02*
D03*
X00419000Y00411000D02*
D03*
X00181000D02*
D03*
X00139000Y00453000D02*
D03*
Y00411000D02*
D03*
D30*
X00550000Y00415400D02*
D03*
D31*
Y00390000D02*
D03*
D32*
X00251600Y00316000D02*
D03*
D33*
X00277000D02*
D03*
X00302400D02*
D03*
D34*
X00412500Y00130000D02*
D03*
X00482500D02*
D03*
D35*
X00387500D02*
D03*
X00457500D02*
D03*
D36*
X00440000Y00079001D02*
D03*
X00475000D02*
D03*
D37*
X00405000D02*
D03*
D38*
X00570002Y00510001D02*
D03*
Y00490001D02*
D03*
Y00470001D02*
D03*
Y00450001D02*
D03*
Y00430001D02*
D03*
Y00410001D02*
D03*
Y00370001D02*
D03*
X00550002Y00510001D02*
D03*
Y00490001D02*
D03*
Y00470001D02*
D03*
Y00450001D02*
D03*
Y00430001D02*
D03*
X00530002Y00510001D02*
D03*
Y00490001D02*
D03*
Y00470001D02*
D03*
Y00450001D02*
D03*
Y00430001D02*
D03*
Y00410001D02*
D03*
Y00370001D02*
D03*
X00510002Y00570001D02*
D03*
Y00550001D02*
D03*
Y00530001D02*
D03*
Y00510001D02*
D03*
Y00490001D02*
D03*
Y00470001D02*
D03*
Y00450001D02*
D03*
Y00430001D02*
D03*
Y00370001D02*
D03*
X00490002Y00570001D02*
D03*
Y00550001D02*
D03*
Y00530001D02*
D03*
Y00510001D02*
D03*
Y00490001D02*
D03*
Y00470001D02*
D03*
Y00450001D02*
D03*
Y00430001D02*
D03*
Y00410001D02*
D03*
Y00370001D02*
D03*
X00470002Y00570001D02*
D03*
Y00550001D02*
D03*
Y00530001D02*
D03*
Y00510001D02*
D03*
Y00490001D02*
D03*
Y00470001D02*
D03*
Y00430001D02*
D03*
Y00390001D02*
D03*
Y00370001D02*
D03*
X00450002Y00570001D02*
D03*
Y00550001D02*
D03*
Y00530001D02*
D03*
Y00510001D02*
D03*
Y00490001D02*
D03*
Y00470001D02*
D03*
Y00430001D02*
D03*
Y00390001D02*
D03*
Y00370001D02*
D03*
X00430002Y00570001D02*
D03*
Y00550001D02*
D03*
Y00530001D02*
D03*
Y00510001D02*
D03*
Y00490001D02*
D03*
Y00470001D02*
D03*
Y00450001D02*
D03*
Y00430001D02*
D03*
Y00390001D02*
D03*
Y00370001D02*
D03*
X00410002Y00570001D02*
D03*
Y00550001D02*
D03*
Y00530001D02*
D03*
Y00510001D02*
D03*
Y00490001D02*
D03*
Y00470001D02*
D03*
Y00450001D02*
D03*
Y00430001D02*
D03*
Y00390001D02*
D03*
Y00370001D02*
D03*
X00390002Y00570001D02*
D03*
Y00550001D02*
D03*
Y00530001D02*
D03*
Y00510001D02*
D03*
Y00490001D02*
D03*
Y00470001D02*
D03*
Y00450001D02*
D03*
Y00430001D02*
D03*
Y00410001D02*
D03*
Y00390001D02*
D03*
Y00370001D02*
D03*
X00370001Y00570001D02*
D03*
Y00550001D02*
D03*
Y00530001D02*
D03*
Y00510001D02*
D03*
Y00490001D02*
D03*
Y00470001D02*
D03*
Y00450001D02*
D03*
Y00430001D02*
D03*
Y00410001D02*
D03*
Y00390001D02*
D03*
Y00370001D02*
D03*
X00350001Y00570001D02*
D03*
Y00550001D02*
D03*
Y00530001D02*
D03*
Y00510001D02*
D03*
Y00490001D02*
D03*
Y00470001D02*
D03*
Y00450001D02*
D03*
Y00430001D02*
D03*
Y00410001D02*
D03*
Y00390001D02*
D03*
Y00370001D02*
D03*
X00330001Y00570001D02*
D03*
Y00550001D02*
D03*
Y00530001D02*
D03*
Y00510001D02*
D03*
Y00490001D02*
D03*
Y00470001D02*
D03*
Y00450001D02*
D03*
Y00430001D02*
D03*
Y00410001D02*
D03*
Y00390001D02*
D03*
Y00370001D02*
D03*
X00310002Y00570001D02*
D03*
Y00550001D02*
D03*
Y00530001D02*
D03*
Y00510001D02*
D03*
Y00490001D02*
D03*
Y00470001D02*
D03*
Y00450001D02*
D03*
Y00430001D02*
D03*
Y00410001D02*
D03*
Y00390001D02*
D03*
Y00370001D02*
D03*
X00290002Y00570001D02*
D03*
Y00550001D02*
D03*
Y00530001D02*
D03*
Y00510001D02*
D03*
Y00490001D02*
D03*
Y00470001D02*
D03*
Y00450001D02*
D03*
Y00430001D02*
D03*
Y00410001D02*
D03*
Y00390001D02*
D03*
Y00370001D02*
D03*
X00270002Y00570001D02*
D03*
Y00550001D02*
D03*
Y00530001D02*
D03*
Y00510001D02*
D03*
Y00490001D02*
D03*
Y00470001D02*
D03*
Y00450001D02*
D03*
Y00430001D02*
D03*
Y00410001D02*
D03*
Y00390001D02*
D03*
Y00370001D02*
D03*
X00250002Y00570001D02*
D03*
Y00550001D02*
D03*
Y00530001D02*
D03*
Y00510001D02*
D03*
Y00490001D02*
D03*
Y00470001D02*
D03*
Y00450001D02*
D03*
Y00430001D02*
D03*
Y00410001D02*
D03*
Y00390001D02*
D03*
Y00370001D02*
D03*
X00230002Y00570001D02*
D03*
Y00550001D02*
D03*
Y00530001D02*
D03*
Y00510001D02*
D03*
Y00490001D02*
D03*
Y00470001D02*
D03*
Y00450001D02*
D03*
Y00430001D02*
D03*
Y00410001D02*
D03*
Y00390001D02*
D03*
Y00370001D02*
D03*
X00210002Y00570001D02*
D03*
Y00550001D02*
D03*
Y00530001D02*
D03*
Y00510001D02*
D03*
Y00490001D02*
D03*
Y00470001D02*
D03*
Y00450001D02*
D03*
Y00430001D02*
D03*
Y00410001D02*
D03*
Y00390001D02*
D03*
Y00370001D02*
D03*
X00190001Y00570001D02*
D03*
Y00550001D02*
D03*
Y00530001D02*
D03*
Y00510001D02*
D03*
Y00490001D02*
D03*
Y00470001D02*
D03*
Y00450001D02*
D03*
Y00430001D02*
D03*
Y00390001D02*
D03*
Y00370001D02*
D03*
X00170001Y00570001D02*
D03*
Y00550001D02*
D03*
Y00530001D02*
D03*
Y00510001D02*
D03*
Y00490001D02*
D03*
Y00470001D02*
D03*
Y00450001D02*
D03*
Y00430001D02*
D03*
Y00390001D02*
D03*
Y00370001D02*
D03*
X00150001Y00570001D02*
D03*
Y00550001D02*
D03*
Y00530001D02*
D03*
Y00510001D02*
D03*
Y00490001D02*
D03*
Y00470001D02*
D03*
Y00390001D02*
D03*
Y00370001D02*
D03*
X00130001Y00570001D02*
D03*
Y00550001D02*
D03*
Y00530001D02*
D03*
Y00510001D02*
D03*
Y00490001D02*
D03*
Y00470001D02*
D03*
Y00390001D02*
D03*
Y00370001D02*
D03*
X00110001Y00570001D02*
D03*
Y00550001D02*
D03*
Y00530001D02*
D03*
Y00510001D02*
D03*
Y00490001D02*
D03*
Y00470001D02*
D03*
Y00450001D02*
D03*
Y00390001D02*
D03*
Y00370001D02*
D03*
X00090001Y00570001D02*
D03*
Y00550001D02*
D03*
Y00530001D02*
D03*
Y00510001D02*
D03*
Y00490001D02*
D03*
Y00470001D02*
D03*
Y00450001D02*
D03*
Y00390001D02*
D03*
Y00370001D02*
D03*
X00070001Y00510001D02*
D03*
Y00490001D02*
D03*
Y00470001D02*
D03*
Y00450001D02*
D03*
Y00410001D02*
D03*
X00050001Y00510001D02*
D03*
Y00490001D02*
D03*
Y00470001D02*
D03*
Y00450001D02*
D03*
Y00410001D02*
D03*
Y00390001D02*
D03*
X00030001Y00510001D02*
D03*
Y00490001D02*
D03*
Y00470001D02*
D03*
Y00450001D02*
D03*
Y00410001D02*
D03*
Y00390001D02*
D03*
Y00370001D02*
D03*
X00010001Y00570001D02*
D03*
Y00550001D02*
D03*
Y00530001D02*
D03*
Y00510001D02*
D03*
Y00490001D02*
D03*
Y00470001D02*
D03*
Y00450001D02*
D03*
Y00410001D02*
D03*
Y00390001D02*
D03*
Y00370001D02*
D03*
D39*
X00238000Y00119000D02*
D03*
X00067000Y00267000D02*
D03*
X00429000Y00249000D02*
D03*
X00391000Y00270000D02*
D03*
X00510000Y00416000D02*
D03*
X00042000Y00369000D02*
D03*
X00012000Y00272000D02*
D03*
X00067750Y00243250D02*
D03*
X00082250D02*
D03*
X00146000Y00282000D02*
D03*
X00230000Y00126000D02*
D03*
X00287250Y00110250D02*
D03*
X00286250Y00133250D02*
D03*
X00284000Y00220000D02*
D03*
X00241000Y00246000D02*
D03*
X00278000Y00279000D02*
D03*
X00415000Y00202000D02*
D03*
X00442000Y00212000D02*
D03*
X00434000Y00329000D02*
D03*
X00418000Y00330000D02*
D03*
X00534000Y00299000D02*
D03*
X00568000Y00334000D02*
D03*
Y00299000D02*
D03*
X00158000Y00231000D02*
D03*
X00251000Y00164000D02*
D03*
X00278000Y00160000D02*
D03*
X00250000Y00114000D02*
D03*
X00297000Y00197000D02*
D03*
X00271500Y00215500D02*
D03*
X00294000Y00280000D02*
D03*
X00250000Y00243000D02*
D03*
X00278000Y00247000D02*
D03*
X00206000Y00219000D02*
D03*
X00204000Y00211000D02*
D03*
X00122000Y00270000D02*
D03*
X00027000Y00271000D02*
D03*
M02*
