G04*
G04 #@! TF.GenerationSoftware,Altium Limited,Altium Designer,21.8.1 (53)*
G04*
G04 Layer_Physical_Order=4*
G04 Layer_Color=16711680*
%FSAX44Y44*%
%MOMM*%
G71*
G04*
G04 #@! TF.SameCoordinates,5CBFF69A-9E9C-4C7E-BD42-F0D9998AF3AF*
G04*
G04*
G04 #@! TF.FilePolarity,Positive*
G04*
G01*
G75*
%ADD12C,0.2000*%
%ADD32C,1.6000*%
%ADD59C,0.1411*%
%ADD62C,1.5000*%
%ADD63C,2.2000*%
%ADD64R,1.8000X1.8000*%
%ADD65C,1.8000*%
%ADD66R,1.5000X1.5000*%
%ADD67C,0.7000*%
%ADD68C,0.5000*%
%ADD69C,0.4600*%
G36*
X00522500Y-00100000D02*
X00002500D01*
Y00100000D01*
X00522500D01*
Y-00100000D01*
D02*
G37*
%LPC*%
G36*
X00296003Y00085040D02*
X00293997D01*
X00292145Y00084273D01*
X00290727Y00082855D01*
X00289960Y00081003D01*
Y00078998D01*
X00290727Y00077145D01*
X00292145Y00075727D01*
X00293997Y00074960D01*
X00296003D01*
X00297855Y00075727D01*
X00299273Y00077145D01*
X00300040Y00078998D01*
Y00081003D01*
X00299273Y00082855D01*
X00297855Y00084273D01*
X00296003Y00085040D01*
D02*
G37*
G36*
X00206502Y00076540D02*
X00204498D01*
X00202645Y00075773D01*
X00201227Y00074355D01*
X00200460Y00072502D01*
Y00070497D01*
X00201227Y00068645D01*
X00202645Y00067227D01*
X00204498Y00066460D01*
X00206502D01*
X00208355Y00067227D01*
X00209773Y00068645D01*
X00209997Y00069186D01*
X00239762D01*
X00240288Y00067916D01*
X00239477Y00067105D01*
X00238710Y00065252D01*
Y00063247D01*
X00239477Y00061395D01*
X00240895Y00059977D01*
X00242747Y00059210D01*
X00244753D01*
X00246287Y00059845D01*
X00246977Y00058178D01*
X00248071Y00057084D01*
X00247700Y00055844D01*
X00247681Y00055814D01*
X00197281D01*
X00196395Y00055638D01*
X00195644Y00055137D01*
X00195475Y00054967D01*
X00194384Y00055081D01*
X00193758Y00056213D01*
X00194290Y00057498D01*
Y00059455D01*
X00195021Y00060185D01*
X00226253D01*
X00226477Y00059645D01*
X00227895Y00058227D01*
X00229748Y00057460D01*
X00231752D01*
X00233605Y00058227D01*
X00235023Y00059645D01*
X00235790Y00061498D01*
Y00063502D01*
X00235023Y00065355D01*
X00233605Y00066773D01*
X00231752Y00067540D01*
X00229748D01*
X00227895Y00066773D01*
X00226477Y00065355D01*
X00226253Y00064815D01*
X00194062D01*
X00193176Y00064638D01*
X00192425Y00064137D01*
X00191367Y00063078D01*
X00190252Y00063540D01*
X00188248D01*
X00186395Y00062773D01*
X00184977Y00061355D01*
X00184210Y00059503D01*
Y00057498D01*
X00183921Y00057064D01*
X00170497D01*
X00170273Y00057605D01*
X00168855Y00059023D01*
X00167003Y00059790D01*
X00164998D01*
X00163145Y00059023D01*
X00161727Y00057605D01*
X00160960Y00055753D01*
Y00053748D01*
X00161727Y00051895D01*
X00163145Y00050477D01*
X00164998Y00049710D01*
X00165028D01*
X00165513Y00048537D01*
X00148043Y00031066D01*
X00147502Y00031290D01*
X00145498D01*
X00143645Y00030523D01*
X00142227Y00029105D01*
X00141460Y00027253D01*
Y00025247D01*
X00142227Y00023395D01*
X00143645Y00021977D01*
X00145498Y00021210D01*
X00147502D01*
X00149355Y00021977D01*
X00150773Y00023395D01*
X00151540Y00025247D01*
Y00027253D01*
X00151316Y00027793D01*
X00161554Y00038031D01*
X00162417Y00037637D01*
X00162710Y00037391D01*
Y00035498D01*
X00163477Y00033645D01*
X00164895Y00032227D01*
X00166747Y00031460D01*
X00168752D01*
X00170605Y00032227D01*
X00172023Y00033645D01*
X00172247Y00034186D01*
X00186375D01*
X00187261Y00034362D01*
X00188012Y00034863D01*
X00190941Y00037793D01*
X00208607D01*
X00209493Y00037969D01*
X00210244Y00038471D01*
X00218209Y00046435D01*
X00271291D01*
X00292573Y00025153D01*
X00293324Y00024652D01*
X00294210Y00024476D01*
X00306543D01*
X00307034Y00023985D01*
X00307784Y00023483D01*
X00308670Y00023307D01*
X00309469D01*
X00309897Y00022272D01*
X00311315Y00020855D01*
X00313168Y00020087D01*
X00315173D01*
X00317025Y00020855D01*
X00318443Y00022272D01*
X00319210Y00024125D01*
Y00026130D01*
X00318866Y00026961D01*
X00318605Y00028227D01*
X00320023Y00029645D01*
X00320790Y00031497D01*
Y00033503D01*
X00320023Y00035355D01*
X00318605Y00036773D01*
X00316752Y00037540D01*
X00314748D01*
X00312895Y00036773D01*
X00311477Y00035355D01*
X00311253Y00034815D01*
X00309042D01*
X00308156Y00034638D01*
X00307405Y00034137D01*
X00305262Y00031994D01*
X00300030D01*
X00276887Y00055137D01*
X00276136Y00055638D01*
X00275250Y00055814D01*
X00254479D01*
X00254460Y00055844D01*
X00254090Y00057084D01*
X00255184Y00058178D01*
X00255920Y00059957D01*
Y00061882D01*
X00255184Y00063661D01*
X00253822Y00065023D01*
X00253395Y00065200D01*
Y00066170D01*
X00253219Y00067055D01*
X00252717Y00067806D01*
X00252511Y00068012D01*
X00252427Y00068138D01*
X00248888Y00071677D01*
X00248762Y00071761D01*
X00247387Y00073137D01*
X00246636Y00073638D01*
X00245750Y00073815D01*
X00209997D01*
X00209773Y00074355D01*
X00208355Y00075773D01*
X00206502Y00076540D01*
D02*
G37*
G36*
X00077670Y00074500D02*
X00055670D01*
Y00052500D01*
X00077670D01*
Y00074500D01*
D02*
G37*
G36*
X00042718D02*
X00039822D01*
X00037024Y00073750D01*
X00034516Y00072302D01*
X00032468Y00070254D01*
X00031020Y00067746D01*
X00030270Y00064948D01*
Y00062052D01*
X00031020Y00059254D01*
X00032468Y00056746D01*
X00034516Y00054698D01*
X00037024Y00053250D01*
X00039822Y00052500D01*
X00042718D01*
X00045516Y00053250D01*
X00048024Y00054698D01*
X00050072Y00056746D01*
X00051520Y00059254D01*
X00052270Y00062052D01*
Y00064948D01*
X00051520Y00067746D01*
X00050072Y00070254D01*
X00048024Y00072302D01*
X00045516Y00073750D01*
X00042718Y00074500D01*
D02*
G37*
G36*
X00476316Y00060000D02*
X00473684D01*
X00471140Y00059318D01*
X00468860Y00058002D01*
X00466998Y00056140D01*
X00465681Y00053860D01*
X00465000Y00051316D01*
Y00048684D01*
X00465681Y00046140D01*
X00466998Y00043860D01*
X00468860Y00041998D01*
X00471140Y00040682D01*
X00473684Y00040000D01*
X00476316D01*
X00478860Y00040682D01*
X00481140Y00041998D01*
X00483002Y00043860D01*
X00484319Y00046140D01*
X00485000Y00048684D01*
Y00051316D01*
X00484319Y00053860D01*
X00483002Y00056140D01*
X00481140Y00058002D01*
X00478860Y00059318D01*
X00476316Y00060000D01*
D02*
G37*
G36*
X00068118Y00049100D02*
X00065222D01*
X00062424Y00048350D01*
X00059916Y00046902D01*
X00057868Y00044854D01*
X00056420Y00042346D01*
X00055670Y00039548D01*
Y00036652D01*
X00056420Y00033854D01*
X00057868Y00031346D01*
X00059916Y00029298D01*
X00062424Y00027850D01*
X00065222Y00027100D01*
X00068118D01*
X00070916Y00027850D01*
X00073424Y00029298D01*
X00075472Y00031346D01*
X00076920Y00033854D01*
X00077670Y00036652D01*
Y00039548D01*
X00076920Y00042346D01*
X00075472Y00044854D01*
X00073424Y00046902D01*
X00070916Y00048350D01*
X00068118Y00049100D01*
D02*
G37*
G36*
X00042718D02*
X00039822D01*
X00037024Y00048350D01*
X00034516Y00046902D01*
X00032468Y00044854D01*
X00031020Y00042346D01*
X00030270Y00039548D01*
Y00036652D01*
X00031020Y00033854D01*
X00032468Y00031346D01*
X00034516Y00029298D01*
X00037024Y00027850D01*
X00039822Y00027100D01*
X00042718D01*
X00045516Y00027850D01*
X00048024Y00029298D01*
X00050072Y00031346D01*
X00051520Y00033854D01*
X00052270Y00036652D01*
Y00039548D01*
X00051520Y00042346D01*
X00050072Y00044854D01*
X00048024Y00046902D01*
X00045516Y00048350D01*
X00042718Y00049100D01*
D02*
G37*
G36*
X00377251Y00035600D02*
X00374749D01*
X00372333Y00034953D01*
X00370167Y00033702D01*
X00368398Y00031933D01*
X00367147Y00029767D01*
X00366500Y00027351D01*
Y00024849D01*
X00367147Y00022433D01*
X00368398Y00020267D01*
X00370167Y00018498D01*
X00372333Y00017247D01*
X00374749Y00016600D01*
X00377251D01*
X00379667Y00017247D01*
X00381833Y00018498D01*
X00383602Y00020267D01*
X00384853Y00022433D01*
X00385500Y00024849D01*
Y00027351D01*
X00384853Y00029767D01*
X00383602Y00031933D01*
X00381833Y00033702D01*
X00379667Y00034953D01*
X00377251Y00035600D01*
D02*
G37*
G36*
X00283002Y00026290D02*
X00280998D01*
X00279145Y00025523D01*
X00277727Y00024105D01*
X00276960Y00022253D01*
Y00020247D01*
X00277727Y00018395D01*
X00279145Y00016977D01*
X00280998Y00016210D01*
X00283002D01*
X00284855Y00016977D01*
X00286273Y00018395D01*
X00287040Y00020247D01*
Y00022253D01*
X00286273Y00024105D01*
X00284855Y00025523D01*
X00283002Y00026290D01*
D02*
G37*
G36*
X00203601Y00016829D02*
X00201596D01*
X00199743Y00016062D01*
X00198325Y00014644D01*
X00197558Y00012792D01*
Y00010787D01*
X00198325Y00008934D01*
X00199743Y00007517D01*
X00201596Y00006749D01*
X00203601D01*
X00205453Y00007517D01*
X00206871Y00008934D01*
X00207638Y00010787D01*
Y00012792D01*
X00206871Y00014644D01*
X00205453Y00016062D01*
X00203601Y00016829D01*
D02*
G37*
G36*
X00068118Y00023700D02*
X00065222D01*
X00062424Y00022950D01*
X00059916Y00021502D01*
X00057868Y00019454D01*
X00056420Y00016946D01*
X00055670Y00014148D01*
Y00011252D01*
X00056420Y00008454D01*
X00057868Y00005946D01*
X00059916Y00003898D01*
X00062424Y00002450D01*
X00065222Y00001700D01*
X00068118D01*
X00070916Y00002450D01*
X00073424Y00003898D01*
X00075472Y00005946D01*
X00076920Y00008454D01*
X00077670Y00011252D01*
Y00014148D01*
X00076920Y00016946D01*
X00075472Y00019454D01*
X00073424Y00021502D01*
X00070916Y00022950D01*
X00068118Y00023700D01*
D02*
G37*
G36*
X00042718D02*
X00039822D01*
X00037024Y00022950D01*
X00034516Y00021502D01*
X00032468Y00019454D01*
X00031020Y00016946D01*
X00030270Y00014148D01*
Y00011252D01*
X00031020Y00008454D01*
X00032468Y00005946D01*
X00034516Y00003898D01*
X00037024Y00002450D01*
X00039822Y00001700D01*
X00042718D01*
X00045516Y00002450D01*
X00048024Y00003898D01*
X00050072Y00005946D01*
X00051520Y00008454D01*
X00052270Y00011252D01*
Y00014148D01*
X00051520Y00016946D01*
X00050072Y00019454D01*
X00048024Y00021502D01*
X00045516Y00022950D01*
X00042718Y00023700D01*
D02*
G37*
G36*
X00190002Y00031290D02*
X00187997D01*
X00186145Y00030523D01*
X00184727Y00029105D01*
X00183960Y00027253D01*
Y00025247D01*
X00184727Y00023395D01*
X00186145Y00021977D01*
X00187997Y00021210D01*
X00190002D01*
X00191855Y00021977D01*
X00193273Y00023395D01*
X00193497Y00023935D01*
X00204041D01*
X00212686Y00015291D01*
Y00007250D01*
X00212862Y00006364D01*
X00213363Y00005613D01*
X00221113Y-00002137D01*
X00221864Y-00002638D01*
X00222750Y-00002815D01*
X00266250D01*
X00267136Y-00002638D01*
X00267887Y-00002137D01*
X00274209Y00004186D01*
X00277503D01*
X00277727Y00003645D01*
X00279145Y00002227D01*
X00280998Y00001460D01*
X00283002D01*
X00284855Y00002227D01*
X00286273Y00003645D01*
X00287040Y00005497D01*
Y00007503D01*
X00286273Y00009355D01*
X00284855Y00010773D01*
X00283002Y00011540D01*
X00280998D01*
X00279145Y00010773D01*
X00277727Y00009355D01*
X00277503Y00008814D01*
X00273250D01*
X00272364Y00008638D01*
X00271614Y00008137D01*
X00265291Y00001814D01*
X00223709D01*
X00217314Y00008209D01*
Y00016250D01*
X00217138Y00017136D01*
X00216637Y00017887D01*
X00206637Y00027887D01*
X00205886Y00028388D01*
X00205000Y00028565D01*
X00193497D01*
X00193273Y00029105D01*
X00191855Y00030523D01*
X00190002Y00031290D01*
D02*
G37*
G36*
X00289503Y-00007460D02*
X00287498D01*
X00285645Y-00008227D01*
X00284227Y-00009645D01*
X00283460Y-00011497D01*
Y-00013503D01*
X00284227Y-00015355D01*
X00285645Y-00016773D01*
X00287498Y-00017540D01*
X00289503D01*
X00291355Y-00016773D01*
X00292773Y-00015355D01*
X00293540Y-00013503D01*
Y-00011497D01*
X00292773Y-00009645D01*
X00291355Y-00008227D01*
X00289503Y-00007460D01*
D02*
G37*
G36*
X00068118Y-00001700D02*
X00065222D01*
X00062424Y-00002450D01*
X00059916Y-00003898D01*
X00057868Y-00005946D01*
X00056420Y-00008454D01*
X00055670Y-00011252D01*
Y-00014148D01*
X00056420Y-00016946D01*
X00057868Y-00019454D01*
X00059916Y-00021502D01*
X00062424Y-00022950D01*
X00065222Y-00023700D01*
X00068118D01*
X00070916Y-00022950D01*
X00073424Y-00021502D01*
X00075472Y-00019454D01*
X00076920Y-00016946D01*
X00077670Y-00014148D01*
Y-00011252D01*
X00076920Y-00008454D01*
X00075472Y-00005946D01*
X00073424Y-00003898D01*
X00070916Y-00002450D01*
X00068118Y-00001700D01*
D02*
G37*
G36*
X00042718D02*
X00039822D01*
X00037024Y-00002450D01*
X00034516Y-00003898D01*
X00032468Y-00005946D01*
X00031020Y-00008454D01*
X00030270Y-00011252D01*
Y-00014148D01*
X00031020Y-00016946D01*
X00032468Y-00019454D01*
X00034516Y-00021502D01*
X00037024Y-00022950D01*
X00039822Y-00023700D01*
X00042718D01*
X00045516Y-00022950D01*
X00048024Y-00021502D01*
X00050072Y-00019454D01*
X00051520Y-00016946D01*
X00052270Y-00014148D01*
Y-00011252D01*
X00051520Y-00008454D01*
X00050072Y-00005946D01*
X00048024Y-00003898D01*
X00045516Y-00002450D01*
X00042718Y-00001700D01*
D02*
G37*
G36*
X00245502Y-00018460D02*
X00243498D01*
X00241645Y-00019227D01*
X00240227Y-00020645D01*
X00239460Y-00022497D01*
Y-00024502D01*
X00240227Y-00026355D01*
X00241645Y-00027773D01*
X00243498Y-00028540D01*
X00245502D01*
X00247355Y-00027773D01*
X00248773Y-00026355D01*
X00249540Y-00024502D01*
Y-00022497D01*
X00248773Y-00020645D01*
X00247355Y-00019227D01*
X00245502Y-00018460D01*
D02*
G37*
G36*
X00042770Y-00027631D02*
Y-00036600D01*
X00051739D01*
X00051054Y-00034047D01*
X00049672Y-00031653D01*
X00047717Y-00029698D01*
X00045323Y-00028316D01*
X00042770Y-00027631D01*
D02*
G37*
G36*
X00039770D02*
X00037217Y-00028316D01*
X00034823Y-00029698D01*
X00032868Y-00031653D01*
X00031486Y-00034047D01*
X00030801Y-00036600D01*
X00039770D01*
Y-00027631D01*
D02*
G37*
G36*
X00068170Y-00027631D02*
Y-00036600D01*
X00077139D01*
X00076454Y-00034047D01*
X00075072Y-00031653D01*
X00073117Y-00029698D01*
X00070723Y-00028316D01*
X00068170Y-00027631D01*
D02*
G37*
G36*
X00065170Y-00027632D02*
X00062617Y-00028316D01*
X00060223Y-00029698D01*
X00058268Y-00031653D01*
X00056886Y-00034047D01*
X00056202Y-00036600D01*
X00065170D01*
Y-00027632D01*
D02*
G37*
G36*
Y-00039600D02*
X00056202D01*
X00056886Y-00042153D01*
X00058268Y-00044547D01*
X00060223Y-00046502D01*
X00062617Y-00047884D01*
X00065170Y-00048568D01*
Y-00039600D01*
D02*
G37*
G36*
X00051739Y-00039600D02*
X00042770D01*
Y-00048569D01*
X00045323Y-00047884D01*
X00047717Y-00046502D01*
X00049672Y-00044547D01*
X00051054Y-00042153D01*
X00051739Y-00039600D01*
D02*
G37*
G36*
X00039770D02*
X00030801D01*
X00031486Y-00042153D01*
X00032868Y-00044547D01*
X00034823Y-00046502D01*
X00037217Y-00047884D01*
X00039770Y-00048569D01*
Y-00039600D01*
D02*
G37*
G36*
X00077138Y-00039600D02*
X00068170D01*
Y-00048569D01*
X00070723Y-00047884D01*
X00073117Y-00046502D01*
X00075072Y-00044547D01*
X00076454Y-00042153D01*
X00077138Y-00039600D01*
D02*
G37*
G36*
X00255339Y-00041712D02*
X00253334D01*
X00251481Y-00042479D01*
X00250064Y-00043897D01*
X00249296Y-00045749D01*
Y-00047754D01*
X00249558Y-00048387D01*
X00248853Y-00049443D01*
X00229291D01*
X00228889Y-00049041D01*
X00228236Y-00048604D01*
X00227465Y-00048451D01*
X00207744D01*
X00206974Y-00048604D01*
X00206320Y-00049041D01*
X00196145Y-00059216D01*
X00195709Y-00059869D01*
X00195556Y-00060640D01*
Y-00062674D01*
X00194286Y-00062926D01*
X00194273Y-00062895D01*
X00192855Y-00061477D01*
X00191003Y-00060710D01*
X00188997D01*
X00187145Y-00061477D01*
X00185727Y-00062895D01*
X00184960Y-00064748D01*
Y-00066753D01*
X00185727Y-00068605D01*
X00187145Y-00070023D01*
X00188997Y-00070790D01*
X00191003D01*
X00192855Y-00070023D01*
X00194273Y-00068605D01*
X00195459Y-00068695D01*
X00195585Y-00068756D01*
X00195709Y-00069381D01*
X00196145Y-00070034D01*
X00200985Y-00074874D01*
X00200710Y-00075537D01*
Y-00077543D01*
X00201477Y-00079395D01*
X00202895Y-00080813D01*
X00204748Y-00081580D01*
X00206752D01*
X00208605Y-00080813D01*
X00210023Y-00079395D01*
X00210790Y-00077543D01*
Y-00075537D01*
X00210023Y-00073685D01*
X00209108Y-00072770D01*
X00210315Y-00071562D01*
X00211082Y-00069710D01*
Y-00067705D01*
X00210315Y-00065852D01*
X00208897Y-00064435D01*
X00207045Y-00063667D01*
X00205040D01*
X00203534Y-00064291D01*
X00202440Y-00063781D01*
X00202321Y-00062527D01*
X00209689Y-00055159D01*
X00225520D01*
X00225922Y-00055561D01*
X00226576Y-00055998D01*
X00227346Y-00056151D01*
X00253934D01*
X00254704Y-00055998D01*
X00255358Y-00055561D01*
X00255386Y-00055533D01*
X00256656D01*
X00257284Y-00056161D01*
X00259137Y-00056929D01*
X00261142D01*
X00262994Y-00056161D01*
X00264412Y-00054744D01*
X00265179Y-00052891D01*
Y-00050886D01*
X00264412Y-00049034D01*
X00262994Y-00047616D01*
X00261142Y-00046849D01*
X00259376D01*
Y-00045749D01*
X00258609Y-00043897D01*
X00257191Y-00042479D01*
X00255339Y-00041712D01*
D02*
G37*
G36*
X00122000Y-00050085D02*
Y-00057500D01*
X00129416D01*
X00128887Y-00055526D01*
X00127702Y-00053474D01*
X00126026Y-00051798D01*
X00123974Y-00050613D01*
X00122000Y-00050085D01*
D02*
G37*
G36*
X00119000D02*
X00117026Y-00050613D01*
X00114974Y-00051798D01*
X00113298Y-00053474D01*
X00112113Y-00055526D01*
X00111585Y-00057500D01*
X00119000D01*
Y-00050085D01*
D02*
G37*
G36*
X00377251Y-00040600D02*
X00374749D01*
X00372333Y-00041247D01*
X00370167Y-00042498D01*
X00368398Y-00044267D01*
X00367147Y-00046433D01*
X00366500Y-00048849D01*
Y-00051351D01*
X00367147Y-00053767D01*
X00368398Y-00055933D01*
X00370167Y-00057702D01*
X00372333Y-00058953D01*
X00374749Y-00059600D01*
X00377251D01*
X00379667Y-00058953D01*
X00381833Y-00057702D01*
X00383602Y-00055933D01*
X00384853Y-00053767D01*
X00385500Y-00051351D01*
Y-00048849D01*
X00384853Y-00046433D01*
X00383602Y-00044267D01*
X00381833Y-00042498D01*
X00379667Y-00041247D01*
X00377251Y-00040600D01*
D02*
G37*
G36*
X00476316Y-00040000D02*
X00473684D01*
X00471140Y-00040682D01*
X00468860Y-00041998D01*
X00466998Y-00043860D01*
X00465681Y-00046140D01*
X00465000Y-00048684D01*
Y-00051316D01*
X00465681Y-00053860D01*
X00466998Y-00056140D01*
X00468860Y-00058002D01*
X00471140Y-00059318D01*
X00473684Y-00060000D01*
X00476316D01*
X00478860Y-00059318D01*
X00481140Y-00058002D01*
X00483002Y-00056140D01*
X00484319Y-00053860D01*
X00485000Y-00051316D01*
Y-00048684D01*
X00484319Y-00046140D01*
X00483002Y-00043860D01*
X00481140Y-00041998D01*
X00478860Y-00040682D01*
X00476316Y-00040000D01*
D02*
G37*
G36*
X00129416Y-00060500D02*
X00122000D01*
Y-00067916D01*
X00123974Y-00067387D01*
X00126026Y-00066202D01*
X00127702Y-00064526D01*
X00128887Y-00062474D01*
X00129416Y-00060500D01*
D02*
G37*
G36*
X00119000D02*
X00111585D01*
X00112113Y-00062474D01*
X00113298Y-00064526D01*
X00114974Y-00066202D01*
X00117026Y-00067387D01*
X00119000Y-00067916D01*
Y-00060500D01*
D02*
G37*
G36*
X00165000Y-00049500D02*
X00146000D01*
Y-00068500D01*
X00165000D01*
Y-00049500D01*
D02*
G37*
G36*
X00068118Y-00052500D02*
X00065222D01*
X00062424Y-00053250D01*
X00059916Y-00054698D01*
X00057868Y-00056746D01*
X00056420Y-00059254D01*
X00055670Y-00062052D01*
Y-00064948D01*
X00056420Y-00067746D01*
X00057868Y-00070254D01*
X00059916Y-00072302D01*
X00062424Y-00073750D01*
X00065222Y-00074500D01*
X00068118D01*
X00070916Y-00073750D01*
X00073424Y-00072302D01*
X00075472Y-00070254D01*
X00076920Y-00067746D01*
X00077670Y-00064948D01*
Y-00062052D01*
X00076920Y-00059254D01*
X00075472Y-00056746D01*
X00073424Y-00054698D01*
X00070916Y-00053250D01*
X00068118Y-00052500D01*
D02*
G37*
G36*
X00042718D02*
X00039822D01*
X00037024Y-00053250D01*
X00034516Y-00054698D01*
X00032468Y-00056746D01*
X00031020Y-00059254D01*
X00030270Y-00062052D01*
Y-00064948D01*
X00031020Y-00067746D01*
X00032468Y-00070254D01*
X00034516Y-00072302D01*
X00037024Y-00073750D01*
X00039822Y-00074500D01*
X00042718D01*
X00045516Y-00073750D01*
X00048024Y-00072302D01*
X00050072Y-00070254D01*
X00051520Y-00067746D01*
X00052270Y-00064948D01*
Y-00062052D01*
X00051520Y-00059254D01*
X00050072Y-00056746D01*
X00048024Y-00054698D01*
X00045516Y-00053250D01*
X00042718Y-00052500D01*
D02*
G37*
G36*
X00380252Y-00083210D02*
X00378247D01*
X00376395Y-00083977D01*
X00374977Y-00085395D01*
X00374210Y-00087247D01*
Y-00089253D01*
X00374977Y-00091105D01*
X00376395Y-00092523D01*
X00378247Y-00093290D01*
X00380252D01*
X00382105Y-00092523D01*
X00383523Y-00091105D01*
X00384290Y-00089253D01*
Y-00087247D01*
X00383523Y-00085395D01*
X00382105Y-00083977D01*
X00380252Y-00083210D01*
D02*
G37*
%LPD*%
G36*
X00188540Y00045363D02*
X00189291Y00044862D01*
X00190177Y00044686D01*
X00200753D01*
X00200977Y00044145D01*
X00201431Y00043692D01*
X00200905Y00042422D01*
X00189982D01*
X00189096Y00042245D01*
X00188346Y00041744D01*
X00185416Y00038814D01*
X00172247D01*
X00172023Y00039355D01*
X00170605Y00040773D01*
X00168752Y00041540D01*
X00166859D01*
X00166613Y00041833D01*
X00166219Y00042696D01*
X00170374Y00046851D01*
X00187053D01*
X00188540Y00045363D01*
D02*
G37*
D12*
X00189000Y00026250D02*
X00205000D01*
X00215000Y00016250D01*
X00251080Y00060920D02*
Y00066170D01*
X00245750Y00071500D02*
X00247210Y00070040D01*
X00250790Y00066460D02*
X00251080Y00066170D01*
X00247252Y00070040D02*
X00250790Y00066502D01*
X00205500Y00071500D02*
X00245750D01*
X00250790Y00066460D02*
Y00066502D01*
X00247210Y00070040D02*
X00247252D01*
X00169415Y00049165D02*
X00188012D01*
X00146500Y00026250D02*
X00169415Y00049165D01*
X00184458Y00054750D02*
X00186748Y00052460D01*
X00166000Y00054750D02*
X00184458D01*
X00186748Y00052460D02*
X00196241D01*
X00188012Y00049165D02*
X00190177Y00047000D01*
X00205250D01*
X00196241Y00052460D02*
X00197281Y00053500D01*
X00189982Y00040107D02*
X00208607D01*
X00186375Y00036500D02*
X00189982Y00040107D01*
X00167750Y00036500D02*
X00186375D01*
X00208607Y00040107D02*
X00217250Y00048750D01*
X00272250D01*
X00294210Y00026790D01*
X00307502D02*
X00308670Y00025622D01*
X00294210Y00026790D02*
X00307502D01*
X00313676Y00025622D02*
X00314170Y00025127D01*
X00306221Y00029679D02*
X00309042Y00032500D01*
X00299071Y00029679D02*
X00306221D01*
X00275250Y00053500D02*
X00299071Y00029679D01*
X00308670Y00025622D02*
X00313676D01*
X00309042Y00032500D02*
X00315750D01*
X00197281Y00053500D02*
X00275250D01*
X00190062Y00058500D02*
X00194062Y00062500D01*
X00230750D01*
X00189250Y00058500D02*
X00190062D01*
X00215000Y00007250D02*
Y00016250D01*
Y00007250D02*
X00222750Y-00000500D01*
X00266250D01*
X00273250Y00006500D01*
X00282000D01*
D32*
X00475000Y00050000D02*
D03*
Y-00050000D02*
D03*
D59*
X00205499Y-00076540D02*
X00205750D01*
X00200250Y-00067500D02*
X00201750Y-00069000D01*
X00205750D02*
X00206042Y-00068707D01*
X00201750Y-00069000D02*
X00205750D01*
X00197570Y-00068610D02*
X00205499Y-00076540D01*
X00200250Y-00067500D02*
Y-00061750D01*
X00197570Y-00068610D02*
Y-00060640D01*
X00207744Y-00050465D01*
X00226355Y-00053145D02*
X00227346Y-00054137D01*
X00207744Y-00050465D02*
X00227465D01*
X00200250Y-00061750D02*
X00208855Y-00053145D01*
X00226355D01*
X00227465Y-00050465D02*
X00228456Y-00051456D01*
X00255353Y-00052717D02*
X00255737D01*
X00253650Y-00050630D02*
Y-00047439D01*
X00228456Y-00051456D02*
X00252823D01*
X00253650Y-00050630D01*
X00227346Y-00054137D02*
X00253934D01*
X00255353Y-00052717D01*
X00255737D02*
X00255878Y-00052576D01*
X00253650Y-00047439D02*
X00254336Y-00046752D01*
X00259453Y-00052576D02*
X00260139Y-00051889D01*
X00255878Y-00052576D02*
X00259453D01*
D62*
X00376000Y00026100D02*
D03*
Y00000700D02*
D03*
Y-00024700D02*
D03*
Y-00050100D02*
D03*
X00120500Y-00059000D02*
D03*
D63*
X00449600Y00024600D02*
D03*
X00500400D02*
D03*
Y00075400D02*
D03*
X00449600D02*
D03*
Y-00075400D02*
D03*
X00500400D02*
D03*
Y-00024600D02*
D03*
X00449600D02*
D03*
D64*
X00066670Y00063500D02*
D03*
D65*
Y00038100D02*
D03*
X00041270Y00063500D02*
D03*
Y00038100D02*
D03*
X00066670Y-00012700D02*
D03*
X00041270D02*
D03*
X00066670Y-00063500D02*
D03*
X00041270D02*
D03*
Y-00038100D02*
D03*
X00066670D02*
D03*
X00041270Y00012700D02*
D03*
X00066670D02*
D03*
D66*
X00155500Y-00059000D02*
D03*
D67*
X00420000Y00000000D02*
D03*
Y-00030000D02*
D03*
Y00020000D02*
D03*
X00360000Y00030000D02*
D03*
Y00000000D02*
D03*
Y-00030000D02*
D03*
X00400000D02*
D03*
Y00000000D02*
D03*
X00320000Y00070000D02*
D03*
X00290000Y00062500D02*
D03*
X00330000Y00030000D02*
D03*
Y-00030000D02*
D03*
X00310000D02*
D03*
X00290000D02*
D03*
X00170000Y-00020000D02*
D03*
X00010000Y00090000D02*
D03*
Y-00090000D02*
D03*
X00139000Y00000000D02*
D03*
X00145500Y00058500D02*
D03*
X00093250Y00058250D02*
D03*
X00088500Y00043750D02*
D03*
X00145500Y00043250D02*
D03*
X00120500Y00026750D02*
D03*
X00092500Y00027750D02*
D03*
X00086250Y00010750D02*
D03*
X00120500Y00011250D02*
D03*
X00085000Y-00005500D02*
D03*
X00347500Y00067500D02*
D03*
X00385000D02*
D03*
X00325000Y-00050000D02*
D03*
X00277500Y-00047500D02*
D03*
X00282500Y-00070000D02*
D03*
X00270000D02*
D03*
D68*
X00243750Y00064250D02*
D03*
X00427500Y00067500D02*
D03*
X00379250Y-00088250D02*
D03*
X00202598Y00011789D02*
D03*
X00189000Y00026250D02*
D03*
X00146500D02*
D03*
X00166000Y00054750D02*
D03*
X00167750Y00036500D02*
D03*
X00314170Y00025127D02*
D03*
X00305000Y00020750D02*
D03*
X00315750Y00032500D02*
D03*
X00189250Y00058500D02*
D03*
X00205500Y00071500D02*
D03*
X00190000Y-00065750D02*
D03*
X00244500Y-00015500D02*
D03*
X00237246Y-00015506D02*
D03*
X00208000Y-00007250D02*
D03*
X00202791Y00034067D02*
D03*
X00288500Y-00012500D02*
D03*
X00244500Y-00023500D02*
D03*
X00295000Y00080000D02*
D03*
X00205750Y-00076540D02*
D03*
X00206042Y-00068707D02*
D03*
X00260139Y-00051889D02*
D03*
X00254336Y-00046752D02*
D03*
X00205250Y00047000D02*
D03*
X00230750Y00062500D02*
D03*
X00282000Y00021250D02*
D03*
X00332500Y-00090500D02*
D03*
X00338125Y-00056375D02*
D03*
X00304625Y-00006125D02*
D03*
X00229875Y-00044875D02*
D03*
X00266875Y-00039625D02*
D03*
X00251875D02*
D03*
X00196875Y-00024625D02*
D03*
X00187500Y-00000500D02*
D03*
X00162125Y00010125D02*
D03*
X00174125Y00026125D02*
D03*
Y00043125D02*
D03*
X00222125Y00092875D02*
D03*
X00235125Y00087125D02*
D03*
X00245125D02*
D03*
X00271125Y00090625D02*
D03*
X00261125D02*
D03*
X00304750Y00036750D02*
D03*
X00282000Y00006500D02*
D03*
X00340250Y00007250D02*
D03*
X00227500Y00007500D02*
D03*
Y00018500D02*
D03*
Y00029500D02*
D03*
Y00040500D02*
D03*
X00238500Y00007500D02*
D03*
Y00018500D02*
D03*
Y00029500D02*
D03*
Y00040500D02*
D03*
X00249500Y00007500D02*
D03*
Y00018500D02*
D03*
Y00029500D02*
D03*
Y00040500D02*
D03*
X00260500Y00007500D02*
D03*
Y00018500D02*
D03*
Y00029500D02*
D03*
Y00040500D02*
D03*
D69*
X00251080Y00060920D02*
D03*
M02*
