G04*
G04 #@! TF.GenerationSoftware,Altium Limited,Altium Designer,21.8.1 (53)*
G04*
G04 Layer_Physical_Order=2*
G04 Layer_Color=36540*
%FSAX44Y44*%
%MOMM*%
G71*
G04*
G04 #@! TF.SameCoordinates,5CBFF69A-9E9C-4C7E-BD42-F0D9998AF3AF*
G04*
G04*
G04 #@! TF.FilePolarity,Positive*
G04*
G01*
G75*
%ADD62C,1.5000*%
%ADD63C,2.2000*%
%ADD65C,1.8000*%
%ADD67C,0.7000*%
%ADD68C,0.5000*%
G36*
X00521588Y00099750D02*
X00522660Y00098678D01*
X00523240Y00097278D01*
Y00096520D01*
Y-00096520D01*
Y-00097278D01*
X00522660Y-00098678D01*
X00521588Y-00099750D01*
X00520188Y-00100330D01*
X00004322D01*
X00002922Y-00099750D01*
X00001850Y-00098678D01*
X00001270Y-00097278D01*
Y-00096520D01*
Y00096520D01*
Y00097278D01*
X00001850Y00098678D01*
X00002922Y00099750D01*
X00004322Y00100330D01*
X00520188D01*
X00521588Y00099750D01*
D02*
G37*
%LPC*%
G36*
X00296003Y00085040D02*
X00293997D01*
X00292145Y00084273D01*
X00290727Y00082855D01*
X00289960Y00081003D01*
Y00078998D01*
X00290727Y00077145D01*
X00292145Y00075727D01*
X00293997Y00074960D01*
X00296003D01*
X00297855Y00075727D01*
X00299273Y00077145D01*
X00300040Y00078998D01*
Y00081003D01*
X00299273Y00082855D01*
X00297855Y00084273D01*
X00296003Y00085040D01*
D02*
G37*
G36*
X00206502Y00076540D02*
X00204498D01*
X00202645Y00075773D01*
X00201227Y00074355D01*
X00200460Y00072502D01*
Y00070497D01*
X00201227Y00068645D01*
X00202645Y00067227D01*
X00204498Y00066460D01*
X00206502D01*
X00208355Y00067227D01*
X00209773Y00068645D01*
X00210540Y00070497D01*
Y00072502D01*
X00209773Y00074355D01*
X00208355Y00075773D01*
X00206502Y00076540D01*
D02*
G37*
G36*
X00231752Y00067540D02*
X00229748D01*
X00227895Y00066773D01*
X00226477Y00065355D01*
X00225710Y00063502D01*
Y00061498D01*
X00226477Y00059645D01*
X00227895Y00058227D01*
X00229748Y00057460D01*
X00231752D01*
X00233605Y00058227D01*
X00235023Y00059645D01*
X00235790Y00061498D01*
Y00063502D01*
X00235023Y00065355D01*
X00233605Y00066773D01*
X00231752Y00067540D01*
D02*
G37*
G36*
X00244753Y00069290D02*
X00242747D01*
X00240895Y00068523D01*
X00239477Y00067105D01*
X00238710Y00065252D01*
Y00063247D01*
X00239477Y00061395D01*
X00240895Y00059977D01*
X00242747Y00059210D01*
X00244753D01*
X00246287Y00059845D01*
X00246977Y00058178D01*
X00248339Y00056817D01*
X00250118Y00056080D01*
X00252043D01*
X00253822Y00056817D01*
X00255184Y00058178D01*
X00255920Y00059957D01*
Y00061882D01*
X00255184Y00063661D01*
X00253822Y00065023D01*
X00252043Y00065760D01*
X00250118D01*
X00249963Y00065696D01*
X00248319Y00066389D01*
X00248023Y00067105D01*
X00246605Y00068523D01*
X00244753Y00069290D01*
D02*
G37*
G36*
X00190252Y00063540D02*
X00188248D01*
X00186395Y00062773D01*
X00184977Y00061355D01*
X00184210Y00059503D01*
Y00057498D01*
X00184977Y00055645D01*
X00186395Y00054227D01*
X00188248Y00053460D01*
X00190252D01*
X00192105Y00054227D01*
X00193523Y00055645D01*
X00194290Y00057498D01*
Y00059503D01*
X00193523Y00061355D01*
X00192105Y00062773D01*
X00190252Y00063540D01*
D02*
G37*
G36*
X00077670Y00074500D02*
X00055670D01*
Y00052500D01*
X00077670D01*
Y00074500D01*
D02*
G37*
G36*
X00042718D02*
X00039822D01*
X00037024Y00073750D01*
X00034516Y00072302D01*
X00032468Y00070254D01*
X00031020Y00067746D01*
X00030270Y00064948D01*
Y00062052D01*
X00031020Y00059254D01*
X00032468Y00056746D01*
X00034516Y00054698D01*
X00037024Y00053250D01*
X00039822Y00052500D01*
X00042718D01*
X00045516Y00053250D01*
X00048024Y00054698D01*
X00050072Y00056746D01*
X00051520Y00059254D01*
X00052270Y00062052D01*
Y00064948D01*
X00051520Y00067746D01*
X00050072Y00070254D01*
X00048024Y00072302D01*
X00045516Y00073750D01*
X00042718Y00074500D01*
D02*
G37*
G36*
X00167003Y00059790D02*
X00164998D01*
X00163145Y00059023D01*
X00161727Y00057605D01*
X00160960Y00055753D01*
Y00053748D01*
X00161727Y00051895D01*
X00163145Y00050477D01*
X00164998Y00049710D01*
X00167003D01*
X00168855Y00050477D01*
X00170273Y00051895D01*
X00171040Y00053748D01*
Y00055753D01*
X00170273Y00057605D01*
X00168855Y00059023D01*
X00167003Y00059790D01*
D02*
G37*
G36*
X00206252Y00052040D02*
X00204247D01*
X00202395Y00051273D01*
X00200977Y00049855D01*
X00200210Y00048003D01*
Y00045998D01*
X00200977Y00044145D01*
X00202395Y00042727D01*
X00204247Y00041960D01*
X00206252D01*
X00208105Y00042727D01*
X00209523Y00044145D01*
X00210290Y00045998D01*
Y00048003D01*
X00209523Y00049855D01*
X00208105Y00051273D01*
X00206252Y00052040D01*
D02*
G37*
G36*
X00476316Y00060000D02*
X00473684D01*
X00471140Y00059318D01*
X00468860Y00058002D01*
X00466998Y00056140D01*
X00465681Y00053860D01*
X00465000Y00051316D01*
Y00048684D01*
X00465681Y00046140D01*
X00466998Y00043860D01*
X00468860Y00041998D01*
X00471140Y00040682D01*
X00473684Y00040000D01*
X00476316D01*
X00478860Y00040682D01*
X00481140Y00041998D01*
X00483002Y00043860D01*
X00484319Y00046140D01*
X00485000Y00048684D01*
Y00051316D01*
X00484319Y00053860D01*
X00483002Y00056140D01*
X00481140Y00058002D01*
X00478860Y00059318D01*
X00476316Y00060000D01*
D02*
G37*
G36*
X00168752Y00041540D02*
X00166747D01*
X00164895Y00040773D01*
X00163477Y00039355D01*
X00162710Y00037503D01*
Y00035498D01*
X00163477Y00033645D01*
X00164895Y00032227D01*
X00166747Y00031460D01*
X00168752D01*
X00170605Y00032227D01*
X00172023Y00033645D01*
X00172790Y00035498D01*
Y00037503D01*
X00172023Y00039355D01*
X00170605Y00040773D01*
X00168752Y00041540D01*
D02*
G37*
G36*
X00068118Y00049100D02*
X00065222D01*
X00062424Y00048350D01*
X00059916Y00046902D01*
X00057868Y00044854D01*
X00056420Y00042346D01*
X00055670Y00039548D01*
Y00036652D01*
X00056420Y00033854D01*
X00057868Y00031346D01*
X00059916Y00029298D01*
X00062424Y00027850D01*
X00065222Y00027100D01*
X00068118D01*
X00070916Y00027850D01*
X00073424Y00029298D01*
X00075472Y00031346D01*
X00076920Y00033854D01*
X00077670Y00036652D01*
Y00039548D01*
X00076920Y00042346D01*
X00075472Y00044854D01*
X00073424Y00046902D01*
X00070916Y00048350D01*
X00068118Y00049100D01*
D02*
G37*
G36*
X00042718D02*
X00039822D01*
X00037024Y00048350D01*
X00034516Y00046902D01*
X00032468Y00044854D01*
X00031020Y00042346D01*
X00030270Y00039548D01*
Y00036652D01*
X00031020Y00033854D01*
X00032468Y00031346D01*
X00034516Y00029298D01*
X00037024Y00027850D01*
X00039822Y00027100D01*
X00042718D01*
X00045516Y00027850D01*
X00048024Y00029298D01*
X00050072Y00031346D01*
X00051520Y00033854D01*
X00052270Y00036652D01*
Y00039548D01*
X00051520Y00042346D01*
X00050072Y00044854D01*
X00048024Y00046902D01*
X00045516Y00048350D01*
X00042718Y00049100D01*
D02*
G37*
G36*
X00190002Y00031290D02*
X00187997D01*
X00186145Y00030523D01*
X00184727Y00029105D01*
X00183960Y00027253D01*
Y00025247D01*
X00184727Y00023395D01*
X00186145Y00021977D01*
X00187997Y00021210D01*
X00190002D01*
X00191855Y00021977D01*
X00193273Y00023395D01*
X00194040Y00025247D01*
Y00027253D01*
X00193273Y00029105D01*
X00191855Y00030523D01*
X00190002Y00031290D01*
D02*
G37*
G36*
X00147502D02*
X00145498D01*
X00143645Y00030523D01*
X00142227Y00029105D01*
X00141460Y00027253D01*
Y00025247D01*
X00142227Y00023395D01*
X00143645Y00021977D01*
X00145498Y00021210D01*
X00147502D01*
X00149355Y00021977D01*
X00150773Y00023395D01*
X00151540Y00025247D01*
Y00027253D01*
X00150773Y00029105D01*
X00149355Y00030523D01*
X00147502Y00031290D01*
D02*
G37*
G36*
X00316752Y00037540D02*
X00314748D01*
X00312895Y00036773D01*
X00311477Y00035355D01*
X00310710Y00033503D01*
Y00031497D01*
X00311477Y00029645D01*
X00310621Y00028706D01*
X00309897Y00027982D01*
X00309130Y00026130D01*
Y00024125D01*
X00309897Y00022272D01*
X00311315Y00020855D01*
X00313168Y00020087D01*
X00315173D01*
X00317025Y00020855D01*
X00318443Y00022272D01*
X00319210Y00024125D01*
Y00026130D01*
X00318443Y00027982D01*
X00319299Y00028922D01*
X00320023Y00029645D01*
X00320790Y00031497D01*
Y00033503D01*
X00320023Y00035355D01*
X00318605Y00036773D01*
X00316752Y00037540D01*
D02*
G37*
G36*
X00377251Y00035600D02*
X00374749D01*
X00372333Y00034953D01*
X00370167Y00033702D01*
X00368398Y00031933D01*
X00367147Y00029767D01*
X00366500Y00027351D01*
Y00024849D01*
X00367147Y00022433D01*
X00368398Y00020267D01*
X00370167Y00018498D01*
X00372333Y00017247D01*
X00374749Y00016600D01*
X00377251D01*
X00379667Y00017247D01*
X00381833Y00018498D01*
X00383602Y00020267D01*
X00384853Y00022433D01*
X00385500Y00024849D01*
Y00027351D01*
X00384853Y00029767D01*
X00383602Y00031933D01*
X00381833Y00033702D01*
X00379667Y00034953D01*
X00377251Y00035600D01*
D02*
G37*
G36*
X00283002Y00026290D02*
X00280998D01*
X00279145Y00025523D01*
X00277727Y00024105D01*
X00276960Y00022253D01*
Y00020247D01*
X00277727Y00018395D01*
X00279145Y00016977D01*
X00280998Y00016210D01*
X00283002D01*
X00284855Y00016977D01*
X00286273Y00018395D01*
X00287040Y00020247D01*
Y00022253D01*
X00286273Y00024105D01*
X00284855Y00025523D01*
X00283002Y00026290D01*
D02*
G37*
G36*
X00203601Y00016829D02*
X00201596D01*
X00199743Y00016062D01*
X00198325Y00014644D01*
X00197558Y00012792D01*
Y00010787D01*
X00198325Y00008934D01*
X00199743Y00007517D01*
X00201596Y00006749D01*
X00203601D01*
X00205453Y00007517D01*
X00206871Y00008934D01*
X00207638Y00010787D01*
Y00012792D01*
X00206871Y00014644D01*
X00205453Y00016062D01*
X00203601Y00016829D01*
D02*
G37*
G36*
X00068118Y00023700D02*
X00065222D01*
X00062424Y00022950D01*
X00059916Y00021502D01*
X00057868Y00019454D01*
X00056420Y00016946D01*
X00055670Y00014148D01*
Y00011252D01*
X00056420Y00008454D01*
X00057868Y00005946D01*
X00059916Y00003898D01*
X00062424Y00002450D01*
X00065222Y00001700D01*
X00068118D01*
X00070916Y00002450D01*
X00073424Y00003898D01*
X00075472Y00005946D01*
X00076920Y00008454D01*
X00077670Y00011252D01*
Y00014148D01*
X00076920Y00016946D01*
X00075472Y00019454D01*
X00073424Y00021502D01*
X00070916Y00022950D01*
X00068118Y00023700D01*
D02*
G37*
G36*
X00042718D02*
X00039822D01*
X00037024Y00022950D01*
X00034516Y00021502D01*
X00032468Y00019454D01*
X00031020Y00016946D01*
X00030270Y00014148D01*
Y00011252D01*
X00031020Y00008454D01*
X00032468Y00005946D01*
X00034516Y00003898D01*
X00037024Y00002450D01*
X00039822Y00001700D01*
X00042718D01*
X00045516Y00002450D01*
X00048024Y00003898D01*
X00050072Y00005946D01*
X00051520Y00008454D01*
X00052270Y00011252D01*
Y00014148D01*
X00051520Y00016946D01*
X00050072Y00019454D01*
X00048024Y00021502D01*
X00045516Y00022950D01*
X00042718Y00023700D01*
D02*
G37*
G36*
X00283002Y00011540D02*
X00280998D01*
X00279145Y00010773D01*
X00277727Y00009355D01*
X00276960Y00007503D01*
Y00005497D01*
X00277727Y00003645D01*
X00279145Y00002227D01*
X00280998Y00001460D01*
X00283002D01*
X00284855Y00002227D01*
X00286273Y00003645D01*
X00287040Y00005497D01*
Y00007503D01*
X00286273Y00009355D01*
X00284855Y00010773D01*
X00283002Y00011540D01*
D02*
G37*
G36*
X00289503Y-00007460D02*
X00287498D01*
X00285645Y-00008227D01*
X00284227Y-00009645D01*
X00283460Y-00011497D01*
Y-00013503D01*
X00284227Y-00015355D01*
X00285645Y-00016773D01*
X00287498Y-00017540D01*
X00289503D01*
X00291355Y-00016773D01*
X00292773Y-00015355D01*
X00293540Y-00013503D01*
Y-00011497D01*
X00292773Y-00009645D01*
X00291355Y-00008227D01*
X00289503Y-00007460D01*
D02*
G37*
G36*
X00068118Y-00001700D02*
X00065222D01*
X00062424Y-00002450D01*
X00059916Y-00003898D01*
X00057868Y-00005946D01*
X00056420Y-00008454D01*
X00055670Y-00011252D01*
Y-00014148D01*
X00056420Y-00016946D01*
X00057868Y-00019454D01*
X00059916Y-00021502D01*
X00062424Y-00022950D01*
X00065222Y-00023700D01*
X00068118D01*
X00070916Y-00022950D01*
X00073424Y-00021502D01*
X00075472Y-00019454D01*
X00076920Y-00016946D01*
X00077670Y-00014148D01*
Y-00011252D01*
X00076920Y-00008454D01*
X00075472Y-00005946D01*
X00073424Y-00003898D01*
X00070916Y-00002450D01*
X00068118Y-00001700D01*
D02*
G37*
G36*
X00042718D02*
X00039822D01*
X00037024Y-00002450D01*
X00034516Y-00003898D01*
X00032468Y-00005946D01*
X00031020Y-00008454D01*
X00030270Y-00011252D01*
Y-00014148D01*
X00031020Y-00016946D01*
X00032468Y-00019454D01*
X00034516Y-00021502D01*
X00037024Y-00022950D01*
X00039822Y-00023700D01*
X00042718D01*
X00045516Y-00022950D01*
X00048024Y-00021502D01*
X00050072Y-00019454D01*
X00051520Y-00016946D01*
X00052270Y-00014148D01*
Y-00011252D01*
X00051520Y-00008454D01*
X00050072Y-00005946D01*
X00048024Y-00003898D01*
X00045516Y-00002450D01*
X00042718Y-00001700D01*
D02*
G37*
G36*
X00245502Y-00018460D02*
X00243498D01*
X00241645Y-00019227D01*
X00240227Y-00020645D01*
X00239460Y-00022497D01*
Y-00024502D01*
X00240227Y-00026355D01*
X00241645Y-00027773D01*
X00243498Y-00028540D01*
X00245502D01*
X00247355Y-00027773D01*
X00248773Y-00026355D01*
X00249540Y-00024502D01*
Y-00022497D01*
X00248773Y-00020645D01*
X00247355Y-00019227D01*
X00245502Y-00018460D01*
D02*
G37*
G36*
X00042770Y-00027631D02*
Y-00036600D01*
X00051739D01*
X00051054Y-00034047D01*
X00049672Y-00031653D01*
X00047717Y-00029698D01*
X00045323Y-00028316D01*
X00042770Y-00027631D01*
D02*
G37*
G36*
X00039770D02*
X00037217Y-00028316D01*
X00034823Y-00029698D01*
X00032868Y-00031653D01*
X00031486Y-00034047D01*
X00030801Y-00036600D01*
X00039770D01*
Y-00027631D01*
D02*
G37*
G36*
X00068170Y-00027631D02*
Y-00036600D01*
X00077139D01*
X00076454Y-00034047D01*
X00075072Y-00031653D01*
X00073117Y-00029698D01*
X00070723Y-00028316D01*
X00068170Y-00027631D01*
D02*
G37*
G36*
X00065170Y-00027632D02*
X00062617Y-00028316D01*
X00060223Y-00029698D01*
X00058268Y-00031653D01*
X00056886Y-00034047D01*
X00056202Y-00036600D01*
X00065170D01*
Y-00027632D01*
D02*
G37*
G36*
Y-00039600D02*
X00056202D01*
X00056886Y-00042153D01*
X00058268Y-00044547D01*
X00060223Y-00046502D01*
X00062617Y-00047884D01*
X00065170Y-00048568D01*
Y-00039600D01*
D02*
G37*
G36*
X00051739Y-00039600D02*
X00042770D01*
Y-00048569D01*
X00045323Y-00047884D01*
X00047717Y-00046502D01*
X00049672Y-00044547D01*
X00051054Y-00042153D01*
X00051739Y-00039600D01*
D02*
G37*
G36*
X00039770D02*
X00030801D01*
X00031486Y-00042153D01*
X00032868Y-00044547D01*
X00034823Y-00046502D01*
X00037217Y-00047884D01*
X00039770Y-00048569D01*
Y-00039600D01*
D02*
G37*
G36*
X00077138Y-00039600D02*
X00068170D01*
Y-00048569D01*
X00070723Y-00047884D01*
X00073117Y-00046502D01*
X00075072Y-00044547D01*
X00076454Y-00042153D01*
X00077138Y-00039600D01*
D02*
G37*
G36*
X00255339Y-00041712D02*
X00253334D01*
X00251481Y-00042479D01*
X00250064Y-00043897D01*
X00249296Y-00045749D01*
Y-00047754D01*
X00250064Y-00049607D01*
X00251481Y-00051025D01*
X00253334Y-00051792D01*
X00255099D01*
Y-00052891D01*
X00255867Y-00054744D01*
X00257284Y-00056161D01*
X00259137Y-00056929D01*
X00261142D01*
X00262994Y-00056161D01*
X00264412Y-00054744D01*
X00265179Y-00052891D01*
Y-00050886D01*
X00264412Y-00049034D01*
X00262994Y-00047616D01*
X00261142Y-00046849D01*
X00259376D01*
Y-00045749D01*
X00258609Y-00043897D01*
X00257191Y-00042479D01*
X00255339Y-00041712D01*
D02*
G37*
G36*
X00122000Y-00050085D02*
Y-00057500D01*
X00129416D01*
X00128887Y-00055526D01*
X00127702Y-00053474D01*
X00126026Y-00051798D01*
X00123974Y-00050613D01*
X00122000Y-00050085D01*
D02*
G37*
G36*
X00119000D02*
X00117026Y-00050613D01*
X00114974Y-00051798D01*
X00113298Y-00053474D01*
X00112113Y-00055526D01*
X00111585Y-00057500D01*
X00119000D01*
Y-00050085D01*
D02*
G37*
G36*
X00377251Y-00040600D02*
X00374749D01*
X00372333Y-00041247D01*
X00370167Y-00042498D01*
X00368398Y-00044267D01*
X00367147Y-00046433D01*
X00366500Y-00048849D01*
Y-00051351D01*
X00367147Y-00053767D01*
X00368398Y-00055933D01*
X00370167Y-00057702D01*
X00372333Y-00058953D01*
X00374749Y-00059600D01*
X00377251D01*
X00379667Y-00058953D01*
X00381833Y-00057702D01*
X00383602Y-00055933D01*
X00384853Y-00053767D01*
X00385500Y-00051351D01*
Y-00048849D01*
X00384853Y-00046433D01*
X00383602Y-00044267D01*
X00381833Y-00042498D01*
X00379667Y-00041247D01*
X00377251Y-00040600D01*
D02*
G37*
G36*
X00476316Y-00040000D02*
X00473684D01*
X00471140Y-00040682D01*
X00468860Y-00041998D01*
X00466998Y-00043860D01*
X00465681Y-00046140D01*
X00465000Y-00048684D01*
Y-00051316D01*
X00465681Y-00053860D01*
X00466998Y-00056140D01*
X00468860Y-00058002D01*
X00471140Y-00059318D01*
X00473684Y-00060000D01*
X00476316D01*
X00478860Y-00059318D01*
X00481140Y-00058002D01*
X00483002Y-00056140D01*
X00484319Y-00053860D01*
X00485000Y-00051316D01*
Y-00048684D01*
X00484319Y-00046140D01*
X00483002Y-00043860D01*
X00481140Y-00041998D01*
X00478860Y-00040682D01*
X00476316Y-00040000D01*
D02*
G37*
G36*
X00129416Y-00060500D02*
X00122000D01*
Y-00067916D01*
X00123974Y-00067387D01*
X00126026Y-00066202D01*
X00127702Y-00064526D01*
X00128887Y-00062474D01*
X00129416Y-00060500D01*
D02*
G37*
G36*
X00119000D02*
X00111585D01*
X00112113Y-00062474D01*
X00113298Y-00064526D01*
X00114974Y-00066202D01*
X00117026Y-00067387D01*
X00119000Y-00067916D01*
Y-00060500D01*
D02*
G37*
G36*
X00165000Y-00049500D02*
X00146000D01*
Y-00068500D01*
X00165000D01*
Y-00049500D01*
D02*
G37*
G36*
X00191003Y-00060710D02*
X00188997D01*
X00187145Y-00061477D01*
X00185727Y-00062895D01*
X00184960Y-00064748D01*
Y-00066753D01*
X00185727Y-00068605D01*
X00187145Y-00070023D01*
X00188997Y-00070790D01*
X00191003D01*
X00192855Y-00070023D01*
X00194273Y-00068605D01*
X00195040Y-00066753D01*
Y-00064748D01*
X00194273Y-00062895D01*
X00192855Y-00061477D01*
X00191003Y-00060710D01*
D02*
G37*
G36*
X00068118Y-00052500D02*
X00065222D01*
X00062424Y-00053250D01*
X00059916Y-00054698D01*
X00057868Y-00056746D01*
X00056420Y-00059254D01*
X00055670Y-00062052D01*
Y-00064948D01*
X00056420Y-00067746D01*
X00057868Y-00070254D01*
X00059916Y-00072302D01*
X00062424Y-00073750D01*
X00065222Y-00074500D01*
X00068118D01*
X00070916Y-00073750D01*
X00073424Y-00072302D01*
X00075472Y-00070254D01*
X00076920Y-00067746D01*
X00077670Y-00064948D01*
Y-00062052D01*
X00076920Y-00059254D01*
X00075472Y-00056746D01*
X00073424Y-00054698D01*
X00070916Y-00053250D01*
X00068118Y-00052500D01*
D02*
G37*
G36*
X00042718D02*
X00039822D01*
X00037024Y-00053250D01*
X00034516Y-00054698D01*
X00032468Y-00056746D01*
X00031020Y-00059254D01*
X00030270Y-00062052D01*
Y-00064948D01*
X00031020Y-00067746D01*
X00032468Y-00070254D01*
X00034516Y-00072302D01*
X00037024Y-00073750D01*
X00039822Y-00074500D01*
X00042718D01*
X00045516Y-00073750D01*
X00048024Y-00072302D01*
X00050072Y-00070254D01*
X00051520Y-00067746D01*
X00052270Y-00064948D01*
Y-00062052D01*
X00051520Y-00059254D01*
X00050072Y-00056746D01*
X00048024Y-00054698D01*
X00045516Y-00053250D01*
X00042718Y-00052500D01*
D02*
G37*
G36*
X00207045Y-00063667D02*
X00205040D01*
X00203188Y-00064435D01*
X00201770Y-00065852D01*
X00201003Y-00067705D01*
Y-00069710D01*
X00201770Y-00071562D01*
X00202685Y-00072477D01*
X00201477Y-00073685D01*
X00200710Y-00075537D01*
Y-00077543D01*
X00201477Y-00079395D01*
X00202895Y-00080813D01*
X00204748Y-00081580D01*
X00206752D01*
X00208605Y-00080813D01*
X00210023Y-00079395D01*
X00210790Y-00077543D01*
Y-00075537D01*
X00210023Y-00073685D01*
X00209108Y-00072770D01*
X00210315Y-00071562D01*
X00211082Y-00069710D01*
Y-00067705D01*
X00210315Y-00065852D01*
X00208897Y-00064435D01*
X00207045Y-00063667D01*
D02*
G37*
G36*
X00380252Y-00083210D02*
X00378247D01*
X00376395Y-00083977D01*
X00374977Y-00085395D01*
X00374210Y-00087247D01*
Y-00089253D01*
X00374977Y-00091105D01*
X00376395Y-00092523D01*
X00378247Y-00093290D01*
X00380252D01*
X00382105Y-00092523D01*
X00383523Y-00091105D01*
X00384290Y-00089253D01*
Y-00087247D01*
X00383523Y-00085395D01*
X00382105Y-00083977D01*
X00380252Y-00083210D01*
D02*
G37*
%LPD*%
D62*
X00376000Y00000700D02*
D03*
Y-00024700D02*
D03*
X00120500Y-00059000D02*
D03*
D63*
X00449600Y00024600D02*
D03*
X00500400D02*
D03*
Y00075400D02*
D03*
X00449600D02*
D03*
Y-00075400D02*
D03*
X00500400D02*
D03*
Y-00024600D02*
D03*
X00449600D02*
D03*
D65*
X00041270Y-00038100D02*
D03*
X00066670D02*
D03*
D67*
X00420000Y00000000D02*
D03*
Y-00030000D02*
D03*
Y00020000D02*
D03*
X00360000Y00030000D02*
D03*
Y00000000D02*
D03*
Y-00030000D02*
D03*
X00400000D02*
D03*
Y00000000D02*
D03*
X00320000Y00070000D02*
D03*
X00290000Y00062500D02*
D03*
X00330000Y00030000D02*
D03*
Y-00030000D02*
D03*
X00310000D02*
D03*
X00290000D02*
D03*
X00170000Y-00020000D02*
D03*
X00010000Y00090000D02*
D03*
Y-00090000D02*
D03*
X00139000Y00000000D02*
D03*
X00145500Y00058500D02*
D03*
X00093250Y00058250D02*
D03*
X00088500Y00043750D02*
D03*
X00145500Y00043250D02*
D03*
X00120500Y00026750D02*
D03*
X00092500Y00027750D02*
D03*
X00086250Y00010750D02*
D03*
X00120500Y00011250D02*
D03*
X00085000Y-00005500D02*
D03*
X00347500Y00067500D02*
D03*
X00385000D02*
D03*
X00325000Y-00050000D02*
D03*
X00277500Y-00047500D02*
D03*
X00282500Y-00070000D02*
D03*
X00270000D02*
D03*
D68*
X00427500Y00067500D02*
D03*
X00305000Y00020750D02*
D03*
X00244500Y-00015500D02*
D03*
X00237246Y-00015506D02*
D03*
X00208000Y-00007250D02*
D03*
X00202791Y00034067D02*
D03*
X00332500Y-00090500D02*
D03*
X00338125Y-00056375D02*
D03*
X00304625Y-00006125D02*
D03*
X00229875Y-00044875D02*
D03*
X00266875Y-00039625D02*
D03*
X00251875D02*
D03*
X00196875Y-00024625D02*
D03*
X00187500Y-00000500D02*
D03*
X00162125Y00010125D02*
D03*
X00174125Y00026125D02*
D03*
Y00043125D02*
D03*
X00222125Y00092875D02*
D03*
X00235125Y00087125D02*
D03*
X00245125D02*
D03*
X00271125Y00090625D02*
D03*
X00261125D02*
D03*
X00304750Y00036750D02*
D03*
X00340250Y00007250D02*
D03*
X00227500Y00007500D02*
D03*
Y00018500D02*
D03*
Y00029500D02*
D03*
Y00040500D02*
D03*
X00238500Y00007500D02*
D03*
Y00018500D02*
D03*
Y00029500D02*
D03*
Y00040500D02*
D03*
X00249500Y00007500D02*
D03*
Y00018500D02*
D03*
Y00029500D02*
D03*
Y00040500D02*
D03*
X00260500Y00007500D02*
D03*
Y00018500D02*
D03*
Y00029500D02*
D03*
Y00040500D02*
D03*
M02*
