G04*
G04 #@! TF.GenerationSoftware,Altium Limited,Altium Designer,21.9.2 (33)*
G04*
G04 Layer_Physical_Order=1*
G04 Layer_Color=255*
%FSAX44Y44*%
%MOMM*%
G71*
G04*
G04 #@! TF.SameCoordinates,37C0D4A5-8E60-4C82-868F-7AA08B848B10*
G04*
G04*
G04 #@! TF.FilePolarity,Positive*
G04*
G01*
G75*
%ADD12C,0.2000*%
%ADD13C,0.1500*%
%ADD32C,1.6000*%
%ADD41R,0.6000X0.9500*%
%ADD42R,0.9500X0.6000*%
%ADD43R,0.5500X0.5500*%
%ADD44R,0.5500X0.5500*%
%ADD45R,0.4000X0.5500*%
%ADD46R,0.8000X1.3500*%
%ADD47O,0.2500X0.9000*%
%ADD48O,0.9000X0.2500*%
%ADD49R,4.5000X4.5000*%
%ADD50R,0.9000X1.1000*%
%ADD51R,1.4000X0.7600*%
%ADD52R,0.5500X0.4000*%
%ADD53R,0.8000X0.5500*%
%ADD54R,0.3500X0.8000*%
%ADD55R,0.3500X2.4000*%
%ADD56R,0.8000X0.3500*%
%ADD57R,2.4000X0.3500*%
%ADD58C,0.2297*%
%ADD59C,0.1411*%
%ADD60R,0.5000X1.5000*%
%ADD61R,2.0000X2.5000*%
%ADD62C,1.5000*%
%ADD63C,2.2000*%
%ADD64R,1.8000X1.8000*%
%ADD65C,1.8000*%
%ADD66R,1.5000X1.5000*%
%ADD67C,0.7000*%
%ADD68C,0.5000*%
%ADD69C,0.4600*%
G36*
X00390000Y00065000D02*
Y00060000D01*
X00352500D01*
X00350000Y00062500D01*
X00290000D01*
Y00072500D01*
X00299980D01*
Y00071980D01*
X00310520D01*
Y00072500D01*
X00382500D01*
X00390000Y00065000D01*
D02*
G37*
G36*
X00522500Y-00100000D02*
X00435000D01*
X00422500Y-00087500D01*
Y-00062500D01*
X00475000D01*
Y-00060000D01*
X00476316D01*
X00478860Y-00059318D01*
X00481140Y-00058002D01*
X00483002Y-00056140D01*
X00484319Y-00053860D01*
X00485000Y-00051316D01*
Y-00048684D01*
X00484319Y-00046140D01*
X00483002Y-00043860D01*
X00481140Y-00041998D01*
X00478860Y-00040682D01*
X00476316Y-00040000D01*
X00475000D01*
Y-00037500D01*
X00431500D01*
Y-00035500D01*
X00427500D01*
Y-00039750D01*
X00424500D01*
Y-00035500D01*
X00420500D01*
Y-00037500D01*
X00365000D01*
Y-00079980D01*
X00362480D01*
Y-00085986D01*
X00360020D01*
Y-00081980D01*
X00357764D01*
Y-00077750D01*
X00357611Y-00076979D01*
X00357174Y-00076326D01*
X00351924Y-00071076D01*
X00351271Y-00070639D01*
X00350500Y-00070486D01*
X00342020D01*
Y-00069230D01*
X00333980D01*
Y-00070236D01*
X00330500D01*
Y-00065000D01*
X00324500D01*
Y-00063500D01*
X00323000D01*
Y-00056500D01*
X00318500D01*
Y-00056634D01*
X00317270Y-00056730D01*
X00317230Y-00056730D01*
X00305730D01*
Y-00061486D01*
X00299750D01*
X00299750Y-00061486D01*
X00298979Y-00061639D01*
X00298326Y-00062076D01*
X00294576Y-00065826D01*
X00294139Y-00066479D01*
X00293986Y-00067250D01*
Y-00069480D01*
X00291980D01*
Y-00077210D01*
X00291980Y-00077520D01*
Y-00078480D01*
X00291980Y-00078790D01*
Y-00081486D01*
X00285970D01*
Y-00078430D01*
X00269430D01*
Y-00088570D01*
X00285970D01*
Y-00085514D01*
X00291980D01*
Y-00086520D01*
X00300020D01*
Y-00078790D01*
X00300020Y-00078480D01*
Y-00077520D01*
X00300020Y-00077210D01*
Y-00069480D01*
X00298014D01*
Y-00068084D01*
X00300584Y-00065514D01*
X00305730D01*
Y-00070270D01*
X00316086D01*
X00316612Y-00071540D01*
X00314422Y-00073730D01*
X00305730D01*
Y-00087270D01*
X00317270D01*
Y-00077547D01*
X00317460Y-00077420D01*
X00318730Y-00078099D01*
Y-00087270D01*
X00330270D01*
Y-00074264D01*
X00333980D01*
Y-00075770D01*
X00342020D01*
Y-00074514D01*
X00349666D01*
X00353736Y-00078584D01*
Y-00081980D01*
X00351480D01*
Y-00094020D01*
X00360020D01*
Y-00090014D01*
X00362480D01*
Y-00096020D01*
X00365000D01*
Y-00100000D01*
X00002500D01*
Y00100000D01*
X00245000D01*
Y00083500D01*
X00240750D01*
Y00081500D01*
X00245000D01*
Y00078500D01*
X00240750D01*
Y00076500D01*
X00245000D01*
Y00074270D01*
X00240980D01*
Y00068887D01*
X00240242Y00068327D01*
X00239020Y00068878D01*
Y00074270D01*
X00230980D01*
X00230980Y00067730D01*
X00229789Y00067540D01*
X00229748D01*
X00229076Y00067262D01*
X00228020Y00067967D01*
Y00074520D01*
X00215980D01*
Y00065980D01*
X00215980D01*
X00215728Y00064815D01*
X00207000D01*
X00206114Y00064638D01*
X00205363Y00064137D01*
X00195041Y00053815D01*
X00193488D01*
X00192962Y00055085D01*
X00193523Y00055645D01*
X00194290Y00057498D01*
Y00059503D01*
X00193523Y00061355D01*
X00192462Y00062415D01*
X00192967Y00063685D01*
X00200000D01*
X00200886Y00063862D01*
X00201637Y00064363D01*
X00203957Y00066684D01*
X00204498Y00066460D01*
X00206502D01*
X00208355Y00067227D01*
X00209773Y00068645D01*
X00210540Y00070497D01*
Y00072502D01*
X00209773Y00074355D01*
X00208355Y00075773D01*
X00206502Y00076540D01*
X00204498D01*
X00202645Y00075773D01*
X00201227Y00074355D01*
X00200460Y00072502D01*
Y00070497D01*
X00200684Y00069957D01*
X00199041Y00068314D01*
X00115520D01*
Y00070020D01*
X00107790D01*
X00107480Y00070020D01*
X00106520D01*
X00106210Y00070020D01*
X00098480D01*
Y00068314D01*
X00088750D01*
X00087864Y00068138D01*
X00087113Y00067637D01*
X00085291Y00065814D01*
X00077670D01*
Y00074500D01*
X00055670D01*
Y00053314D01*
X00054170D01*
X00053284Y00053138D01*
X00052533Y00052637D01*
X00047248Y00047351D01*
X00045516Y00048350D01*
X00042718Y00049100D01*
X00039822D01*
X00037024Y00048350D01*
X00034516Y00046902D01*
X00032468Y00044854D01*
X00031020Y00042346D01*
X00030270Y00039548D01*
Y00036652D01*
X00031020Y00033854D01*
X00032468Y00031346D01*
X00034516Y00029298D01*
X00037024Y00027850D01*
X00039822Y00027100D01*
X00042718D01*
X00045516Y00027850D01*
X00048024Y00029298D01*
X00050072Y00031346D01*
X00051520Y00033854D01*
X00052270Y00036652D01*
Y00039548D01*
X00051520Y00042346D01*
X00050521Y00044078D01*
X00055129Y00048685D01*
X00060465D01*
X00060805Y00047415D01*
X00059916Y00046902D01*
X00057868Y00044854D01*
X00056420Y00042346D01*
X00055670Y00039548D01*
Y00036652D01*
X00056420Y00033854D01*
X00057868Y00031346D01*
X00059916Y00029298D01*
X00061584Y00028335D01*
X00061244Y00027064D01*
X00053320D01*
X00052434Y00026888D01*
X00051683Y00026387D01*
X00047247Y00021951D01*
X00045516Y00022950D01*
X00042718Y00023700D01*
X00039822D01*
X00037024Y00022950D01*
X00034516Y00021502D01*
X00032468Y00019454D01*
X00031020Y00016946D01*
X00030270Y00014148D01*
Y00011252D01*
X00031020Y00008454D01*
X00032468Y00005946D01*
X00034516Y00003898D01*
X00037024Y00002450D01*
X00039822Y00001700D01*
X00042718D01*
X00045516Y00002450D01*
X00048024Y00003898D01*
X00050072Y00005946D01*
X00051520Y00008454D01*
X00052270Y00011252D01*
Y00014148D01*
X00051520Y00016946D01*
X00050521Y00018677D01*
X00054279Y00022436D01*
X00059103D01*
X00059579Y00021165D01*
X00057868Y00019454D01*
X00056420Y00016946D01*
X00055670Y00014148D01*
Y00011252D01*
X00056420Y00008454D01*
X00057868Y00005946D01*
X00059729Y00004085D01*
X00059465Y00002815D01*
X00054470D01*
X00053584Y00002638D01*
X00052833Y00002137D01*
X00047247Y-00003449D01*
X00045516Y-00002450D01*
X00042718Y-00001700D01*
X00039822D01*
X00037024Y-00002450D01*
X00034516Y-00003898D01*
X00032468Y-00005946D01*
X00031020Y-00008454D01*
X00030270Y-00011252D01*
Y-00014148D01*
X00031020Y-00016946D01*
X00032468Y-00019454D01*
X00034516Y-00021502D01*
X00037024Y-00022950D01*
X00039822Y-00023700D01*
X00042718D01*
X00045516Y-00022950D01*
X00048024Y-00021502D01*
X00050072Y-00019454D01*
X00051520Y-00016946D01*
X00052270Y-00014148D01*
Y-00011252D01*
X00051520Y-00008454D01*
X00050521Y-00006723D01*
X00055429Y-00001814D01*
X00060984D01*
X00061325Y-00003085D01*
X00059916Y-00003898D01*
X00057868Y-00005946D01*
X00056420Y-00008454D01*
X00055670Y-00011252D01*
Y-00014148D01*
X00056420Y-00016946D01*
X00057868Y-00019454D01*
X00059916Y-00021502D01*
X00062424Y-00022950D01*
X00065222Y-00023700D01*
X00068118D01*
X00070916Y-00022950D01*
X00073424Y-00021502D01*
X00075472Y-00019454D01*
X00076920Y-00016946D01*
X00077438Y-00015014D01*
X00091300D01*
X00092186Y-00014838D01*
X00092937Y-00014337D01*
X00092959Y-00014315D01*
X00098480D01*
Y-00016020D01*
X00106210D01*
X00106520Y-00016020D01*
X00107480D01*
X00107790Y-00016020D01*
X00115520D01*
Y-00014315D01*
X00143000D01*
X00143886Y-00014138D01*
X00144637Y-00013637D01*
X00155762Y-00002512D01*
X00156263Y-00001761D01*
X00156440Y-00000875D01*
Y00018916D01*
X00168997Y00031474D01*
X00169078Y00031595D01*
X00170605Y00032227D01*
X00172023Y00033645D01*
X00172790Y00035498D01*
Y00037503D01*
X00172023Y00039355D01*
X00170605Y00040773D01*
X00168752Y00041540D01*
X00167609D01*
X00167083Y00042810D01*
X00173459Y00049186D01*
X00176750D01*
Y00044500D01*
X00181250D01*
X00185750D01*
Y00049186D01*
X00191279D01*
X00192480Y00049020D01*
X00192480Y00047916D01*
Y00036980D01*
X00201020D01*
Y00038686D01*
X00203541D01*
X00207268Y00034959D01*
X00208019Y00034457D01*
X00208770Y00034308D01*
X00208904Y00034281D01*
X00210535D01*
X00210767Y00034126D01*
X00211750Y00033931D01*
X00218250D01*
X00219233Y00034126D01*
X00220067Y00034683D01*
X00220624Y00035517D01*
X00220819Y00036500D01*
X00220624Y00037483D01*
X00220067Y00038317D01*
Y00039683D01*
D01*
X00220624Y00040517D01*
X00220819Y00041500D01*
X00220624Y00042483D01*
X00220067Y00043317D01*
X00219233Y00043874D01*
X00218250Y00044069D01*
X00211750D01*
X00210949Y00043910D01*
X00210696D01*
X00209866Y00044974D01*
X00210290Y00045998D01*
Y00048003D01*
X00209523Y00049855D01*
X00208105Y00051273D01*
X00207500Y00051523D01*
X00206252Y00052040D01*
X00204247D01*
X00202395Y00051273D01*
X00200977Y00049855D01*
X00200632Y00049020D01*
X00198589D01*
X00198063Y00050290D01*
X00207500Y00059727D01*
X00207773Y00060000D01*
X00207959Y00060185D01*
X00216857D01*
Y00060000D01*
Y00058714D01*
X00217033Y00057828D01*
X00217535Y00057077D01*
X00218931Y00055682D01*
Y00049750D01*
X00219126Y00048767D01*
X00219683Y00047933D01*
X00220517Y00047376D01*
X00221500Y00047181D01*
X00222483Y00047376D01*
X00223317Y00047933D01*
X00224683D01*
X00225517Y00047376D01*
X00226500Y00047181D01*
X00227483Y00047376D01*
X00228317Y00047933D01*
X00229683D01*
X00230517Y00047376D01*
X00231500Y00047181D01*
X00232483Y00047376D01*
X00233317Y00047933D01*
X00234683D01*
X00235517Y00047376D01*
X00236500Y00047181D01*
X00237483Y00047376D01*
X00238317Y00047933D01*
X00239683D01*
X00240517Y00047376D01*
X00241500Y00047181D01*
X00242483Y00047376D01*
X00243317Y00047933D01*
X00243730Y00048552D01*
X00243874Y00048767D01*
X00244069Y00049750D01*
Y00056250D01*
X00243874Y00057233D01*
X00243815Y00057322D01*
Y00059210D01*
X00244753D01*
X00246287Y00059845D01*
X00246977Y00058178D01*
X00248339Y00056817D01*
X00248990Y00056547D01*
X00248931Y00056250D01*
Y00049750D01*
X00249126Y00048767D01*
X00249683Y00047933D01*
X00250517Y00047376D01*
X00251500Y00047181D01*
X00252483Y00047376D01*
X00253317Y00047933D01*
X00254683D01*
X00255517Y00047376D01*
X00256500Y00047181D01*
X00257483Y00047376D01*
X00258317Y00047933D01*
X00259683D01*
X00260517Y00047376D01*
X00261500Y00047181D01*
X00262483Y00047376D01*
X00263317Y00047933D01*
X00264683D01*
X00265517Y00047376D01*
X00266500Y00047181D01*
X00267181Y00046500D01*
X00267376Y00045517D01*
X00267933Y00044683D01*
Y00043317D01*
X00267376Y00042483D01*
X00267181Y00041500D01*
X00267376Y00040517D01*
X00267933Y00039683D01*
Y00038317D01*
X00267376Y00037483D01*
X00267181Y00036500D01*
X00267376Y00035517D01*
X00267933Y00034683D01*
Y00033317D01*
X00267376Y00032483D01*
X00267181Y00031500D01*
X00267376Y00030517D01*
X00267933Y00029683D01*
Y00028317D01*
X00267376Y00027483D01*
X00267181Y00026500D01*
X00267376Y00025517D01*
X00267933Y00024683D01*
Y00023317D01*
X00267376Y00022483D01*
X00267181Y00021500D01*
X00267376Y00020517D01*
X00267933Y00019683D01*
X00268767Y00019126D01*
X00269750Y00018931D01*
X00276250D01*
X00276455Y00018971D01*
X00276635Y00018936D01*
X00277503D01*
X00277727Y00018395D01*
X00279145Y00016977D01*
X00280998Y00016210D01*
X00283002D01*
X00284855Y00016977D01*
X00285858Y00017980D01*
X00291770D01*
Y00025506D01*
X00294000D01*
Y00023500D01*
X00297500D01*
Y00022000D01*
D01*
Y00023500D01*
X00301000D01*
Y00025506D01*
X00305706D01*
X00307148Y00024065D01*
X00307899Y00023563D01*
X00308784Y00023387D01*
X00309436D01*
X00309897Y00022272D01*
X00311315Y00020855D01*
X00313168Y00020087D01*
X00315173D01*
X00317025Y00020855D01*
X00318443Y00022272D01*
X00319210Y00024125D01*
Y00026130D01*
X00318866Y00026961D01*
X00318605Y00028227D01*
X00320023Y00029645D01*
X00320790Y00031497D01*
Y00033503D01*
X00320023Y00035355D01*
X00319148Y00036230D01*
X00319674Y00037500D01*
X00365000D01*
Y00012500D01*
X00400000D01*
X00425000Y00037500D01*
X00475000D01*
Y00040000D01*
X00476316D01*
X00478860Y00040682D01*
X00481140Y00041998D01*
X00483002Y00043860D01*
X00484319Y00046140D01*
X00485000Y00048684D01*
Y00051316D01*
X00484319Y00053860D01*
X00483002Y00056140D01*
X00481140Y00058002D01*
X00478860Y00059318D01*
X00476316Y00060000D01*
X00475000D01*
Y00062500D01*
X00432500D01*
Y00063250D01*
X00421500D01*
Y00062500D01*
X00420000D01*
X00383673Y00098827D01*
X00384159Y00100000D01*
X00522500D01*
Y-00100000D01*
D02*
G37*
G36*
X00161850Y00062463D02*
X00161850Y00062415D01*
X00152750Y00053314D01*
X00115520D01*
Y00055020D01*
X00107790D01*
X00107480Y00055020D01*
X00106520D01*
X00106210Y00055020D01*
X00098480D01*
Y00053314D01*
X00077670D01*
Y00061185D01*
X00086250D01*
X00087136Y00061362D01*
X00087887Y00061863D01*
X00089709Y00063685D01*
X00098480D01*
Y00061980D01*
X00106210D01*
X00106520Y00061980D01*
X00107480D01*
X00107790Y00061980D01*
X00115520D01*
Y00063685D01*
X00161460D01*
X00161850Y00062463D01*
D02*
G37*
G36*
X00161126Y00053348D02*
X00161727Y00051895D01*
X00163145Y00050477D01*
X00162470Y00049493D01*
X00150470Y00037494D01*
X00132429D01*
X00131543Y00037317D01*
X00131539Y00037315D01*
X00115520D01*
Y00039020D01*
X00107790D01*
X00107480Y00039020D01*
X00106520D01*
X00106210Y00039020D01*
X00098480D01*
Y00038865D01*
X00077670D01*
Y00039548D01*
X00076920Y00042346D01*
X00075472Y00044854D01*
X00073424Y00046902D01*
X00072535Y00047415D01*
X00072875Y00048685D01*
X00098480D01*
Y00046980D01*
X00106210D01*
X00106520Y00046980D01*
X00107480D01*
X00107790Y00046980D01*
X00115520D01*
Y00048685D01*
X00153708D01*
X00154594Y00048862D01*
X00155345Y00049363D01*
X00159787Y00053805D01*
X00161126Y00053348D01*
D02*
G37*
G36*
X00098480Y00030980D02*
X00106210D01*
X00106520Y00030980D01*
X00107480D01*
X00107790Y00030980D01*
X00115520D01*
Y00032685D01*
X00132250D01*
X00133136Y00032862D01*
X00133140Y00032864D01*
X00135432D01*
X00135918Y00031691D01*
X00125541Y00021314D01*
X00115520D01*
Y00023020D01*
X00107790D01*
X00107480Y00023020D01*
X00106520D01*
X00106210Y00023020D01*
X00098480D01*
Y00021314D01*
X00087459D01*
X00082387Y00026387D01*
X00081636Y00026888D01*
X00080750Y00027064D01*
X00072096D01*
X00071756Y00028335D01*
X00073424Y00029298D01*
X00075472Y00031346D01*
X00076920Y00033854D01*
X00077023Y00034235D01*
X00098480D01*
Y00030980D01*
D02*
G37*
G36*
X00162710Y00036641D02*
Y00035498D01*
X00163477Y00033645D01*
X00164050Y00033073D01*
X00152488Y00021512D01*
X00151987Y00020761D01*
X00151811Y00019875D01*
Y00000084D01*
X00142041Y-00009686D01*
X00115520D01*
Y-00007980D01*
X00107790D01*
X00107480Y-00007980D01*
X00106520D01*
X00106210Y-00007980D01*
X00098480D01*
Y-00009686D01*
X00092000D01*
X00091114Y-00009862D01*
X00090363Y-00010363D01*
X00090341Y-00010386D01*
X00077438D01*
X00076920Y-00008454D01*
X00075472Y-00005946D01*
X00073424Y-00003898D01*
X00072015Y-00003085D01*
X00072356Y-00001814D01*
X00072500D01*
X00073386Y-00001638D01*
X00074137Y-00001137D01*
X00074959Y-00000314D01*
X00098480D01*
Y-00002020D01*
X00106210D01*
X00106520Y-00002020D01*
X00107480D01*
X00107790Y-00002020D01*
X00115520D01*
Y-00000314D01*
X00122250D01*
X00123136Y-00000138D01*
X00123887Y00000363D01*
X00144957Y00021434D01*
X00145498Y00021210D01*
X00147502D01*
X00149355Y00021977D01*
X00150773Y00023395D01*
X00151540Y00025247D01*
Y00027253D01*
X00150938Y00028705D01*
X00151561Y00029976D01*
X00153290D01*
X00154176Y00030152D01*
X00154927Y00030653D01*
X00161440Y00037167D01*
X00162710Y00036641D01*
D02*
G37*
G36*
X00141112Y00029415D02*
X00141827Y00028138D01*
X00141460Y00027253D01*
Y00025247D01*
X00141684Y00024707D01*
X00121291Y00004315D01*
X00115520D01*
Y00006020D01*
X00107790D01*
X00107480Y00006020D01*
X00106520D01*
X00106210Y00006020D01*
X00098480D01*
Y00004315D01*
X00075637D01*
X00075111Y00005584D01*
X00075472Y00005946D01*
X00076920Y00008454D01*
X00077670Y00011252D01*
Y00014148D01*
X00076920Y00016946D01*
X00075472Y00019454D01*
X00073761Y00021165D01*
X00074237Y00022436D01*
X00079791D01*
X00084863Y00017363D01*
X00085614Y00016862D01*
X00086500Y00016686D01*
X00098480D01*
Y00014980D01*
X00106210D01*
X00106520Y00014980D01*
X00107480D01*
X00107790Y00014980D01*
X00115520D01*
Y00016686D01*
X00126500D01*
X00127386Y00016862D01*
X00128137Y00017363D01*
X00140292Y00029519D01*
X00141112Y00029415D01*
D02*
G37*
%LPC*%
G36*
X00228250Y00090250D02*
X00223500D01*
Y00087250D01*
X00228250D01*
Y00090250D01*
D02*
G37*
G36*
X00220500D02*
X00215750D01*
Y00087250D01*
X00220500D01*
Y00090250D01*
D02*
G37*
G36*
X00239250Y00083500D02*
X00236500D01*
Y00081500D01*
X00239250D01*
Y00083500D01*
D02*
G37*
G36*
X00233500D02*
X00230750D01*
Y00081500D01*
X00233500D01*
Y00083500D01*
D02*
G37*
G36*
X00228250Y00084250D02*
X00223500D01*
Y00081250D01*
X00228250D01*
Y00084250D01*
D02*
G37*
G36*
X00220500D02*
X00215750D01*
Y00081250D01*
X00220500D01*
Y00084250D01*
D02*
G37*
G36*
X00239250Y00078500D02*
X00236500D01*
Y00076500D01*
X00239250D01*
Y00078500D01*
D02*
G37*
G36*
X00233500D02*
X00230750D01*
Y00076500D01*
X00233500D01*
Y00078500D01*
D02*
G37*
G36*
X00042718Y00074500D02*
X00039822D01*
X00037024Y00073750D01*
X00034516Y00072302D01*
X00032468Y00070254D01*
X00031020Y00067746D01*
X00030270Y00064948D01*
Y00062052D01*
X00031020Y00059254D01*
X00032468Y00056746D01*
X00034516Y00054698D01*
X00037024Y00053250D01*
X00039822Y00052500D01*
X00042718D01*
X00045516Y00053250D01*
X00048024Y00054698D01*
X00050072Y00056746D01*
X00051520Y00059254D01*
X00052270Y00062052D01*
Y00064948D01*
X00051520Y00067746D01*
X00050072Y00070254D01*
X00048024Y00072302D01*
X00045516Y00073750D01*
X00042718Y00074500D01*
D02*
G37*
G36*
X00185750Y00041500D02*
X00182750D01*
Y00036750D01*
X00185750D01*
Y00041500D01*
D02*
G37*
G36*
X00179750D02*
X00176750D01*
Y00036750D01*
X00179750D01*
Y00041500D01*
D02*
G37*
G36*
X00179750Y00032250D02*
X00176750D01*
Y00027500D01*
X00179750D01*
Y00032250D01*
D02*
G37*
G36*
Y00024500D02*
X00176750D01*
Y00019750D01*
X00179750D01*
Y00024500D01*
D02*
G37*
G36*
X00301000Y00020500D02*
X00299000D01*
Y00017750D01*
X00301000D01*
Y00020500D01*
D02*
G37*
G36*
X00296000D02*
X00294000D01*
Y00017750D01*
X00296000D01*
Y00020500D01*
D02*
G37*
G36*
X00173750Y00016250D02*
X00170750D01*
Y00011500D01*
X00173750D01*
Y00016250D01*
D02*
G37*
G36*
X00167750D02*
X00164750D01*
Y00011500D01*
X00167750D01*
Y00016250D01*
D02*
G37*
G36*
X00293270Y00013020D02*
X00284730D01*
Y00011968D01*
X00283674Y00011262D01*
X00283002Y00011540D01*
X00280998D01*
X00279145Y00010773D01*
X00277727Y00009355D01*
X00277233Y00008874D01*
X00276250Y00009069D01*
X00269750D01*
X00268767Y00008874D01*
X00267933Y00008317D01*
X00267376Y00007483D01*
X00267181Y00006500D01*
X00267376Y00005517D01*
X00267933Y00004683D01*
Y00003317D01*
X00267376Y00002483D01*
X00267181Y00001500D01*
X00266500Y00000819D01*
X00265517Y00000624D01*
X00264683Y00000067D01*
X00263317D01*
X00262483Y00000624D01*
X00261500Y00000819D01*
X00260517Y00000624D01*
X00259683Y00000067D01*
X00258317D01*
X00257483Y00000624D01*
X00256500Y00000819D01*
X00255517Y00000624D01*
X00254683Y00000067D01*
X00253317D01*
X00252483Y00000624D01*
X00251500Y00000819D01*
X00250517Y00000624D01*
X00249683Y00000067D01*
X00249126Y-00000767D01*
X00248931Y-00001750D01*
Y-00008250D01*
X00249126Y-00009233D01*
X00249281Y-00009465D01*
Y-00012500D01*
Y-00019394D01*
X00248011Y-00019884D01*
X00247355Y-00019227D01*
X00245502Y-00018460D01*
X00243498D01*
X00241645Y-00019227D01*
X00240227Y-00020645D01*
X00239460Y-00022497D01*
Y-00024502D01*
X00240227Y-00026355D01*
X00241645Y-00027773D01*
X00243498Y-00028540D01*
X00245502D01*
X00247355Y-00027773D01*
X00248358Y-00026770D01*
X00255646D01*
Y-00029000D01*
X00253500D01*
Y-00032500D01*
Y-00036000D01*
X00255646D01*
Y-00041507D01*
X00255339Y-00041712D01*
X00253334D01*
X00251481Y-00042479D01*
X00250064Y-00043897D01*
X00249296Y-00045749D01*
Y-00047754D01*
X00250064Y-00049607D01*
X00251481Y-00051025D01*
X00253334Y-00051792D01*
X00255099D01*
Y-00052891D01*
X00255867Y-00054744D01*
X00257284Y-00056161D01*
X00259137Y-00056929D01*
X00261142D01*
X00262994Y-00056161D01*
X00264412Y-00054744D01*
X00265179Y-00052891D01*
Y-00050886D01*
X00264412Y-00049034D01*
X00262994Y-00047616D01*
X00262218Y-00047295D01*
X00262354Y-00046611D01*
Y-00037106D01*
X00262750Y-00036000D01*
X00263624Y-00036000D01*
X00265500D01*
Y-00032500D01*
Y-00029000D01*
X00262750D01*
X00262354Y-00027894D01*
Y-00027781D01*
X00262980Y-00026770D01*
X00271020D01*
Y-00020230D01*
X00268910D01*
Y-00009050D01*
X00269069Y-00008250D01*
Y-00002229D01*
X00269498Y-00001498D01*
X00270229Y-00001069D01*
X00276250D01*
X00277051Y-00000910D01*
X00277595D01*
X00277862Y-00001177D01*
X00278612Y-00001678D01*
X00279498Y-00001854D01*
X00281831D01*
X00285230Y-00005253D01*
Y-00008642D01*
X00284227Y-00009645D01*
X00283460Y-00011497D01*
Y-00013503D01*
X00284227Y-00015355D01*
X00285645Y-00016773D01*
X00287498Y-00017540D01*
X00289503D01*
X00291355Y-00016773D01*
X00292773Y-00015355D01*
X00293540Y-00013503D01*
Y-00011627D01*
X00294097Y-00010583D01*
Y-00010583D01*
X00294097Y-00010583D01*
X00294097Y-00010583D01*
X00294398Y-00010250D01*
X00294747Y-00010250D01*
X00296000D01*
Y-00007500D01*
X00294000D01*
Y-00009140D01*
X00294000Y-00009289D01*
X00293396Y-00009464D01*
X00292220Y-00009093D01*
X00291770Y-00008642D01*
Y-00001980D01*
X00288503D01*
X00286716Y-00000193D01*
X00287202Y00000980D01*
X00293270D01*
Y00013020D01*
D02*
G37*
G36*
X00320520D02*
X00311980D01*
Y00009315D01*
X00308770D01*
Y00013020D01*
X00300230D01*
Y00000980D01*
X00308770D01*
Y00004685D01*
X00311980D01*
Y00000980D01*
X00320520D01*
Y00013020D01*
D02*
G37*
G36*
X00336250Y00013250D02*
X00333250D01*
Y00008500D01*
X00336250D01*
Y00013250D01*
D02*
G37*
G36*
X00330250D02*
X00327250D01*
Y00008500D01*
X00330250D01*
Y00013250D01*
D02*
G37*
G36*
X00173750Y00008500D02*
X00170750D01*
Y00003750D01*
X00173750D01*
Y00008500D01*
D02*
G37*
G36*
X00167750D02*
X00164750D01*
Y00003750D01*
X00167750D01*
Y00008500D01*
D02*
G37*
G36*
X00199750Y00005000D02*
X00197000D01*
Y00003000D01*
X00199750D01*
Y00005000D01*
D02*
G37*
G36*
X00194000D02*
X00191250D01*
Y00003000D01*
X00194000D01*
Y00005000D01*
D02*
G37*
G36*
X00336250Y00005500D02*
X00333250D01*
Y00000750D01*
X00336250D01*
Y00005500D01*
D02*
G37*
G36*
X00330250D02*
X00327250D01*
Y00000750D01*
X00330250D01*
Y00005500D01*
D02*
G37*
G36*
X00185750Y00032250D02*
X00182750D01*
Y00026000D01*
Y00019750D01*
X00185750D01*
Y00020766D01*
X00187020Y00021615D01*
X00187997Y00021210D01*
X00190002D01*
X00190885Y00021576D01*
X00191969Y00020810D01*
X00191778Y00019883D01*
X00191279Y00019814D01*
X00190500D01*
X00189614Y00019638D01*
X00188863Y00019137D01*
X00185747Y00016020D01*
X00180480D01*
Y00003980D01*
X00189020D01*
Y00012747D01*
X00190262Y00013989D01*
X00190353Y00014041D01*
X00191480Y00013411D01*
X00191480Y00012649D01*
Y00007230D01*
X00199520D01*
X00199520Y00007230D01*
Y00007230D01*
X00200738Y00007104D01*
X00201596Y00006749D01*
X00201859D01*
X00202345Y00005576D01*
X00201863Y00005095D01*
X00201362Y00004344D01*
X00201185Y00003458D01*
Y-00000651D01*
X00201020Y-00000761D01*
X00199750Y-00000083D01*
Y00000000D01*
X00197000D01*
Y-00002000D01*
X00198660D01*
X00199181Y-00002000D01*
X00199707Y-00003270D01*
X00197747Y-00005230D01*
X00192980D01*
Y-00011770D01*
X00201020D01*
Y-00008503D01*
X00205137Y-00004387D01*
X00205638Y-00003636D01*
X00205814Y-00002750D01*
Y00002500D01*
X00209137Y00005822D01*
X00209638Y00006572D01*
X00209776Y00007263D01*
X00210275Y00007762D01*
X00210776Y00008513D01*
X00211750Y00008931D01*
X00218250D01*
X00219233Y00009126D01*
X00220067Y00009683D01*
X00220624Y00010517D01*
X00220819Y00011500D01*
X00220624Y00012483D01*
X00220067Y00013317D01*
D01*
Y00014683D01*
X00220624Y00015517D01*
X00220819Y00016500D01*
X00220624Y00017483D01*
X00220067Y00018317D01*
Y00019683D01*
X00220624Y00020517D01*
X00220819Y00021500D01*
X00220624Y00022483D01*
X00220067Y00023317D01*
Y00024683D01*
X00220624Y00025517D01*
X00220819Y00026500D01*
X00220624Y00027483D01*
X00220067Y00028317D01*
X00219233Y00028874D01*
X00218250Y00029069D01*
X00211750D01*
X00210767Y00028874D01*
X00210304Y00028565D01*
X00201020D01*
Y00032020D01*
X00192480D01*
Y00031557D01*
X00191210Y00030790D01*
X00190002Y00031290D01*
X00187997D01*
X00187020Y00030885D01*
X00185750Y00031734D01*
Y00032250D01*
D02*
G37*
G36*
X00194000Y00000000D02*
X00191250D01*
Y-00002000D01*
X00194000D01*
Y00000000D01*
D02*
G37*
G36*
X00301000Y-00001750D02*
X00299000D01*
Y-00004500D01*
X00301000D01*
Y-00001750D01*
D02*
G37*
G36*
X00296000D02*
X00294000D01*
Y-00004500D01*
X00296000D01*
Y-00001750D01*
D02*
G37*
G36*
X00301000Y-00007500D02*
X00299000D01*
Y-00010250D01*
X00301000D01*
Y-00007500D01*
D02*
G37*
G36*
X00241500Y00000819D02*
X00240517Y00000624D01*
X00239683Y00000067D01*
X00239126Y-00000767D01*
X00238931Y-00001750D01*
Y-00008250D01*
X00239126Y-00009233D01*
X00239683Y-00010067D01*
X00240517Y-00010624D01*
X00241500Y-00010819D01*
X00242483Y-00010624D01*
X00243317Y-00010067D01*
X00243874Y-00009233D01*
X00244069Y-00008250D01*
Y-00001750D01*
X00243874Y-00000767D01*
X00243317Y00000067D01*
X00242483Y00000624D01*
X00241500Y00000819D01*
D02*
G37*
G36*
X00201250Y-00014000D02*
X00198500D01*
Y-00016000D01*
X00201250D01*
Y-00014000D01*
D02*
G37*
G36*
X00195500D02*
X00192750D01*
Y-00016000D01*
X00195500D01*
Y-00014000D01*
D02*
G37*
G36*
X00231500Y00000819D02*
X00230517Y00000624D01*
X00229683Y00000067D01*
X00229126Y-00000767D01*
X00228931Y-00001750D01*
Y-00008250D01*
X00229126Y-00009233D01*
X00229186Y-00009322D01*
Y-00011541D01*
X00228363Y-00012363D01*
X00227862Y-00013114D01*
X00227686Y-00014000D01*
Y-00017980D01*
X00225191D01*
X00224268Y-00017980D01*
X00223439Y-00016934D01*
X00223638Y-00016636D01*
X00223815Y-00015750D01*
Y-00012500D01*
Y-00009322D01*
X00223874Y-00009233D01*
X00224069Y-00008250D01*
Y-00001750D01*
X00223874Y-00000767D01*
X00223317Y00000067D01*
X00222483Y00000624D01*
X00221500Y00000819D01*
X00220517Y00000624D01*
X00219683Y00000067D01*
X00219126Y-00000767D01*
X00218931Y-00001750D01*
Y-00008250D01*
X00219126Y-00009233D01*
X00219186Y-00009322D01*
Y-00012500D01*
Y-00014791D01*
X00209613Y-00024363D01*
X00209112Y-00025114D01*
X00208936Y-00026000D01*
Y-00035291D01*
X00204291Y-00039936D01*
X00196020D01*
Y-00037980D01*
X00183980D01*
Y-00046520D01*
X00196020D01*
Y-00044564D01*
X00205250D01*
X00206136Y-00044388D01*
X00206887Y-00043887D01*
X00212887Y-00037887D01*
X00213388Y-00037136D01*
X00213564Y-00036250D01*
Y-00026959D01*
X00222828Y-00017695D01*
X00223980Y-00018339D01*
X00223980Y-00019131D01*
Y-00026520D01*
X00236020D01*
Y-00017980D01*
X00232314D01*
Y-00014959D01*
X00233137Y-00014137D01*
X00233638Y-00013386D01*
X00233815Y-00012500D01*
Y-00012500D01*
Y-00009322D01*
X00233874Y-00009233D01*
X00234069Y-00008250D01*
Y-00001750D01*
X00233874Y-00000767D01*
X00233317Y00000067D01*
X00232483Y00000624D01*
X00231500Y00000819D01*
D02*
G37*
G36*
X00201250Y-00019000D02*
X00198500D01*
Y-00021000D01*
X00201250D01*
Y-00019000D01*
D02*
G37*
G36*
X00195500D02*
X00192750D01*
Y-00021000D01*
X00195500D01*
Y-00019000D01*
D02*
G37*
G36*
X00268500Y-00029000D02*
Y-00031000D01*
X00271250D01*
Y-00029000D01*
X00268500D01*
D02*
G37*
G36*
X00250500D02*
X00247750D01*
Y-00031000D01*
X00250500D01*
Y-00029000D01*
D02*
G37*
G36*
X00271250Y-00034000D02*
X00268500D01*
Y-00036000D01*
X00271250D01*
Y-00034000D01*
D02*
G37*
G36*
X00250500D02*
X00247750D01*
Y-00036000D01*
X00250500D01*
Y-00034000D01*
D02*
G37*
G36*
X00236250Y-00033250D02*
X00231500D01*
Y-00036250D01*
X00236250D01*
Y-00033250D01*
D02*
G37*
G36*
X00228500D02*
X00223750D01*
Y-00036250D01*
X00228500D01*
Y-00033250D01*
D02*
G37*
G36*
X00042770Y-00027631D02*
Y-00036600D01*
X00051739D01*
X00051054Y-00034047D01*
X00049672Y-00031653D01*
X00047717Y-00029698D01*
X00045323Y-00028316D01*
X00042770Y-00027631D01*
D02*
G37*
G36*
X00039770D02*
X00037217Y-00028316D01*
X00034823Y-00029698D01*
X00032868Y-00031653D01*
X00031486Y-00034047D01*
X00030801Y-00036600D01*
X00039770D01*
Y-00027631D01*
D02*
G37*
G36*
X00068170Y-00027631D02*
Y-00036600D01*
X00077139D01*
X00076454Y-00034047D01*
X00075072Y-00031653D01*
X00073117Y-00029698D01*
X00070723Y-00028316D01*
X00068170Y-00027631D01*
D02*
G37*
G36*
X00065170Y-00027632D02*
X00062617Y-00028316D01*
X00060223Y-00029698D01*
X00058268Y-00031653D01*
X00056886Y-00034047D01*
X00056202Y-00036600D01*
X00065170D01*
Y-00027632D01*
D02*
G37*
G36*
X00236250Y-00039250D02*
X00231500D01*
Y-00042250D01*
X00236250D01*
Y-00039250D01*
D02*
G37*
G36*
X00228500D02*
X00223750D01*
Y-00042250D01*
X00228500D01*
Y-00039250D01*
D02*
G37*
G36*
X00065170Y-00039600D02*
X00056202D01*
X00056886Y-00042153D01*
X00058268Y-00044547D01*
X00060223Y-00046502D01*
X00062617Y-00047884D01*
X00065170Y-00048568D01*
Y-00039600D01*
D02*
G37*
G36*
X00051739Y-00039600D02*
X00042770D01*
Y-00048569D01*
X00045323Y-00047884D01*
X00047717Y-00046502D01*
X00049672Y-00044547D01*
X00051054Y-00042153D01*
X00051739Y-00039600D01*
D02*
G37*
G36*
X00039770D02*
X00030801D01*
X00031486Y-00042153D01*
X00032868Y-00044547D01*
X00034823Y-00046502D01*
X00037217Y-00047884D01*
X00039770Y-00048569D01*
Y-00039600D01*
D02*
G37*
G36*
X00077138Y-00039600D02*
X00068170D01*
Y-00048569D01*
X00070723Y-00047884D01*
X00073117Y-00046502D01*
X00075072Y-00044547D01*
X00076454Y-00042153D01*
X00077138Y-00039600D01*
D02*
G37*
G36*
X00286200Y-00053200D02*
X00279200D01*
Y-00057000D01*
X00286200D01*
Y-00053200D01*
D02*
G37*
G36*
X00276200D02*
X00269200D01*
Y-00057000D01*
X00276200D01*
Y-00053200D01*
D02*
G37*
G36*
X00122000Y-00050085D02*
Y-00057500D01*
X00129416D01*
X00128887Y-00055526D01*
X00127702Y-00053474D01*
X00126026Y-00051798D01*
X00123974Y-00050613D01*
X00122000Y-00050085D01*
D02*
G37*
G36*
X00119000D02*
X00117026Y-00050613D01*
X00114974Y-00051798D01*
X00113298Y-00053474D01*
X00112113Y-00055526D01*
X00111585Y-00057500D01*
X00119000D01*
Y-00050085D01*
D02*
G37*
G36*
X00248570Y-00053430D02*
X00232030D01*
Y-00057986D01*
X00227770D01*
Y-00055980D01*
X00221230D01*
Y-00064020D01*
X00227770D01*
Y-00062014D01*
X00232030D01*
Y-00063570D01*
X00248570D01*
Y-00053430D01*
D02*
G37*
G36*
X00330500Y-00056500D02*
X00326000D01*
Y-00062000D01*
X00330500D01*
Y-00056500D01*
D02*
G37*
G36*
X00342250Y-00060000D02*
X00339500D01*
Y-00062000D01*
X00342250D01*
Y-00060000D01*
D02*
G37*
G36*
X00336500D02*
X00333750D01*
Y-00062000D01*
X00336500D01*
Y-00060000D01*
D02*
G37*
G36*
X00286200Y-00060000D02*
X00279200D01*
Y-00063800D01*
X00286200D01*
Y-00060000D01*
D02*
G37*
G36*
X00276200D02*
X00269200D01*
Y-00063800D01*
X00276200D01*
Y-00060000D01*
D02*
G37*
G36*
X00342250Y-00065000D02*
X00339500D01*
Y-00067000D01*
X00342250D01*
Y-00065000D01*
D02*
G37*
G36*
X00336500D02*
X00333750D01*
Y-00067000D01*
X00336500D01*
Y-00065000D01*
D02*
G37*
G36*
X00129416Y-00060500D02*
X00122000D01*
Y-00067916D01*
X00123974Y-00067387D01*
X00126026Y-00066202D01*
X00127702Y-00064526D01*
X00128887Y-00062474D01*
X00129416Y-00060500D01*
D02*
G37*
G36*
X00119000D02*
X00111585D01*
X00112113Y-00062474D01*
X00113298Y-00064526D01*
X00114974Y-00066202D01*
X00117026Y-00067387D01*
X00119000Y-00067916D01*
Y-00060500D01*
D02*
G37*
G36*
X00165000Y-00049500D02*
X00146000D01*
Y-00068500D01*
X00165000D01*
Y-00049500D01*
D02*
G37*
G36*
X00218770Y-00055980D02*
X00212230D01*
Y-00064020D01*
X00213486D01*
Y-00068499D01*
X00213340Y-00068646D01*
X00211082D01*
Y-00067705D01*
X00210315Y-00065852D01*
X00208897Y-00064435D01*
X00207045Y-00063667D01*
X00205040D01*
X00203188Y-00064435D01*
X00201770Y-00065852D01*
X00201003Y-00067705D01*
Y-00069710D01*
X00201770Y-00071562D01*
X00202685Y-00072477D01*
X00201477Y-00073685D01*
X00200710Y-00075537D01*
Y-00077543D01*
X00201477Y-00079395D01*
X00202895Y-00080813D01*
X00204748Y-00081580D01*
X00206752D01*
X00208605Y-00080813D01*
X00210023Y-00079395D01*
X00210790Y-00077543D01*
Y-00076820D01*
X00211957Y-00076331D01*
X00212986Y-00077020D01*
Y-00079980D01*
X00211230D01*
Y-00088020D01*
X00217770D01*
Y-00079980D01*
X00217014D01*
Y-00074166D01*
X00216861Y-00073396D01*
X00216424Y-00072742D01*
X00215682Y-00072000D01*
X00216924Y-00070758D01*
X00217361Y-00070104D01*
X00217514Y-00069334D01*
Y-00064020D01*
X00218770D01*
Y-00055980D01*
D02*
G37*
G36*
X00196020Y-00053480D02*
X00183980D01*
Y-00062020D01*
X00184943D01*
X00185564Y-00063290D01*
X00184960Y-00064748D01*
Y-00066753D01*
X00185727Y-00068605D01*
X00187145Y-00070023D01*
X00188997Y-00070790D01*
X00191003D01*
X00192855Y-00070023D01*
X00194273Y-00068605D01*
X00195040Y-00066753D01*
Y-00064748D01*
X00194436Y-00063290D01*
X00195057Y-00062020D01*
X00196020D01*
Y-00053480D01*
D02*
G37*
G36*
X00068118Y-00052500D02*
X00065222D01*
X00062424Y-00053250D01*
X00059916Y-00054698D01*
X00057868Y-00056746D01*
X00056420Y-00059254D01*
X00055670Y-00062052D01*
Y-00064948D01*
X00056420Y-00067746D01*
X00057868Y-00070254D01*
X00059916Y-00072302D01*
X00062424Y-00073750D01*
X00065222Y-00074500D01*
X00068118D01*
X00070916Y-00073750D01*
X00073424Y-00072302D01*
X00075472Y-00070254D01*
X00076920Y-00067746D01*
X00077670Y-00064948D01*
Y-00062052D01*
X00076920Y-00059254D01*
X00075472Y-00056746D01*
X00073424Y-00054698D01*
X00070916Y-00053250D01*
X00068118Y-00052500D01*
D02*
G37*
G36*
X00042718D02*
X00039822D01*
X00037024Y-00053250D01*
X00034516Y-00054698D01*
X00032468Y-00056746D01*
X00031020Y-00059254D01*
X00030270Y-00062052D01*
Y-00064948D01*
X00031020Y-00067746D01*
X00032468Y-00070254D01*
X00034516Y-00072302D01*
X00037024Y-00073750D01*
X00039822Y-00074500D01*
X00042718D01*
X00045516Y-00073750D01*
X00048024Y-00072302D01*
X00050072Y-00070254D01*
X00051520Y-00067746D01*
X00052270Y-00064948D01*
Y-00062052D01*
X00051520Y-00059254D01*
X00050072Y-00056746D01*
X00048024Y-00054698D01*
X00045516Y-00053250D01*
X00042718Y-00052500D01*
D02*
G37*
G36*
X00248570Y-00065930D02*
X00232030D01*
Y-00076070D01*
X00248570D01*
Y-00065930D01*
D02*
G37*
G36*
Y-00078430D02*
X00232030D01*
Y-00081986D01*
X00226770D01*
Y-00079980D01*
X00220230D01*
Y-00088020D01*
X00226770D01*
Y-00086014D01*
X00232030D01*
Y-00088570D01*
X00248570D01*
Y-00078430D01*
D02*
G37*
G36*
X00344750Y-00081750D02*
X00341750D01*
Y-00086500D01*
X00344750D01*
Y-00081750D01*
D02*
G37*
G36*
X00338750D02*
X00335750D01*
Y-00086500D01*
X00338750D01*
Y-00081750D01*
D02*
G37*
G36*
X00344750Y-00089500D02*
X00341750D01*
Y-00094250D01*
X00344750D01*
Y-00089500D01*
D02*
G37*
G36*
X00338750D02*
X00335750D01*
Y-00094250D01*
X00338750D01*
Y-00089500D01*
D02*
G37*
%LPD*%
D12*
X00241500Y00053000D02*
Y00061188D01*
X00244875Y00066187D02*
Y00070875D01*
X00243750Y00065062D02*
X00244875Y00066187D01*
X00243750Y00063438D02*
Y00065062D01*
X00241500Y00061188D02*
X00243750Y00063438D01*
X00244875Y00070875D02*
X00245000Y00071000D01*
X00154125Y00019875D02*
X00167361Y00033111D01*
X00111500Y-00012000D02*
X00143000D01*
X00154125Y-00000875D02*
Y00019875D01*
X00143000Y-00012000D02*
X00154125Y-00000875D01*
X00167361Y00036111D02*
X00167750Y00036500D01*
X00167361Y00033111D02*
Y00036111D01*
X00427500Y00059500D02*
Y00067500D01*
X00427000Y00059000D02*
X00427500Y00059500D01*
X00207500Y00008260D02*
X00208638Y00009398D01*
X00203500Y00003458D02*
X00207500Y00007458D01*
X00208638Y00009398D02*
Y00010233D01*
X00207500Y00007458D02*
Y00008260D01*
X00208638Y00010233D02*
X00209810Y00011404D01*
X00214904D01*
X00215000Y00011500D01*
X00202598Y00011500D02*
X00203000D01*
X00202024Y00011215D02*
X00202598Y00011789D01*
X00195500Y00010500D02*
X00196215Y00011215D01*
X00202024D01*
X00203289Y00011789D02*
X00203410D01*
X00202598D02*
X00203289D01*
X00206961Y00014875D02*
X00208586Y00016500D01*
X00203000Y00011500D02*
X00203289Y00011789D01*
X00203410D02*
X00206496Y00014875D01*
X00203500Y-00002750D02*
Y00003458D01*
X00206496Y00014875D02*
X00206961D01*
X00199250Y00018250D02*
X00200993D01*
X00202750Y00020007D02*
Y00020233D01*
X00190500Y00017500D02*
X00198500D01*
X00199250Y00018250D01*
X00203922Y00021404D02*
X00214904D01*
X00200993Y00018250D02*
X00202750Y00020007D01*
Y00020233D02*
X00203922Y00021404D01*
X00211615Y00026500D02*
X00215000D01*
X00196750Y00026000D02*
X00197000Y00026250D01*
X00196500D02*
X00196750Y00026000D01*
X00211365Y00026250D02*
X00211615Y00026500D01*
X00189000Y00026250D02*
X00196500D01*
X00197000D02*
X00211365D01*
X00219172Y00058714D02*
X00221500Y00056385D01*
Y00053000D02*
Y00056385D01*
X00219172Y00058714D02*
Y00061328D01*
X00218000Y00062500D02*
X00219172Y00061328D01*
X00207000Y00062500D02*
X00218000D01*
X00196000Y00051500D02*
X00207000Y00062500D01*
X00172500Y00051500D02*
X00196000D01*
X00153290Y00032290D02*
X00172500Y00051500D01*
X00126500Y00019000D02*
X00139790Y00032290D01*
X00132429Y00035179D02*
X00151429D01*
X00139790Y00032290D02*
X00153290D01*
X00151429Y00035179D02*
X00165500Y00049250D01*
X00132250Y00035000D02*
X00132429Y00035179D01*
X00111500Y00035000D02*
X00132250D01*
X00111500Y00066000D02*
X00200000D01*
X00111500Y00051000D02*
X00153708D01*
X00163498Y00060790D02*
X00173932D01*
X00153708Y00051000D02*
X00163498Y00060790D01*
X00200000Y00066000D02*
X00205500Y00071500D01*
X00165500Y00054250D02*
X00166000Y00054750D01*
X00165500Y00049250D02*
Y00054250D01*
X00111500Y00019000D02*
X00126500D01*
X00122250Y00002000D02*
X00146500Y00026250D01*
X00111500Y00002000D02*
X00122250D01*
X00173932Y00060790D02*
X00176222Y00058500D01*
X00189250D01*
X00308784Y00025701D02*
X00313596D01*
X00280029Y00027821D02*
X00306665D01*
X00313596Y00025701D02*
X00314170Y00025127D01*
X00306665Y00027821D02*
X00308784Y00025701D01*
X00297500Y00022000D02*
X00298176Y00021324D01*
X00304426D01*
X00305000Y00020750D01*
X00284257Y00031500D02*
X00285047Y00030710D01*
X00308673D02*
X00310250Y00032288D01*
X00285047Y00030710D02*
X00308673D01*
X00315538Y00032288D02*
X00315750Y00032500D01*
X00310250Y00032288D02*
X00315538D01*
X00278804Y00026596D02*
X00280029Y00027821D01*
X00273096Y00026596D02*
X00278804D01*
X00273000Y00026500D02*
X00273096Y00026596D01*
X00273000Y00031500D02*
X00284257D01*
X00066670Y00063500D02*
X00086250D01*
X00088750Y00066000D01*
X00102500D01*
X00041270Y00038100D02*
X00054170Y00051000D01*
X00102500D01*
X00068220Y00036550D02*
X00100950D01*
X00102500Y00035000D01*
X00066670Y00038100D02*
X00068220Y00036550D01*
X00086500Y00019000D02*
X00102500D01*
X00080750Y00024750D02*
X00086500Y00019000D01*
X00053320Y00024750D02*
X00080750D01*
X00041270Y00012700D02*
X00053320Y00024750D01*
X00041270Y-00012700D02*
X00054470Y00000500D01*
X00072500D01*
X00074000Y00002000D02*
X00102500D01*
X00072500Y00000500D02*
X00074000Y00002000D01*
X00091300Y-00012700D02*
X00092000Y-00012000D01*
X00102500D01*
X00066670Y-00012700D02*
X00091300D01*
X00190000Y-00065750D02*
Y-00057750D01*
X00244500Y-00014688D02*
X00246500Y-00012688D01*
X00244500Y-00015500D02*
Y-00014688D01*
X00246500Y-00012688D02*
Y-00005000D01*
X00236500Y-00013948D02*
X00237246Y-00014694D01*
X00236500Y-00013948D02*
Y-00005000D01*
X00237246Y-00015506D02*
Y-00014694D01*
X00208000Y-00001750D02*
X00209500Y-00000250D01*
X00208000Y-00007250D02*
Y-00001750D01*
X00209500Y-00000250D02*
X00209865D01*
X00197750Y-00008500D02*
X00203500Y-00002750D01*
X00211615Y00001500D02*
X00215000D01*
X00209865Y-00000250D02*
X00211615Y00001500D01*
X00208292Y00031500D02*
X00215000D01*
X00202791Y00034067D02*
X00203365Y00033493D01*
X00206299D02*
X00208292Y00031500D01*
X00203365Y00033493D02*
X00206299D01*
X00208904Y00036596D02*
X00214904D01*
X00204500Y00041000D02*
X00208904Y00036596D01*
X00244500Y-00023500D02*
X00252000D01*
X00288500Y-00012500D02*
Y-00006000D01*
X00261000Y00064500D02*
Y00074500D01*
X00261500Y00053000D02*
Y00064000D01*
X00261000Y00064500D02*
X00261500Y00064000D01*
X00295000Y00080000D02*
X00305250D01*
X00271750Y00074500D02*
X00272750Y00075500D01*
X00271000Y00074500D02*
X00271750D01*
X00276500Y00080000D02*
X00283500D01*
X00272750Y00076250D02*
X00276500Y00080000D01*
X00272750Y00075500D02*
Y00076250D01*
X00271000Y00065750D02*
Y00074500D01*
X00266500Y00061250D02*
X00271000Y00065750D01*
X00266500Y00053000D02*
Y00061250D01*
X00288500Y-00006000D02*
Y-00005250D01*
X00282790Y00000460D02*
X00288500Y-00005250D01*
X00279498Y00000460D02*
X00282790D01*
X00273096Y00001404D02*
X00278554D01*
X00279498Y00000460D01*
X00273000Y00001500D02*
X00273096Y00001404D01*
X00324500Y-00063500D02*
X00324500Y-00063500D01*
X00338000D01*
X00266500Y-00005000D02*
X00266596Y-00005096D01*
Y-00023096D02*
Y-00005096D01*
Y-00023096D02*
X00267000Y-00023500D01*
X00251596Y-00023096D02*
Y-00005096D01*
Y-00023096D02*
X00252000Y-00023500D01*
X00251500Y-00005000D02*
X00251596Y-00005096D01*
X00190000Y-00042250D02*
X00205250D01*
X00211250Y-00036250D01*
Y-00026000D01*
X00221500Y-00015750D01*
Y-00005000D01*
X00230000Y-00022250D02*
Y-00014000D01*
X00231500Y-00012500D01*
Y-00005000D01*
X00197000Y-00008500D02*
X00197750D01*
X00208586Y00016500D02*
X00215000D01*
X00184750Y00011750D02*
X00190500Y00017500D01*
X00184750Y00010000D02*
Y00011750D01*
X00214904Y00021404D02*
X00215000Y00021500D01*
X00198750Y00041000D02*
X00204500D01*
X00196750Y00043000D02*
X00198750Y00041000D01*
X00214904Y00036596D02*
X00215000Y00036500D01*
X00205250Y00046188D02*
Y00047000D01*
X00207238Y00043762D02*
X00209404Y00041596D01*
X00205250Y00046188D02*
X00207238Y00044200D01*
Y00043762D02*
Y00044200D01*
X00209404Y00041596D02*
X00214904D01*
X00215000Y00041500D01*
X00230750Y00061688D02*
Y00062500D01*
Y00061688D02*
X00231500Y00060938D01*
X00224710Y00059998D02*
X00226404Y00058304D01*
Y00053096D02*
Y00058304D01*
X00236790Y00059998D02*
Y00065002D01*
X00235000Y00066792D02*
X00236790Y00065002D01*
X00236500Y00053000D02*
Y00059708D01*
X00236790Y00059998D01*
X00226404Y00053096D02*
X00226500Y00053000D01*
X00231500D02*
Y00060938D01*
X00222250Y00065500D02*
X00224710Y00063040D01*
X00235000Y00066792D02*
Y00071000D01*
X00224710Y00059998D02*
Y00063040D01*
X00222000Y00070250D02*
X00222250Y00070000D01*
Y00065500D02*
Y00070000D01*
X00276385Y00021500D02*
X00276635Y00021250D01*
X00273000Y00021500D02*
X00276385D01*
X00276635Y00021250D02*
X00282000D01*
X00288125Y00021625D02*
X00288500Y00022000D01*
X00282375Y00021625D02*
X00288125D01*
X00282000Y00021250D02*
X00282375Y00021625D01*
X00335057Y-00088000D02*
X00340250D01*
X00332557Y-00090500D02*
X00335057Y-00088000D01*
X00332500Y-00090500D02*
X00332557D01*
X00338000Y-00063500D02*
Y-00056500D01*
X00338125Y-00056375D01*
X00297500Y-00006000D02*
X00304500D01*
X00304625Y-00006125D01*
X00230000Y-00044750D02*
Y-00037750D01*
X00229875Y-00044875D02*
X00230000Y-00044750D01*
X00267000Y-00039500D02*
Y-00032500D01*
X00266875Y-00039625D02*
X00267000Y-00039500D01*
X00252000D02*
Y-00032500D01*
X00251875Y-00039625D02*
X00252000Y-00039500D01*
X00197000Y-00024500D02*
Y-00017500D01*
X00196875Y-00024625D02*
X00197000Y-00024500D01*
X00190057Y00001500D02*
X00195500D01*
X00188057Y-00000500D02*
X00190057Y00001500D01*
X00187500Y-00000500D02*
X00188057D01*
X00162250Y00010000D02*
X00169250D01*
X00162125Y00010125D02*
X00162250Y00010000D01*
X00174250Y00026000D02*
X00181250D01*
X00174125Y00026125D02*
X00174250Y00026000D01*
Y00043000D02*
X00181250D01*
X00174125Y00043125D02*
X00174250Y00043000D01*
X00222000Y00085750D02*
Y00092750D01*
X00222125Y00092875D01*
X00235000Y00080000D02*
Y00087000D01*
X00245000Y00080000D02*
Y00087000D01*
X00271000Y00083500D02*
Y00090500D01*
X00271125Y00090625D01*
X00261000Y00083500D02*
Y00090500D01*
X00261125Y00090625D01*
X00304625Y00036875D02*
X00304750Y00036750D01*
X00297500Y00037000D02*
X00297625Y00036875D01*
X00304625D01*
X00281750Y00037000D02*
X00288500D01*
X00281250Y00036500D02*
X00281750Y00037000D01*
X00273000Y00036500D02*
X00281250D01*
X00282000Y00006500D02*
X00288500D01*
X00273000D02*
X00282000D01*
X00331750Y00007000D02*
X00332000Y00007250D01*
X00340250D01*
X00304500Y00007000D02*
X00316250D01*
X00288500Y00006500D02*
X00289000Y00007000D01*
D13*
X00251080Y00060920D02*
X00251309Y00060691D01*
Y00053191D02*
Y00060691D01*
Y00053191D02*
X00251500Y00053000D01*
D32*
X00475000Y00050000D02*
D03*
Y-00050000D02*
D03*
D41*
X00181250Y00043000D02*
D03*
X00196750D02*
D03*
X00169250Y00010000D02*
D03*
X00184750D02*
D03*
X00340250Y-00088000D02*
D03*
X00355750D02*
D03*
X00289000Y00007000D02*
D03*
X00304500D02*
D03*
X00316250D02*
D03*
X00331750D02*
D03*
X00181250Y00026000D02*
D03*
X00196750D02*
D03*
D42*
X00222000Y00085750D02*
D03*
Y00070250D02*
D03*
X00190000Y-00057750D02*
D03*
Y-00042250D02*
D03*
X00230000Y-00037750D02*
D03*
Y-00022250D02*
D03*
D43*
X00102500Y00002000D02*
D03*
X00111500D02*
D03*
Y-00012000D02*
D03*
X00102500D02*
D03*
Y00019000D02*
D03*
X00111500D02*
D03*
Y00035000D02*
D03*
X00102500D02*
D03*
Y00051000D02*
D03*
X00111500D02*
D03*
Y00066000D02*
D03*
X00102500D02*
D03*
X00297500Y00037000D02*
D03*
X00288500D02*
D03*
D44*
X00296000Y-00082500D02*
D03*
Y-00073500D02*
D03*
X00261000Y00083500D02*
D03*
Y00074500D02*
D03*
D45*
X00215500Y-00060000D02*
D03*
X00224500D02*
D03*
X00336500Y00056000D02*
D03*
X00327500D02*
D03*
X00214500Y-00084000D02*
D03*
X00223500D02*
D03*
X00336500Y00079000D02*
D03*
X00327500D02*
D03*
X00288500Y-00006000D02*
D03*
X00297500D02*
D03*
X00288500Y00022000D02*
D03*
X00297500D02*
D03*
D46*
X00367750Y-00088000D02*
D03*
X00389500D02*
D03*
X00305250Y00080000D02*
D03*
X00283500D02*
D03*
D47*
X00221500Y-00005000D02*
D03*
X00226500D02*
D03*
X00231500D02*
D03*
X00236500D02*
D03*
X00241500D02*
D03*
X00246500D02*
D03*
X00251500D02*
D03*
X00256500D02*
D03*
X00261500D02*
D03*
X00266500D02*
D03*
Y00053000D02*
D03*
X00261500D02*
D03*
X00256500D02*
D03*
X00251500D02*
D03*
X00246500D02*
D03*
X00241500D02*
D03*
X00236500D02*
D03*
X00231500D02*
D03*
X00226500D02*
D03*
X00221500D02*
D03*
D48*
X00273000Y00001500D02*
D03*
Y00006500D02*
D03*
Y00011500D02*
D03*
Y00016500D02*
D03*
Y00021500D02*
D03*
Y00026500D02*
D03*
Y00031500D02*
D03*
Y00036500D02*
D03*
Y00041500D02*
D03*
Y00046500D02*
D03*
X00215000D02*
D03*
Y00041500D02*
D03*
Y00036500D02*
D03*
Y00031500D02*
D03*
Y00026500D02*
D03*
Y00021500D02*
D03*
Y00016500D02*
D03*
Y00011500D02*
D03*
Y00006500D02*
D03*
Y00001500D02*
D03*
D49*
X00244000Y00024000D02*
D03*
D50*
X00311500Y-00063500D02*
D03*
Y-00080500D02*
D03*
X00324500Y-00063500D02*
D03*
Y-00080500D02*
D03*
D51*
X00277700Y-00058500D02*
D03*
Y-00083500D02*
D03*
X00240300D02*
D03*
Y-00071000D02*
D03*
Y-00058500D02*
D03*
D52*
X00338000Y-00072500D02*
D03*
Y-00063500D02*
D03*
X00245000Y00071000D02*
D03*
Y00080000D02*
D03*
X00252000Y-00023500D02*
D03*
Y-00032500D02*
D03*
X00271000Y00074500D02*
D03*
Y00083500D02*
D03*
X00195500Y00010500D02*
D03*
Y00001500D02*
D03*
X00235000Y00071000D02*
D03*
Y00080000D02*
D03*
X00197000Y-00008500D02*
D03*
Y-00017500D02*
D03*
X00267000Y-00023500D02*
D03*
Y-00032500D02*
D03*
D53*
X00427000Y00059000D02*
D03*
Y00050500D02*
D03*
X00426000Y-00039750D02*
D03*
Y-00048250D02*
D03*
D54*
X00418500Y-00065000D02*
D03*
Y-00081000D02*
D03*
D55*
X00427500Y-00073000D02*
D03*
D56*
X00359000Y00055500D02*
D03*
X00375000D02*
D03*
D57*
X00367000Y00064500D02*
D03*
D58*
X00257069Y00058439D02*
Y00063400D01*
X00256539Y00063931D02*
X00257069Y00063400D01*
X00256539Y00053039D02*
Y00057909D01*
Y00063931D02*
Y00069008D01*
Y00057909D02*
X00257069Y00058439D01*
X00254936Y00070611D02*
X00256539Y00069008D01*
X00254936Y00093635D02*
X00258115Y00096814D01*
X00254936Y00070611D02*
Y00093635D01*
X00256500Y00053000D02*
X00256539Y00053039D01*
X00258115Y00096814D02*
X00273688D01*
X00275502Y00095000D01*
X00305500D02*
X00321500Y00079000D01*
X00275502Y00095000D02*
X00305500D01*
X00321500Y00079000D02*
X00327500D01*
X00336500D02*
X00386508D01*
X00415008Y00050500D02*
X00427000D01*
X00386508Y00079000D02*
X00415008Y00050500D01*
X00427000D02*
X00427250Y00050250D01*
X00474750D02*
X00475000Y00050000D01*
X00427250Y00050250D02*
X00474750D01*
X00426000Y-00048250D02*
X00447085D01*
X00448835Y-00050000D01*
X00475000D01*
X00418500Y-00054500D02*
X00424750Y-00048250D01*
X00418500Y-00065000D02*
Y-00054500D01*
X00424750Y-00048250D02*
X00426000D01*
X00418500Y-00092250D02*
Y-00081000D01*
X00416500Y-00094250D02*
X00418500Y-00092250D01*
X00402000Y-00094250D02*
X00416500D01*
X00399500Y-00091750D02*
X00402000Y-00094250D01*
X00399500Y-00091750D02*
Y-00073600D01*
X00376000Y-00050100D02*
X00399500Y-00073600D01*
X00376000Y00026100D02*
X00383750Y00033850D01*
X00381000Y00055250D02*
X00383750Y00052500D01*
Y00033850D02*
Y00052500D01*
X00375250Y00055250D02*
X00381000D01*
X00375000Y00055500D02*
X00375250Y00055250D01*
X00336500Y00056000D02*
X00336750Y00055750D01*
X00358750D01*
X00359000Y00055500D01*
X00280946Y00041500D02*
X00282446Y00043000D01*
X00284750D01*
X00273000Y00041500D02*
X00280946D01*
X00284750Y00043000D02*
X00291000Y00049250D01*
X00310250D01*
X00317000Y00056000D02*
X00327500D01*
X00310250Y00049250D02*
X00317000Y00056000D01*
D59*
X00379250Y-00088250D02*
X00389250D01*
X00389500Y-00088000D01*
X00355750D02*
X00367750D01*
X00355750Y-00088000D02*
Y-00077750D01*
X00355750Y-00088000D02*
X00355750Y-00088000D01*
X00338000Y-00072500D02*
X00350500D01*
X00355750Y-00077750D01*
X00318750Y-00072250D02*
X00337750D01*
X00338000Y-00072500D01*
X00311500Y-00080500D02*
Y-00079500D01*
X00318750Y-00072250D01*
X00299750Y-00063500D02*
X00311500D01*
X00296000Y-00067250D02*
X00299750Y-00063500D01*
X00296000Y-00073500D02*
Y-00067250D01*
X00277700Y-00083500D02*
X00295000D01*
X00296000Y-00082500D01*
X00223500Y-00084000D02*
X00239800D01*
X00240300Y-00083500D01*
X00224500Y-00060000D02*
X00238800D01*
X00240300Y-00058500D01*
X00260340Y-00046611D02*
Y-00009705D01*
X00256500Y-00008545D02*
X00257660Y-00009705D01*
X00256500Y-00008545D02*
Y-00005000D01*
X00257660Y-00044716D02*
Y-00009705D01*
X00261500Y-00008545D02*
Y-00005000D01*
X00260340Y-00009705D02*
X00261500Y-00008545D01*
X00206042Y-00068707D02*
X00208836Y-00071501D01*
X00210122D01*
X00210963Y-00070660D01*
X00214174D01*
X00215500Y-00069334D01*
X00215000Y-00083500D02*
Y-00074166D01*
X00214174Y-00073340D02*
X00215000Y-00074166D01*
X00212073Y-00073340D02*
X00214174D01*
X00206335Y-00076540D02*
X00208694Y-00074181D01*
X00214500Y-00084000D02*
X00215000Y-00083500D01*
X00211232Y-00074181D02*
X00212073Y-00073340D01*
X00205750Y-00076540D02*
X00206335D01*
X00208694Y-00074181D02*
X00211232D01*
X00215500Y-00069334D02*
Y-00060000D01*
X00260082Y-00046870D02*
X00260340Y-00046611D01*
X00260082Y-00051831D02*
X00260139Y-00051889D01*
X00256517Y-00045542D02*
X00256833D01*
X00255308Y-00046752D02*
X00256517Y-00045542D01*
X00260082Y-00051831D02*
Y-00046870D01*
X00254336Y-00046752D02*
X00255308D01*
X00256833Y-00045542D02*
X00257660Y-00044716D01*
D60*
X00325000Y-00055000D02*
D03*
D61*
X00277500Y-00060000D02*
D03*
D62*
X00376000Y00026100D02*
D03*
Y00000700D02*
D03*
Y-00024700D02*
D03*
Y-00050100D02*
D03*
X00120500Y-00059000D02*
D03*
D63*
X00449600Y00024600D02*
D03*
X00500400D02*
D03*
Y00075400D02*
D03*
X00449600D02*
D03*
Y-00075400D02*
D03*
X00500400D02*
D03*
Y-00024600D02*
D03*
X00449600D02*
D03*
D64*
X00066670Y00063500D02*
D03*
D65*
Y00038100D02*
D03*
X00041270Y00063500D02*
D03*
Y00038100D02*
D03*
X00066670Y-00012700D02*
D03*
X00041270D02*
D03*
X00066670Y-00063500D02*
D03*
X00041270D02*
D03*
Y-00038100D02*
D03*
X00066670D02*
D03*
X00041270Y00012700D02*
D03*
X00066670D02*
D03*
D66*
X00155500Y-00059000D02*
D03*
D67*
X00420000Y00000000D02*
D03*
Y-00030000D02*
D03*
Y00020000D02*
D03*
X00360000Y00030000D02*
D03*
Y00000000D02*
D03*
Y-00030000D02*
D03*
X00400000D02*
D03*
Y00000000D02*
D03*
X00320000Y00070000D02*
D03*
X00290000Y00062500D02*
D03*
X00330000Y00030000D02*
D03*
Y-00030000D02*
D03*
X00310000D02*
D03*
X00290000D02*
D03*
X00170000Y-00020000D02*
D03*
X00010000Y00090000D02*
D03*
Y-00090000D02*
D03*
X00139000Y00000000D02*
D03*
X00145500Y00058500D02*
D03*
X00093250Y00058250D02*
D03*
X00088500Y00043750D02*
D03*
X00145500Y00043250D02*
D03*
X00120500Y00026750D02*
D03*
X00092500Y00027750D02*
D03*
X00086250Y00010750D02*
D03*
X00120500Y00011250D02*
D03*
X00085000Y-00005500D02*
D03*
X00347500Y00067500D02*
D03*
X00385000D02*
D03*
X00325000Y-00050000D02*
D03*
X00277500Y-00047500D02*
D03*
X00282500Y-00070000D02*
D03*
X00270000D02*
D03*
D68*
X00243750Y00064250D02*
D03*
X00427500Y00067500D02*
D03*
X00379250Y-00088250D02*
D03*
X00202598Y00011789D02*
D03*
X00189000Y00026250D02*
D03*
X00146500D02*
D03*
X00166000Y00054750D02*
D03*
X00167750Y00036500D02*
D03*
X00314170Y00025127D02*
D03*
X00305000Y00020750D02*
D03*
X00315750Y00032500D02*
D03*
X00189250Y00058500D02*
D03*
X00205500Y00071500D02*
D03*
X00190000Y-00065750D02*
D03*
X00244500Y-00015500D02*
D03*
X00237246Y-00015506D02*
D03*
X00208000Y-00007250D02*
D03*
X00202791Y00034067D02*
D03*
X00288500Y-00012500D02*
D03*
X00244500Y-00023500D02*
D03*
X00295000Y00080000D02*
D03*
X00205750Y-00076540D02*
D03*
X00206042Y-00068707D02*
D03*
X00260139Y-00051889D02*
D03*
X00254336Y-00046752D02*
D03*
X00205250Y00047000D02*
D03*
X00230750Y00062500D02*
D03*
X00282000Y00021250D02*
D03*
X00332500Y-00090500D02*
D03*
X00338125Y-00056375D02*
D03*
X00304625Y-00006125D02*
D03*
X00229875Y-00044875D02*
D03*
X00266875Y-00039625D02*
D03*
X00251875D02*
D03*
X00196875Y-00024625D02*
D03*
X00187500Y-00000500D02*
D03*
X00162125Y00010125D02*
D03*
X00174125Y00026125D02*
D03*
Y00043125D02*
D03*
X00222125Y00092875D02*
D03*
X00235125Y00087125D02*
D03*
X00245125D02*
D03*
X00271125Y00090625D02*
D03*
X00261125D02*
D03*
X00304750Y00036750D02*
D03*
X00282000Y00006500D02*
D03*
X00340250Y00007250D02*
D03*
X00227500Y00007500D02*
D03*
Y00018500D02*
D03*
Y00029500D02*
D03*
Y00040500D02*
D03*
X00238500Y00007500D02*
D03*
Y00018500D02*
D03*
Y00029500D02*
D03*
Y00040500D02*
D03*
X00249500Y00007500D02*
D03*
Y00018500D02*
D03*
Y00029500D02*
D03*
Y00040500D02*
D03*
X00260500Y00007500D02*
D03*
Y00018500D02*
D03*
Y00029500D02*
D03*
Y00040500D02*
D03*
D69*
X00251080Y00060920D02*
D03*
M02*
