G04*
G04 #@! TF.GenerationSoftware,Altium Limited,Altium Designer,21.9.2 (33)*
G04*
G04 Layer_Color=65535*
%FSAX44Y44*%
%MOMM*%
G71*
G04*
G04 #@! TF.SameCoordinates,37C0D4A5-8E60-4C82-868F-7AA08B848B10*
G04*
G04*
G04 #@! TF.FilePolarity,Positive*
G04*
G01*
G75*
%ADD10C,0.2500*%
%ADD11C,0.1270*%
%ADD12C,0.2000*%
%ADD13C,0.1500*%
%ADD14C,0.3000*%
D10*
X00212000Y-00010000D02*
G03*
X00212000Y-00010000I-00002000J00000000D01*
G01*
X00237750Y-00093500D02*
G03*
X00237750Y-00093500I-00001250J00000000D01*
G01*
D11*
X00178000Y-00059000D02*
G03*
X00178000Y-00059000I-00040000J00000000D01*
G01*
X00166000Y-00058502D02*
X00175997D01*
X00170998Y-00053504D02*
Y-00063501D01*
D12*
X00347000Y-00021000D02*
Y00047000D01*
X00405000D01*
Y-00071000D02*
Y00047000D01*
X00347000Y-00071000D02*
X00405000D01*
X00347000D02*
Y-00021000D01*
X00435000Y00010000D02*
X00515000D01*
Y00027500D01*
Y00090000D01*
X00507500D02*
X00515000D01*
X00435000D02*
X00507500D01*
X00435000Y00010000D02*
Y00090000D01*
Y-00090000D02*
Y-00010000D01*
X00507500D01*
X00515000D01*
Y-00072500D02*
Y-00010000D01*
Y-00090000D02*
Y-00072500D01*
X00435000Y-00090000D02*
X00515000D01*
X00212000Y-00008000D02*
X00216250D01*
X00212000D02*
Y-00003750D01*
Y00051750D02*
Y00056000D01*
X00216250D01*
X00271750D02*
X00276000D01*
Y00051750D02*
Y00056000D01*
X00271750Y-00008000D02*
X00276000D01*
Y-00003750D01*
X00266000Y00061000D02*
X00281000D01*
X00207000D02*
X00266000D01*
X00207000Y00051000D02*
Y00061000D01*
Y-00013000D02*
Y00051000D01*
Y-00013000D02*
X00256000D01*
X00281000D01*
Y00061000D01*
X00269000Y-00087000D02*
Y-00055000D01*
X00249000Y-00087000D02*
Y-00055000D01*
Y-00087000D02*
X00269000D01*
X00249000Y-00055000D02*
X00269000D01*
X00433250Y00045500D02*
Y00064000D01*
X00420750D02*
X00433250D01*
X00420750Y00045500D02*
Y00064000D01*
Y00045500D02*
X00433250D01*
X00423000Y-00088000D02*
X00432000D01*
Y-00058000D01*
X00423000D02*
X00432000D01*
X00414000Y-00088000D02*
Y-00058000D01*
X00382000Y00060000D02*
Y00069000D01*
X00352000D02*
X00382000D01*
X00352000Y00060000D02*
Y00069000D01*
Y00051000D02*
X00382000D01*
X00432250Y-00053250D02*
Y-00034750D01*
X00419750D02*
X00432250D01*
X00419750Y-00053250D02*
Y-00034750D01*
Y-00053250D02*
X00432250D01*
X00000520Y00077700D02*
X00027420D01*
X00000520Y-00077700D02*
Y00077700D01*
Y-00077700D02*
X00027420D01*
Y00077700D01*
X00080010D01*
Y-00077700D02*
Y00077700D01*
X00027420Y-00077700D02*
X00080010D01*
X00089485Y00033480D02*
X00082820D01*
X00089485Y00040145D01*
Y00041811D01*
X00087818Y00043477D01*
X00084486D01*
X00082820Y00041811D01*
X00007080Y-00018320D02*
X00010412D01*
X00008746D01*
Y-00008323D01*
X00007080Y-00009989D01*
X00015411D02*
X00017077Y-00008323D01*
X00020409D01*
X00022075Y-00009989D01*
Y-00016654D01*
X00020409Y-00018320D01*
X00017077D01*
X00015411Y-00016654D01*
Y-00009989D01*
X00082820Y00016411D02*
X00084486Y00018077D01*
X00087818D01*
X00089485Y00016411D01*
Y00014744D01*
X00087818Y00013078D01*
X00086152D01*
X00087818D01*
X00089485Y00011412D01*
Y00009746D01*
X00087818Y00008080D01*
X00084486D01*
X00082820Y00009746D01*
X00083003Y-00087000D02*
X00089668D01*
X00093000Y-00083668D01*
X00089668Y-00080336D01*
X00083003D01*
X00084669Y-00070339D02*
X00083003Y-00072005D01*
Y-00075337D01*
X00084669Y-00077003D01*
X00091334D01*
X00093000Y-00075337D01*
Y-00072005D01*
X00091334Y-00070339D01*
X00084669Y-00060342D02*
X00083003Y-00062008D01*
Y-00065340D01*
X00084669Y-00067006D01*
X00091334D01*
X00093000Y-00065340D01*
Y-00062008D01*
X00091334Y-00060342D01*
X00064500Y00094497D02*
Y00084500D01*
X00071164D01*
X00074497D02*
Y00094497D01*
X00077829Y00091165D01*
X00081161Y00094497D01*
Y00084500D01*
X00084494Y00094497D02*
X00091158Y00084500D01*
Y00094497D02*
X00084494Y00084500D01*
X00101155D02*
X00094490D01*
X00101155Y00091165D01*
Y00092831D01*
X00099489Y00094497D01*
X00096157D01*
X00094490Y00092831D01*
X00111152Y00094497D02*
X00104487D01*
Y00089498D01*
X00107819Y00091165D01*
X00109486D01*
X00111152Y00089498D01*
Y00086166D01*
X00109486Y00084500D01*
X00106153D01*
X00104487Y00086166D01*
X00114484Y00094497D02*
X00121148D01*
Y00092831D01*
X00114484Y00086166D01*
Y00084500D01*
X00131145D02*
X00124481D01*
X00131145Y00091165D01*
Y00092831D01*
X00129479Y00094497D01*
X00126147D01*
X00124481Y00092831D01*
X00134478Y00094497D02*
Y00084500D01*
X00141142D01*
X00144474D02*
Y00094497D01*
X00149473D01*
X00151139Y00092831D01*
Y00089498D01*
X00149473Y00087832D01*
X00144474D01*
X00164468Y00084500D02*
Y00094497D01*
X00169466D01*
X00171132Y00092831D01*
Y00089498D01*
X00169466Y00087832D01*
X00164468D01*
X00174465Y00084500D02*
Y00094497D01*
X00177797Y00091165D01*
X00181129Y00094497D01*
Y00084500D01*
X00189460Y00094497D02*
X00186127D01*
X00184461Y00092831D01*
Y00086166D01*
X00186127Y00084500D01*
X00189460D01*
X00191126Y00086166D01*
Y00092831D01*
X00189460Y00094497D01*
X00194458D02*
Y00084500D01*
X00199457D01*
X00201123Y00086166D01*
Y00092831D01*
X00199457Y00094497D01*
X00194458D01*
X00087818Y-00017320D02*
Y-00007323D01*
X00082820Y-00012322D01*
X00089485D01*
X00015970Y00008746D02*
X00017636Y00007080D01*
X00020968D01*
X00022634Y00008746D01*
Y00015411D01*
X00020968Y00017077D01*
X00017636D01*
X00015970Y00015411D01*
Y00013744D01*
X00017636Y00012078D01*
X00022634D01*
X00082820Y00058880D02*
X00086152D01*
X00084486D01*
Y00068877D01*
X00082820Y00067211D01*
X00084669Y-00047336D02*
X00083003Y-00049002D01*
Y-00052334D01*
X00084669Y-00054000D01*
X00091334D01*
X00093000Y-00052334D01*
Y-00049002D01*
X00091334Y-00047336D01*
X00088002D01*
Y-00050668D01*
X00093000Y-00044003D02*
X00083003D01*
X00093000Y-00037339D01*
X00083003D01*
Y-00034006D02*
X00093000D01*
Y-00029008D01*
X00091334Y-00027342D01*
X00084669D01*
X00083003Y-00029008D01*
Y-00034006D01*
X00015970Y00040811D02*
X00017636Y00042477D01*
X00020968D01*
X00022634Y00040811D01*
Y00039144D01*
X00020968Y00037478D01*
X00022634Y00035812D01*
Y00034146D01*
X00020968Y00032480D01*
X00017636D01*
X00015970Y00034146D01*
Y00035812D01*
X00017636Y00037478D01*
X00015970Y00039144D01*
Y00040811D01*
X00017636Y00037478D02*
X00020968D01*
X00015970Y00067877D02*
X00022634D01*
Y00066211D01*
X00015970Y00059546D01*
Y00057880D01*
D13*
X00175500Y00035500D02*
Y00050500D01*
X00202500Y00035500D02*
Y00050500D01*
X00175500D02*
X00202500D01*
X00175500Y00035500D02*
X00202500D01*
X00214500Y00091500D02*
X00229500D01*
X00214500Y00064500D02*
X00229500D01*
Y00091500D01*
X00214500Y00064500D02*
Y00091500D01*
X00163500Y00002500D02*
Y00017500D01*
X00190500Y00002500D02*
Y00017500D01*
X00163500D02*
X00190500D01*
X00163500Y00002500D02*
X00190500D01*
X00334500Y-00095500D02*
Y-00080500D01*
X00361500Y-00095500D02*
Y-00080500D01*
X00334500D02*
X00361500D01*
X00334500Y-00095500D02*
X00361500D01*
X00098000Y00006500D02*
X00116000D01*
X00098000Y-00002500D02*
X00116000D01*
X00098000D02*
Y00006500D01*
X00116000Y-00002500D02*
Y00006500D01*
X00098000Y-00016500D02*
X00116000D01*
X00098000Y-00007500D02*
X00116000D01*
Y-00016500D02*
Y-00007500D01*
X00098000Y-00016500D02*
Y-00007500D01*
X00098000Y00023500D02*
X00116000D01*
X00098000Y00014500D02*
X00116000D01*
X00098000D02*
Y00023500D01*
X00116000Y00014500D02*
Y00023500D01*
X00098000Y00030500D02*
X00116000D01*
X00098000Y00039500D02*
X00116000D01*
Y00030500D02*
Y00039500D01*
X00098000Y00030500D02*
Y00039500D01*
X00098000Y00055500D02*
X00116000D01*
X00098000Y00046500D02*
X00116000D01*
X00098000D02*
Y00055500D01*
X00116000Y00046500D02*
Y00055500D01*
X00098000Y00061500D02*
X00116000D01*
X00098000Y00070500D02*
X00116000D01*
Y00061500D02*
Y00070500D01*
X00098000Y00061500D02*
Y00070500D01*
X00291500Y-00087000D02*
Y-00069000D01*
X00300500Y-00087000D02*
Y-00069000D01*
X00291500Y-00087000D02*
X00300500D01*
X00291500Y-00069000D02*
X00300500D01*
X00210750Y-00055500D02*
X00229250D01*
X00210750Y-00064500D02*
X00229250D01*
X00210750D02*
Y-00055500D01*
X00229250Y-00064500D02*
Y-00055500D01*
X00322750Y00051500D02*
X00341250D01*
X00322750Y00060500D02*
X00341250D01*
Y00051500D02*
Y00060500D01*
X00322750Y00051500D02*
Y00060500D01*
X00209750Y-00079500D02*
X00228250D01*
X00209750Y-00088500D02*
X00228250D01*
X00209750D02*
Y-00079500D01*
X00228250Y-00088500D02*
Y-00079500D01*
X00322750Y00074500D02*
X00341250D01*
X00322750Y00083500D02*
X00341250D01*
Y00074500D02*
Y00083500D01*
X00322750Y00074500D02*
Y00083500D01*
X00284000Y00032500D02*
X00302000D01*
X00284000Y00041500D02*
X00302000D01*
Y00032500D02*
Y00041500D01*
X00284000Y00032500D02*
Y00041500D01*
X00265500Y00070000D02*
Y00088000D01*
X00256500Y00070000D02*
Y00088000D01*
X00265500D01*
X00256500Y00070000D02*
X00265500D01*
X00362000Y-00097500D02*
Y-00078500D01*
X00396000Y-00097500D02*
Y-00078500D01*
X00362000D02*
X00396000D01*
X00362000Y-00097500D02*
X00396000D01*
X00318000Y-00073000D02*
X00332000D01*
X00318000Y-00089000D02*
Y-00073000D01*
X00304000Y-00089000D02*
X00332000D01*
X00304000D02*
Y-00055000D01*
X00332000D01*
Y-00089000D02*
Y-00055000D01*
X00333500Y-00077250D02*
Y-00058750D01*
X00342500Y-00077250D02*
Y-00058750D01*
X00333500Y-00077250D02*
X00342500D01*
X00333500Y-00058750D02*
X00342500D01*
X00283250Y-00000500D02*
Y00014500D01*
X00310250Y-00000500D02*
Y00014500D01*
X00283250D02*
X00310250D01*
X00283250Y-00000500D02*
X00310250D01*
X00310500Y00014500D02*
X00337500D01*
X00310500Y-00000500D02*
X00337500D01*
X00310500D02*
Y00014500D01*
X00337500Y-00000500D02*
Y00014500D01*
X00182500Y-00063500D02*
Y-00036500D01*
X00197500Y-00063500D02*
Y-00036500D01*
X00182500Y-00063500D02*
X00197500D01*
X00182500Y-00036500D02*
X00197500D01*
X00240500Y00066250D02*
Y00084750D01*
X00249500Y00066250D02*
Y00084750D01*
X00240500Y00066250D02*
X00249500D01*
X00240500Y00084750D02*
X00249500D01*
X00283750Y-00001500D02*
X00302250D01*
X00283750Y-00010500D02*
X00302250D01*
X00283750D02*
Y-00001500D01*
X00302250Y-00010500D02*
Y-00001500D01*
X00283750Y00026500D02*
X00302250D01*
X00283750Y00017500D02*
X00302250D01*
X00283750D02*
Y00026500D01*
X00302250Y00017500D02*
Y00026500D01*
X00256500Y-00037250D02*
Y-00018750D01*
X00247500Y-00037250D02*
Y-00018750D01*
X00256500D01*
X00247500Y-00037250D02*
X00256500D01*
X00175000Y00018000D02*
Y00034000D01*
X00203000Y00018000D02*
Y00034000D01*
X00175000D02*
X00203000D01*
X00175000Y00018000D02*
X00203000D01*
X00311000Y00070500D02*
Y00089500D01*
X00277000Y00070500D02*
Y00089500D01*
Y00070500D02*
X00311000D01*
X00277000Y00089500D02*
X00311000D01*
X00266500Y00069750D02*
Y00088250D01*
X00275500Y00069750D02*
Y00088250D01*
X00266500Y00069750D02*
X00275500D01*
X00266500Y00088250D02*
X00275500D01*
X00200000Y-00003250D02*
Y00015250D01*
X00191000Y-00003250D02*
Y00015250D01*
X00200000D01*
X00191000Y-00003250D02*
X00200000D01*
X00230500Y00066250D02*
Y00084750D01*
X00239500Y00066250D02*
Y00084750D01*
X00230500Y00066250D02*
X00239500D01*
X00230500Y00084750D02*
X00239500D01*
X00222000Y-00044000D02*
X00238000D01*
X00222000Y-00016000D02*
X00238000D01*
X00222000Y-00044000D02*
Y-00016000D01*
X00238000Y-00044000D02*
Y-00016000D01*
X00201500Y-00022250D02*
Y-00003750D01*
X00192500Y-00022250D02*
Y-00003750D01*
X00201500D01*
X00192500Y-00022250D02*
X00201500D01*
X00271500Y-00037250D02*
Y-00018750D01*
X00262500Y-00037250D02*
Y-00018750D01*
X00271500D01*
X00262500Y-00037250D02*
X00271500D01*
D14*
X00415500Y00070500D02*
Y00083829D01*
X00422164Y00090493D01*
X00428829Y00083829D01*
Y00070500D01*
Y00080497D01*
X00415500D01*
Y-00007006D02*
Y-00027000D01*
X00425497D01*
X00428829Y-00023668D01*
Y-00020336D01*
X00425497Y-00017003D01*
X00415500D01*
X00425497D01*
X00428829Y-00013671D01*
Y-00010339D01*
X00425497Y-00007006D01*
X00415500D01*
M02*
