M48
;Layer_Color=9474304
;FILE_FORMAT=4:4
METRIC
;TYPE=PLATED
T1F00S00C0.2000
T2F00S00C0.3000
T3F00S00C0.7000
T4F00S00C0.9000
T5F00S00C1.1000
T6F00S00C1.1700
T7F00S00C1.5200
%
T01
X00190000Y-00065750
X00206042Y-00068707
X00205750Y-00076540
X00229875Y-00044875
X00254336Y-00046752
X00251875Y-00039625
X00266875
X00260139Y-00051889
X00244500Y-00023500
Y-00015500
X00237246Y-00015506
X00238500Y00007500
X00227500
Y00018500
Y00029500
Y00040500
X00238500
Y00029500
Y00018500
X00249500
Y00007500
X00260500
Y00018500
Y00029500
X00249500
Y00040500
X00260500
X00251080Y00060920
X00243750Y00064250
X00230750Y00062500
X00205500Y00071500
X00205250Y00047000
X00202791Y00034067
X00189000Y00026250
X00174125Y00026125
X00167750Y00036500
X00174125Y00043125
X00166000Y00054750
X00189250Y00058500
X00202598Y00011789
X00208000Y-00007250
X00187500Y-00000500
X00196875Y-00024625
X00162125Y00010125
X00146500Y00026250
X00282000Y00021250
Y00006500
X00288500Y-00012500
X00304625Y-00006125
X00305000Y00020750
X00314170Y00025127
X00315750Y00032500
X00304750Y00036750
X00332500Y-00090500
X00338125Y-00056375
X00340250Y00007250
X00379250Y-00088250
X00427500Y00067500
X00295000Y00080000
X00271125Y00090625
X00261125
X00245125Y00087125
X00235125
X00222125Y00092875
T02
X00010000Y-00090000
X00085000Y-00005500
X00086250Y00010750
X00092500Y00027750
X00088500Y00043750
X00093250Y00058250
X00145500Y00058500
Y00043250
X00120500Y00026750
Y00011250
X00139000Y00000000
X00170000Y-00020000
X00290000Y-00030000
X00310000
X00330000
X00325000Y-00050000
X00277500Y-00047500
X00282500Y-00070000
X00270000
X00290000Y00062500
X00320000Y00070000
X00330000Y00030000
X00360000
Y00000000
Y-00030000
X00400000
X00420000
Y00000000
Y00020000
X00400000Y00000000
X00385000Y00067500
X00347500
X00010000Y00090000
T03
X00376000Y-00050100
Y-00024700
Y00000700
Y00026100
T04
X00120500Y-00059000
X00155500
T05
X00041270Y-00063500
X00066670
Y-00038100
Y-00012700
X00041270
Y-00038100
Y00012700
Y00038100
X00066670
Y00063500
X00041270
X00066670Y00012700
T06
X00475000Y-00050000
Y00050000
T07
X00449600Y-00075400
Y-00024600
Y00024600
X00500400
Y-00024600
Y-00075400
Y00075400
X00449600
M30
