M48
;Layer_Color=9474304
;FILE_FORMAT=4:4
METRIC
;TYPE=PLATED
T1F00S00C0.3000
T2F00S00C0.8000
T3F00S00C1.1700
T4F00S00C1.2000
T5F00S00C1.4000
T6F00S00C1.5200
T7F00S00C1.8000
T8F00S00C3.2000
%
T01
X01600000Y01250000
X01650000
X01700000
X01750000
X01800000
Y01300000
X01825000Y01318000
X01850000Y01300000
X01900000
Y01350000
Y01250000
X01800000Y01350000
Y01400000
Y01450000
X01850000
X01835000Y01483000
X01817000Y01484000
X01814000Y01495000
X01833040Y01505000
X01850000Y01550000
X01884000Y01535000
X01900000Y01550000
X01915000Y01523000
X01930000Y01490000
X01950000Y01500000
Y01550000
X01800000
X01757000Y01556000
X01758000Y01541000
X01762000Y01493000
X01750000Y01450000
X01700000Y01500000
X01704000Y01531000
X01688000Y01527000
X01679000
X01669000Y01528000
X01643960Y01525000
X01617000Y01532000
X01601000Y01515000
Y01478000
X01600000Y01450000
Y01400000
X01650000
X01700000
Y01350000
Y01300000
X01650000
X01600000
Y01350000
X01607000Y01576000
X01587000Y01552000
Y01533040
X01561000Y01519000
X01550000Y01500000
Y01450000
Y01400000
Y01350000
Y01300000
Y01250000
X01500000
Y01300000
Y01350000
Y01400000
Y01450000
Y01500000
X01482000Y01514000
X01450000Y01450000
Y01400000
Y01350000
Y01300000
Y01250000
X01400000Y01300000
Y01350000
Y01400000
Y01450000
Y01550000
X01550000Y01564000
X01560000Y01562000
X01550000Y01600000
X01553000Y01615000
X01574000Y01617000
X01550000Y01650000
X01500000
Y01600000
X01450000
Y01650000
X01400000Y01600000
X01607000Y01593000
X01613000Y01613000
X01600000Y01650000
X01642000Y01643000
X01700000Y01650000
X01696000Y01613000
X01700000Y01600000
X01750000
X01800000
X01850000
X01900000
X01950000
X01900000Y01650000
X01850000
X01800000
X01750000
T02
X01663500Y01350000
X01688500
X01733500
X01758500
X01850000Y01354500
Y01379500
T03
X01930000Y01427000
X01420000Y01540000
T04
X01674000Y01454600
Y01480000
T05
X01675000Y01279001
X01710000
X01745000
T06
X01904600Y01401600
Y01452400
X01955400
Y01401600
X01445400Y01514600
Y01565400
X01394600
Y01514600
T07
X01942000Y01236500
X01922000Y01261000
Y01317000
X01942000Y01298000
Y01354500
T08
X01850000Y01250000
X01400000
Y01650000
X01950000
M30
