G04*
G04 #@! TF.GenerationSoftware,Altium Limited,Altium Designer,21.9.1 (22)*
G04*
G04 Layer_Color=65535*
%FSAX44Y44*%
%MOMM*%
G71*
G04*
G04 #@! TF.SameCoordinates,86785AD5-1920-4A7D-B972-61179B801B7D*
G04*
G04*
G04 #@! TF.FilePolarity,Positive*
G04*
G01*
G75*
%ADD10C,0.2500*%
%ADD11C,0.6000*%
%ADD12C,0.2000*%
%ADD13C,0.1500*%
%ADD14C,0.4000*%
%ADD15C,0.2540*%
%ADD16C,0.1270*%
D10*
X01575000Y01565000D02*
G03*
X01575000Y01565000I-00002000J00000000D01*
G01*
X01799000Y01529550D02*
G03*
X01799000Y01529550I-00001250J00000000D01*
G01*
X01657750Y01626250D02*
G03*
X01657750Y01626250I-00001250J00000000D01*
G01*
D11*
X01596500Y01554500D02*
G03*
X01596500Y01554500I-00003000J00000000D01*
G01*
X01821000Y01517000D02*
G03*
X01821000Y01517000I-00003000J00000000D01*
G01*
D12*
X01881500Y01367000D02*
G03*
X01881500Y01367000I-00031500J00000000D01*
G01*
X01707500Y01350000D02*
G03*
X01707500Y01350000I-00031500J00000000D01*
G01*
X01777500D02*
G03*
X01777500Y01350000I-00031500J00000000D01*
G01*
X01651500Y01439600D02*
X01696500D01*
X01651500D02*
Y01494600D01*
X01696500D01*
Y01439600D02*
Y01494600D01*
X01563000Y01511000D02*
Y01567000D01*
Y01511000D02*
X01641000D01*
Y01567000D01*
X01563000D02*
X01641000D01*
X01583500Y01513500D02*
Y01564500D01*
X01620500Y01513500D02*
Y01564500D01*
X01583500D02*
X01620500D01*
X01583500Y01513500D02*
X01620500D01*
X01788000Y01476000D02*
Y01528000D01*
X01860000D01*
Y01476000D02*
Y01528000D01*
X01788000Y01476000D02*
X01860000D01*
X01839000Y01477000D02*
Y01527000D01*
X01811000D02*
X01839000D01*
X01811000Y01477000D02*
X01839000D01*
X01665030Y01568050D02*
X01692970D01*
Y01529950D02*
Y01568050D01*
X01665030Y01529950D02*
X01692970D01*
X01665030D02*
Y01568050D01*
X01890500Y01224500D02*
Y01371500D01*
X01930500D01*
X01927500D02*
X01984500D01*
Y01224500D02*
Y01371500D01*
X01622250Y01626500D02*
Y01659750D01*
X01663250Y01626500D02*
Y01659750D01*
X01622250D02*
X01663250D01*
X01622250Y01626500D02*
X01663250D01*
X01390000Y01487997D02*
X01393332D01*
X01391666D01*
Y01478000D01*
X01390000D01*
X01393332D01*
X01404995Y01487997D02*
X01398331D01*
Y01482998D01*
X01401663D01*
X01398331D01*
Y01478000D01*
X01418324Y01487997D02*
X01421656D01*
X01419990D01*
Y01478000D01*
X01418324D01*
X01421656D01*
X01426655D02*
Y01487997D01*
X01433319Y01478000D01*
Y01487997D01*
X01652000Y01428793D02*
Y01418796D01*
X01656998D01*
X01658665Y01420462D01*
Y01427127D01*
X01656998Y01428793D01*
X01652000D01*
X01668661D02*
X01661997D01*
Y01418796D01*
X01668661D01*
X01661997Y01423795D02*
X01665329D01*
X01671994Y01428793D02*
X01678658D01*
X01675326D01*
Y01418796D01*
X01688655Y01428793D02*
X01681990D01*
Y01418796D01*
X01688655D01*
X01681990Y01423795D02*
X01685323D01*
X01698652Y01427127D02*
X01696986Y01428793D01*
X01693653D01*
X01691987Y01427127D01*
Y01420462D01*
X01693653Y01418796D01*
X01696986D01*
X01698652Y01420462D01*
X01701984Y01428793D02*
X01708648D01*
X01705316D01*
Y01418796D01*
X01716979Y01428793D02*
X01713647D01*
X01711981Y01427127D01*
Y01420462D01*
X01713647Y01418796D01*
X01716979D01*
X01718645Y01420462D01*
Y01427127D01*
X01716979Y01428793D01*
X01721978Y01418796D02*
Y01428793D01*
X01726976D01*
X01728642Y01427127D01*
Y01423795D01*
X01726976Y01422128D01*
X01721978D01*
X01725310D02*
X01728642Y01418796D01*
X01656998Y01411997D02*
X01653666D01*
X01652000Y01410331D01*
Y01403666D01*
X01653666Y01402000D01*
X01656998D01*
X01658665Y01403666D01*
Y01410331D01*
X01656998Y01411997D01*
X01661997D02*
Y01403666D01*
X01663663Y01402000D01*
X01666995D01*
X01668661Y01403666D01*
Y01411997D01*
X01671994D02*
X01678658D01*
X01675326D01*
Y01402000D01*
X01992000Y01396000D02*
X01985336D01*
X01982003Y01399332D01*
X01985336Y01402664D01*
X01992000D01*
X01987002D01*
Y01396000D01*
X01982003Y01412661D02*
Y01405997D01*
X01987002D01*
Y01409329D01*
Y01405997D01*
X01992000D01*
X01982003Y01430989D02*
Y01427657D01*
X01983669Y01425990D01*
X01990334D01*
X01992000Y01427657D01*
Y01430989D01*
X01990334Y01432655D01*
X01983669D01*
X01982003Y01430989D01*
Y01435987D02*
X01990334D01*
X01992000Y01437653D01*
Y01440986D01*
X01990334Y01442652D01*
X01982003D01*
Y01445984D02*
Y01452648D01*
Y01449316D01*
X01992000D01*
X01652000Y01258998D02*
X01658665D01*
X01655332Y01262331D02*
Y01255666D01*
X01668661Y01263997D02*
X01661997D01*
Y01258998D01*
X01665329Y01260665D01*
X01666995D01*
X01668661Y01258998D01*
Y01255666D01*
X01666995Y01254000D01*
X01663663D01*
X01661997Y01255666D01*
X01671994Y01263997D02*
Y01257332D01*
X01675326Y01254000D01*
X01678658Y01257332D01*
Y01263997D01*
X01698652Y01262331D02*
X01696985Y01263997D01*
X01693653D01*
X01691987Y01262331D01*
Y01255666D01*
X01693653Y01254000D01*
X01696985D01*
X01698652Y01255666D01*
Y01258998D01*
X01695319D01*
X01701984Y01254000D02*
Y01263997D01*
X01708648Y01254000D01*
Y01263997D01*
X01711981D02*
Y01254000D01*
X01716979D01*
X01718645Y01255666D01*
Y01262331D01*
X01716979Y01263997D01*
X01711981D01*
X01731974Y01258998D02*
X01738639D01*
X01748636Y01263997D02*
X01741971D01*
Y01258998D01*
X01745303Y01260665D01*
X01746969D01*
X01748636Y01258998D01*
Y01255666D01*
X01746969Y01254000D01*
X01743637D01*
X01741971Y01255666D01*
X01751968Y01263997D02*
Y01257332D01*
X01755300Y01254000D01*
X01758632Y01257332D01*
Y01263997D01*
X01450665Y01210000D02*
X01444000D01*
X01450665Y01216665D01*
Y01218331D01*
X01448998Y01219997D01*
X01445666D01*
X01444000Y01218331D01*
X01453997D02*
X01455663Y01219997D01*
X01458995D01*
X01460661Y01218331D01*
Y01211666D01*
X01458995Y01210000D01*
X01455663D01*
X01453997Y01211666D01*
Y01218331D01*
X01470658Y01210000D02*
X01463994D01*
X01470658Y01216665D01*
Y01218331D01*
X01468992Y01219997D01*
X01465660D01*
X01463994Y01218331D01*
X01473990Y01210000D02*
X01477323D01*
X01475656D01*
Y01219997D01*
X01473990Y01218331D01*
X01482321Y01210000D02*
Y01211666D01*
X01483987D01*
Y01210000D01*
X01482321D01*
X01490652D02*
X01493984D01*
X01492318D01*
Y01219997D01*
X01490652Y01218331D01*
X01505647Y01210000D02*
X01498982D01*
X01505647Y01216665D01*
Y01218331D01*
X01503981Y01219997D01*
X01500648D01*
X01498982Y01218331D01*
X01508979Y01210000D02*
Y01211666D01*
X01510645D01*
Y01210000D01*
X01508979D01*
X01517310Y01218331D02*
X01518976Y01219997D01*
X01522308D01*
X01523974Y01218331D01*
Y01211666D01*
X01522308Y01210000D01*
X01518976D01*
X01517310Y01211666D01*
Y01218331D01*
X01527307Y01210000D02*
X01530639D01*
X01528973D01*
Y01219997D01*
X01527307Y01218331D01*
X01882000Y01280000D02*
X01875336D01*
X01872003Y01283332D01*
X01875336Y01286664D01*
X01882000D01*
X01877002D01*
Y01280000D01*
X01872003Y01296661D02*
Y01289997D01*
X01877002D01*
Y01293329D01*
Y01289997D01*
X01882000D01*
X01872003Y01314989D02*
Y01311656D01*
X01873669Y01309990D01*
X01880334D01*
X01882000Y01311656D01*
Y01314989D01*
X01880334Y01316655D01*
X01873669D01*
X01872003Y01314989D01*
Y01319987D02*
X01880334D01*
X01882000Y01321653D01*
Y01324986D01*
X01880334Y01326652D01*
X01872003D01*
Y01329984D02*
Y01336648D01*
Y01333316D01*
X01882000D01*
X01390000Y01471663D02*
X01391666Y01473329D01*
X01394998D01*
X01396664Y01471663D01*
Y01469997D01*
X01394998Y01468331D01*
X01393332D01*
X01394998D01*
X01396664Y01466664D01*
Y01464998D01*
X01394998Y01463332D01*
X01391666D01*
X01390000Y01464998D01*
X01399997Y01463332D02*
Y01464998D01*
X01401663D01*
Y01463332D01*
X01399997D01*
X01408327Y01471663D02*
X01409993Y01473329D01*
X01413326D01*
X01414992Y01471663D01*
Y01469997D01*
X01413326Y01468331D01*
X01411660D01*
X01413326D01*
X01414992Y01466664D01*
Y01464998D01*
X01413326Y01463332D01*
X01409993D01*
X01408327Y01464998D01*
X01428321Y01473329D02*
Y01466664D01*
X01431653Y01463332D01*
X01434986Y01466664D01*
Y01473329D01*
X01438318Y01460000D02*
Y01469997D01*
X01443316D01*
X01444982Y01468331D01*
Y01464998D01*
X01443316Y01463332D01*
X01438318D01*
X01448315Y01460000D02*
Y01469997D01*
X01453313D01*
X01454979Y01468331D01*
Y01464998D01*
X01453313Y01463332D01*
X01448315D01*
X01599409Y01214000D02*
Y01220665D01*
X01596077Y01217332D02*
X01602742D01*
X01594411Y01230661D02*
Y01223997D01*
X01599409D01*
X01597743Y01227329D01*
Y01228995D01*
X01599409Y01230661D01*
X01602742D01*
X01604408Y01228995D01*
Y01225663D01*
X01602742Y01223997D01*
X01594411Y01233994D02*
X01601075D01*
X01604408Y01237326D01*
X01601075Y01240658D01*
X01594411D01*
X01612873Y01220665D02*
X01611207Y01218998D01*
Y01215666D01*
X01612873Y01214000D01*
X01619538D01*
X01621204Y01215666D01*
Y01218998D01*
X01619538Y01220665D01*
X01616205D01*
Y01217332D01*
X01621204Y01223997D02*
X01611207D01*
X01621204Y01230661D01*
X01611207D01*
Y01233994D02*
X01621204D01*
Y01238992D01*
X01619538Y01240658D01*
X01612873D01*
X01611207Y01238992D01*
Y01233994D01*
X01633002Y01214000D02*
Y01220665D01*
X01628003Y01230661D02*
Y01223997D01*
X01633002D01*
X01631335Y01227329D01*
Y01228995D01*
X01633002Y01230661D01*
X01636334D01*
X01638000Y01228995D01*
Y01225663D01*
X01636334Y01223997D01*
X01628003Y01233994D02*
X01634668D01*
X01638000Y01237326D01*
X01634668Y01240658D01*
X01628003D01*
D13*
X01836500Y01414500D02*
X01863500D01*
X01836500Y01399500D02*
X01863500D01*
X01836500D02*
Y01414500D01*
X01863500Y01399500D02*
Y01414500D01*
X01608000Y01568000D02*
Y01584000D01*
X01636000Y01568000D02*
Y01584000D01*
X01608000D02*
X01636000D01*
X01608000Y01568000D02*
X01636000D01*
X01608000Y01585000D02*
Y01601000D01*
X01636000Y01585000D02*
Y01601000D01*
X01608000D02*
X01636000D01*
X01608000Y01585000D02*
X01636000D01*
X01726500Y01515500D02*
X01753500D01*
X01726500Y01530500D02*
X01753500D01*
Y01515500D02*
Y01530500D01*
X01726500Y01515500D02*
Y01530500D01*
X01540500Y01533500D02*
Y01560500D01*
X01525500Y01533500D02*
Y01560500D01*
X01540500D01*
X01525500Y01533500D02*
X01540500D01*
X01892500Y01506500D02*
X01919500D01*
X01892500Y01491500D02*
X01919500D01*
X01892500D02*
Y01506500D01*
X01919500Y01491500D02*
Y01506500D01*
X01783000Y01515000D02*
Y01531000D01*
X01755000Y01515000D02*
Y01531000D01*
Y01515000D02*
X01783000D01*
X01755000Y01531000D02*
X01783000D01*
X01863000Y01491000D02*
Y01507000D01*
X01891000Y01491000D02*
Y01507000D01*
X01863000D02*
X01891000D01*
X01863000Y01491000D02*
X01891000D01*
X01496000Y01532000D02*
Y01548000D01*
X01524000Y01532000D02*
Y01548000D01*
X01496000D02*
X01524000D01*
X01496000Y01532000D02*
X01524000D01*
X01587500Y01491500D02*
X01614500D01*
X01587500Y01506500D02*
X01614500D01*
Y01491500D02*
Y01506500D01*
X01587500Y01491500D02*
Y01506500D01*
X01755500Y01498500D02*
X01782500D01*
X01755500Y01513500D02*
X01782500D01*
Y01498500D02*
Y01513500D01*
X01755500Y01498500D02*
Y01513500D01*
X01726500Y01498500D02*
X01753500D01*
X01726500Y01513500D02*
X01753500D01*
Y01498500D02*
Y01513500D01*
X01726500Y01498500D02*
Y01513500D01*
X01863500Y01489500D02*
X01890500D01*
X01863500Y01474500D02*
X01890500D01*
X01863500D02*
Y01489500D01*
X01890500Y01474500D02*
Y01489500D01*
X01892250D02*
X01919250D01*
X01892250Y01474500D02*
X01919250D01*
X01892250D02*
Y01489500D01*
X01919250Y01474500D02*
Y01489500D01*
X01836500Y01419500D02*
X01863500D01*
X01836500Y01434500D02*
X01863500D01*
Y01419500D02*
Y01434500D01*
X01836500Y01419500D02*
Y01434500D01*
X01646000Y01563000D02*
X01662000D01*
X01646000Y01535000D02*
X01662000D01*
Y01563000D01*
X01646000Y01535000D02*
Y01563000D01*
X01541500Y01533500D02*
Y01560500D01*
X01556500Y01533500D02*
Y01560500D01*
X01541500Y01533500D02*
X01556500D01*
X01541500Y01560500D02*
X01556500D01*
X01490500Y01517500D02*
Y01544500D01*
X01475500Y01517500D02*
Y01544500D01*
X01490500D01*
X01475500Y01517500D02*
X01490500D01*
X01754000Y01532000D02*
Y01548000D01*
X01726000Y01532000D02*
Y01548000D01*
Y01532000D02*
X01754000D01*
X01726000Y01548000D02*
X01754000D01*
Y01549000D02*
Y01565000D01*
X01726000Y01549000D02*
Y01565000D01*
Y01549000D02*
X01754000D01*
X01726000Y01565000D02*
X01754000D01*
X01893000Y01512000D02*
Y01534000D01*
X01939000Y01512000D02*
Y01534000D01*
X01893000D02*
X01939000D01*
X01893000Y01512000D02*
X01939000D01*
X01939500Y01473000D02*
Y01507000D01*
X01920500Y01473000D02*
Y01507000D01*
X01939500D01*
X01920500Y01473000D02*
X01939500D01*
X01696500Y01535500D02*
X01711500D01*
X01696500Y01562500D02*
X01711500D01*
X01696500Y01535500D02*
Y01562500D01*
X01711500Y01535500D02*
Y01562500D01*
X01827500Y01310500D02*
X01854500D01*
X01827500Y01325500D02*
X01854500D01*
Y01310500D02*
Y01325500D01*
X01827500Y01310500D02*
Y01325500D01*
X01593000Y01602000D02*
Y01624000D01*
X01639000Y01602000D02*
Y01624000D01*
X01593000D02*
X01639000D01*
X01593000Y01602000D02*
X01639000D01*
X01693000D02*
Y01624000D01*
X01647000Y01602000D02*
Y01624000D01*
Y01602000D02*
X01693000D01*
X01647000Y01624000D02*
X01693000D01*
X01755000Y01474000D02*
Y01490000D01*
X01783000Y01474000D02*
Y01490000D01*
X01755000D02*
X01783000D01*
X01755000Y01474000D02*
X01783000D01*
X01890000Y01515000D02*
Y01531000D01*
X01862000Y01515000D02*
Y01531000D01*
Y01515000D02*
X01890000D01*
X01862000Y01531000D02*
X01890000D01*
D14*
X01811000Y01477000D02*
Y01527000D01*
X01397329Y01376517D02*
Y01389846D01*
X01393997Y01393178D01*
X01387332D01*
X01384000Y01389846D01*
Y01376517D01*
X01387332Y01373185D01*
X01393997D01*
X01390665Y01379849D02*
X01397329Y01373185D01*
X01393997D02*
X01397329Y01376517D01*
X01403994Y01393178D02*
Y01376517D01*
X01407326Y01373185D01*
X01413990D01*
X01417323Y01376517D01*
Y01393178D01*
X01423987Y01373185D02*
Y01386514D01*
X01430652Y01393178D01*
X01437316Y01386514D01*
Y01373185D01*
Y01383181D01*
X01423987D01*
X01443981Y01393178D02*
Y01373185D01*
X01453978D01*
X01457310Y01376517D01*
Y01389846D01*
X01453978Y01393178D01*
X01443981D01*
X01463974Y01373185D02*
Y01393178D01*
X01473971D01*
X01477303Y01389846D01*
Y01383181D01*
X01473971Y01379849D01*
X01463974D01*
X01470639D02*
X01477303Y01373185D01*
X01483968D02*
Y01386514D01*
X01490632Y01393178D01*
X01497297Y01386514D01*
Y01373185D01*
Y01383181D01*
X01483968D01*
X01503961Y01393178D02*
X01517290D01*
X01510626D01*
Y01373185D01*
X01523955Y01393178D02*
Y01376517D01*
X01527287Y01373185D01*
X01533952D01*
X01537284Y01376517D01*
Y01393178D01*
X01543949Y01373185D02*
Y01393178D01*
X01553945D01*
X01557278Y01389846D01*
Y01383181D01*
X01553945Y01379849D01*
X01543949D01*
X01550613D02*
X01557278Y01373185D01*
X01577271Y01393178D02*
X01563942D01*
Y01373185D01*
X01577271D01*
X01563942Y01383181D02*
X01570607D01*
X01384000Y01359586D02*
Y01339592D01*
X01393997D01*
X01397329Y01342924D01*
Y01356254D01*
X01393997Y01359586D01*
X01384000D01*
X01417323D02*
X01403994D01*
Y01339592D01*
X01417323D01*
X01403994Y01349589D02*
X01410658D01*
X01423987Y01339592D02*
Y01359586D01*
X01430652Y01352921D01*
X01437316Y01359586D01*
Y01339592D01*
X01453978Y01359586D02*
X01447313D01*
X01443981Y01356254D01*
Y01342924D01*
X01447313Y01339592D01*
X01453978D01*
X01457310Y01342924D01*
Y01356254D01*
X01453978Y01359586D01*
X01463974D02*
Y01339592D01*
X01473971D01*
X01477303Y01342924D01*
Y01356254D01*
X01473971Y01359586D01*
X01463974D01*
X01483968D02*
Y01342924D01*
X01487300Y01339592D01*
X01493965D01*
X01497297Y01342924D01*
Y01359586D01*
X01503961D02*
Y01339592D01*
X01517290D01*
X01523955D02*
Y01352921D01*
X01530619Y01359586D01*
X01537284Y01352921D01*
Y01339592D01*
Y01349589D01*
X01523955D01*
X01543949Y01359586D02*
X01557278D01*
X01550613D01*
Y01339592D01*
X01573939Y01359586D02*
X01567274D01*
X01563942Y01356254D01*
Y01342924D01*
X01567274Y01339592D01*
X01573939D01*
X01577271Y01342924D01*
Y01356254D01*
X01573939Y01359586D01*
X01583936Y01339592D02*
Y01359586D01*
X01593932D01*
X01597265Y01356254D01*
Y01349589D01*
X01593932Y01346257D01*
X01583936D01*
X01590600D02*
X01597265Y01339592D01*
X01384000Y01306000D02*
X01390665D01*
X01387332D01*
Y01325994D01*
X01384000Y01322661D01*
X01400661D02*
X01403994Y01325994D01*
X01410658D01*
X01413990Y01322661D01*
Y01309332D01*
X01410658Y01306000D01*
X01403994D01*
X01400661Y01309332D01*
Y01322661D01*
X01420655Y01306000D02*
Y01309332D01*
X01423987D01*
Y01306000D01*
X01420655D01*
X01437316Y01325994D02*
X01450645D01*
Y01322661D01*
X01437316Y01309332D01*
Y01306000D01*
X01477303Y01325994D02*
Y01306000D01*
Y01315997D01*
X01490632D01*
Y01325994D01*
Y01306000D01*
X01497297D02*
Y01325994D01*
X01503961Y01319329D01*
X01510626Y01325994D01*
Y01306000D01*
X01517290Y01319329D02*
X01530619D01*
X01517290Y01306000D01*
X01530619D01*
D15*
X01650500Y01291001D02*
X01769500D01*
X01650500Y01199001D02*
Y01291001D01*
Y01199001D02*
X01769500D01*
Y01291001D01*
D16*
X01849002Y01389000D02*
Y01395665D01*
X01845669Y01392332D02*
X01852334D01*
X01654000Y01349002D02*
X01647336D01*
X01650668Y01345669D02*
Y01352334D01*
X01724000Y01349002D02*
X01717336D01*
X01720668Y01345669D02*
Y01352334D01*
M02*
