G04*
G04 #@! TF.GenerationSoftware,Altium Limited,Altium Designer,21.9.1 (22)*
G04*
G04 Layer_Physical_Order=2*
G04 Layer_Color=16711680*
%FSAX44Y44*%
%MOMM*%
G71*
G04*
G04 #@! TF.SameCoordinates,86785AD5-1920-4A7D-B972-61179B801B7D*
G04*
G04*
G04 #@! TF.FilePolarity,Positive*
G04*
G01*
G75*
%ADD34C,2.2000*%
%ADD48C,0.3000*%
%ADD49C,0.5000*%
%ADD50O,3.0000X1.9000*%
%ADD51R,3.0000X1.9000*%
%ADD52C,1.6000*%
%ADD53R,1.3000X1.3000*%
%ADD54C,1.3000*%
G04:AMPARAMS|DCode=55|XSize=2.4mm|YSize=3.2mm|CornerRadius=0mm|HoleSize=0mm|Usage=FLASHONLY|Rotation=135.000|XOffset=0mm|YOffset=0mm|HoleType=Round|Shape=Round|*
%AMOVALD55*
21,1,0.8000,2.4000,0.0000,0.0000,225.0*
1,1,2.4000,0.2828,0.2828*
1,1,2.4000,-0.2828,-0.2828*
%
%ADD55OVALD55*%

G04:AMPARAMS|DCode=56|XSize=2.8mm|YSize=3mm|CornerRadius=0mm|HoleSize=0mm|Usage=FLASHONLY|Rotation=135.000|XOffset=0mm|YOffset=0mm|HoleType=Round|Shape=Round|*
%AMOVALD56*
21,1,0.2000,2.8000,0.0000,0.0000,225.0*
1,1,2.8000,0.0707,0.0707*
1,1,2.8000,-0.0707,-0.0707*
%
%ADD56OVALD56*%

%ADD57C,3.0000*%
%ADD58C,2.1000*%
%ADD59R,2.1000X2.1000*%
%ADD60R,1.3000X1.3000*%
%ADD61C,5.0000*%
%ADD62C,0.7000*%
%ADD63C,0.6000*%
G36*
X01998000Y01202000D02*
X01352000D01*
Y01698000D01*
X01998000D01*
Y01202000D01*
D02*
G37*
%LPC*%
G36*
X01575102Y01622540D02*
X01572898D01*
X01570862Y01621697D01*
X01569303Y01620138D01*
X01568460Y01618102D01*
Y01617824D01*
X01557827D01*
X01557697Y01618138D01*
X01556138Y01619697D01*
X01554102Y01620540D01*
X01551898D01*
X01549862Y01619697D01*
X01548303Y01618138D01*
X01547460Y01616102D01*
Y01613898D01*
X01548303Y01611862D01*
X01549862Y01610303D01*
X01551898Y01609460D01*
X01554102D01*
X01556138Y01610303D01*
X01557697Y01611862D01*
X01557827Y01612176D01*
X01571170D01*
X01572898Y01611460D01*
X01575102D01*
X01577138Y01612303D01*
X01578697Y01613862D01*
X01579540Y01615898D01*
Y01618102D01*
X01578697Y01620138D01*
X01577138Y01621697D01*
X01575102Y01622540D01*
D02*
G37*
G36*
X01396246Y01577900D02*
X01396100D01*
Y01566900D01*
X01407100D01*
Y01567046D01*
X01406248Y01570225D01*
X01404603Y01573075D01*
X01402275Y01575403D01*
X01399425Y01577048D01*
X01396246Y01577900D01*
D02*
G37*
G36*
X01447046D02*
X01446900D01*
Y01566900D01*
X01457900D01*
Y01567046D01*
X01457048Y01570225D01*
X01455403Y01573075D01*
X01453075Y01575403D01*
X01450225Y01577048D01*
X01447046Y01577900D01*
D02*
G37*
G36*
X01443900D02*
X01443754D01*
X01440575Y01577048D01*
X01437725Y01575403D01*
X01435397Y01573075D01*
X01433752Y01570225D01*
X01432900Y01567046D01*
Y01566900D01*
X01443900D01*
Y01577900D01*
D02*
G37*
G36*
X01393100D02*
X01392954D01*
X01389775Y01577048D01*
X01386925Y01575403D01*
X01384597Y01573075D01*
X01382952Y01570225D01*
X01382100Y01567046D01*
Y01566900D01*
X01393100D01*
Y01577900D01*
D02*
G37*
G36*
X01457900Y01563900D02*
X01446900D01*
Y01552900D01*
X01447046D01*
X01450225Y01553752D01*
X01453075Y01555397D01*
X01455403Y01557725D01*
X01457048Y01560575D01*
X01457900Y01563754D01*
Y01563900D01*
D02*
G37*
G36*
X01443900D02*
X01432900D01*
Y01563754D01*
X01433752Y01560575D01*
X01435397Y01557725D01*
X01437725Y01555397D01*
X01440575Y01553752D01*
X01443754Y01552900D01*
X01443900D01*
Y01563900D01*
D02*
G37*
G36*
X01407100D02*
X01396100D01*
Y01552900D01*
X01396246D01*
X01399425Y01553752D01*
X01402275Y01555397D01*
X01404603Y01557725D01*
X01406248Y01560575D01*
X01407100Y01563754D01*
Y01563900D01*
D02*
G37*
G36*
X01393100D02*
X01382100D01*
Y01563754D01*
X01382952Y01560575D01*
X01384597Y01557725D01*
X01386925Y01555397D01*
X01389775Y01553752D01*
X01392954Y01552900D01*
X01393100D01*
Y01563900D01*
D02*
G37*
G36*
X01421317Y01550000D02*
X01418683D01*
X01416140Y01549319D01*
X01413860Y01548002D01*
X01411998Y01546140D01*
X01410681Y01543860D01*
X01410000Y01541317D01*
Y01538683D01*
X01410681Y01536140D01*
X01411998Y01533860D01*
X01413860Y01531998D01*
X01416140Y01530681D01*
X01418683Y01530000D01*
X01421317D01*
X01423860Y01530681D01*
X01426140Y01531998D01*
X01428002Y01533860D01*
X01429319Y01536140D01*
X01430000Y01538683D01*
Y01541317D01*
X01429319Y01543860D01*
X01428002Y01546140D01*
X01426140Y01548002D01*
X01423860Y01549319D01*
X01421317Y01550000D01*
D02*
G37*
G36*
X01447046Y01527100D02*
X01446900D01*
Y01516100D01*
X01457900D01*
Y01516246D01*
X01457048Y01519425D01*
X01455403Y01522275D01*
X01453075Y01524603D01*
X01450225Y01526248D01*
X01447046Y01527100D01*
D02*
G37*
G36*
X01443900D02*
X01443754D01*
X01440575Y01526248D01*
X01437725Y01524603D01*
X01435397Y01522275D01*
X01433752Y01519425D01*
X01432900Y01516246D01*
Y01516100D01*
X01443900D01*
Y01527100D01*
D02*
G37*
G36*
X01396246D02*
X01396100D01*
Y01516100D01*
X01407100D01*
Y01516246D01*
X01406248Y01519425D01*
X01404603Y01522275D01*
X01402275Y01524603D01*
X01399425Y01526248D01*
X01396246Y01527100D01*
D02*
G37*
G36*
X01393100D02*
X01392954D01*
X01389775Y01526248D01*
X01386925Y01524603D01*
X01384597Y01522275D01*
X01382952Y01519425D01*
X01382100Y01516246D01*
Y01516100D01*
X01393100D01*
Y01527100D01*
D02*
G37*
G36*
X01457900Y01513100D02*
X01446900D01*
Y01502100D01*
X01447046D01*
X01450225Y01502952D01*
X01453075Y01504597D01*
X01455403Y01506925D01*
X01457048Y01509775D01*
X01457900Y01512954D01*
Y01513100D01*
D02*
G37*
G36*
X01443900D02*
X01432900D01*
Y01512954D01*
X01433752Y01509775D01*
X01435397Y01506925D01*
X01437725Y01504597D01*
X01440575Y01502952D01*
X01443754Y01502100D01*
X01443900D01*
Y01513100D01*
D02*
G37*
G36*
X01407100Y01513100D02*
X01396100D01*
Y01502100D01*
X01396246D01*
X01399425Y01502952D01*
X01402275Y01504597D01*
X01404603Y01506925D01*
X01406248Y01509775D01*
X01407100Y01512954D01*
Y01513100D01*
D02*
G37*
G36*
X01393100D02*
X01382100D01*
Y01512954D01*
X01382952Y01509775D01*
X01384597Y01506925D01*
X01386925Y01504597D01*
X01389775Y01502952D01*
X01392954Y01502100D01*
X01393100D01*
Y01513100D01*
D02*
G37*
G36*
X01834142Y01510540D02*
X01831938D01*
X01829902Y01509697D01*
X01828343Y01508138D01*
X01827500Y01506102D01*
Y01503898D01*
X01827630Y01503584D01*
X01823023Y01498977D01*
X01822411Y01498061D01*
X01822196Y01496980D01*
X01822196Y01496980D01*
Y01493190D01*
X01818416Y01489410D01*
X01818102Y01489540D01*
X01815898D01*
X01813862Y01488697D01*
X01812303Y01487138D01*
X01811460Y01485102D01*
Y01482898D01*
X01812303Y01480862D01*
X01813862Y01479303D01*
X01815898Y01478460D01*
X01818102D01*
X01820138Y01479303D01*
X01821697Y01480862D01*
X01822540Y01482898D01*
Y01485102D01*
X01822410Y01485416D01*
X01827017Y01490023D01*
X01827017Y01490023D01*
X01827629Y01490939D01*
X01827844Y01492020D01*
X01827844Y01492020D01*
Y01495810D01*
X01831624Y01499590D01*
X01831938Y01499460D01*
X01834142D01*
X01836178Y01500303D01*
X01837737Y01501862D01*
X01838580Y01503898D01*
Y01506102D01*
X01837737Y01508138D01*
X01836178Y01509697D01*
X01834142Y01510540D01*
D02*
G37*
G36*
X01679500Y01491095D02*
X01675500D01*
Y01481500D01*
X01690397D01*
X01690217Y01482872D01*
X01689108Y01485547D01*
X01687345Y01487845D01*
X01685047Y01489608D01*
X01682372Y01490717D01*
X01679500Y01491095D01*
D02*
G37*
G36*
X01672500D02*
X01668500D01*
X01665628Y01490717D01*
X01662953Y01489608D01*
X01660655Y01487845D01*
X01658891Y01485547D01*
X01657783Y01482872D01*
X01657603Y01481500D01*
X01672500D01*
Y01491095D01*
D02*
G37*
G36*
X01602102Y01520540D02*
X01599898D01*
X01597862Y01519697D01*
X01596303Y01518138D01*
X01595460Y01516102D01*
Y01513898D01*
X01596303Y01511862D01*
X01597156Y01511009D01*
Y01481991D01*
X01596303Y01481138D01*
X01595460Y01479102D01*
Y01476898D01*
X01596303Y01474862D01*
X01597862Y01473303D01*
X01599898Y01472460D01*
X01602102D01*
X01604138Y01473303D01*
X01605697Y01474862D01*
X01606540Y01476898D01*
Y01479102D01*
X01605697Y01481138D01*
X01604844Y01481991D01*
Y01511009D01*
X01605697Y01511862D01*
X01606540Y01513898D01*
Y01516102D01*
X01605697Y01518138D01*
X01604138Y01519697D01*
X01602102Y01520540D01*
D02*
G37*
G36*
X01690397Y01478500D02*
X01675500D01*
Y01468905D01*
X01679500D01*
X01682372Y01469283D01*
X01685047Y01470392D01*
X01687345Y01472155D01*
X01689108Y01474453D01*
X01690217Y01477128D01*
X01690397Y01478500D01*
D02*
G37*
G36*
X01672500D02*
X01657603D01*
X01657783Y01477128D01*
X01658891Y01474453D01*
X01660655Y01472155D01*
X01662953Y01470392D01*
X01665628Y01469283D01*
X01668500Y01468905D01*
X01672500D01*
Y01478500D01*
D02*
G37*
G36*
X01957046Y01464900D02*
X01956900D01*
Y01453900D01*
X01967900D01*
Y01454046D01*
X01967048Y01457225D01*
X01965403Y01460075D01*
X01963075Y01462402D01*
X01960225Y01464048D01*
X01957046Y01464900D01*
D02*
G37*
G36*
X01953900D02*
X01953754D01*
X01950575Y01464048D01*
X01947725Y01462402D01*
X01945397Y01460075D01*
X01943752Y01457225D01*
X01942900Y01454046D01*
Y01453900D01*
X01953900D01*
Y01464900D01*
D02*
G37*
G36*
X01906246D02*
X01906100D01*
Y01453900D01*
X01917100D01*
Y01454046D01*
X01916248Y01457225D01*
X01914603Y01460075D01*
X01912275Y01462402D01*
X01909425Y01464048D01*
X01906246Y01464900D01*
D02*
G37*
G36*
X01903100D02*
X01902954D01*
X01899775Y01464048D01*
X01896925Y01462402D01*
X01894597Y01460075D01*
X01892952Y01457225D01*
X01892100Y01454046D01*
Y01453900D01*
X01903100D01*
Y01464900D01*
D02*
G37*
G36*
X01691000Y01466100D02*
X01657000D01*
Y01443100D01*
X01691000D01*
Y01466100D01*
D02*
G37*
G36*
X01967900Y01450900D02*
X01956900D01*
Y01439900D01*
X01957046D01*
X01960225Y01440752D01*
X01963075Y01442397D01*
X01965403Y01444725D01*
X01967048Y01447575D01*
X01967900Y01450754D01*
Y01450900D01*
D02*
G37*
G36*
X01953900D02*
X01942900D01*
Y01450754D01*
X01943752Y01447575D01*
X01945397Y01444725D01*
X01947725Y01442397D01*
X01950575Y01440752D01*
X01953754Y01439900D01*
X01953900D01*
Y01450900D01*
D02*
G37*
G36*
X01917100Y01450900D02*
X01906100D01*
Y01439900D01*
X01906246D01*
X01909425Y01440752D01*
X01912275Y01442397D01*
X01914603Y01444725D01*
X01916248Y01447575D01*
X01917100Y01450754D01*
Y01450900D01*
D02*
G37*
G36*
X01903100D02*
X01892100D01*
Y01450754D01*
X01892952Y01447575D01*
X01894597Y01444725D01*
X01896925Y01442397D01*
X01899775Y01440752D01*
X01902954Y01439900D01*
X01903100D01*
Y01450900D01*
D02*
G37*
G36*
X01931317Y01437000D02*
X01928683D01*
X01926140Y01436319D01*
X01923860Y01435002D01*
X01921998Y01433140D01*
X01920681Y01430860D01*
X01920000Y01428316D01*
Y01425683D01*
X01920681Y01423140D01*
X01921998Y01420860D01*
X01923860Y01418998D01*
X01926140Y01417681D01*
X01928683Y01417000D01*
X01931317D01*
X01933860Y01417681D01*
X01936140Y01418998D01*
X01938002Y01420860D01*
X01939319Y01423140D01*
X01940000Y01425683D01*
Y01428316D01*
X01939319Y01430860D01*
X01938002Y01433140D01*
X01936140Y01435002D01*
X01933860Y01436319D01*
X01931317Y01437000D01*
D02*
G37*
G36*
X01957046Y01414100D02*
X01956900D01*
Y01403100D01*
X01967900D01*
Y01403246D01*
X01967048Y01406425D01*
X01965403Y01409275D01*
X01963075Y01411602D01*
X01960225Y01413248D01*
X01957046Y01414100D01*
D02*
G37*
G36*
X01953900D02*
X01953754D01*
X01950575Y01413248D01*
X01947725Y01411602D01*
X01945397Y01409275D01*
X01943752Y01406425D01*
X01942900Y01403246D01*
Y01403100D01*
X01953900D01*
Y01414100D01*
D02*
G37*
G36*
X01906246D02*
X01906100D01*
Y01403100D01*
X01917100D01*
Y01403246D01*
X01916248Y01406425D01*
X01914603Y01409275D01*
X01912275Y01411602D01*
X01909425Y01413248D01*
X01906246Y01414100D01*
D02*
G37*
G36*
X01903100D02*
X01902954D01*
X01899775Y01413248D01*
X01896925Y01411602D01*
X01894597Y01409275D01*
X01892952Y01406425D01*
X01892100Y01403246D01*
Y01403100D01*
X01903100D01*
Y01414100D01*
D02*
G37*
G36*
X01967900Y01400100D02*
X01956900D01*
Y01389100D01*
X01957046D01*
X01960225Y01389952D01*
X01963075Y01391597D01*
X01965403Y01393925D01*
X01967048Y01396775D01*
X01967900Y01399954D01*
Y01400100D01*
D02*
G37*
G36*
X01953900D02*
X01942900D01*
Y01399954D01*
X01943752Y01396775D01*
X01945397Y01393925D01*
X01947725Y01391597D01*
X01950575Y01389952D01*
X01953754Y01389100D01*
X01953900D01*
Y01400100D01*
D02*
G37*
G36*
X01917100Y01400100D02*
X01906100D01*
Y01389100D01*
X01906246D01*
X01909425Y01389952D01*
X01912275Y01391597D01*
X01914603Y01393925D01*
X01916248Y01396775D01*
X01917100Y01399954D01*
Y01400100D01*
D02*
G37*
G36*
X01903100D02*
X01892100D01*
Y01399954D01*
X01892952Y01396775D01*
X01894597Y01393925D01*
X01896925Y01391597D01*
X01899775Y01389952D01*
X01902954Y01389100D01*
X01903100D01*
Y01400100D01*
D02*
G37*
G36*
X01858500Y01388000D02*
X01841500D01*
Y01371000D01*
X01858500D01*
Y01388000D01*
D02*
G37*
G36*
X01741500Y01358000D02*
X01735000D01*
Y01351500D01*
X01741500D01*
Y01358000D01*
D02*
G37*
G36*
X01690000Y01357880D02*
Y01351500D01*
X01696380D01*
X01695955Y01353088D01*
X01694902Y01354912D01*
X01693412Y01356402D01*
X01691588Y01357455D01*
X01690000Y01357880D01*
D02*
G37*
G36*
X01687000Y01357880D02*
X01685412Y01357455D01*
X01683588Y01356402D01*
X01682098Y01354912D01*
X01681045Y01353088D01*
X01680620Y01351500D01*
X01687000D01*
Y01357880D01*
D02*
G37*
G36*
X01732000Y01358000D02*
X01725500D01*
Y01351500D01*
X01732000D01*
Y01358000D01*
D02*
G37*
G36*
X01851119Y01363000D02*
X01848881D01*
X01846719Y01362421D01*
X01844781Y01361302D01*
X01843198Y01359719D01*
X01842079Y01357781D01*
X01841500Y01355619D01*
Y01353381D01*
X01842079Y01351219D01*
X01843198Y01349281D01*
X01844781Y01347698D01*
X01846719Y01346579D01*
X01848881Y01346000D01*
X01851119D01*
X01853281Y01346579D01*
X01855219Y01347698D01*
X01856802Y01349281D01*
X01857921Y01351219D01*
X01858500Y01353381D01*
Y01355619D01*
X01857921Y01357781D01*
X01856802Y01359719D01*
X01855219Y01361302D01*
X01853281Y01362421D01*
X01851119Y01363000D01*
D02*
G37*
G36*
X01687000Y01348500D02*
X01680620D01*
X01681045Y01346912D01*
X01682098Y01345088D01*
X01683588Y01343598D01*
X01685412Y01342545D01*
X01687000Y01342120D01*
Y01348500D01*
D02*
G37*
G36*
X01696380D02*
X01690000D01*
Y01342120D01*
X01691588Y01342545D01*
X01693412Y01343598D01*
X01694902Y01345088D01*
X01695955Y01346912D01*
X01696380Y01348500D01*
D02*
G37*
G36*
X01741500D02*
X01735000D01*
Y01342000D01*
X01741500D01*
Y01348500D01*
D02*
G37*
G36*
X01732000D02*
X01725500D01*
Y01342000D01*
X01732000D01*
Y01348500D01*
D02*
G37*
G36*
X01759619Y01358500D02*
X01757381D01*
X01755219Y01357921D01*
X01753281Y01356802D01*
X01751698Y01355219D01*
X01750579Y01353281D01*
X01750000Y01351119D01*
Y01348881D01*
X01750579Y01346719D01*
X01751698Y01344781D01*
X01753281Y01343198D01*
X01755219Y01342079D01*
X01757381Y01341500D01*
X01759619D01*
X01761781Y01342079D01*
X01763719Y01343198D01*
X01765302Y01344781D01*
X01766421Y01346719D01*
X01767000Y01348881D01*
Y01351119D01*
X01766421Y01353281D01*
X01765302Y01355219D01*
X01763719Y01356802D01*
X01761781Y01357921D01*
X01759619Y01358500D01*
D02*
G37*
G36*
X01672000D02*
X01655000D01*
Y01341500D01*
X01672000D01*
Y01358500D01*
D02*
G37*
G36*
X01943674Y01371500D02*
X01940326D01*
X01937041Y01370847D01*
X01933947Y01369565D01*
X01931163Y01367705D01*
X01928795Y01365337D01*
X01926935Y01362552D01*
X01925653Y01359459D01*
X01925000Y01356174D01*
Y01352826D01*
X01925653Y01349541D01*
X01926935Y01346447D01*
X01928795Y01343663D01*
X01931163Y01341295D01*
X01933947Y01339435D01*
X01937041Y01338153D01*
X01940326Y01337500D01*
X01943674D01*
X01946959Y01338153D01*
X01950052Y01339435D01*
X01952837Y01341295D01*
X01955205Y01343663D01*
X01957065Y01346447D01*
X01958347Y01349541D01*
X01959000Y01352826D01*
Y01356174D01*
X01958347Y01359459D01*
X01957065Y01362552D01*
X01955205Y01365337D01*
X01952837Y01367705D01*
X01950052Y01369565D01*
X01946959Y01370847D01*
X01943674Y01371500D01*
D02*
G37*
G36*
X01924828Y01333949D02*
X01921174Y01333468D01*
X01917768Y01332057D01*
X01914843Y01329813D01*
X01909187Y01324156D01*
X01906943Y01321232D01*
X01905532Y01317826D01*
X01905051Y01314172D01*
X01905532Y01310517D01*
X01906943Y01307111D01*
X01909187Y01304187D01*
X01912111Y01301943D01*
X01915517Y01300532D01*
X01919172Y01300051D01*
X01922826Y01300532D01*
X01925286Y01301551D01*
X01926258Y01300579D01*
X01925532Y01298826D01*
X01925051Y01295172D01*
X01925532Y01291517D01*
X01926943Y01288111D01*
X01929187Y01285187D01*
X01932111Y01282943D01*
X01935517Y01281532D01*
X01939172Y01281051D01*
X01942826Y01281532D01*
X01946232Y01282943D01*
X01949156Y01285187D01*
X01954813Y01290844D01*
X01957057Y01293768D01*
X01958468Y01297174D01*
X01958949Y01300828D01*
X01958468Y01304483D01*
X01957057Y01307889D01*
X01954813Y01310813D01*
X01951889Y01313057D01*
X01948483Y01314468D01*
X01944828Y01314949D01*
X01941174Y01314468D01*
X01938714Y01313449D01*
X01937742Y01314421D01*
X01938468Y01316174D01*
X01938949Y01319828D01*
X01938468Y01323483D01*
X01937057Y01326889D01*
X01934813Y01329813D01*
X01931889Y01332057D01*
X01928483Y01333468D01*
X01924828Y01333949D01*
D02*
G37*
G36*
X01711580Y01291001D02*
X01711500D01*
Y01280501D01*
X01722000D01*
Y01280581D01*
X01721182Y01283633D01*
X01719602Y01286369D01*
X01717368Y01288603D01*
X01714632Y01290183D01*
X01711580Y01291001D01*
D02*
G37*
G36*
X01708500D02*
X01708420D01*
X01705368Y01290183D01*
X01702632Y01288603D01*
X01700397Y01286369D01*
X01698818Y01283633D01*
X01698000Y01280581D01*
Y01280501D01*
X01708500D01*
Y01291001D01*
D02*
G37*
G36*
X01722000Y01277501D02*
X01711500D01*
Y01267001D01*
X01711580D01*
X01714632Y01267819D01*
X01717368Y01269398D01*
X01719602Y01271633D01*
X01721182Y01274369D01*
X01722000Y01277421D01*
Y01277501D01*
D02*
G37*
G36*
X01708500D02*
X01698000D01*
Y01277421D01*
X01698818Y01274369D01*
X01700397Y01271633D01*
X01702632Y01269398D01*
X01705368Y01267819D01*
X01708420Y01267001D01*
X01708500D01*
Y01277501D01*
D02*
G37*
G36*
X01746646Y01291501D02*
X01743354D01*
X01740175Y01290649D01*
X01737325Y01289003D01*
X01734997Y01286676D01*
X01733352Y01283826D01*
X01732500Y01280647D01*
Y01277355D01*
X01733352Y01274176D01*
X01734997Y01271326D01*
X01737325Y01268998D01*
X01740175Y01267353D01*
X01743354Y01266501D01*
X01746646D01*
X01749825Y01267353D01*
X01752675Y01268998D01*
X01755002Y01271326D01*
X01756648Y01274176D01*
X01757500Y01277355D01*
Y01280647D01*
X01756648Y01283826D01*
X01755002Y01286676D01*
X01752675Y01289003D01*
X01749825Y01290649D01*
X01746646Y01291501D01*
D02*
G37*
G36*
X01687500D02*
X01662500D01*
Y01266501D01*
X01687500D01*
Y01291501D01*
D02*
G37*
G36*
X01954677Y01247055D02*
X01944122Y01236500D01*
X01954039Y01226582D01*
X01955657Y01228554D01*
X01957097Y01231247D01*
X01957983Y01234169D01*
X01958282Y01237207D01*
X01957983Y01240246D01*
X01957097Y01243167D01*
X01955657Y01245860D01*
X01954677Y01247055D01*
D02*
G37*
G36*
X01922707Y01277785D02*
X01919571Y01277476D01*
X01916555Y01276561D01*
X01913775Y01275075D01*
X01911339Y01273076D01*
X01909924Y01271661D01*
X01907925Y01269225D01*
X01906439Y01266445D01*
X01905524Y01263429D01*
X01905215Y01260293D01*
X01905524Y01257156D01*
X01906439Y01254140D01*
X01907925Y01251361D01*
X01909924Y01248924D01*
X01912361Y01246925D01*
X01915140Y01245439D01*
X01918156Y01244524D01*
X01921293Y01244215D01*
X01924429Y01244524D01*
X01927445Y01245439D01*
X01927569Y01245506D01*
X01928391Y01244505D01*
X01928343Y01244446D01*
X01926904Y01241753D01*
X01926017Y01238831D01*
X01925718Y01235793D01*
X01926017Y01232754D01*
X01926904Y01229833D01*
X01928343Y01227140D01*
X01929324Y01225945D01*
X01940939Y01237561D01*
X01952555Y01249176D01*
X01951360Y01250157D01*
X01948667Y01251597D01*
X01945746Y01252483D01*
X01942707Y01252782D01*
X01939669Y01252483D01*
X01936747Y01251597D01*
X01935932Y01252601D01*
X01936075Y01252775D01*
X01937561Y01255555D01*
X01938476Y01258571D01*
X01938784Y01261707D01*
X01938476Y01264844D01*
X01937561Y01267860D01*
X01936075Y01270639D01*
X01934075Y01273076D01*
X01931639Y01275075D01*
X01928860Y01276561D01*
X01925844Y01277476D01*
X01922707Y01277785D01*
D02*
G37*
G36*
X01942000Y01234379D02*
X01931445Y01223823D01*
X01932640Y01222843D01*
X01935333Y01221404D01*
X01938254Y01220517D01*
X01941293Y01220218D01*
X01944331Y01220517D01*
X01947253Y01221404D01*
X01949946Y01222843D01*
X01951918Y01224461D01*
X01942000Y01234379D01*
D02*
G37*
%LPD*%
D34*
X01394600Y01514600D02*
D03*
X01445400D02*
D03*
Y01565400D02*
D03*
X01394600D02*
D03*
X01904600Y01401600D02*
D03*
X01955400D02*
D03*
Y01452400D02*
D03*
X01904600D02*
D03*
D48*
X01553000Y01615000D02*
X01571188D01*
X01573188Y01617000D01*
X01574000D01*
X01825020Y01492020D02*
Y01496980D01*
X01817000Y01484000D02*
X01825020Y01492020D01*
Y01496980D02*
X01833040Y01505000D01*
D49*
X01601000Y01478000D02*
Y01515000D01*
D50*
X01674000Y01480000D02*
D03*
D51*
Y01454600D02*
D03*
D52*
X01420000Y01540000D02*
D03*
X01930000Y01427000D02*
D03*
D53*
X01850000Y01379500D02*
D03*
D54*
Y01354500D02*
D03*
X01688500Y01350000D02*
D03*
X01758500D02*
D03*
D55*
X01922000Y01317000D02*
D03*
X01942000Y01298000D02*
D03*
D56*
X01922000Y01261000D02*
D03*
X01942000Y01236500D02*
D03*
D57*
Y01354500D02*
D03*
D58*
X01710000Y01279001D02*
D03*
X01745000D02*
D03*
D59*
X01675000D02*
D03*
D60*
X01663500Y01350000D02*
D03*
X01733500D02*
D03*
D61*
X01400000Y01650000D02*
D03*
X01950000D02*
D03*
X01850000Y01250000D02*
D03*
X01400000D02*
D03*
D62*
X01950000Y01600000D02*
D03*
Y01550000D02*
D03*
Y01500000D02*
D03*
X01900000Y01650000D02*
D03*
Y01600000D02*
D03*
Y01550000D02*
D03*
Y01350000D02*
D03*
Y01300000D02*
D03*
Y01250000D02*
D03*
X01850000Y01650000D02*
D03*
Y01600000D02*
D03*
Y01550000D02*
D03*
Y01450000D02*
D03*
Y01300000D02*
D03*
X01800000Y01650000D02*
D03*
Y01600000D02*
D03*
Y01550000D02*
D03*
Y01450000D02*
D03*
Y01400000D02*
D03*
Y01350000D02*
D03*
Y01300000D02*
D03*
Y01250000D02*
D03*
X01750000Y01650000D02*
D03*
Y01600000D02*
D03*
Y01450000D02*
D03*
Y01250000D02*
D03*
X01700000Y01650000D02*
D03*
Y01600000D02*
D03*
Y01500000D02*
D03*
Y01400000D02*
D03*
Y01350000D02*
D03*
Y01300000D02*
D03*
Y01250000D02*
D03*
X01650000Y01400000D02*
D03*
Y01300000D02*
D03*
Y01250000D02*
D03*
X01600000Y01650000D02*
D03*
Y01450000D02*
D03*
Y01400000D02*
D03*
Y01350000D02*
D03*
Y01300000D02*
D03*
Y01250000D02*
D03*
X01550000Y01650000D02*
D03*
Y01600000D02*
D03*
Y01500000D02*
D03*
Y01450000D02*
D03*
Y01400000D02*
D03*
Y01350000D02*
D03*
Y01300000D02*
D03*
Y01250000D02*
D03*
X01500000Y01650000D02*
D03*
Y01600000D02*
D03*
Y01500000D02*
D03*
Y01450000D02*
D03*
Y01400000D02*
D03*
Y01350000D02*
D03*
Y01300000D02*
D03*
Y01250000D02*
D03*
X01450000Y01650000D02*
D03*
Y01600000D02*
D03*
Y01450000D02*
D03*
Y01400000D02*
D03*
Y01350000D02*
D03*
Y01300000D02*
D03*
Y01250000D02*
D03*
X01400000Y01600000D02*
D03*
Y01550000D02*
D03*
Y01450000D02*
D03*
Y01400000D02*
D03*
Y01350000D02*
D03*
Y01300000D02*
D03*
D63*
X01482000Y01514000D02*
D03*
X01574000Y01617000D02*
D03*
X01553000Y01615000D02*
D03*
X01550000Y01564000D02*
D03*
X01560000Y01562000D02*
D03*
X01587000Y01552000D02*
D03*
X01561000Y01519000D02*
D03*
X01587000Y01533040D02*
D03*
X01617000Y01532000D02*
D03*
X01643960Y01525000D02*
D03*
X01825000Y01318000D02*
D03*
X01817000Y01484000D02*
D03*
X01833040Y01505000D02*
D03*
X01696000Y01613000D02*
D03*
X01642000Y01643000D02*
D03*
X01613000Y01613000D02*
D03*
X01607000Y01593000D02*
D03*
Y01576000D02*
D03*
X01601000Y01515000D02*
D03*
Y01478000D02*
D03*
X01688000Y01527000D02*
D03*
X01669000Y01528000D02*
D03*
X01679000Y01527000D02*
D03*
X01704000Y01531000D02*
D03*
X01757000Y01556000D02*
D03*
X01758000Y01541000D02*
D03*
X01930000Y01490000D02*
D03*
X01915000Y01523000D02*
D03*
X01762000Y01493000D02*
D03*
X01884000Y01535000D02*
D03*
X01835000Y01483000D02*
D03*
X01814000Y01495000D02*
D03*
M02*
