G04*
G04 #@! TF.GenerationSoftware,Altium Limited,Altium Designer,21.9.1 (22)*
G04*
G04 Layer_Color=8388736*
%FSAX44Y44*%
%MOMM*%
G71*
G04*
G04 #@! TF.SameCoordinates,86785AD5-1920-4A7D-B972-61179B801B7D*
G04*
G04*
G04 #@! TF.FilePolarity,Negative*
G04*
G01*
G75*
%ADD17R,0.7000X1.0500*%
%ADD18R,1.0500X0.7000*%
%ADD19O,1.7000X0.5000*%
G04:AMPARAMS|DCode=20|XSize=0.7mm|YSize=1.8mm|CornerRadius=0.2mm|HoleSize=0mm|Usage=FLASHONLY|Rotation=90.000|XOffset=0mm|YOffset=0mm|HoleType=Round|Shape=RoundedRectangle|*
%AMROUNDEDRECTD20*
21,1,0.7000,1.4000,0,0,90.0*
21,1,0.3000,1.8000,0,0,90.0*
1,1,0.4000,0.7000,0.1500*
1,1,0.4000,0.7000,-0.1500*
1,1,0.4000,-0.7000,-0.1500*
1,1,0.4000,-0.7000,0.1500*
%
%ADD20ROUNDEDRECTD20*%
%ADD21R,1.1000X1.7500*%
%ADD22R,1.4500X0.9000*%
%ADD23R,2.3000X1.0000*%
%ADD24R,1.5000X0.7000*%
%ADD25O,3.1000X2.0000*%
%ADD26R,3.1000X2.0000*%
%ADD27C,1.7000*%
%ADD28C,2.3000*%
%ADD29R,1.4000X1.4000*%
%ADD30C,1.4000*%
G04:AMPARAMS|DCode=31|XSize=2.5mm|YSize=3.3mm|CornerRadius=0mm|HoleSize=0mm|Usage=FLASHONLY|Rotation=135.000|XOffset=0mm|YOffset=0mm|HoleType=Round|Shape=Round|*
%AMOVALD31*
21,1,0.8000,2.5000,0.0000,0.0000,225.0*
1,1,2.5000,0.2828,0.2828*
1,1,2.5000,-0.2828,-0.2828*
%
%ADD31OVALD31*%

G04:AMPARAMS|DCode=32|XSize=2.9mm|YSize=3.1mm|CornerRadius=0mm|HoleSize=0mm|Usage=FLASHONLY|Rotation=135.000|XOffset=0mm|YOffset=0mm|HoleType=Round|Shape=Round|*
%AMOVALD32*
21,1,0.2000,2.9000,0.0000,0.0000,225.0*
1,1,2.9000,0.0707,0.0707*
1,1,2.9000,-0.0707,-0.0707*
%
%ADD32OVALD32*%

%ADD33C,3.1000*%
%ADD34C,2.2000*%
%ADD35R,2.2000X2.2000*%
%ADD36R,1.4000X1.4000*%
%ADD37C,5.1000*%
%ADD38C,0.5000*%
%ADD39C,0.4000*%
D17*
X01842250Y01407000D02*
D03*
X01857750D02*
D03*
X01614250Y01576000D02*
D03*
X01629750D02*
D03*
X01614250Y01593000D02*
D03*
X01629750D02*
D03*
X01747750Y01523000D02*
D03*
X01732250D02*
D03*
X01898250Y01499000D02*
D03*
X01913750D02*
D03*
X01776750Y01523000D02*
D03*
X01761250D02*
D03*
X01869250Y01499000D02*
D03*
X01884750D02*
D03*
X01502250Y01540000D02*
D03*
X01517750D02*
D03*
X01608750Y01499000D02*
D03*
X01593250D02*
D03*
X01776750Y01506000D02*
D03*
X01761250D02*
D03*
X01747750D02*
D03*
X01732250D02*
D03*
X01869250Y01482000D02*
D03*
X01884750D02*
D03*
X01898000D02*
D03*
X01913500D02*
D03*
X01857750Y01427000D02*
D03*
X01842250D02*
D03*
X01747750Y01540000D02*
D03*
X01732250D02*
D03*
X01747750Y01557000D02*
D03*
X01732250D02*
D03*
X01848750Y01318000D02*
D03*
X01833250D02*
D03*
X01761250Y01482000D02*
D03*
X01776750D02*
D03*
X01883750Y01523000D02*
D03*
X01868250D02*
D03*
D18*
X01533000Y01554750D02*
D03*
Y01539250D02*
D03*
X01654000Y01556750D02*
D03*
Y01541250D02*
D03*
X01549000Y01539250D02*
D03*
Y01554750D02*
D03*
X01483000Y01538750D02*
D03*
Y01523250D02*
D03*
X01704000Y01541250D02*
D03*
Y01556750D02*
D03*
D19*
X01574000Y01558500D02*
D03*
Y01552000D02*
D03*
Y01545500D02*
D03*
Y01539000D02*
D03*
Y01532500D02*
D03*
Y01526000D02*
D03*
Y01519500D02*
D03*
X01630000Y01558500D02*
D03*
Y01552000D02*
D03*
Y01545500D02*
D03*
Y01539000D02*
D03*
Y01532500D02*
D03*
Y01526000D02*
D03*
Y01519500D02*
D03*
D20*
X01799000Y01521050D02*
D03*
Y01508350D02*
D03*
Y01495650D02*
D03*
Y01482950D02*
D03*
X01849000Y01521050D02*
D03*
Y01508350D02*
D03*
Y01495650D02*
D03*
Y01482950D02*
D03*
D21*
X01901500Y01523000D02*
D03*
X01930500D02*
D03*
X01601500Y01613000D02*
D03*
X01630500D02*
D03*
X01684500D02*
D03*
X01655500D02*
D03*
D22*
X01930000Y01478750D02*
D03*
Y01500500D02*
D03*
D23*
X01679000Y01538500D02*
D03*
Y01559500D02*
D03*
D24*
X01654500Y01633500D02*
D03*
Y01643000D02*
D03*
Y01652500D02*
D03*
X01631500D02*
D03*
Y01633500D02*
D03*
D25*
X01674000Y01480000D02*
D03*
D26*
Y01454600D02*
D03*
D27*
X01420000Y01540000D02*
D03*
X01930000Y01427000D02*
D03*
D28*
X01394600Y01514600D02*
D03*
X01445400D02*
D03*
Y01565400D02*
D03*
X01394600D02*
D03*
X01904600Y01401600D02*
D03*
X01955400D02*
D03*
Y01452400D02*
D03*
X01904600D02*
D03*
D29*
X01850000Y01379500D02*
D03*
D30*
Y01354500D02*
D03*
X01688500Y01350000D02*
D03*
X01758500D02*
D03*
D31*
X01922000Y01317000D02*
D03*
X01942000Y01298000D02*
D03*
D32*
X01922000Y01261000D02*
D03*
X01942000Y01236500D02*
D03*
D33*
Y01354500D02*
D03*
D34*
X01710000Y01279001D02*
D03*
X01745000D02*
D03*
D35*
X01675000D02*
D03*
D36*
X01663500Y01350000D02*
D03*
X01733500D02*
D03*
D37*
X01400000Y01650000D02*
D03*
X01950000D02*
D03*
X01850000Y01250000D02*
D03*
X01400000D02*
D03*
D38*
X01950000Y01600000D02*
D03*
Y01550000D02*
D03*
Y01500000D02*
D03*
X01900000Y01650000D02*
D03*
Y01600000D02*
D03*
Y01550000D02*
D03*
Y01350000D02*
D03*
Y01300000D02*
D03*
Y01250000D02*
D03*
X01850000Y01650000D02*
D03*
Y01600000D02*
D03*
Y01550000D02*
D03*
Y01450000D02*
D03*
Y01300000D02*
D03*
X01800000Y01650000D02*
D03*
Y01600000D02*
D03*
Y01550000D02*
D03*
Y01450000D02*
D03*
Y01400000D02*
D03*
Y01350000D02*
D03*
Y01300000D02*
D03*
Y01250000D02*
D03*
X01750000Y01650000D02*
D03*
Y01600000D02*
D03*
Y01450000D02*
D03*
Y01250000D02*
D03*
X01700000Y01650000D02*
D03*
Y01600000D02*
D03*
Y01500000D02*
D03*
Y01400000D02*
D03*
Y01350000D02*
D03*
Y01300000D02*
D03*
Y01250000D02*
D03*
X01650000Y01400000D02*
D03*
Y01300000D02*
D03*
Y01250000D02*
D03*
X01600000Y01650000D02*
D03*
Y01450000D02*
D03*
Y01400000D02*
D03*
Y01350000D02*
D03*
Y01300000D02*
D03*
Y01250000D02*
D03*
X01550000Y01650000D02*
D03*
Y01600000D02*
D03*
Y01500000D02*
D03*
Y01450000D02*
D03*
Y01400000D02*
D03*
Y01350000D02*
D03*
Y01300000D02*
D03*
Y01250000D02*
D03*
X01500000Y01650000D02*
D03*
Y01600000D02*
D03*
Y01500000D02*
D03*
Y01450000D02*
D03*
Y01400000D02*
D03*
Y01350000D02*
D03*
Y01300000D02*
D03*
Y01250000D02*
D03*
X01450000Y01650000D02*
D03*
Y01600000D02*
D03*
Y01450000D02*
D03*
Y01400000D02*
D03*
Y01350000D02*
D03*
Y01300000D02*
D03*
Y01250000D02*
D03*
X01400000Y01600000D02*
D03*
Y01550000D02*
D03*
Y01450000D02*
D03*
Y01400000D02*
D03*
Y01350000D02*
D03*
Y01300000D02*
D03*
D39*
X01482000Y01514000D02*
D03*
X01574000Y01617000D02*
D03*
X01553000Y01615000D02*
D03*
X01550000Y01564000D02*
D03*
X01560000Y01562000D02*
D03*
X01587000Y01552000D02*
D03*
X01561000Y01519000D02*
D03*
X01587000Y01533040D02*
D03*
X01617000Y01532000D02*
D03*
X01643960Y01525000D02*
D03*
X01825000Y01318000D02*
D03*
X01817000Y01484000D02*
D03*
X01833040Y01505000D02*
D03*
X01696000Y01613000D02*
D03*
X01642000Y01643000D02*
D03*
X01613000Y01613000D02*
D03*
X01607000Y01593000D02*
D03*
Y01576000D02*
D03*
X01601000Y01515000D02*
D03*
Y01478000D02*
D03*
X01688000Y01527000D02*
D03*
X01669000Y01528000D02*
D03*
X01679000Y01527000D02*
D03*
X01704000Y01531000D02*
D03*
X01757000Y01556000D02*
D03*
X01758000Y01541000D02*
D03*
X01930000Y01490000D02*
D03*
X01915000Y01523000D02*
D03*
X01762000Y01493000D02*
D03*
X01884000Y01535000D02*
D03*
X01835000Y01483000D02*
D03*
X01814000Y01495000D02*
D03*
M02*
