G04*
G04 #@! TF.GenerationSoftware,Altium Limited,Altium Designer,21.9.1 (22)*
G04*
G04 Layer_Physical_Order=1*
G04 Layer_Color=255*
%FSAX44Y44*%
%MOMM*%
G71*
G04*
G04 #@! TF.SameCoordinates,86785AD5-1920-4A7D-B972-61179B801B7D*
G04*
G04*
G04 #@! TF.FilePolarity,Positive*
G04*
G01*
G75*
%ADD12C,0.2000*%
%ADD34C,2.2000*%
%ADD40R,0.6000X0.9500*%
%ADD41R,0.9500X0.6000*%
%ADD42O,1.6000X0.4000*%
G04:AMPARAMS|DCode=43|XSize=0.6mm|YSize=1.7mm|CornerRadius=0.15mm|HoleSize=0mm|Usage=FLASHONLY|Rotation=90.000|XOffset=0mm|YOffset=0mm|HoleType=Round|Shape=RoundedRectangle|*
%AMROUNDEDRECTD43*
21,1,0.6000,1.4000,0,0,90.0*
21,1,0.3000,1.7000,0,0,90.0*
1,1,0.3000,0.7000,0.1500*
1,1,0.3000,0.7000,-0.1500*
1,1,0.3000,-0.7000,-0.1500*
1,1,0.3000,-0.7000,0.1500*
%
%ADD43ROUNDEDRECTD43*%
%ADD44R,1.0000X1.6500*%
%ADD45R,1.3500X0.8000*%
%ADD46R,2.2000X0.9000*%
%ADD47R,1.4000X0.6000*%
%ADD48C,0.3000*%
%ADD49C,0.5000*%
%ADD50O,3.0000X1.9000*%
%ADD51R,3.0000X1.9000*%
%ADD52C,1.6000*%
%ADD53R,1.3000X1.3000*%
%ADD54C,1.3000*%
G04:AMPARAMS|DCode=55|XSize=2.4mm|YSize=3.2mm|CornerRadius=0mm|HoleSize=0mm|Usage=FLASHONLY|Rotation=135.000|XOffset=0mm|YOffset=0mm|HoleType=Round|Shape=Round|*
%AMOVALD55*
21,1,0.8000,2.4000,0.0000,0.0000,225.0*
1,1,2.4000,0.2828,0.2828*
1,1,2.4000,-0.2828,-0.2828*
%
%ADD55OVALD55*%

G04:AMPARAMS|DCode=56|XSize=2.8mm|YSize=3mm|CornerRadius=0mm|HoleSize=0mm|Usage=FLASHONLY|Rotation=135.000|XOffset=0mm|YOffset=0mm|HoleType=Round|Shape=Round|*
%AMOVALD56*
21,1,0.2000,2.8000,0.0000,0.0000,225.0*
1,1,2.8000,0.0707,0.0707*
1,1,2.8000,-0.0707,-0.0707*
%
%ADD56OVALD56*%

%ADD57C,3.0000*%
%ADD58C,2.1000*%
%ADD59R,2.1000X2.1000*%
%ADD60R,1.3000X1.3000*%
%ADD61C,5.0000*%
%ADD62C,0.7000*%
%ADD63C,0.6000*%
G36*
X01998000Y01202000D02*
X01352000D01*
Y01698000D01*
X01998000D01*
Y01202000D01*
D02*
G37*
%LPC*%
G36*
X01857000Y01669844D02*
X01857000Y01669844D01*
X01594000D01*
X01594000Y01669844D01*
X01592529Y01669551D01*
X01591282Y01668718D01*
X01560282Y01637718D01*
X01559449Y01636471D01*
X01559156Y01635000D01*
X01559156Y01635000D01*
Y01617933D01*
X01557886Y01617681D01*
X01557697Y01618138D01*
X01556138Y01619697D01*
X01554102Y01620540D01*
X01551898D01*
X01549862Y01619697D01*
X01548303Y01618138D01*
X01547460Y01616102D01*
Y01613898D01*
X01547590Y01613584D01*
X01531003Y01596997D01*
X01530391Y01596081D01*
X01530176Y01595000D01*
X01530176Y01595000D01*
Y01559020D01*
X01526980D01*
Y01550480D01*
X01539020D01*
Y01559020D01*
X01535824D01*
Y01593830D01*
X01551584Y01609590D01*
X01551898Y01609460D01*
X01554102D01*
X01556138Y01610303D01*
X01557697Y01611862D01*
X01557886Y01612319D01*
X01559156Y01612067D01*
Y01606000D01*
X01559156Y01606000D01*
X01559449Y01604529D01*
X01560282Y01603282D01*
X01594156Y01569408D01*
Y01535000D01*
X01594156Y01535000D01*
X01594449Y01533529D01*
X01595282Y01532282D01*
X01597156Y01530408D01*
Y01518991D01*
X01596303Y01518138D01*
X01595460Y01516102D01*
Y01513898D01*
X01596303Y01511862D01*
X01597862Y01510303D01*
X01599898Y01509460D01*
X01602102D01*
X01604138Y01510303D01*
X01605697Y01511862D01*
X01606540Y01513898D01*
Y01516102D01*
X01605697Y01518138D01*
X01604844Y01518991D01*
Y01532000D01*
X01604844Y01532000D01*
X01604551Y01533471D01*
X01603718Y01534718D01*
X01603718Y01534718D01*
X01601844Y01536592D01*
Y01571000D01*
X01601844Y01571000D01*
X01601551Y01572471D01*
X01600718Y01573718D01*
X01600718Y01573718D01*
X01566844Y01607592D01*
Y01633408D01*
X01595592Y01662156D01*
X01668156D01*
Y01654814D01*
X01662770D01*
Y01656770D01*
X01646230D01*
Y01648675D01*
X01646000Y01647500D01*
X01646000Y01647055D01*
Y01644500D01*
X01654500D01*
X01663000D01*
Y01647055D01*
X01663000Y01647500D01*
X01662770Y01648675D01*
Y01649288D01*
X01663668Y01650186D01*
X01668156D01*
Y01619592D01*
X01666408Y01617844D01*
X01661770D01*
Y01622520D01*
X01659344D01*
Y01629230D01*
X01662770D01*
Y01637325D01*
X01663000Y01638500D01*
X01663000Y01638945D01*
Y01641500D01*
X01654500D01*
X01646000D01*
Y01638945D01*
X01646000Y01638500D01*
X01646230Y01637325D01*
Y01629230D01*
X01651656D01*
Y01622520D01*
X01649230D01*
Y01603480D01*
X01661770D01*
Y01610156D01*
X01668000D01*
X01668000Y01610156D01*
X01669471Y01610449D01*
X01670718Y01611282D01*
X01674718Y01615282D01*
X01674718Y01615282D01*
X01675551Y01616529D01*
X01675844Y01618000D01*
X01675844Y01618000D01*
Y01652000D01*
Y01662156D01*
X01855408D01*
X01864406Y01653158D01*
Y01529020D01*
X01863980D01*
Y01525824D01*
X01862000D01*
X01862000Y01525824D01*
X01860919Y01525609D01*
X01860003Y01524997D01*
X01860003Y01524997D01*
X01859830Y01524824D01*
X01857582D01*
X01857081Y01525159D01*
X01856000Y01525374D01*
X01842000D01*
X01840919Y01525159D01*
X01840003Y01524547D01*
X01839391Y01523631D01*
X01839176Y01522550D01*
Y01519550D01*
X01839391Y01518469D01*
X01840003Y01517553D01*
X01840919Y01516941D01*
X01842000Y01516726D01*
X01856000D01*
X01857081Y01516941D01*
X01857997Y01517553D01*
X01858609Y01518469D01*
X01858750Y01519176D01*
X01861000D01*
X01861000Y01519176D01*
X01862081Y01519391D01*
X01862710Y01519811D01*
X01863616Y01519491D01*
X01863980Y01519190D01*
Y01516980D01*
X01872520D01*
Y01529020D01*
X01872094D01*
Y01654750D01*
X01871801Y01656221D01*
X01870968Y01657468D01*
X01870968Y01657468D01*
X01859718Y01668718D01*
X01858471Y01669551D01*
X01858227Y01669600D01*
X01857000Y01669844D01*
D02*
G37*
G36*
X01639770Y01656770D02*
X01623230D01*
Y01648230D01*
X01639770D01*
Y01656770D01*
D02*
G37*
G36*
X01608000Y01622750D02*
X01603000D01*
Y01614500D01*
X01608000D01*
Y01622750D01*
D02*
G37*
G36*
X01600000D02*
X01595000D01*
Y01614500D01*
X01600000D01*
Y01622750D01*
D02*
G37*
G36*
X01691000D02*
X01686000D01*
Y01614500D01*
X01691000D01*
Y01622750D01*
D02*
G37*
G36*
X01683000D02*
X01678000D01*
Y01614500D01*
X01683000D01*
Y01622750D01*
D02*
G37*
G36*
X01639770Y01637770D02*
X01623230D01*
Y01629230D01*
X01627156D01*
Y01622520D01*
X01624230D01*
Y01609074D01*
X01616206D01*
X01616206Y01609074D01*
X01615125Y01608859D01*
X01614209Y01608247D01*
X01610036Y01604074D01*
X01608000D01*
Y01611500D01*
X01601500D01*
X01595000D01*
Y01604074D01*
X01590920D01*
X01579410Y01615584D01*
X01579540Y01615898D01*
Y01618102D01*
X01578697Y01620138D01*
X01577138Y01621697D01*
X01575102Y01622540D01*
X01572898D01*
X01570862Y01621697D01*
X01569303Y01620138D01*
X01568460Y01618102D01*
Y01615898D01*
X01569303Y01613862D01*
X01570862Y01612303D01*
X01572898Y01611460D01*
X01575102D01*
X01575416Y01611590D01*
X01587753Y01599253D01*
X01587753Y01599253D01*
X01588669Y01598641D01*
X01589750Y01598426D01*
X01589750Y01598426D01*
X01609750D01*
Y01594500D01*
X01614250D01*
X01618750D01*
Y01599250D01*
X01614996D01*
X01614470Y01600520D01*
X01617376Y01603426D01*
X01626656D01*
Y01599020D01*
X01625480D01*
Y01586980D01*
X01626656D01*
Y01582020D01*
X01625480D01*
Y01569980D01*
X01625906D01*
Y01565250D01*
X01625906Y01565250D01*
X01626156Y01563993D01*
Y01561834D01*
X01624000D01*
X01622724Y01561580D01*
X01621642Y01560858D01*
X01620920Y01559776D01*
X01620666Y01558500D01*
X01620920Y01557224D01*
X01621642Y01556142D01*
X01621835Y01556014D01*
Y01554486D01*
X01621642Y01554357D01*
X01620920Y01553276D01*
X01620666Y01552000D01*
X01620920Y01550724D01*
X01621642Y01549642D01*
X01621715Y01549594D01*
X01621329Y01548324D01*
X01613500D01*
X01613500Y01548324D01*
X01612419Y01548109D01*
X01611503Y01547497D01*
X01611503Y01547497D01*
X01609003Y01544997D01*
X01608391Y01544081D01*
X01608176Y01543000D01*
X01608176Y01543000D01*
Y01537126D01*
X01607963Y01536913D01*
X01607351Y01535997D01*
X01607136Y01534916D01*
X01607136Y01534916D01*
Y01529084D01*
X01607136Y01529084D01*
X01607351Y01528003D01*
X01607963Y01527087D01*
X01608176Y01526874D01*
Y01505020D01*
X01604480D01*
Y01492980D01*
X01613020D01*
Y01501037D01*
X01613609Y01501919D01*
X01613824Y01503000D01*
Y01528044D01*
X01613824Y01528044D01*
X01613609Y01529125D01*
X01612997Y01530041D01*
X01612784Y01530254D01*
Y01533746D01*
X01612997Y01533959D01*
X01613609Y01534875D01*
X01613824Y01535956D01*
X01613824Y01535956D01*
Y01541830D01*
X01614670Y01542676D01*
X01621329D01*
X01621715Y01541406D01*
X01621642Y01541358D01*
X01620920Y01540276D01*
X01620666Y01539000D01*
X01620920Y01537724D01*
X01621634Y01536656D01*
X01621642Y01536642D01*
X01621628Y01535125D01*
X01621477Y01535023D01*
X01620793Y01534000D01*
X01630000D01*
X01639207D01*
X01638982Y01534336D01*
X01639547Y01535685D01*
X01640236Y01535770D01*
X01648176Y01527830D01*
Y01458000D01*
X01648176Y01458000D01*
X01648391Y01456919D01*
X01649003Y01456003D01*
X01651003Y01454003D01*
X01651003Y01454003D01*
X01651919Y01453391D01*
X01653000Y01453176D01*
X01653000Y01453176D01*
X01657000D01*
Y01443100D01*
X01691000D01*
Y01451776D01*
X01726600D01*
X01726600Y01451776D01*
X01727681Y01451991D01*
X01728597Y01452603D01*
X01734247Y01458253D01*
X01734859Y01459169D01*
X01735074Y01460250D01*
Y01499980D01*
X01736520D01*
X01736520Y01511070D01*
Y01511111D01*
D01*
X01736520Y01511464D01*
X01736520Y01511464D01*
X01737135Y01511993D01*
X01737135Y01511993D01*
X01738357Y01512204D01*
X01738500Y01512176D01*
X01738500Y01512176D01*
X01739330D01*
X01743480Y01508026D01*
Y01499980D01*
X01752020D01*
Y01503176D01*
X01756980D01*
Y01499980D01*
X01765520D01*
Y01512020D01*
X01756980D01*
Y01508824D01*
X01752020D01*
Y01512020D01*
X01747474D01*
X01743784Y01515710D01*
X01744310Y01516980D01*
X01744368Y01516980D01*
X01752020D01*
Y01520176D01*
X01756980D01*
Y01516980D01*
X01765520D01*
Y01529020D01*
X01764074D01*
Y01530323D01*
X01764927Y01531176D01*
X01781298D01*
X01781582Y01530057D01*
X01780826Y01529020D01*
X01780409Y01529020D01*
X01772480D01*
Y01516980D01*
X01773926D01*
Y01512020D01*
X01772480D01*
Y01499980D01*
X01781020D01*
Y01503176D01*
X01784000D01*
X01784000Y01503176D01*
X01785081Y01503391D01*
X01785997Y01504003D01*
X01787520Y01505526D01*
X01789553D01*
X01790003Y01504853D01*
X01790919Y01504241D01*
X01792000Y01504026D01*
X01806000D01*
X01807081Y01504241D01*
X01807997Y01504853D01*
X01808609Y01505769D01*
X01808824Y01506850D01*
Y01509850D01*
X01808609Y01510931D01*
X01807997Y01511847D01*
X01807081Y01512459D01*
X01806000Y01512674D01*
X01792000D01*
X01790919Y01512459D01*
X01790003Y01511847D01*
X01789553Y01511174D01*
X01786350D01*
X01786350Y01511174D01*
X01785269Y01510959D01*
X01784353Y01510347D01*
X01782830Y01508824D01*
X01781020D01*
Y01512020D01*
X01779574D01*
Y01516980D01*
X01781020D01*
Y01521438D01*
X01782290Y01521823D01*
X01782506Y01521500D01*
X01784009Y01519996D01*
X01784953Y01519053D01*
X01784953Y01519053D01*
X01785869Y01518441D01*
X01786950Y01518226D01*
X01789553D01*
X01790003Y01517553D01*
X01790919Y01516941D01*
X01792000Y01516726D01*
X01806000D01*
X01807081Y01516941D01*
X01807997Y01517553D01*
X01808447Y01518226D01*
X01816780D01*
X01823176Y01511830D01*
Y01486886D01*
X01821906Y01486633D01*
X01821697Y01487138D01*
X01820138Y01488697D01*
X01818102Y01489540D01*
X01815898D01*
X01813862Y01488697D01*
X01812303Y01487138D01*
X01811460Y01485102D01*
Y01482898D01*
X01812303Y01480862D01*
X01813862Y01479303D01*
X01814176Y01479173D01*
Y01431000D01*
X01814176Y01431000D01*
X01814391Y01429919D01*
X01815003Y01429003D01*
X01819003Y01425003D01*
X01819003Y01425003D01*
X01819919Y01424391D01*
X01821000Y01424176D01*
X01827000D01*
X01827000Y01424176D01*
X01837980D01*
Y01420980D01*
X01839426D01*
Y01413020D01*
X01837980D01*
Y01400980D01*
X01846520D01*
Y01413020D01*
X01845074D01*
Y01420980D01*
X01846520D01*
Y01433020D01*
X01837980D01*
Y01429824D01*
X01827000D01*
X01827000Y01429824D01*
X01827000Y01429824D01*
X01822170D01*
X01819824Y01432170D01*
Y01479173D01*
X01820138Y01479303D01*
X01821697Y01480862D01*
X01821906Y01481367D01*
X01823176Y01481114D01*
Y01474000D01*
X01823176Y01474000D01*
X01823391Y01472919D01*
X01824003Y01472003D01*
X01831003Y01465003D01*
X01831919Y01464391D01*
X01833000Y01464176D01*
X01888000D01*
X01888000Y01464176D01*
X01889081Y01464391D01*
X01889997Y01465003D01*
X01893170Y01468176D01*
X01911000D01*
X01911000Y01468176D01*
X01912081Y01468391D01*
X01912997Y01469003D01*
X01915497Y01471503D01*
X01916109Y01472419D01*
X01916324Y01473500D01*
X01916324Y01473500D01*
Y01475980D01*
X01917770D01*
Y01488020D01*
X01910310D01*
X01909784Y01489290D01*
X01913474Y01492980D01*
X01918020D01*
Y01497676D01*
X01921980D01*
Y01495230D01*
X01938020D01*
Y01505770D01*
X01932824D01*
Y01513480D01*
X01936770D01*
Y01532520D01*
X01924230D01*
Y01513480D01*
X01927176D01*
Y01505770D01*
X01921980D01*
Y01503324D01*
X01918020D01*
Y01505020D01*
X01909480D01*
Y01496974D01*
X01905330Y01492824D01*
X01904250D01*
X01903678Y01492711D01*
X01902621Y01493510D01*
X01902520Y01493676D01*
X01902520Y01493735D01*
Y01505020D01*
X01893980D01*
Y01501824D01*
X01889020D01*
Y01505020D01*
X01887574D01*
Y01506243D01*
X01887574Y01506243D01*
X01887359Y01507323D01*
X01886747Y01508240D01*
X01884640Y01510347D01*
X01883723Y01510959D01*
X01882643Y01511174D01*
X01882643Y01511174D01*
X01858447D01*
X01857997Y01511847D01*
X01857081Y01512459D01*
X01856000Y01512674D01*
X01842000D01*
X01840919Y01512459D01*
X01840003Y01511847D01*
X01839553Y01511174D01*
X01836350D01*
X01836350Y01511174D01*
X01835269Y01510959D01*
X01834450Y01510412D01*
X01834142Y01510540D01*
X01831938D01*
X01830094Y01509776D01*
X01828824Y01510278D01*
Y01513000D01*
X01828609Y01514081D01*
X01827997Y01514997D01*
X01827997Y01514997D01*
X01819947Y01523047D01*
X01819031Y01523659D01*
X01817950Y01523874D01*
X01817950Y01523874D01*
X01808447D01*
X01807997Y01524547D01*
X01807081Y01525159D01*
X01806000Y01525374D01*
X01792000D01*
X01790919Y01525159D01*
X01790003Y01524547D01*
X01789553Y01523874D01*
X01788120D01*
X01787328Y01524667D01*
Y01532242D01*
X01787328Y01532243D01*
X01787112Y01533323D01*
X01786500Y01534240D01*
X01786500Y01534240D01*
X01784743Y01535997D01*
X01783827Y01536609D01*
X01782746Y01536824D01*
X01782746Y01536824D01*
X01763757D01*
X01763757Y01536824D01*
X01762677Y01536609D01*
X01761760Y01535997D01*
X01761760Y01535997D01*
X01759253Y01533490D01*
X01758641Y01532573D01*
X01758426Y01531493D01*
X01758426Y01531492D01*
Y01529020D01*
X01756980D01*
Y01525824D01*
X01752020D01*
Y01529020D01*
X01743480D01*
Y01517906D01*
X01743480Y01517810D01*
X01743334Y01517690D01*
X01742255Y01517205D01*
X01742210Y01517189D01*
X01741581Y01517609D01*
X01740500Y01517824D01*
X01740500Y01517824D01*
X01739670D01*
X01736520Y01520974D01*
Y01529020D01*
X01735074D01*
Y01533980D01*
X01736520D01*
Y01546020D01*
X01735074D01*
Y01550980D01*
X01736520D01*
Y01563020D01*
X01727980D01*
Y01550980D01*
X01729426D01*
Y01546020D01*
X01727980D01*
Y01533980D01*
X01729426D01*
Y01529020D01*
X01727980D01*
Y01516980D01*
X01732526D01*
X01736216Y01513290D01*
X01735854Y01512157D01*
X01735748Y01512020D01*
X01735480Y01512020D01*
X01727980D01*
Y01499980D01*
X01729426D01*
Y01461420D01*
X01725430Y01457424D01*
X01691000D01*
Y01466100D01*
X01657000D01*
Y01458824D01*
X01654170D01*
X01653824Y01459170D01*
Y01529000D01*
X01653824Y01529000D01*
X01653609Y01530081D01*
X01652997Y01530997D01*
X01648284Y01535710D01*
X01648810Y01536980D01*
X01660020D01*
Y01545520D01*
X01651974D01*
X01649997Y01547497D01*
X01649081Y01548109D01*
X01648845Y01548156D01*
X01648673Y01548961D01*
X01648711Y01549478D01*
X01649497Y01550003D01*
X01651974Y01552480D01*
X01660020D01*
Y01553926D01*
X01666730D01*
Y01553730D01*
X01691270D01*
Y01553926D01*
X01697980D01*
Y01552480D01*
X01710020D01*
Y01561020D01*
X01697980D01*
Y01559574D01*
X01691270D01*
Y01565270D01*
X01666730D01*
Y01559574D01*
X01660020D01*
Y01561020D01*
X01647980D01*
Y01556474D01*
X01646330Y01554824D01*
X01638671D01*
X01638285Y01556094D01*
X01638358Y01556142D01*
X01639080Y01557224D01*
X01639334Y01558500D01*
X01639080Y01559776D01*
X01638358Y01560858D01*
X01637276Y01561580D01*
X01636000Y01561834D01*
X01633844D01*
Y01565000D01*
X01633844Y01565000D01*
X01633594Y01566257D01*
Y01569980D01*
X01634020D01*
Y01576982D01*
X01634051Y01577029D01*
X01634344Y01578500D01*
X01634344Y01578500D01*
Y01603480D01*
X01636770D01*
Y01622520D01*
X01634844D01*
Y01629230D01*
X01639770D01*
Y01637770D01*
D02*
G37*
G36*
X01691000Y01611500D02*
X01686000D01*
Y01603250D01*
X01691000D01*
Y01611500D01*
D02*
G37*
G36*
X01683000D02*
X01678000D01*
Y01603250D01*
X01683000D01*
Y01611500D01*
D02*
G37*
G36*
X01618750Y01591500D02*
X01615750D01*
Y01586750D01*
X01618750D01*
Y01591500D01*
D02*
G37*
G36*
X01612750D02*
X01609750D01*
Y01586750D01*
X01612750D01*
Y01591500D01*
D02*
G37*
G36*
X01618750Y01582250D02*
X01615750D01*
Y01577500D01*
X01618750D01*
Y01582250D01*
D02*
G37*
G36*
X01612750D02*
X01609750D01*
Y01577500D01*
X01612750D01*
Y01582250D01*
D02*
G37*
G36*
X01618750Y01574500D02*
X01615750D01*
Y01569750D01*
X01618750D01*
Y01574500D01*
D02*
G37*
G36*
X01612750D02*
X01609750D01*
Y01569750D01*
X01612750D01*
Y01574500D01*
D02*
G37*
G36*
X01396246Y01577900D02*
X01396100D01*
Y01566900D01*
X01407100D01*
Y01567046D01*
X01406248Y01570225D01*
X01404603Y01573075D01*
X01402275Y01575403D01*
X01399425Y01577048D01*
X01396246Y01577900D01*
D02*
G37*
G36*
X01447046D02*
X01446900D01*
Y01566900D01*
X01457900D01*
Y01567046D01*
X01457048Y01570225D01*
X01455403Y01573075D01*
X01453075Y01575403D01*
X01450225Y01577048D01*
X01447046Y01577900D01*
D02*
G37*
G36*
X01443900D02*
X01443754D01*
X01440575Y01577048D01*
X01437725Y01575403D01*
X01435397Y01573075D01*
X01433752Y01570225D01*
X01432900Y01567046D01*
Y01566900D01*
X01443900D01*
Y01577900D01*
D02*
G37*
G36*
X01393100D02*
X01392954D01*
X01389775Y01577048D01*
X01386925Y01575403D01*
X01384597Y01573075D01*
X01382952Y01570225D01*
X01382100Y01567046D01*
Y01566900D01*
X01393100D01*
Y01577900D01*
D02*
G37*
G36*
X01580000Y01562069D02*
X01575500D01*
Y01560000D01*
X01583207D01*
X01582523Y01561023D01*
X01581366Y01561797D01*
X01580000Y01562069D01*
D02*
G37*
G36*
X01572500D02*
X01568000D01*
X01566634Y01561797D01*
X01565477Y01561023D01*
X01564793Y01560000D01*
X01572500D01*
Y01562069D01*
D02*
G37*
G36*
X01752250Y01563250D02*
X01749250D01*
Y01558500D01*
X01752250D01*
Y01563250D01*
D02*
G37*
G36*
X01746250D02*
X01743250D01*
Y01558500D01*
X01746250D01*
Y01563250D01*
D02*
G37*
G36*
X01555250Y01559250D02*
X01550500D01*
Y01556250D01*
X01555250D01*
Y01559250D01*
D02*
G37*
G36*
X01547500D02*
X01542750D01*
Y01556250D01*
X01547500D01*
Y01559250D01*
D02*
G37*
G36*
X01583207Y01557000D02*
X01574000D01*
X01564793D01*
X01565477Y01555977D01*
X01565614Y01555885D01*
Y01554615D01*
X01565477Y01554523D01*
X01564793Y01553500D01*
X01574000D01*
X01583207D01*
X01582523Y01554523D01*
X01582386Y01554615D01*
Y01555885D01*
X01582523Y01555977D01*
X01583207Y01557000D01*
D02*
G37*
G36*
X01457900Y01563900D02*
X01446900D01*
Y01552900D01*
X01447046D01*
X01450225Y01553752D01*
X01453075Y01555397D01*
X01455403Y01557725D01*
X01457048Y01560575D01*
X01457900Y01563754D01*
Y01563900D01*
D02*
G37*
G36*
X01443900D02*
X01432900D01*
Y01563754D01*
X01433752Y01560575D01*
X01435397Y01557725D01*
X01437725Y01555397D01*
X01440575Y01553752D01*
X01443754Y01552900D01*
X01443900D01*
Y01563900D01*
D02*
G37*
G36*
X01407100D02*
X01396100D01*
Y01552900D01*
X01396246D01*
X01399425Y01553752D01*
X01402275Y01555397D01*
X01404603Y01557725D01*
X01406248Y01560575D01*
X01407100Y01563754D01*
Y01563900D01*
D02*
G37*
G36*
X01393100D02*
X01382100D01*
Y01563754D01*
X01382952Y01560575D01*
X01384597Y01557725D01*
X01386925Y01555397D01*
X01389775Y01553752D01*
X01392954Y01552900D01*
X01393100D01*
Y01563900D01*
D02*
G37*
G36*
X01752250Y01555500D02*
X01749250D01*
Y01550750D01*
X01752250D01*
Y01555500D01*
D02*
G37*
G36*
X01746250D02*
X01743250D01*
Y01550750D01*
X01746250D01*
Y01555500D01*
D02*
G37*
G36*
X01555250Y01553250D02*
X01550500D01*
Y01550250D01*
X01555250D01*
Y01553250D01*
D02*
G37*
G36*
X01547500D02*
X01542750D01*
Y01550250D01*
X01547500D01*
Y01553250D01*
D02*
G37*
G36*
X01710250Y01545750D02*
X01705500D01*
Y01542750D01*
X01710250D01*
Y01545750D01*
D02*
G37*
G36*
X01702500D02*
X01697750D01*
Y01542750D01*
X01702500D01*
Y01545750D01*
D02*
G37*
G36*
X01583207Y01550500D02*
X01574000D01*
X01564793D01*
X01565477Y01549477D01*
X01565628Y01549375D01*
X01565643Y01547858D01*
X01565634Y01547844D01*
X01564920Y01546776D01*
X01564666Y01545500D01*
X01564920Y01544224D01*
X01565591Y01543219D01*
X01565502Y01542807D01*
X01565142Y01541949D01*
X01555020D01*
Y01543520D01*
X01542980D01*
Y01542074D01*
X01539020D01*
Y01543520D01*
X01526980D01*
Y01542074D01*
X01522020D01*
Y01546020D01*
X01513480D01*
Y01533980D01*
X01522020D01*
Y01536426D01*
X01526980D01*
Y01534980D01*
X01539020D01*
Y01536426D01*
X01542980D01*
Y01534980D01*
X01555020D01*
Y01536301D01*
X01565102D01*
X01565488Y01535031D01*
X01565477Y01535023D01*
X01564793Y01534000D01*
X01574000D01*
X01583207D01*
X01582523Y01535023D01*
X01582372Y01535125D01*
X01582357Y01536642D01*
X01582366Y01536656D01*
X01583080Y01537724D01*
X01583334Y01539000D01*
X01583080Y01540276D01*
X01582357Y01541358D01*
X01582165Y01541486D01*
Y01543014D01*
X01582357Y01543143D01*
X01583080Y01544224D01*
X01583334Y01545500D01*
X01583080Y01546776D01*
X01582366Y01547844D01*
X01582357Y01547858D01*
X01582372Y01549375D01*
X01582523Y01549477D01*
X01583207Y01550500D01*
D02*
G37*
G36*
X01752250Y01546250D02*
X01749250D01*
Y01541500D01*
X01752250D01*
Y01546250D01*
D02*
G37*
G36*
X01746250D02*
X01743250D01*
Y01541500D01*
X01746250D01*
Y01546250D01*
D02*
G37*
G36*
X01691500Y01544500D02*
X01680500D01*
Y01540000D01*
X01691500D01*
Y01544500D01*
D02*
G37*
G36*
X01677500D02*
X01666500D01*
Y01540000D01*
X01677500D01*
Y01544500D01*
D02*
G37*
G36*
X01710250Y01539750D02*
X01705500D01*
Y01536750D01*
X01710250D01*
Y01539750D01*
D02*
G37*
G36*
X01702500D02*
X01697750D01*
Y01536750D01*
X01702500D01*
Y01539750D01*
D02*
G37*
G36*
X01421317Y01550000D02*
X01418683D01*
X01416140Y01549319D01*
X01413860Y01548002D01*
X01411998Y01546140D01*
X01410681Y01543860D01*
X01410000Y01541317D01*
Y01538683D01*
X01410681Y01536140D01*
X01411998Y01533860D01*
X01413860Y01531998D01*
X01416140Y01530681D01*
X01418683Y01530000D01*
X01421317D01*
X01423860Y01530681D01*
X01426140Y01531998D01*
X01428002Y01533860D01*
X01429319Y01536140D01*
X01429596Y01537176D01*
X01476980D01*
Y01534480D01*
X01489020D01*
Y01537176D01*
X01497980D01*
Y01533980D01*
X01506520D01*
Y01546020D01*
X01497980D01*
Y01542824D01*
X01489020D01*
Y01543020D01*
X01476980D01*
Y01542824D01*
X01429596D01*
X01429319Y01543860D01*
X01428002Y01546140D01*
X01426140Y01548002D01*
X01423860Y01549319D01*
X01421317Y01550000D01*
D02*
G37*
G36*
X01752250Y01538500D02*
X01749250D01*
Y01533750D01*
X01752250D01*
Y01538500D01*
D02*
G37*
G36*
X01746250D02*
X01743250D01*
Y01533750D01*
X01746250D01*
Y01538500D01*
D02*
G37*
G36*
X01691500Y01537000D02*
X01680500D01*
Y01532500D01*
X01691500D01*
Y01537000D01*
D02*
G37*
G36*
X01677500D02*
X01666500D01*
Y01532500D01*
X01677500D01*
Y01537000D01*
D02*
G37*
G36*
X01639207Y01531000D02*
X01630000D01*
X01620793D01*
X01621477Y01529977D01*
X01621614Y01529885D01*
Y01528615D01*
X01621477Y01528523D01*
X01620793Y01527500D01*
X01630000D01*
X01639207D01*
X01638523Y01528523D01*
X01638386Y01528615D01*
Y01529885D01*
X01638523Y01529977D01*
X01639207Y01531000D01*
D02*
G37*
G36*
X01489250Y01527750D02*
X01484500D01*
Y01524750D01*
X01489250D01*
Y01527750D01*
D02*
G37*
G36*
X01481500D02*
X01476750D01*
Y01524750D01*
X01481500D01*
Y01527750D01*
D02*
G37*
G36*
X01888250Y01529250D02*
X01885250D01*
Y01524500D01*
X01888250D01*
Y01529250D01*
D02*
G37*
G36*
X01882250D02*
X01879250D01*
Y01524500D01*
X01882250D01*
Y01529250D01*
D02*
G37*
G36*
X01908000Y01532750D02*
X01903000D01*
Y01524500D01*
X01908000D01*
Y01532750D01*
D02*
G37*
G36*
X01900000D02*
X01895000D01*
Y01524500D01*
X01900000D01*
Y01532750D01*
D02*
G37*
G36*
X01489250Y01521750D02*
X01484500D01*
Y01518750D01*
X01489250D01*
Y01521750D01*
D02*
G37*
G36*
X01481500D02*
X01476750D01*
Y01518750D01*
X01481500D01*
Y01521750D01*
D02*
G37*
G36*
X01888250Y01521500D02*
X01885250D01*
Y01516750D01*
X01888250D01*
Y01521500D01*
D02*
G37*
G36*
X01882250D02*
X01879250D01*
Y01516750D01*
X01882250D01*
Y01521500D01*
D02*
G37*
G36*
X01639207Y01524500D02*
X01630000D01*
X01620793D01*
X01621477Y01523477D01*
X01621628Y01523375D01*
X01621642Y01521858D01*
X01621634Y01521844D01*
X01620920Y01520776D01*
X01620666Y01519500D01*
X01620920Y01518224D01*
X01621642Y01517142D01*
X01622724Y01516420D01*
X01624000Y01516166D01*
X01636000D01*
X01637276Y01516420D01*
X01638358Y01517142D01*
X01639080Y01518224D01*
X01639334Y01519500D01*
X01639080Y01520776D01*
X01638366Y01521844D01*
X01638358Y01521858D01*
X01638372Y01523375D01*
X01638523Y01523477D01*
X01639207Y01524500D01*
D02*
G37*
G36*
X01447046Y01527100D02*
X01446900D01*
Y01516100D01*
X01457900D01*
Y01516246D01*
X01457048Y01519425D01*
X01455403Y01522275D01*
X01453075Y01524603D01*
X01450225Y01526248D01*
X01447046Y01527100D01*
D02*
G37*
G36*
X01443900D02*
X01443754D01*
X01440575Y01526248D01*
X01437725Y01524603D01*
X01435397Y01522275D01*
X01433752Y01519425D01*
X01432900Y01516246D01*
Y01516100D01*
X01443900D01*
Y01527100D01*
D02*
G37*
G36*
X01396246D02*
X01396100D01*
Y01516100D01*
X01407100D01*
Y01516246D01*
X01406248Y01519425D01*
X01404603Y01522275D01*
X01402275Y01524603D01*
X01399425Y01526248D01*
X01396246Y01527100D01*
D02*
G37*
G36*
X01393100D02*
X01392954D01*
X01389775Y01526248D01*
X01386925Y01524603D01*
X01384597Y01522275D01*
X01382952Y01519425D01*
X01382100Y01516246D01*
Y01516100D01*
X01393100D01*
Y01527100D01*
D02*
G37*
G36*
X01583207Y01518000D02*
X01575500D01*
Y01515931D01*
X01580000D01*
X01581366Y01516203D01*
X01582523Y01516977D01*
X01583207Y01518000D01*
D02*
G37*
G36*
X01572500D02*
X01564793D01*
X01565477Y01516977D01*
X01566634Y01516203D01*
X01568000Y01515931D01*
X01572500D01*
Y01518000D01*
D02*
G37*
G36*
X01908000Y01521500D02*
X01903000D01*
Y01513250D01*
X01908000D01*
Y01521500D01*
D02*
G37*
G36*
X01900000D02*
X01895000D01*
Y01513250D01*
X01900000D01*
Y01521500D01*
D02*
G37*
G36*
X01457900Y01513100D02*
X01446900D01*
Y01502100D01*
X01447046D01*
X01450225Y01502952D01*
X01453075Y01504597D01*
X01455403Y01506925D01*
X01457048Y01509775D01*
X01457900Y01512954D01*
Y01513100D01*
D02*
G37*
G36*
X01443900D02*
X01432900D01*
Y01512954D01*
X01433752Y01509775D01*
X01435397Y01506925D01*
X01437725Y01504597D01*
X01440575Y01502952D01*
X01443754Y01502100D01*
X01443900D01*
Y01513100D01*
D02*
G37*
G36*
X01407100Y01513100D02*
X01396100D01*
Y01502100D01*
X01396246D01*
X01399425Y01502952D01*
X01402275Y01504597D01*
X01404603Y01506925D01*
X01406248Y01509775D01*
X01407100Y01512954D01*
Y01513100D01*
D02*
G37*
G36*
X01393100D02*
X01382100D01*
Y01512954D01*
X01382952Y01509775D01*
X01384597Y01506925D01*
X01386925Y01504597D01*
X01389775Y01502952D01*
X01392954Y01502100D01*
X01393100D01*
Y01513100D01*
D02*
G37*
G36*
X01806000Y01500209D02*
X01800500D01*
Y01497150D01*
X01809059D01*
X01808826Y01498320D01*
X01808163Y01499313D01*
X01807171Y01499976D01*
X01806000Y01500209D01*
D02*
G37*
G36*
X01797500D02*
X01792000D01*
X01790829Y01499976D01*
X01789837Y01499313D01*
X01789174Y01498320D01*
X01788941Y01497150D01*
X01797500D01*
Y01500209D01*
D02*
G37*
G36*
X01583207Y01531000D02*
X01574000D01*
X01564793D01*
X01565477Y01529977D01*
X01565628Y01529875D01*
X01565643Y01528358D01*
X01565634Y01528344D01*
X01564920Y01527276D01*
X01564666Y01526000D01*
X01564920Y01524724D01*
X01565634Y01523656D01*
X01565643Y01523642D01*
X01565628Y01522125D01*
X01565477Y01522023D01*
X01564793Y01521000D01*
X01574000D01*
X01583207D01*
X01582602Y01521906D01*
X01582737Y01522463D01*
X01583085Y01523176D01*
X01586830D01*
X01587176Y01522830D01*
Y01504000D01*
X01587176Y01504000D01*
X01587391Y01502919D01*
X01588003Y01502003D01*
X01588980Y01501026D01*
Y01492980D01*
X01597520D01*
Y01505020D01*
X01592974D01*
X01592824Y01505170D01*
Y01524000D01*
X01592609Y01525081D01*
X01591997Y01525997D01*
X01591997Y01525997D01*
X01589997Y01527997D01*
X01589081Y01528609D01*
X01588000Y01528824D01*
X01588000Y01528824D01*
X01583085D01*
X01582737Y01529537D01*
X01582602Y01530094D01*
X01583207Y01531000D01*
D02*
G37*
G36*
X01809059Y01494150D02*
X01800500D01*
Y01491091D01*
X01806000D01*
X01807171Y01491324D01*
X01808163Y01491987D01*
X01808826Y01492979D01*
X01809059Y01494150D01*
Y01494150D01*
D02*
G37*
G36*
X01797500D02*
X01788941D01*
Y01494150D01*
X01789174Y01492979D01*
X01789837Y01491987D01*
X01790829Y01491324D01*
X01792000Y01491091D01*
X01797500D01*
Y01494150D01*
D02*
G37*
G36*
X01765750Y01488250D02*
X01762750D01*
Y01483500D01*
X01765750D01*
Y01488250D01*
D02*
G37*
G36*
X01759750D02*
X01756750D01*
Y01483500D01*
X01759750D01*
Y01488250D01*
D02*
G37*
G36*
X01679500Y01491095D02*
X01675500D01*
Y01481500D01*
X01690397D01*
X01690217Y01482872D01*
X01689108Y01485547D01*
X01687345Y01487845D01*
X01685047Y01489608D01*
X01682372Y01490717D01*
X01679500Y01491095D01*
D02*
G37*
G36*
X01672500D02*
X01668500D01*
X01665628Y01490717D01*
X01662953Y01489608D01*
X01660655Y01487845D01*
X01658891Y01485547D01*
X01657783Y01482872D01*
X01657603Y01481500D01*
X01672500D01*
Y01491095D01*
D02*
G37*
G36*
X01938250Y01484250D02*
X01931500D01*
Y01480250D01*
X01938250D01*
Y01484250D01*
D02*
G37*
G36*
X01928500D02*
X01921750D01*
Y01480250D01*
X01928500D01*
Y01484250D01*
D02*
G37*
G36*
X01781020Y01488020D02*
X01772480D01*
Y01475980D01*
X01772906D01*
Y01433342D01*
X01755782Y01416218D01*
X01754949Y01414971D01*
X01754656Y01413500D01*
X01754656Y01413500D01*
Y01357596D01*
X01753281Y01356802D01*
X01751698Y01355219D01*
X01750579Y01353281D01*
X01750000Y01351119D01*
Y01348881D01*
X01750579Y01346719D01*
X01751698Y01344781D01*
X01753281Y01343198D01*
X01754656Y01342404D01*
Y01322092D01*
X01742282Y01309718D01*
X01741449Y01308471D01*
X01741156Y01307000D01*
X01741156Y01307000D01*
Y01290912D01*
X01740175Y01290649D01*
X01737325Y01289003D01*
X01734997Y01286676D01*
X01733352Y01283826D01*
X01732500Y01280647D01*
Y01277355D01*
X01733352Y01274176D01*
X01734997Y01271326D01*
X01737325Y01268998D01*
X01740175Y01267353D01*
X01743354Y01266501D01*
X01746646D01*
X01749825Y01267353D01*
X01752675Y01268998D01*
X01755002Y01271326D01*
X01756648Y01274176D01*
X01757500Y01277355D01*
Y01280647D01*
X01756648Y01283826D01*
X01755002Y01286676D01*
X01752675Y01289003D01*
X01749825Y01290649D01*
X01748844Y01290912D01*
Y01305408D01*
X01761218Y01317782D01*
X01761218Y01317782D01*
X01762051Y01319029D01*
X01762344Y01320500D01*
X01762344Y01320500D01*
Y01342404D01*
X01763719Y01343198D01*
X01765302Y01344781D01*
X01766421Y01346719D01*
X01767000Y01348881D01*
Y01351119D01*
X01766421Y01353281D01*
X01765302Y01355219D01*
X01763719Y01356802D01*
X01762344Y01357596D01*
Y01411908D01*
X01779468Y01429032D01*
X01779468Y01429032D01*
X01780301Y01430279D01*
X01780594Y01431750D01*
X01780594Y01431750D01*
Y01475980D01*
X01781020D01*
Y01480126D01*
X01789553D01*
X01790003Y01479453D01*
X01790919Y01478841D01*
X01792000Y01478626D01*
X01806000D01*
X01807081Y01478841D01*
X01807997Y01479453D01*
X01808609Y01480369D01*
X01808824Y01481450D01*
Y01484450D01*
X01808609Y01485531D01*
X01807997Y01486447D01*
X01807081Y01487059D01*
X01806000Y01487274D01*
X01792000D01*
X01790919Y01487059D01*
X01790003Y01486447D01*
X01789553Y01485774D01*
X01781020D01*
Y01488020D01*
D02*
G37*
G36*
X01765750Y01480500D02*
X01762750D01*
Y01475750D01*
X01765750D01*
Y01480500D01*
D02*
G37*
G36*
X01759750D02*
X01756750D01*
Y01475750D01*
X01759750D01*
Y01480500D01*
D02*
G37*
G36*
X01938250Y01477250D02*
X01931500D01*
Y01473250D01*
X01938250D01*
Y01477250D01*
D02*
G37*
G36*
X01928500D02*
X01921750D01*
Y01473250D01*
X01928500D01*
Y01477250D01*
D02*
G37*
G36*
X01690397Y01478500D02*
X01675500D01*
Y01468905D01*
X01679500D01*
X01682372Y01469283D01*
X01685047Y01470392D01*
X01687345Y01472155D01*
X01689108Y01474453D01*
X01690217Y01477128D01*
X01690397Y01478500D01*
D02*
G37*
G36*
X01672500D02*
X01657603D01*
X01657783Y01477128D01*
X01658891Y01474453D01*
X01660655Y01472155D01*
X01662953Y01470392D01*
X01665628Y01469283D01*
X01668500Y01468905D01*
X01672500D01*
Y01478500D01*
D02*
G37*
G36*
X01957046Y01464900D02*
X01956900D01*
Y01453900D01*
X01967900D01*
Y01454046D01*
X01967048Y01457225D01*
X01965403Y01460075D01*
X01963075Y01462402D01*
X01960225Y01464048D01*
X01957046Y01464900D01*
D02*
G37*
G36*
X01953900D02*
X01953754D01*
X01950575Y01464048D01*
X01947725Y01462402D01*
X01945397Y01460075D01*
X01943752Y01457225D01*
X01942900Y01454046D01*
Y01453900D01*
X01953900D01*
Y01464900D01*
D02*
G37*
G36*
X01906246D02*
X01906100D01*
Y01453900D01*
X01917100D01*
Y01454046D01*
X01916248Y01457225D01*
X01914603Y01460075D01*
X01912275Y01462402D01*
X01909425Y01464048D01*
X01906246Y01464900D01*
D02*
G37*
G36*
X01903100D02*
X01902954D01*
X01899775Y01464048D01*
X01896925Y01462402D01*
X01894597Y01460075D01*
X01892952Y01457225D01*
X01892100Y01454046D01*
Y01453900D01*
X01903100D01*
Y01464900D01*
D02*
G37*
G36*
X01967900Y01450900D02*
X01956900D01*
Y01439900D01*
X01957046D01*
X01960225Y01440752D01*
X01963075Y01442397D01*
X01965403Y01444725D01*
X01967048Y01447575D01*
X01967900Y01450754D01*
Y01450900D01*
D02*
G37*
G36*
X01953900D02*
X01942900D01*
Y01450754D01*
X01943752Y01447575D01*
X01945397Y01444725D01*
X01947725Y01442397D01*
X01950575Y01440752D01*
X01953754Y01439900D01*
X01953900D01*
Y01450900D01*
D02*
G37*
G36*
X01917100Y01450900D02*
X01906100D01*
Y01439900D01*
X01906246D01*
X01909425Y01440752D01*
X01912275Y01442397D01*
X01914603Y01444725D01*
X01916248Y01447575D01*
X01917100Y01450754D01*
Y01450900D01*
D02*
G37*
G36*
X01903100D02*
X01892100D01*
Y01450754D01*
X01892952Y01447575D01*
X01894597Y01444725D01*
X01896925Y01442397D01*
X01899775Y01440752D01*
X01902954Y01439900D01*
X01903100D01*
Y01450900D01*
D02*
G37*
G36*
X01931317Y01437000D02*
X01928683D01*
X01926140Y01436319D01*
X01923860Y01435002D01*
X01921998Y01433140D01*
X01920681Y01430860D01*
X01920404Y01429824D01*
X01862020D01*
Y01433020D01*
X01853480D01*
Y01420980D01*
X01862020D01*
Y01424176D01*
X01920404D01*
X01920681Y01423140D01*
X01921998Y01420860D01*
X01923860Y01418998D01*
X01926140Y01417681D01*
X01928683Y01417000D01*
X01931317D01*
X01933860Y01417681D01*
X01936140Y01418998D01*
X01938002Y01420860D01*
X01939319Y01423140D01*
X01940000Y01425683D01*
Y01428316D01*
X01939319Y01430860D01*
X01938002Y01433140D01*
X01936140Y01435002D01*
X01933860Y01436319D01*
X01931317Y01437000D01*
D02*
G37*
G36*
X01957046Y01414100D02*
X01956900D01*
Y01403100D01*
X01967900D01*
Y01403246D01*
X01967048Y01406425D01*
X01965403Y01409275D01*
X01963075Y01411602D01*
X01960225Y01413248D01*
X01957046Y01414100D01*
D02*
G37*
G36*
X01953900D02*
X01953754D01*
X01950575Y01413248D01*
X01947725Y01411602D01*
X01945397Y01409275D01*
X01943752Y01406425D01*
X01942900Y01403246D01*
Y01403100D01*
X01953900D01*
Y01414100D01*
D02*
G37*
G36*
X01906246D02*
X01906100D01*
Y01403100D01*
X01917100D01*
Y01403246D01*
X01916248Y01406425D01*
X01914603Y01409275D01*
X01912275Y01411602D01*
X01909425Y01413248D01*
X01906246Y01414100D01*
D02*
G37*
G36*
X01903100D02*
X01902954D01*
X01899775Y01413248D01*
X01896925Y01411602D01*
X01894597Y01409275D01*
X01892952Y01406425D01*
X01892100Y01403246D01*
Y01403100D01*
X01903100D01*
Y01414100D01*
D02*
G37*
G36*
X01967900Y01400100D02*
X01956900D01*
Y01389100D01*
X01957046D01*
X01960225Y01389952D01*
X01963075Y01391597D01*
X01965403Y01393925D01*
X01967048Y01396775D01*
X01967900Y01399954D01*
Y01400100D01*
D02*
G37*
G36*
X01953900D02*
X01942900D01*
Y01399954D01*
X01943752Y01396775D01*
X01945397Y01393925D01*
X01947725Y01391597D01*
X01950575Y01389952D01*
X01953754Y01389100D01*
X01953900D01*
Y01400100D01*
D02*
G37*
G36*
X01917100Y01400100D02*
X01906100D01*
Y01389100D01*
X01906246D01*
X01909425Y01389952D01*
X01912275Y01391597D01*
X01914603Y01393925D01*
X01916248Y01396775D01*
X01917100Y01399954D01*
Y01400100D01*
D02*
G37*
G36*
X01903100D02*
X01892100D01*
Y01399954D01*
X01892952Y01396775D01*
X01894597Y01393925D01*
X01896925Y01391597D01*
X01899775Y01389952D01*
X01902954Y01389100D01*
X01903100D01*
Y01400100D01*
D02*
G37*
G36*
X01862020Y01413020D02*
X01853480D01*
Y01404974D01*
X01848003Y01399497D01*
X01847391Y01398581D01*
X01847176Y01397500D01*
X01847176Y01397500D01*
Y01388000D01*
X01841500D01*
Y01371000D01*
X01858500D01*
Y01388000D01*
X01852824D01*
Y01396330D01*
X01857474Y01400980D01*
X01862020D01*
Y01413020D01*
D02*
G37*
G36*
X01741500Y01358000D02*
X01735000D01*
Y01351500D01*
X01741500D01*
Y01358000D01*
D02*
G37*
G36*
X01690000Y01357880D02*
Y01351500D01*
X01696380D01*
X01695955Y01353088D01*
X01694902Y01354912D01*
X01693412Y01356402D01*
X01691588Y01357455D01*
X01690000Y01357880D01*
D02*
G37*
G36*
X01687000Y01357880D02*
X01685412Y01357455D01*
X01683588Y01356402D01*
X01682098Y01354912D01*
X01681045Y01353088D01*
X01680620Y01351500D01*
X01687000D01*
Y01357880D01*
D02*
G37*
G36*
X01732000Y01358000D02*
X01725500D01*
Y01351500D01*
X01732000D01*
Y01358000D01*
D02*
G37*
G36*
X01687000Y01348500D02*
X01680620D01*
X01681045Y01346912D01*
X01682098Y01345088D01*
X01683588Y01343598D01*
X01685412Y01342545D01*
X01687000Y01342120D01*
Y01348500D01*
D02*
G37*
G36*
X01696380D02*
X01690000D01*
Y01342120D01*
X01691588Y01342545D01*
X01693412Y01343598D01*
X01694902Y01345088D01*
X01695955Y01346912D01*
X01696380Y01348500D01*
D02*
G37*
G36*
X01741500D02*
X01735000D01*
Y01342000D01*
X01741500D01*
Y01348500D01*
D02*
G37*
G36*
X01732000D02*
X01725500D01*
Y01342000D01*
X01732000D01*
Y01348500D01*
D02*
G37*
G36*
X01943674Y01371500D02*
X01940326D01*
X01937041Y01370847D01*
X01933947Y01369565D01*
X01931163Y01367705D01*
X01928795Y01365337D01*
X01926935Y01362552D01*
X01925653Y01359459D01*
X01925000Y01356174D01*
Y01352826D01*
X01925653Y01349541D01*
X01926935Y01346447D01*
X01928795Y01343663D01*
X01931163Y01341295D01*
X01933947Y01339435D01*
X01937041Y01338153D01*
X01940326Y01337500D01*
X01943674D01*
X01946959Y01338153D01*
X01950052Y01339435D01*
X01952837Y01341295D01*
X01955205Y01343663D01*
X01957065Y01346447D01*
X01958347Y01349541D01*
X01959000Y01352826D01*
Y01356174D01*
X01958347Y01359459D01*
X01957065Y01362552D01*
X01955205Y01365337D01*
X01952837Y01367705D01*
X01950052Y01369565D01*
X01946959Y01370847D01*
X01943674Y01371500D01*
D02*
G37*
G36*
X01837750Y01324250D02*
X01834750D01*
Y01319500D01*
X01837750D01*
Y01324250D01*
D02*
G37*
G36*
X01831750D02*
X01828750D01*
Y01319500D01*
X01831750D01*
Y01324250D01*
D02*
G37*
G36*
X01837750Y01316500D02*
X01834750D01*
Y01311750D01*
X01837750D01*
Y01316500D01*
D02*
G37*
G36*
X01831750D02*
X01828750D01*
Y01311750D01*
X01831750D01*
Y01316500D01*
D02*
G37*
G36*
X01851119Y01363000D02*
X01848881D01*
X01846719Y01362421D01*
X01844781Y01361302D01*
X01843198Y01359719D01*
X01842079Y01357781D01*
X01841500Y01355619D01*
Y01353381D01*
X01842079Y01351219D01*
X01843198Y01349281D01*
X01844781Y01347698D01*
X01846551Y01346676D01*
Y01324020D01*
X01844480D01*
Y01311980D01*
X01849977D01*
X01850250Y01311926D01*
X01905346D01*
X01905532Y01310517D01*
X01906943Y01307111D01*
X01909187Y01304187D01*
X01912111Y01301943D01*
X01915517Y01300532D01*
X01919172Y01300051D01*
X01922826Y01300532D01*
X01925286Y01301551D01*
X01926258Y01300579D01*
X01925532Y01298826D01*
X01925051Y01295172D01*
X01925532Y01291517D01*
X01926943Y01288111D01*
X01929187Y01285187D01*
X01932111Y01282943D01*
X01935517Y01281532D01*
X01939172Y01281051D01*
X01942826Y01281532D01*
X01946232Y01282943D01*
X01949156Y01285187D01*
X01954813Y01290844D01*
X01957057Y01293768D01*
X01958468Y01297174D01*
X01958949Y01300828D01*
X01958468Y01304483D01*
X01957057Y01307889D01*
X01954813Y01310813D01*
X01951889Y01313057D01*
X01948483Y01314468D01*
X01944828Y01314949D01*
X01941174Y01314468D01*
X01938714Y01313449D01*
X01937742Y01314421D01*
X01938468Y01316174D01*
X01938949Y01319828D01*
X01938468Y01323483D01*
X01937057Y01326889D01*
X01934813Y01329813D01*
X01931889Y01332057D01*
X01928483Y01333468D01*
X01924828Y01333949D01*
X01921174Y01333468D01*
X01917768Y01332057D01*
X01914843Y01329813D01*
X01909187Y01324156D01*
X01906943Y01321232D01*
X01905532Y01317826D01*
X01905499Y01317574D01*
X01853020D01*
Y01324020D01*
X01852199D01*
Y01346289D01*
X01853281Y01346579D01*
X01855219Y01347698D01*
X01856802Y01349281D01*
X01857921Y01351219D01*
X01858500Y01353381D01*
Y01355619D01*
X01857921Y01357781D01*
X01856802Y01359719D01*
X01855219Y01361302D01*
X01853281Y01362421D01*
X01851119Y01363000D01*
D02*
G37*
G36*
X01711580Y01291001D02*
X01711500D01*
Y01280501D01*
X01722000D01*
Y01280581D01*
X01721182Y01283633D01*
X01719602Y01286369D01*
X01717368Y01288603D01*
X01714632Y01290183D01*
X01711580Y01291001D01*
D02*
G37*
G36*
X01708500D02*
X01708420D01*
X01705368Y01290183D01*
X01702632Y01288603D01*
X01700397Y01286369D01*
X01698818Y01283633D01*
X01698000Y01280581D01*
Y01280501D01*
X01708500D01*
Y01291001D01*
D02*
G37*
G36*
X01722000Y01277501D02*
X01711500D01*
Y01267001D01*
X01711580D01*
X01714632Y01267819D01*
X01717368Y01269398D01*
X01719602Y01271633D01*
X01721182Y01274369D01*
X01722000Y01277421D01*
Y01277501D01*
D02*
G37*
G36*
X01708500D02*
X01698000D01*
Y01277421D01*
X01698818Y01274369D01*
X01700397Y01271633D01*
X01702632Y01269398D01*
X01705368Y01267819D01*
X01708420Y01267001D01*
X01708500D01*
Y01277501D01*
D02*
G37*
G36*
X01602102Y01483540D02*
X01599898D01*
X01597862Y01482697D01*
X01596303Y01481138D01*
X01595460Y01479102D01*
Y01476898D01*
X01596303Y01474862D01*
X01597156Y01474009D01*
Y01469000D01*
X01597156Y01469000D01*
X01597449Y01467529D01*
X01598282Y01466282D01*
X01659656Y01404908D01*
Y01358500D01*
X01655000D01*
Y01341500D01*
X01659656D01*
Y01323500D01*
X01659656Y01323500D01*
X01659949Y01322029D01*
X01660782Y01320782D01*
X01671156Y01310408D01*
Y01291501D01*
X01662500D01*
Y01266501D01*
X01687500D01*
Y01291501D01*
X01678844D01*
Y01312000D01*
X01678551Y01313471D01*
X01677718Y01314718D01*
X01677718Y01314718D01*
X01667344Y01325092D01*
Y01341500D01*
X01672000D01*
Y01358500D01*
X01667344D01*
Y01406500D01*
X01667051Y01407971D01*
X01666218Y01409218D01*
X01666218Y01409218D01*
X01604844Y01470592D01*
Y01474009D01*
X01605697Y01474862D01*
X01606540Y01476898D01*
Y01479102D01*
X01605697Y01481138D01*
X01604138Y01482697D01*
X01602102Y01483540D01*
D02*
G37*
G36*
X01954677Y01247055D02*
X01944122Y01236500D01*
X01954039Y01226582D01*
X01955657Y01228554D01*
X01957097Y01231247D01*
X01957983Y01234169D01*
X01958282Y01237207D01*
X01957983Y01240246D01*
X01957097Y01243167D01*
X01955657Y01245860D01*
X01954677Y01247055D01*
D02*
G37*
G36*
X01922707Y01277785D02*
X01919571Y01277476D01*
X01916555Y01276561D01*
X01913775Y01275075D01*
X01911339Y01273076D01*
X01909924Y01271661D01*
X01907925Y01269225D01*
X01906439Y01266445D01*
X01905524Y01263429D01*
X01905215Y01260293D01*
X01905524Y01257156D01*
X01906439Y01254140D01*
X01907925Y01251361D01*
X01909924Y01248924D01*
X01912361Y01246925D01*
X01915140Y01245439D01*
X01918156Y01244524D01*
X01921293Y01244215D01*
X01924429Y01244524D01*
X01927445Y01245439D01*
X01927569Y01245506D01*
X01928391Y01244505D01*
X01928343Y01244446D01*
X01926904Y01241753D01*
X01926017Y01238831D01*
X01925718Y01235793D01*
X01926017Y01232754D01*
X01926904Y01229833D01*
X01928343Y01227140D01*
X01929324Y01225945D01*
X01940939Y01237561D01*
X01952555Y01249176D01*
X01951360Y01250157D01*
X01948667Y01251597D01*
X01945746Y01252483D01*
X01942707Y01252782D01*
X01939669Y01252483D01*
X01936747Y01251597D01*
X01935932Y01252601D01*
X01936075Y01252775D01*
X01937561Y01255555D01*
X01938476Y01258571D01*
X01938784Y01261707D01*
X01938476Y01264844D01*
X01937561Y01267860D01*
X01936075Y01270639D01*
X01934075Y01273076D01*
X01931639Y01275075D01*
X01928860Y01276561D01*
X01925844Y01277476D01*
X01922707Y01277785D01*
D02*
G37*
G36*
X01942000Y01234379D02*
X01931445Y01223823D01*
X01932640Y01222843D01*
X01935333Y01221404D01*
X01938254Y01220517D01*
X01941293Y01220218D01*
X01944331Y01220517D01*
X01947253Y01221404D01*
X01949946Y01222843D01*
X01951918Y01224461D01*
X01942000Y01234379D01*
D02*
G37*
%LPD*%
G36*
X01880480Y01505020D02*
Y01492980D01*
X01889020D01*
Y01496176D01*
X01893980D01*
Y01492980D01*
X01901499D01*
X01901604Y01492843D01*
X01901966Y01491710D01*
X01898276Y01488020D01*
X01893730D01*
Y01484824D01*
X01889020D01*
Y01488020D01*
X01880480D01*
Y01475980D01*
X01889020D01*
Y01479176D01*
X01893730D01*
Y01475980D01*
X01902270D01*
Y01484026D01*
X01905420Y01487176D01*
X01906500D01*
X01906500Y01487176D01*
X01907581Y01487391D01*
X01907960Y01487644D01*
X01909230Y01486988D01*
Y01475980D01*
X01910676D01*
Y01474670D01*
X01909830Y01473824D01*
X01892000D01*
X01890919Y01473609D01*
X01890003Y01472997D01*
X01890003Y01472997D01*
X01886830Y01469824D01*
X01834170D01*
X01828824Y01475170D01*
Y01499722D01*
X01830094Y01500224D01*
X01831938Y01499460D01*
X01834142D01*
X01836178Y01500303D01*
X01837737Y01501862D01*
X01838580Y01503898D01*
Y01504697D01*
X01839850Y01505082D01*
X01840003Y01504853D01*
X01840919Y01504241D01*
X01842000Y01504026D01*
X01856000D01*
X01857081Y01504241D01*
X01857997Y01504853D01*
X01858447Y01505526D01*
X01863920D01*
X01864980Y01505020D01*
X01864980Y01504256D01*
Y01501824D01*
X01862000D01*
X01862000Y01501824D01*
X01860919Y01501609D01*
X01860003Y01500997D01*
X01860003Y01500997D01*
X01858139Y01499133D01*
X01857997Y01499147D01*
X01857081Y01499759D01*
X01856000Y01499974D01*
X01842000D01*
X01840919Y01499759D01*
X01840003Y01499147D01*
X01839391Y01498231D01*
X01839176Y01497150D01*
Y01494150D01*
X01839391Y01493069D01*
X01840003Y01492153D01*
X01840919Y01491541D01*
X01842000Y01491326D01*
X01856000D01*
X01857081Y01491541D01*
X01857997Y01492153D01*
X01858609Y01493069D01*
X01859000Y01493176D01*
X01860081Y01493391D01*
X01860997Y01494003D01*
X01863170Y01496176D01*
X01864980D01*
Y01492980D01*
X01865406D01*
Y01488020D01*
X01864980D01*
Y01475980D01*
X01873520D01*
Y01488020D01*
X01873094D01*
Y01492980D01*
X01873520D01*
Y01504256D01*
X01873520Y01505020D01*
X01874581Y01505526D01*
X01879420D01*
X01880480Y01505020D01*
D02*
G37*
%LPC*%
G36*
X01856000Y01487509D02*
X01850500D01*
Y01484450D01*
X01859059D01*
Y01484450D01*
X01858826Y01485621D01*
X01858163Y01486613D01*
X01857171Y01487276D01*
X01856000Y01487509D01*
D02*
G37*
G36*
X01847500D02*
X01842000D01*
X01840829Y01487276D01*
X01839837Y01486613D01*
X01839174Y01485621D01*
X01838941Y01484450D01*
Y01484450D01*
X01847500D01*
Y01487509D01*
D02*
G37*
G36*
X01859059Y01481450D02*
X01850500D01*
Y01478391D01*
X01856000D01*
X01857171Y01478624D01*
X01858163Y01479287D01*
X01858826Y01480280D01*
X01859059Y01481450D01*
D02*
G37*
G36*
X01847500D02*
X01838941D01*
X01839174Y01480280D01*
X01839837Y01479287D01*
X01840829Y01478624D01*
X01842000Y01478391D01*
X01847500D01*
Y01481450D01*
D02*
G37*
%LPD*%
D12*
X01671500Y01652500D02*
X01672000Y01652000D01*
X01654500Y01652500D02*
X01671500D01*
D34*
X01394600Y01514600D02*
D03*
X01445400D02*
D03*
Y01565400D02*
D03*
X01394600D02*
D03*
X01904600Y01401600D02*
D03*
X01955400D02*
D03*
Y01452400D02*
D03*
X01904600D02*
D03*
D40*
X01842250Y01407000D02*
D03*
X01857750D02*
D03*
X01614250Y01576000D02*
D03*
X01629750D02*
D03*
X01614250Y01593000D02*
D03*
X01629750D02*
D03*
X01747750Y01523000D02*
D03*
X01732250D02*
D03*
X01898250Y01499000D02*
D03*
X01913750D02*
D03*
X01776750Y01523000D02*
D03*
X01761250D02*
D03*
X01869250Y01499000D02*
D03*
X01884750D02*
D03*
X01502250Y01540000D02*
D03*
X01517750D02*
D03*
X01608750Y01499000D02*
D03*
X01593250D02*
D03*
X01776750Y01506000D02*
D03*
X01761250D02*
D03*
X01747750D02*
D03*
X01732250D02*
D03*
X01869250Y01482000D02*
D03*
X01884750D02*
D03*
X01898000D02*
D03*
X01913500D02*
D03*
X01857750Y01427000D02*
D03*
X01842250D02*
D03*
X01747750Y01540000D02*
D03*
X01732250D02*
D03*
X01747750Y01557000D02*
D03*
X01732250D02*
D03*
X01848750Y01318000D02*
D03*
X01833250D02*
D03*
X01761250Y01482000D02*
D03*
X01776750D02*
D03*
X01883750Y01523000D02*
D03*
X01868250D02*
D03*
D41*
X01533000Y01554750D02*
D03*
Y01539250D02*
D03*
X01654000Y01556750D02*
D03*
Y01541250D02*
D03*
X01549000Y01539250D02*
D03*
Y01554750D02*
D03*
X01483000Y01538750D02*
D03*
Y01523250D02*
D03*
X01704000Y01541250D02*
D03*
Y01556750D02*
D03*
D42*
X01574000Y01558500D02*
D03*
Y01552000D02*
D03*
Y01545500D02*
D03*
Y01539000D02*
D03*
Y01532500D02*
D03*
Y01526000D02*
D03*
Y01519500D02*
D03*
X01630000Y01558500D02*
D03*
Y01552000D02*
D03*
Y01545500D02*
D03*
Y01539000D02*
D03*
Y01532500D02*
D03*
Y01526000D02*
D03*
Y01519500D02*
D03*
D43*
X01799000Y01521050D02*
D03*
Y01508350D02*
D03*
Y01495650D02*
D03*
Y01482950D02*
D03*
X01849000Y01521050D02*
D03*
Y01508350D02*
D03*
Y01495650D02*
D03*
Y01482950D02*
D03*
D44*
X01901500Y01523000D02*
D03*
X01930500D02*
D03*
X01601500Y01613000D02*
D03*
X01630500D02*
D03*
X01684500D02*
D03*
X01655500D02*
D03*
D45*
X01930000Y01478750D02*
D03*
Y01500500D02*
D03*
D46*
X01679000Y01538500D02*
D03*
Y01559500D02*
D03*
D47*
X01654500Y01633500D02*
D03*
Y01643000D02*
D03*
Y01652500D02*
D03*
X01631500D02*
D03*
Y01633500D02*
D03*
D48*
X01482000Y01514000D02*
Y01514812D01*
X01483000Y01515812D02*
Y01523250D01*
X01482000Y01514812D02*
X01483000Y01515812D01*
X01609960Y01534916D02*
X01611000Y01535956D01*
X01608750Y01500750D02*
X01611000Y01503000D01*
Y01543000D02*
X01613500Y01545500D01*
X01611000Y01535956D02*
Y01543000D01*
X01609960Y01529084D02*
Y01534916D01*
Y01529084D02*
X01611000Y01528044D01*
X01608750Y01499000D02*
Y01500750D01*
X01611000Y01503000D02*
Y01528044D01*
X01593250Y01499000D02*
Y01500750D01*
X01590000Y01504000D02*
X01593250Y01500750D01*
X01588000Y01526000D02*
X01590000Y01524000D01*
Y01504000D02*
Y01524000D01*
X01574000Y01617000D02*
X01589750Y01601250D01*
X01611206D01*
X01616206Y01606250D02*
X01629750D01*
X01630500Y01607000D01*
X01611206Y01601250D02*
X01616206Y01606250D01*
X01533000Y01595000D02*
X01553000Y01615000D01*
X01533000Y01554750D02*
Y01595000D01*
X01549000Y01562188D02*
X01550000Y01563188D01*
X01549000Y01554750D02*
Y01562188D01*
X01550000Y01563188D02*
Y01564000D01*
X01564803Y01561426D02*
X01567729Y01558500D01*
X01574000D01*
X01560574Y01561426D02*
X01564803D01*
X01560000Y01562000D02*
X01560574Y01561426D01*
X01574000Y01552000D02*
X01587000D01*
X01587000Y01552000D01*
X01573809Y01519309D02*
X01574000Y01519500D01*
X01561309Y01519309D02*
X01573809D01*
X01561000Y01519000D02*
X01561309Y01519309D01*
X01574000Y01532500D02*
X01574191Y01532691D01*
X01586651D01*
X01587000Y01533040D01*
X01617309Y01532309D02*
X01629809D01*
X01617000Y01532000D02*
X01617309Y01532309D01*
X01629809D02*
X01630000Y01532500D01*
Y01526000D02*
X01642148D01*
X01643148Y01525000D01*
X01643960D01*
X01848750Y01316250D02*
Y01318000D01*
Y01316250D02*
X01850250Y01314750D01*
X01919750D01*
X01922000Y01317000D01*
X01849375Y01318625D02*
Y01353875D01*
X01848750Y01318000D02*
X01849375Y01318625D01*
Y01353875D02*
X01850000Y01354500D01*
Y01379500D02*
Y01397500D01*
X01857750Y01405250D02*
Y01407000D01*
X01850000Y01397500D02*
X01857750Y01405250D01*
Y01427000D02*
X01930000D01*
X01842250Y01407000D02*
Y01427000D01*
X01827000Y01427000D02*
X01827000Y01427000D01*
X01842250D01*
X01821000Y01427000D02*
X01827000D01*
X01817000Y01431000D02*
X01821000Y01427000D01*
X01817000Y01431000D02*
Y01484000D01*
X01826000Y01474000D02*
Y01513000D01*
Y01474000D02*
X01833000Y01467000D01*
X01833040Y01505040D02*
X01836350Y01508350D01*
X01849000D01*
X01833040Y01505000D02*
Y01505040D01*
X01630000Y01558500D02*
Y01561000D01*
X01613500Y01545500D02*
X01630000D01*
X01648000D01*
X01679000Y01538500D02*
X01685000D01*
X01688000Y01535500D01*
Y01527000D02*
Y01535500D01*
X01669000Y01528000D02*
X01669500Y01528500D01*
X01672500Y01538500D02*
X01679000D01*
X01669500Y01535500D02*
X01672500Y01538500D01*
X01669500Y01528500D02*
Y01535500D01*
X01679000Y01527000D02*
Y01538500D01*
X01704000Y01531000D02*
Y01541250D01*
X01756188Y01556000D02*
X01757000D01*
X01747750Y01557000D02*
X01755188D01*
X01756188Y01556000D01*
X01757188Y01541000D02*
X01758000D01*
X01747750Y01540000D02*
X01756188D01*
X01757188Y01541000D01*
X01930000Y01478750D02*
Y01490000D01*
X01901500Y01523000D02*
X01915000D01*
X01761625Y01482375D02*
Y01492625D01*
X01761250Y01482000D02*
X01761625Y01482375D01*
Y01492625D02*
X01762000Y01493000D01*
X01883875Y01534875D02*
X01884000Y01535000D01*
X01883875Y01523125D02*
Y01534875D01*
X01883750Y01523000D02*
X01883875Y01523125D01*
X01835000Y01483000D02*
X01835025Y01482975D01*
X01848975D02*
X01849000Y01482950D01*
X01835025Y01482975D02*
X01848975D01*
X01813675Y01495325D02*
X01814000Y01495000D01*
X01799000Y01495650D02*
X01799325Y01495325D01*
X01813675D01*
X01776750Y01482000D02*
X01777700Y01482950D01*
X01799000D01*
X01849950Y01522000D02*
X01861000D01*
X01849000Y01521050D02*
X01849950Y01522000D01*
X01862000Y01523000D02*
X01868250D01*
X01861000Y01522000D02*
X01862000Y01523000D01*
X01930000Y01522500D02*
X01930500Y01523000D01*
X01930000Y01500500D02*
Y01522500D01*
X01884750Y01482000D02*
X01898000D01*
X01913750Y01499000D02*
X01915250Y01500500D01*
X01930000D01*
X01904250Y01490000D02*
X01906500D01*
X01913750Y01497250D02*
Y01499000D01*
X01906500Y01490000D02*
X01913750Y01497250D01*
X01898000Y01482000D02*
Y01483750D01*
X01904250Y01490000D01*
X01884750Y01499000D02*
X01898250D01*
X01884750D02*
Y01506243D01*
X01849000Y01508350D02*
X01882643D01*
X01884750Y01506243D01*
X01862000Y01499000D02*
X01869250D01*
X01859000Y01496000D02*
X01862000Y01499000D01*
X01849350Y01496000D02*
X01859000D01*
X01849000Y01495650D02*
X01849350Y01496000D01*
X01911000Y01471000D02*
X01913500Y01473500D01*
Y01482000D01*
X01892000Y01471000D02*
X01911000D01*
X01888000Y01467000D02*
X01892000Y01471000D01*
X01833000Y01467000D02*
X01888000D01*
X01817950Y01521050D02*
X01826000Y01513000D01*
X01799000Y01521050D02*
X01817950D01*
X01761250Y01531493D02*
X01763757Y01534000D01*
X01761250Y01523000D02*
Y01531493D01*
X01763757Y01534000D02*
X01782746D01*
X01784503Y01523497D02*
Y01532243D01*
X01782746Y01534000D02*
X01784503Y01532243D01*
X01786006Y01521994D02*
X01786950Y01521050D01*
X01784503Y01523497D02*
X01786006Y01521994D01*
X01786950Y01521050D02*
X01799000D01*
X01784000Y01506000D02*
X01786350Y01508350D01*
X01799000D01*
X01776750Y01506000D02*
X01784000D01*
X01776750D02*
Y01523000D01*
X01747750D02*
X01761250D01*
X01747750Y01506000D02*
X01761250D01*
X01747750D02*
Y01507750D01*
X01740500Y01515000D02*
X01747750Y01507750D01*
X01738500Y01515000D02*
X01740500D01*
X01732250Y01521250D02*
Y01523000D01*
Y01521250D02*
X01738500Y01515000D01*
X01732250Y01540000D02*
Y01557000D01*
Y01523000D02*
Y01540000D01*
X01651000Y01458000D02*
Y01529000D01*
X01653000Y01456000D02*
X01672600D01*
X01651000Y01458000D02*
X01653000Y01456000D01*
X01674000Y01454600D02*
X01726600D01*
X01732250Y01460250D02*
Y01506000D01*
X01726600Y01454600D02*
X01732250Y01460250D01*
X01672600Y01456000D02*
X01674000Y01454600D01*
X01630000Y01539000D02*
X01641000D01*
X01651000Y01529000D01*
X01654000Y01556750D02*
X01704000D01*
X01647500Y01552000D02*
X01652250Y01556750D01*
X01654000D01*
X01630000Y01552000D02*
X01647500D01*
X01648000Y01545500D02*
X01652250Y01541250D01*
X01654000D01*
X01574000Y01526000D02*
X01588000D01*
X01549000Y01539250D02*
X01549125Y01539125D01*
X01573875D01*
X01574000Y01539000D01*
X01533000Y01539250D02*
X01549000D01*
X01518500D02*
X01533000D01*
X01517750Y01540000D02*
X01518500Y01539250D01*
X01420000Y01540000D02*
X01502250D01*
D49*
X01630500Y01607000D02*
Y01613000D01*
Y01578500D02*
Y01607000D01*
X01833250Y01318000D02*
X01833250Y01318000D01*
X01825000Y01318000D02*
X01833250D01*
X01825000Y01318000D02*
X01825000Y01318000D01*
X01869250Y01482000D02*
Y01499000D01*
X01684500Y01613000D02*
X01696000D01*
X01654500Y01643000D02*
X01654500Y01643000D01*
X01642000Y01643000D02*
X01654500D01*
X01601500Y01613000D02*
X01613000D01*
X01607000Y01593000D02*
X01614250D01*
X01607000Y01576000D02*
X01614250D01*
X01607000Y01576000D02*
X01607000Y01576000D01*
X01630000Y01561000D02*
Y01565000D01*
X01629750Y01565250D02*
Y01576000D01*
Y01565250D02*
X01630000Y01565000D01*
X01629750Y01577750D02*
X01630500Y01578500D01*
X01629750Y01576000D02*
Y01577750D01*
X01631000Y01633000D02*
X01631500Y01633500D01*
X01631000Y01613500D02*
Y01633000D01*
X01630500Y01613000D02*
X01631000Y01613500D01*
X01672000Y01652000D02*
Y01666000D01*
Y01618000D02*
Y01652000D01*
Y01666000D02*
X01857000D01*
X01594000D02*
X01672000D01*
X01868250Y01523000D02*
Y01654750D01*
X01857000Y01666000D02*
X01868250Y01654750D01*
X01668000Y01614000D02*
X01672000Y01618000D01*
X01656500Y01614000D02*
X01668000D01*
X01655500Y01613000D02*
X01656500Y01614000D01*
X01655000Y01633500D02*
X01655500Y01633000D01*
Y01613000D02*
Y01633000D01*
X01654500Y01633500D02*
X01655000D01*
X01563000Y01635000D02*
X01594000Y01666000D01*
X01563000Y01606000D02*
Y01635000D01*
Y01606000D02*
X01598000Y01571000D01*
Y01535000D02*
Y01571000D01*
X01601000Y01515000D02*
Y01532000D01*
X01598000Y01535000D02*
X01601000Y01532000D01*
Y01469000D02*
Y01478000D01*
X01663500Y01350000D02*
Y01406500D01*
X01601000Y01469000D02*
X01663500Y01406500D01*
Y01323500D02*
Y01350000D01*
Y01323500D02*
X01675000Y01312000D01*
Y01279001D02*
Y01312000D01*
X01776750Y01431750D02*
Y01482000D01*
X01758500Y01413500D02*
X01776750Y01431750D01*
X01758500Y01350000D02*
Y01413500D01*
X01745000Y01307000D02*
X01758500Y01320500D01*
Y01350000D01*
X01745000Y01279001D02*
Y01307000D01*
D50*
X01674000Y01480000D02*
D03*
D51*
Y01454600D02*
D03*
D52*
X01420000Y01540000D02*
D03*
X01930000Y01427000D02*
D03*
D53*
X01850000Y01379500D02*
D03*
D54*
Y01354500D02*
D03*
X01688500Y01350000D02*
D03*
X01758500D02*
D03*
D55*
X01922000Y01317000D02*
D03*
X01942000Y01298000D02*
D03*
D56*
X01922000Y01261000D02*
D03*
X01942000Y01236500D02*
D03*
D57*
Y01354500D02*
D03*
D58*
X01710000Y01279001D02*
D03*
X01745000D02*
D03*
D59*
X01675000D02*
D03*
D60*
X01663500Y01350000D02*
D03*
X01733500D02*
D03*
D61*
X01400000Y01650000D02*
D03*
X01950000D02*
D03*
X01850000Y01250000D02*
D03*
X01400000D02*
D03*
D62*
X01950000Y01600000D02*
D03*
Y01550000D02*
D03*
Y01500000D02*
D03*
X01900000Y01650000D02*
D03*
Y01600000D02*
D03*
Y01550000D02*
D03*
Y01350000D02*
D03*
Y01300000D02*
D03*
Y01250000D02*
D03*
X01850000Y01650000D02*
D03*
Y01600000D02*
D03*
Y01550000D02*
D03*
Y01450000D02*
D03*
Y01300000D02*
D03*
X01800000Y01650000D02*
D03*
Y01600000D02*
D03*
Y01550000D02*
D03*
Y01450000D02*
D03*
Y01400000D02*
D03*
Y01350000D02*
D03*
Y01300000D02*
D03*
Y01250000D02*
D03*
X01750000Y01650000D02*
D03*
Y01600000D02*
D03*
Y01450000D02*
D03*
Y01250000D02*
D03*
X01700000Y01650000D02*
D03*
Y01600000D02*
D03*
Y01500000D02*
D03*
Y01400000D02*
D03*
Y01350000D02*
D03*
Y01300000D02*
D03*
Y01250000D02*
D03*
X01650000Y01400000D02*
D03*
Y01300000D02*
D03*
Y01250000D02*
D03*
X01600000Y01650000D02*
D03*
Y01450000D02*
D03*
Y01400000D02*
D03*
Y01350000D02*
D03*
Y01300000D02*
D03*
Y01250000D02*
D03*
X01550000Y01650000D02*
D03*
Y01600000D02*
D03*
Y01500000D02*
D03*
Y01450000D02*
D03*
Y01400000D02*
D03*
Y01350000D02*
D03*
Y01300000D02*
D03*
Y01250000D02*
D03*
X01500000Y01650000D02*
D03*
Y01600000D02*
D03*
Y01500000D02*
D03*
Y01450000D02*
D03*
Y01400000D02*
D03*
Y01350000D02*
D03*
Y01300000D02*
D03*
Y01250000D02*
D03*
X01450000Y01650000D02*
D03*
Y01600000D02*
D03*
Y01450000D02*
D03*
Y01400000D02*
D03*
Y01350000D02*
D03*
Y01300000D02*
D03*
Y01250000D02*
D03*
X01400000Y01600000D02*
D03*
Y01550000D02*
D03*
Y01450000D02*
D03*
Y01400000D02*
D03*
Y01350000D02*
D03*
Y01300000D02*
D03*
D63*
X01482000Y01514000D02*
D03*
X01574000Y01617000D02*
D03*
X01553000Y01615000D02*
D03*
X01550000Y01564000D02*
D03*
X01560000Y01562000D02*
D03*
X01587000Y01552000D02*
D03*
X01561000Y01519000D02*
D03*
X01587000Y01533040D02*
D03*
X01617000Y01532000D02*
D03*
X01643960Y01525000D02*
D03*
X01825000Y01318000D02*
D03*
X01817000Y01484000D02*
D03*
X01833040Y01505000D02*
D03*
X01696000Y01613000D02*
D03*
X01642000Y01643000D02*
D03*
X01613000Y01613000D02*
D03*
X01607000Y01593000D02*
D03*
Y01576000D02*
D03*
X01601000Y01515000D02*
D03*
Y01478000D02*
D03*
X01688000Y01527000D02*
D03*
X01669000Y01528000D02*
D03*
X01679000Y01527000D02*
D03*
X01704000Y01531000D02*
D03*
X01757000Y01556000D02*
D03*
X01758000Y01541000D02*
D03*
X01930000Y01490000D02*
D03*
X01915000Y01523000D02*
D03*
X01762000Y01493000D02*
D03*
X01884000Y01535000D02*
D03*
X01835000Y01483000D02*
D03*
X01814000Y01495000D02*
D03*
M02*
