G04*
G04 #@! TF.GenerationSoftware,Altium Limited,Altium Designer,21.9.1 (22)*
G04*
G04 Layer_Color=65535*
%FSAX44Y44*%
%MOMM*%
G71*
G04*
G04 #@! TF.SameCoordinates,FFB4AF1C-9F1E-4918-9BAF-B3E2B2FCB192*
G04*
G04*
G04 #@! TF.FilePolarity,Positive*
G04*
G01*
G75*
%ADD10C,0.2500*%
%ADD11C,0.4000*%
%ADD12C,0.1500*%
%ADD13C,0.2000*%
D10*
X00728750Y00572500D02*
G03*
X00728750Y00572500I-00001250J00000000D01*
G01*
X00068750Y00572500D02*
G03*
X00068750Y00572500I-00001250J00000000D01*
G01*
D11*
X00790000Y00520000D02*
X00840000D01*
X00700000D02*
X00750000D01*
X00000000D02*
X00050000D01*
X00090000D02*
X00150000D01*
X00320000Y00080000D02*
Y00120000D01*
Y00010000D02*
Y00060000D01*
X00220000Y00290000D02*
Y00560000D01*
Y00190000D02*
Y00250000D01*
Y00090000D02*
Y00150000D01*
X00567329Y00107586D02*
X00557332D01*
X00554000Y00104254D01*
Y00097589D01*
X00557332Y00094257D01*
X00567329D01*
X00573993Y00107586D02*
Y00094257D01*
Y00100921D01*
X00577326Y00104254D01*
X00580658Y00107586D01*
X00583990D01*
X00593987D02*
Y00097589D01*
X00597319Y00094257D01*
X00607316D01*
Y00090925D01*
X00603984Y00087592D01*
X00600652D01*
X00607316Y00094257D02*
Y00107586D01*
X00613981Y00094257D02*
X00623977D01*
X00627310Y00097589D01*
X00623977Y00100921D01*
X00617313D01*
X00613981Y00104254D01*
X00617313Y00107586D01*
X00627310D01*
X00637307Y00110918D02*
Y00107586D01*
X00633974D01*
X00640639D01*
X00637307D01*
Y00097589D01*
X00640639Y00094257D01*
X00653968Y00107586D02*
X00660632D01*
X00663964Y00104254D01*
Y00094257D01*
X00653968D01*
X00650636Y00097589D01*
X00653968Y00100921D01*
X00663964D01*
X00670629Y00094257D02*
X00677294D01*
X00673961D01*
Y00114250D01*
X00670629D01*
X00710616Y00094257D02*
Y00110918D01*
Y00104254D01*
X00707284D01*
X00713948D01*
X00710616D01*
Y00110918D01*
X00713948Y00114250D01*
X00723945Y00094257D02*
X00730610D01*
X00727277D01*
Y00107586D01*
X00723945D01*
X00740607Y00094257D02*
X00747271D01*
X00743939D01*
Y00114250D01*
X00740607D01*
X00760600Y00110918D02*
Y00107586D01*
X00757268D01*
X00763932D01*
X00760600D01*
Y00097589D01*
X00763932Y00094257D01*
X00783926D02*
X00777261D01*
X00773929Y00097589D01*
Y00104254D01*
X00777261Y00107586D01*
X00783926D01*
X00787258Y00104254D01*
Y00100921D01*
X00773929D01*
X00793923Y00107586D02*
Y00094257D01*
Y00100921D01*
X00797255Y00104254D01*
X00800587Y00107586D01*
X00803919D01*
X00557332Y00070661D02*
Y00067329D01*
X00554000D01*
X00560664D01*
X00557332D01*
Y00057332D01*
X00560664Y00054000D01*
X00580658D02*
X00573993D01*
X00570661Y00057332D01*
Y00063997D01*
X00573993Y00067329D01*
X00580658D01*
X00583990Y00063997D01*
Y00060665D01*
X00570661D01*
X00590655Y00054000D02*
X00600652D01*
X00603984Y00057332D01*
X00600652Y00060665D01*
X00593987D01*
X00590655Y00063997D01*
X00593987Y00067329D01*
X00603984D01*
X00613981Y00070661D02*
Y00067329D01*
X00610648D01*
X00617313D01*
X00613981D01*
Y00057332D01*
X00617313Y00054000D01*
X00647303Y00073994D02*
Y00054000D01*
X00657300D01*
X00660632Y00057332D01*
Y00060665D01*
Y00063997D01*
X00657300Y00067329D01*
X00647303D01*
X00670629Y00054000D02*
X00677294D01*
X00680626Y00057332D01*
Y00063997D01*
X00677294Y00067329D01*
X00670629D01*
X00667297Y00063997D01*
Y00057332D01*
X00670629Y00054000D01*
X00690623Y00067329D02*
X00697287D01*
X00700619Y00063997D01*
Y00054000D01*
X00690623D01*
X00687290Y00057332D01*
X00690623Y00060665D01*
X00700619D01*
X00707284Y00067329D02*
Y00054000D01*
Y00060665D01*
X00710616Y00063997D01*
X00713948Y00067329D01*
X00717281D01*
X00740607Y00073994D02*
Y00054000D01*
X00730610D01*
X00727278Y00057332D01*
Y00063997D01*
X00730610Y00067329D01*
X00740607D01*
D12*
X00122000Y00584000D02*
Y00612000D01*
X00138000Y00584000D02*
Y00612000D01*
X00122000Y00584000D02*
X00138000D01*
X00122000Y00612000D02*
X00138000D01*
X00666500Y00582500D02*
Y00597500D01*
X00693500Y00582500D02*
Y00597500D01*
X00666500D02*
X00693500D01*
X00666500Y00582500D02*
X00693500D01*
X00642000Y00584000D02*
Y00612000D01*
X00658000Y00584000D02*
Y00612000D01*
X00642000Y00584000D02*
X00658000D01*
X00642000Y00612000D02*
X00658000D01*
X00182000Y00584000D02*
Y00612000D01*
X00198000Y00584000D02*
Y00612000D01*
X00182000Y00584000D02*
X00198000D01*
X00182000Y00612000D02*
X00198000D01*
X00702000Y00584000D02*
Y00612000D01*
X00718000Y00584000D02*
Y00612000D01*
X00702000Y00584000D02*
X00718000D01*
X00702000Y00612000D02*
X00718000D01*
X00329000Y00065500D02*
Y00074500D01*
X00311000Y00065500D02*
Y00074500D01*
Y00065500D02*
X00329000D01*
X00311000Y00074500D02*
X00329000D01*
X00146500Y00582500D02*
Y00597500D01*
X00173500Y00582500D02*
Y00597500D01*
X00146500D02*
X00173500D01*
X00146500Y00582500D02*
X00173500D01*
D13*
X00766000Y00540000D02*
Y00560000D01*
X00734000Y00540000D02*
Y00560000D01*
X00766000D01*
X00734000Y00540000D02*
X00766000D01*
X00106000Y00540000D02*
Y00560000D01*
X00074000Y00540000D02*
Y00560000D01*
X00106000D01*
X00074000Y00540000D02*
X00106000D01*
X00568665Y00012000D02*
X00562000D01*
X00568665Y00018664D01*
Y00020331D01*
X00566998Y00021997D01*
X00563666D01*
X00562000Y00020331D01*
X00571997D02*
X00573663Y00021997D01*
X00576995D01*
X00578661Y00020331D01*
Y00013666D01*
X00576995Y00012000D01*
X00573663D01*
X00571997Y00013666D01*
Y00020331D01*
X00588658Y00012000D02*
X00581994D01*
X00588658Y00018664D01*
Y00020331D01*
X00586992Y00021997D01*
X00583660D01*
X00581994Y00020331D01*
X00591990Y00012000D02*
X00595323D01*
X00593657D01*
Y00021997D01*
X00591990Y00020331D01*
X00600321Y00012000D02*
Y00013666D01*
X00601987D01*
Y00012000D01*
X00600321D01*
X00608652D02*
X00611984D01*
X00610318D01*
Y00021997D01*
X00608652Y00020331D01*
X00616982Y00012000D02*
X00620314D01*
X00618648D01*
Y00021997D01*
X00616982Y00020331D01*
X00625313Y00012000D02*
Y00013666D01*
X00626979D01*
Y00012000D01*
X00625313D01*
X00640308D02*
X00633643D01*
X00640308Y00018664D01*
Y00020331D01*
X00638642Y00021997D01*
X00635310D01*
X00633643Y00020331D01*
X00643640Y00021997D02*
X00650305D01*
Y00020331D01*
X00643640Y00013666D01*
Y00012000D01*
X00552000Y00155332D02*
X00555332D01*
X00553666D01*
Y00165329D01*
X00552000Y00163663D01*
X00566995Y00165329D02*
X00560331D01*
Y00160331D01*
X00563663Y00161997D01*
X00565329D01*
X00566995Y00160331D01*
Y00156998D01*
X00565329Y00155332D01*
X00561997D01*
X00560331Y00156998D01*
X00580324Y00155332D02*
Y00161997D01*
X00581990D01*
X00583656Y00160331D01*
Y00155332D01*
Y00160331D01*
X00585323Y00161997D01*
X00586989Y00160331D01*
Y00155332D01*
X00590321D02*
Y00161997D01*
X00591987D01*
X00593653Y00160331D01*
Y00155332D01*
Y00160331D01*
X00595319Y00161997D01*
X00596986Y00160331D01*
Y00155332D01*
X00610314Y00161997D02*
Y00155332D01*
Y00158665D01*
X00611981Y00160331D01*
X00613647Y00161997D01*
X00615313D01*
X00625310Y00155332D02*
X00621977D01*
X00620311Y00156998D01*
Y00160331D01*
X00621977Y00161997D01*
X00625310D01*
X00626976Y00160331D01*
Y00158665D01*
X00620311D01*
X00631974Y00155332D02*
Y00163663D01*
Y00160331D01*
X00630308D01*
X00633640D01*
X00631974D01*
Y00163663D01*
X00633640Y00165329D01*
X00643637Y00155332D02*
X00640305D01*
X00638639Y00156998D01*
Y00160331D01*
X00640305Y00161997D01*
X00643637D01*
X00645303Y00160331D01*
Y00158665D01*
X00638639D01*
X00648635Y00161997D02*
Y00155332D01*
Y00158665D01*
X00650302Y00160331D01*
X00651968Y00161997D01*
X00653634D01*
X00663631Y00155332D02*
X00660298D01*
X00658632Y00156998D01*
Y00160331D01*
X00660298Y00161997D01*
X00663631D01*
X00665297Y00160331D01*
Y00158665D01*
X00658632D01*
X00668629Y00155332D02*
Y00161997D01*
X00673627D01*
X00675294Y00160331D01*
Y00155332D01*
X00685290Y00161997D02*
X00680292D01*
X00678626Y00160331D01*
Y00156998D01*
X00680292Y00155332D01*
X00685290D01*
X00693621D02*
X00690289D01*
X00688623Y00156998D01*
Y00160331D01*
X00690289Y00161997D01*
X00693621D01*
X00695287Y00160331D01*
Y00158665D01*
X00688623D01*
X00708616Y00152000D02*
Y00161997D01*
X00713615D01*
X00715281Y00160331D01*
Y00156998D01*
X00713615Y00155332D01*
X00708616D01*
X00718613D02*
X00721945D01*
X00720279D01*
Y00165329D01*
X00718613D01*
X00728610Y00161997D02*
X00731942D01*
X00733608Y00160331D01*
Y00155332D01*
X00728610D01*
X00726944Y00156998D01*
X00728610Y00158665D01*
X00733608D01*
X00736940Y00155332D02*
Y00161997D01*
X00741939D01*
X00743605Y00160331D01*
Y00155332D01*
X00751936D02*
X00748603D01*
X00746937Y00156998D01*
Y00160331D01*
X00748603Y00161997D01*
X00751936D01*
X00753602Y00160331D01*
Y00158665D01*
X00746937D01*
X00552000Y00141997D02*
X00558665D01*
X00555332D01*
Y00132000D01*
X00561997D02*
Y00141997D01*
X00566995D01*
X00568661Y00140331D01*
Y00136998D01*
X00566995Y00135332D01*
X00561997D01*
X00565329D02*
X00568661Y00132000D01*
X00571993D02*
Y00141997D01*
X00575326Y00138665D01*
X00578658Y00141997D01*
Y00132000D01*
X00598652Y00138665D02*
X00593653D01*
X00591987Y00136998D01*
Y00133666D01*
X00593653Y00132000D01*
X00598652D01*
X00603650Y00138665D02*
X00606982D01*
X00608648Y00136998D01*
Y00132000D01*
X00603650D01*
X00601984Y00133666D01*
X00603650Y00135332D01*
X00608648D01*
X00611981Y00132000D02*
X00615313D01*
X00613647D01*
Y00141997D01*
X00611981D01*
X00630308Y00132000D02*
Y00141997D01*
Y00135332D02*
X00635307Y00138665D01*
X00630308Y00135332D02*
X00635307Y00132000D01*
X00640305D02*
X00643637D01*
X00641971D01*
Y00138665D01*
X00640305D01*
X00650302Y00140331D02*
Y00138665D01*
X00648635D01*
X00651968D01*
X00650302D01*
Y00133666D01*
X00651968Y00132000D01*
M02*
