G04*
G04 #@! TF.GenerationSoftware,Altium Limited,Altium Designer,21.9.1 (22)*
G04*
G04 Layer_Physical_Order=1*
G04 Layer_Color=255*
%FSAX44Y44*%
%MOMM*%
G71*
G04*
G04 #@! TF.SameCoordinates,FFB4AF1C-9F1E-4918-9BAF-B3E2B2FCB192*
G04*
G04*
G04 #@! TF.FilePolarity,Positive*
G04*
G01*
G75*
%ADD13C,0.2000*%
%ADD22R,0.9500X0.6000*%
%ADD23R,0.7600X1.4000*%
%ADD24R,0.6000X0.9500*%
%ADD25R,0.5500X0.5500*%
%ADD26C,1.0300*%
%ADD27R,12.0000X3.0000*%
%ADD28R,3.7000X5.9000*%
%ADD29R,9.4000X10.0000*%
%ADD30C,2.0000*%
%ADD31C,2.2000*%
%ADD32C,1.6000*%
%ADD33C,0.7000*%
G36*
X00620000Y00596367D02*
X00600250D01*
X00597909Y00595902D01*
X00595924Y00594576D01*
X00586363Y00585014D01*
X00585375Y00585424D01*
X00582477Y00586000D01*
X00579523D01*
X00576625Y00585424D01*
X00573895Y00584293D01*
X00571438Y00582651D01*
X00569349Y00580562D01*
X00567707Y00578105D01*
X00566576Y00575375D01*
X00566000Y00572477D01*
Y00569523D01*
X00566576Y00566625D01*
X00567707Y00563895D01*
X00569349Y00561438D01*
X00571438Y00559349D01*
X00573895Y00557707D01*
X00576625Y00556576D01*
X00579523Y00556000D01*
X00582477D01*
X00585375Y00556576D01*
X00588105Y00557707D01*
X00590562Y00559349D01*
X00592651Y00561438D01*
X00594293Y00563895D01*
X00595424Y00566625D01*
X00596000Y00569523D01*
Y00572477D01*
X00595424Y00575375D01*
X00595014Y00576363D01*
X00602784Y00584132D01*
X00620000D01*
Y00280238D01*
X00598865D01*
X00595845Y00283258D01*
X00595424Y00285375D01*
X00594293Y00288105D01*
X00592651Y00290562D01*
X00590562Y00292651D01*
X00588105Y00294293D01*
X00585375Y00295424D01*
X00582477Y00296000D01*
X00579523D01*
X00576625Y00295424D01*
X00573895Y00294293D01*
X00571438Y00292651D01*
X00569349Y00290562D01*
X00567707Y00288105D01*
X00566576Y00285375D01*
X00566000Y00282477D01*
Y00279523D01*
X00566576Y00276625D01*
X00567707Y00273895D01*
X00569349Y00271438D01*
X00571438Y00269349D01*
X00573895Y00267707D01*
X00576625Y00266576D01*
X00579523Y00266000D01*
X00582477D01*
X00583870Y00266277D01*
X00587386Y00262761D01*
X00587386Y00262761D01*
X00589506Y00261134D01*
X00591975Y00260111D01*
X00594625Y00259762D01*
X00620000D01*
Y00220000D01*
X00220000D01*
Y00259762D01*
X00245375D01*
X00248025Y00260111D01*
X00250494Y00261134D01*
X00252614Y00262761D01*
X00256130Y00266277D01*
X00257523Y00266000D01*
X00260477D01*
X00263375Y00266576D01*
X00266105Y00267707D01*
X00268562Y00269349D01*
X00270651Y00271438D01*
X00272293Y00273895D01*
X00273424Y00276625D01*
X00274000Y00279523D01*
Y00282477D01*
X00273424Y00285375D01*
X00272293Y00288105D01*
X00270651Y00290562D01*
X00268562Y00292651D01*
X00266105Y00294293D01*
X00263375Y00295424D01*
X00260477Y00296000D01*
X00257523D01*
X00254625Y00295424D01*
X00251895Y00294293D01*
X00249438Y00292651D01*
X00247349Y00290562D01*
X00245707Y00288105D01*
X00244576Y00285375D01*
X00244155Y00283258D01*
X00241135Y00280238D01*
X00220000D01*
Y00584132D01*
X00237216D01*
X00244986Y00576363D01*
X00244576Y00575375D01*
X00244000Y00572477D01*
Y00569523D01*
X00244576Y00566625D01*
X00245707Y00563895D01*
X00247349Y00561438D01*
X00249438Y00559349D01*
X00251895Y00557707D01*
X00254625Y00556576D01*
X00257523Y00556000D01*
X00260477D01*
X00263375Y00556576D01*
X00266105Y00557707D01*
X00268562Y00559349D01*
X00270651Y00561438D01*
X00272293Y00563895D01*
X00273424Y00566625D01*
X00274000Y00569523D01*
Y00572477D01*
X00273424Y00575375D01*
X00272293Y00578105D01*
X00270651Y00580562D01*
X00268562Y00582651D01*
X00266105Y00584293D01*
X00263375Y00585424D01*
X00260477Y00586000D01*
X00257523D01*
X00254625Y00585424D01*
X00253637Y00585014D01*
X00244076Y00594576D01*
X00242091Y00595902D01*
X00239750Y00596368D01*
X00220000D01*
Y00750000D01*
X00620000D01*
Y00596367D01*
D02*
G37*
D13*
X00077500Y00578500D02*
X00089000Y00590000D01*
X00077500Y00568700D02*
Y00578500D01*
X00130000Y00590000D02*
X00152250D01*
X00089000D02*
X00130000D01*
X00189750D02*
X00190000Y00590250D01*
X00167750Y00590000D02*
X00189750D01*
X00190000Y00590250D02*
X00239750D01*
X00259000Y00571000D01*
X00581000Y00571000D02*
X00600250Y00590250D01*
X00650000D01*
X00650250Y00590000D02*
X00672250D01*
X00650000Y00590250D02*
X00650250Y00590000D01*
X00710000D02*
X00751000D01*
X00687750D02*
X00710000D01*
X00762500Y00568700D02*
Y00578500D01*
X00751000Y00590000D02*
X00762500Y00578500D01*
D22*
X00130000Y00590250D02*
D03*
Y00605750D02*
D03*
X00650000Y00590250D02*
D03*
Y00605750D02*
D03*
X00190000Y00590250D02*
D03*
Y00605750D02*
D03*
X00710000Y00590250D02*
D03*
Y00605750D02*
D03*
D23*
X00762500Y00568700D02*
D03*
X00750000D02*
D03*
X00737500D02*
D03*
Y00531300D02*
D03*
X00762500D02*
D03*
X00102500Y00568700D02*
D03*
X00090000D02*
D03*
X00077500D02*
D03*
Y00531300D02*
D03*
X00102500D02*
D03*
D24*
X00672250Y00590000D02*
D03*
X00687750D02*
D03*
X00152250D02*
D03*
X00167750D02*
D03*
D25*
X00324500Y00070000D02*
D03*
X00315500D02*
D03*
D26*
X00762500Y00530800D02*
Y00531300D01*
X00770000Y00370000D02*
Y00523300D01*
X00762500Y00530800D02*
X00770000Y00523300D01*
X00070000D02*
X00077500Y00530800D01*
X00070000Y00370000D02*
Y00523300D01*
X00077500Y00530800D02*
Y00531300D01*
X00583625Y00281000D02*
X00594625Y00270000D01*
X00770000D01*
X00581000Y00281000D02*
X00583625D01*
X00070000Y00270000D02*
X00245375D01*
X00256375Y00281000D01*
X00259000D01*
X00070000Y00070000D02*
X00246000D01*
X00247000Y00071000D01*
X00330000Y00070000D02*
X00470000D01*
X00070000Y00170800D02*
X00370000D01*
D27*
X00670000Y00615000D02*
D03*
X00170000Y00615000D02*
D03*
D28*
X00718500Y00549500D02*
D03*
X00121500D02*
D03*
D29*
X00267000Y00070000D02*
D03*
D30*
X00581000Y00571000D02*
D03*
Y00613000D02*
D03*
X00539000Y00571000D02*
D03*
X00301000D02*
D03*
X00259000Y00613000D02*
D03*
Y00571000D02*
D03*
X00581000Y00281000D02*
D03*
Y00323000D02*
D03*
X00539000Y00281000D02*
D03*
X00301000D02*
D03*
X00259000Y00323000D02*
D03*
Y00281000D02*
D03*
D31*
X00744600Y00395400D02*
D03*
X00795400D02*
D03*
Y00344600D02*
D03*
X00744600D02*
D03*
X00044600Y00395400D02*
D03*
X00095400D02*
D03*
Y00344600D02*
D03*
X00044600D02*
D03*
X00744600Y00295400D02*
D03*
X00795400D02*
D03*
Y00244600D02*
D03*
X00744600D02*
D03*
X00044600Y00095400D02*
D03*
X00095400D02*
D03*
Y00044600D02*
D03*
X00044600D02*
D03*
X00344600Y00196200D02*
D03*
X00395400D02*
D03*
Y00145400D02*
D03*
X00344600D02*
D03*
X00495400Y00044600D02*
D03*
X00444600D02*
D03*
Y00095400D02*
D03*
X00495400D02*
D03*
X00044600Y00295400D02*
D03*
X00095400D02*
D03*
Y00244600D02*
D03*
X00044600D02*
D03*
X00044600Y00196200D02*
D03*
X00095400D02*
D03*
Y00145400D02*
D03*
X00044600D02*
D03*
D32*
X00770000Y00370000D02*
D03*
X00070000D02*
D03*
X00770000Y00270000D02*
D03*
X00070000Y00070000D02*
D03*
X00370000Y00170800D02*
D03*
X00470000Y00070000D02*
D03*
X00070000Y00270000D02*
D03*
X00070000Y00170800D02*
D03*
D33*
X00720000Y00620000D02*
D03*
X00700000D02*
D03*
X00680000D02*
D03*
X00660000D02*
D03*
X00640000D02*
D03*
X00200000D02*
D03*
X00180000D02*
D03*
X00160000D02*
D03*
X00140000D02*
D03*
X00120000D02*
D03*
X00570000Y00590000D02*
D03*
X00450000Y00570000D02*
D03*
X00470000D02*
D03*
X00490000D02*
D03*
X00510000D02*
D03*
X00370000D02*
D03*
X00390000D02*
D03*
X00410000D02*
D03*
X00430000D02*
D03*
X00330000D02*
D03*
X00350000D02*
D03*
X00270000Y00590000D02*
D03*
X00230000Y00610000D02*
D03*
Y00570000D02*
D03*
X00610000D02*
D03*
Y00610000D02*
D03*
X00530000Y00590000D02*
D03*
X00550000D02*
D03*
X00530000Y00610000D02*
D03*
X00550000D02*
D03*
X00350000D02*
D03*
X00330000D02*
D03*
X00310000D02*
D03*
X00290000D02*
D03*
X00350000Y00590000D02*
D03*
X00330000D02*
D03*
X00310000D02*
D03*
X00290000D02*
D03*
X00430000Y00610000D02*
D03*
X00410000D02*
D03*
X00390000D02*
D03*
X00370000D02*
D03*
X00430000Y00590000D02*
D03*
X00410000D02*
D03*
X00390000D02*
D03*
X00370000D02*
D03*
X00510000Y00610000D02*
D03*
X00490000D02*
D03*
X00470000D02*
D03*
X00450000D02*
D03*
X00510000Y00590000D02*
D03*
X00490000D02*
D03*
X00470000D02*
D03*
X00450000D02*
D03*
X00610000Y00300000D02*
D03*
Y00320000D02*
D03*
X00230000Y00300000D02*
D03*
Y00320000D02*
D03*
X00290000Y00260000D02*
D03*
X00310000D02*
D03*
X00530000D02*
D03*
X00550000D02*
D03*
X00510000Y00280000D02*
D03*
Y00260000D02*
D03*
X00490000Y00280000D02*
D03*
Y00260000D02*
D03*
X00550000Y00320000D02*
D03*
Y00300000D02*
D03*
X00530000Y00320000D02*
D03*
Y00300000D02*
D03*
X00410000Y00260000D02*
D03*
X00430000D02*
D03*
X00450000D02*
D03*
X00470000D02*
D03*
X00410000Y00280000D02*
D03*
X00430000D02*
D03*
X00450000D02*
D03*
X00470000D02*
D03*
X00330000Y00260000D02*
D03*
X00350000D02*
D03*
X00370000D02*
D03*
X00390000D02*
D03*
X00330000Y00280000D02*
D03*
X00350000D02*
D03*
X00370000D02*
D03*
X00390000D02*
D03*
X00450000Y00300000D02*
D03*
X00470000D02*
D03*
X00490000D02*
D03*
X00510000D02*
D03*
X00450000Y00320000D02*
D03*
X00470000D02*
D03*
X00490000D02*
D03*
X00510000D02*
D03*
X00370000Y00300000D02*
D03*
X00390000D02*
D03*
X00410000D02*
D03*
X00430000D02*
D03*
X00370000Y00320000D02*
D03*
X00390000D02*
D03*
X00410000D02*
D03*
X00430000D02*
D03*
X00290000Y00300000D02*
D03*
X00310000D02*
D03*
X00330000D02*
D03*
X00350000D02*
D03*
X00290000Y00320000D02*
D03*
X00310000D02*
D03*
X00330000D02*
D03*
X00350000D02*
D03*
X00230000Y00730000D02*
D03*
X00250000D02*
D03*
X00270000D02*
D03*
X00290000D02*
D03*
X00310000D02*
D03*
X00410000D02*
D03*
X00390000D02*
D03*
X00370000D02*
D03*
X00350000D02*
D03*
X00330000D02*
D03*
X00530000D02*
D03*
X00550000D02*
D03*
X00570000D02*
D03*
X00590000D02*
D03*
X00610000D02*
D03*
X00510000D02*
D03*
X00490000D02*
D03*
X00470000D02*
D03*
X00450000D02*
D03*
X00430000D02*
D03*
X00230000Y00710000D02*
D03*
X00250000D02*
D03*
X00270000D02*
D03*
X00290000D02*
D03*
X00310000D02*
D03*
X00410000D02*
D03*
X00390000D02*
D03*
X00370000D02*
D03*
X00350000D02*
D03*
X00330000D02*
D03*
X00530000D02*
D03*
X00550000D02*
D03*
X00570000D02*
D03*
X00590000D02*
D03*
X00610000D02*
D03*
X00510000D02*
D03*
X00490000D02*
D03*
X00470000D02*
D03*
X00450000D02*
D03*
X00430000D02*
D03*
X00230000Y00690000D02*
D03*
X00250000D02*
D03*
X00270000D02*
D03*
X00290000D02*
D03*
X00310000D02*
D03*
X00410000D02*
D03*
X00390000D02*
D03*
X00370000D02*
D03*
X00350000D02*
D03*
X00330000D02*
D03*
X00530000D02*
D03*
X00550000D02*
D03*
X00570000D02*
D03*
X00590000D02*
D03*
X00610000D02*
D03*
X00510000D02*
D03*
X00490000D02*
D03*
X00470000D02*
D03*
X00450000D02*
D03*
X00430000D02*
D03*
X00230000Y00670000D02*
D03*
X00250000D02*
D03*
X00270000D02*
D03*
X00290000D02*
D03*
X00310000D02*
D03*
X00410000D02*
D03*
X00390000D02*
D03*
X00370000D02*
D03*
X00350000D02*
D03*
X00330000D02*
D03*
X00530000D02*
D03*
X00550000D02*
D03*
X00570000D02*
D03*
X00590000D02*
D03*
X00610000D02*
D03*
X00510000D02*
D03*
X00490000D02*
D03*
X00470000D02*
D03*
X00450000D02*
D03*
X00430000D02*
D03*
X00230000Y00650000D02*
D03*
X00250000D02*
D03*
X00270000D02*
D03*
X00290000D02*
D03*
X00310000D02*
D03*
X00410000D02*
D03*
X00390000D02*
D03*
X00370000D02*
D03*
X00350000D02*
D03*
X00330000D02*
D03*
X00530000D02*
D03*
X00550000D02*
D03*
X00570000D02*
D03*
X00590000D02*
D03*
X00610000D02*
D03*
X00510000D02*
D03*
X00490000D02*
D03*
X00470000D02*
D03*
X00450000D02*
D03*
X00430000D02*
D03*
X00230000Y00630000D02*
D03*
X00250000D02*
D03*
X00270000D02*
D03*
X00290000D02*
D03*
X00310000D02*
D03*
X00410000D02*
D03*
X00390000D02*
D03*
X00370000D02*
D03*
X00350000D02*
D03*
X00330000D02*
D03*
X00530000D02*
D03*
X00550000D02*
D03*
X00570000D02*
D03*
X00590000D02*
D03*
X00610000D02*
D03*
X00510000D02*
D03*
X00490000D02*
D03*
X00470000D02*
D03*
X00450000D02*
D03*
X00430000D02*
D03*
X00230000Y00550000D02*
D03*
X00250000D02*
D03*
X00270000D02*
D03*
X00290000D02*
D03*
X00310000D02*
D03*
X00410000D02*
D03*
X00390000D02*
D03*
X00370000D02*
D03*
X00350000D02*
D03*
X00330000D02*
D03*
X00530000D02*
D03*
X00550000D02*
D03*
X00570000D02*
D03*
X00590000D02*
D03*
X00610000D02*
D03*
X00510000D02*
D03*
X00490000D02*
D03*
X00470000D02*
D03*
X00450000D02*
D03*
X00430000D02*
D03*
X00230000Y00530000D02*
D03*
X00250000D02*
D03*
X00270000D02*
D03*
X00290000D02*
D03*
X00310000D02*
D03*
X00410000D02*
D03*
X00390000D02*
D03*
X00370000D02*
D03*
X00350000D02*
D03*
X00330000D02*
D03*
X00530000D02*
D03*
X00550000D02*
D03*
X00570000D02*
D03*
X00590000D02*
D03*
X00610000D02*
D03*
X00510000D02*
D03*
X00490000D02*
D03*
X00470000D02*
D03*
X00450000D02*
D03*
X00430000D02*
D03*
X00230000Y00500000D02*
D03*
X00250000D02*
D03*
X00270000D02*
D03*
X00290000D02*
D03*
X00310000D02*
D03*
X00410000D02*
D03*
X00390000D02*
D03*
X00370000D02*
D03*
X00350000D02*
D03*
X00330000D02*
D03*
X00530000D02*
D03*
X00550000D02*
D03*
X00570000D02*
D03*
X00590000D02*
D03*
X00610000D02*
D03*
X00510000D02*
D03*
X00490000D02*
D03*
X00470000D02*
D03*
X00450000D02*
D03*
X00430000D02*
D03*
X00230000Y00480000D02*
D03*
X00250000D02*
D03*
X00270000D02*
D03*
X00290000D02*
D03*
X00310000D02*
D03*
X00410000D02*
D03*
X00390000D02*
D03*
X00370000D02*
D03*
X00350000D02*
D03*
X00330000D02*
D03*
X00530000D02*
D03*
X00550000D02*
D03*
X00570000D02*
D03*
X00590000D02*
D03*
X00610000D02*
D03*
X00510000D02*
D03*
X00490000D02*
D03*
X00470000D02*
D03*
X00450000D02*
D03*
X00430000D02*
D03*
X00230000Y00460000D02*
D03*
X00250000D02*
D03*
X00270000D02*
D03*
X00290000D02*
D03*
X00310000D02*
D03*
X00410000D02*
D03*
X00390000D02*
D03*
X00370000D02*
D03*
X00350000D02*
D03*
X00330000D02*
D03*
X00530000D02*
D03*
X00550000D02*
D03*
X00570000D02*
D03*
X00590000D02*
D03*
X00610000D02*
D03*
X00510000D02*
D03*
X00490000D02*
D03*
X00470000D02*
D03*
X00450000D02*
D03*
X00430000D02*
D03*
X00230000Y00440000D02*
D03*
X00250000D02*
D03*
X00270000D02*
D03*
X00290000D02*
D03*
X00310000D02*
D03*
X00410000D02*
D03*
X00390000D02*
D03*
X00370000D02*
D03*
X00350000D02*
D03*
X00330000D02*
D03*
X00530000D02*
D03*
X00550000D02*
D03*
X00570000D02*
D03*
X00590000D02*
D03*
X00610000D02*
D03*
X00510000D02*
D03*
X00490000D02*
D03*
X00470000D02*
D03*
X00450000D02*
D03*
X00430000D02*
D03*
X00230000Y00420000D02*
D03*
X00250000D02*
D03*
X00270000D02*
D03*
X00290000D02*
D03*
X00310000D02*
D03*
X00410000D02*
D03*
X00390000D02*
D03*
X00370000D02*
D03*
X00350000D02*
D03*
X00330000D02*
D03*
X00530000D02*
D03*
X00550000D02*
D03*
X00570000D02*
D03*
X00590000D02*
D03*
X00610000D02*
D03*
X00510000D02*
D03*
X00490000D02*
D03*
X00470000D02*
D03*
X00450000D02*
D03*
X00430000D02*
D03*
X00230000Y00400000D02*
D03*
X00250000D02*
D03*
X00270000D02*
D03*
X00290000D02*
D03*
X00310000D02*
D03*
X00410000D02*
D03*
X00390000D02*
D03*
X00370000D02*
D03*
X00350000D02*
D03*
X00330000D02*
D03*
X00530000D02*
D03*
X00550000D02*
D03*
X00570000D02*
D03*
X00590000D02*
D03*
X00610000D02*
D03*
X00510000D02*
D03*
X00490000D02*
D03*
X00470000D02*
D03*
X00450000D02*
D03*
X00430000D02*
D03*
X00230000Y00380000D02*
D03*
X00250000D02*
D03*
X00270000D02*
D03*
X00290000D02*
D03*
X00310000D02*
D03*
X00410000D02*
D03*
X00390000D02*
D03*
X00370000D02*
D03*
X00350000D02*
D03*
X00330000D02*
D03*
X00530000D02*
D03*
X00550000D02*
D03*
X00570000D02*
D03*
X00590000D02*
D03*
X00610000D02*
D03*
X00510000D02*
D03*
X00490000D02*
D03*
X00470000D02*
D03*
X00450000D02*
D03*
X00430000D02*
D03*
X00230000Y00360000D02*
D03*
X00250000D02*
D03*
X00270000D02*
D03*
X00290000D02*
D03*
X00310000D02*
D03*
X00410000D02*
D03*
X00390000D02*
D03*
X00370000D02*
D03*
X00350000D02*
D03*
X00330000D02*
D03*
X00530000D02*
D03*
X00550000D02*
D03*
X00570000D02*
D03*
X00590000D02*
D03*
X00610000D02*
D03*
X00510000D02*
D03*
X00490000D02*
D03*
X00470000D02*
D03*
X00450000D02*
D03*
X00430000D02*
D03*
X00230000Y00340000D02*
D03*
X00250000D02*
D03*
X00270000D02*
D03*
X00290000D02*
D03*
X00310000D02*
D03*
X00410000D02*
D03*
X00390000D02*
D03*
X00370000D02*
D03*
X00350000D02*
D03*
X00330000D02*
D03*
X00530000D02*
D03*
X00550000D02*
D03*
X00570000D02*
D03*
X00590000D02*
D03*
X00610000D02*
D03*
X00510000D02*
D03*
X00490000D02*
D03*
X00470000D02*
D03*
X00450000D02*
D03*
X00430000D02*
D03*
Y00240000D02*
D03*
X00450000D02*
D03*
X00470000D02*
D03*
X00490000D02*
D03*
X00510000D02*
D03*
X00610000D02*
D03*
X00590000D02*
D03*
X00570000D02*
D03*
X00550000D02*
D03*
X00530000D02*
D03*
X00330000D02*
D03*
X00350000D02*
D03*
X00370000D02*
D03*
X00390000D02*
D03*
X00410000D02*
D03*
X00310000D02*
D03*
X00290000D02*
D03*
X00270000D02*
D03*
X00250000D02*
D03*
X00230000D02*
D03*
X00110000Y00550000D02*
D03*
X00120000D02*
D03*
Y00560000D02*
D03*
Y00570000D02*
D03*
Y00540000D02*
D03*
Y00530000D02*
D03*
X00130000D02*
D03*
Y00550000D02*
D03*
Y00570000D02*
D03*
Y00560000D02*
D03*
Y00540000D02*
D03*
X00710000D02*
D03*
Y00560000D02*
D03*
Y00570000D02*
D03*
Y00550000D02*
D03*
Y00530000D02*
D03*
X00720000D02*
D03*
Y00540000D02*
D03*
Y00570000D02*
D03*
Y00560000D02*
D03*
Y00550000D02*
D03*
X00730000D02*
D03*
X00310000Y00060000D02*
D03*
Y00030000D02*
D03*
Y00040000D02*
D03*
Y00050000D02*
D03*
X00300000Y00070000D02*
D03*
Y00080000D02*
D03*
Y00090000D02*
D03*
Y00100000D02*
D03*
Y00060000D02*
D03*
Y00050000D02*
D03*
Y00040000D02*
D03*
Y00030000D02*
D03*
X00290000Y00070000D02*
D03*
Y00080000D02*
D03*
Y00090000D02*
D03*
Y00100000D02*
D03*
Y00060000D02*
D03*
Y00050000D02*
D03*
Y00040000D02*
D03*
Y00030000D02*
D03*
X00280000Y00070000D02*
D03*
Y00080000D02*
D03*
Y00090000D02*
D03*
Y00100000D02*
D03*
Y00060000D02*
D03*
Y00050000D02*
D03*
Y00040000D02*
D03*
Y00030000D02*
D03*
X00270000Y00070000D02*
D03*
Y00080000D02*
D03*
Y00090000D02*
D03*
Y00100000D02*
D03*
Y00060000D02*
D03*
Y00050000D02*
D03*
Y00040000D02*
D03*
Y00030000D02*
D03*
X00260000Y00070000D02*
D03*
Y00080000D02*
D03*
Y00090000D02*
D03*
Y00100000D02*
D03*
Y00060000D02*
D03*
Y00050000D02*
D03*
Y00040000D02*
D03*
Y00030000D02*
D03*
X00250000Y00070000D02*
D03*
Y00080000D02*
D03*
Y00090000D02*
D03*
Y00100000D02*
D03*
Y00060000D02*
D03*
Y00050000D02*
D03*
Y00040000D02*
D03*
Y00030000D02*
D03*
X00240000Y00070000D02*
D03*
Y00080000D02*
D03*
Y00090000D02*
D03*
Y00100000D02*
D03*
Y00060000D02*
D03*
Y00050000D02*
D03*
Y00040000D02*
D03*
Y00030000D02*
D03*
X00230000D02*
D03*
Y00040000D02*
D03*
Y00050000D02*
D03*
Y00060000D02*
D03*
X00310000Y00100000D02*
D03*
Y00090000D02*
D03*
Y00080000D02*
D03*
Y00110000D02*
D03*
X00290000D02*
D03*
X00300000D02*
D03*
X00270000D02*
D03*
X00280000D02*
D03*
X00260000D02*
D03*
X00250000D02*
D03*
X00240000D02*
D03*
X00230000D02*
D03*
Y00100000D02*
D03*
Y00090000D02*
D03*
Y00080000D02*
D03*
Y00070000D02*
D03*
M02*
