G04*
G04 #@! TF.GenerationSoftware,Altium Limited,Altium Designer,21.9.1 (22)*
G04*
G04 Layer_Physical_Order=2*
G04 Layer_Color=16711680*
%FSAX44Y44*%
%MOMM*%
G71*
G04*
G04 #@! TF.SameCoordinates,DCF355C4-2513-4F3A-AF0F-06795686F610*
G04*
G04*
G04 #@! TF.FilePolarity,Positive*
G04*
G01*
G75*
%ADD32C,2.0000*%
%ADD33C,2.2000*%
%ADD34C,1.6000*%
%ADD35C,0.7000*%
G36*
X00840000Y00000000D02*
X00000000D01*
Y00750000D01*
X00840000D01*
Y00000000D01*
D02*
G37*
%LPC*%
G36*
X00582477Y00586000D02*
X00579523D01*
X00576625Y00585424D01*
X00573895Y00584293D01*
X00571438Y00582651D01*
X00569349Y00580562D01*
X00567707Y00578105D01*
X00566576Y00575375D01*
X00566000Y00572477D01*
Y00569523D01*
X00566576Y00566625D01*
X00567707Y00563895D01*
X00569349Y00561438D01*
X00571438Y00559349D01*
X00573895Y00557707D01*
X00576625Y00556576D01*
X00579523Y00556000D01*
X00582477D01*
X00585375Y00556576D01*
X00588105Y00557707D01*
X00590562Y00559349D01*
X00592651Y00561438D01*
X00594293Y00563895D01*
X00595424Y00566625D01*
X00596000Y00569523D01*
Y00572477D01*
X00595424Y00575375D01*
X00594293Y00578105D01*
X00592651Y00580562D01*
X00590562Y00582651D01*
X00588105Y00584293D01*
X00585375Y00585424D01*
X00582477Y00586000D01*
D02*
G37*
G36*
X00260477D02*
X00257523D01*
X00254625Y00585424D01*
X00251895Y00584293D01*
X00249438Y00582651D01*
X00247349Y00580562D01*
X00245707Y00578105D01*
X00244576Y00575375D01*
X00244000Y00572477D01*
Y00569523D01*
X00244576Y00566625D01*
X00245707Y00563895D01*
X00247349Y00561438D01*
X00249438Y00559349D01*
X00251895Y00557707D01*
X00254625Y00556576D01*
X00257523Y00556000D01*
X00260477D01*
X00263375Y00556576D01*
X00266105Y00557707D01*
X00268562Y00559349D01*
X00270651Y00561438D01*
X00272293Y00563895D01*
X00273424Y00566625D01*
X00274000Y00569523D01*
Y00572477D01*
X00273424Y00575375D01*
X00272293Y00578105D01*
X00270651Y00580562D01*
X00268562Y00582651D01*
X00266105Y00584293D01*
X00263375Y00585424D01*
X00260477Y00586000D01*
D02*
G37*
G36*
X00771317Y00380000D02*
X00768683D01*
X00766140Y00379319D01*
X00763860Y00378002D01*
X00761998Y00376140D01*
X00760682Y00373860D01*
X00760000Y00371316D01*
Y00368684D01*
X00760682Y00366140D01*
X00761998Y00363860D01*
X00763860Y00361998D01*
X00766140Y00360681D01*
X00768683Y00360000D01*
X00771317D01*
X00773860Y00360681D01*
X00776140Y00361998D01*
X00778002Y00363860D01*
X00779318Y00366140D01*
X00780000Y00368684D01*
Y00371316D01*
X00779318Y00373860D01*
X00778002Y00376140D01*
X00776140Y00378002D01*
X00773860Y00379319D01*
X00771317Y00380000D01*
D02*
G37*
G36*
X00071316D02*
X00068684D01*
X00066140Y00379319D01*
X00063860Y00378002D01*
X00061998Y00376140D01*
X00060682Y00373860D01*
X00060000Y00371316D01*
Y00368684D01*
X00060682Y00366140D01*
X00061998Y00363860D01*
X00063860Y00361998D01*
X00066140Y00360681D01*
X00068684Y00360000D01*
X00071316D01*
X00073860Y00360681D01*
X00076140Y00361998D01*
X00078002Y00363860D01*
X00079318Y00366140D01*
X00080000Y00368684D01*
Y00371316D01*
X00079318Y00373860D01*
X00078002Y00376140D01*
X00076140Y00378002D01*
X00073860Y00379319D01*
X00071316Y00380000D01*
D02*
G37*
G36*
X00582477Y00296000D02*
X00579523D01*
X00576625Y00295424D01*
X00573895Y00294293D01*
X00571438Y00292651D01*
X00569349Y00290562D01*
X00567707Y00288105D01*
X00566576Y00285375D01*
X00566000Y00282477D01*
Y00279523D01*
X00566576Y00276625D01*
X00567707Y00273895D01*
X00569349Y00271438D01*
X00571438Y00269349D01*
X00573895Y00267707D01*
X00576625Y00266576D01*
X00579523Y00266000D01*
X00582477D01*
X00585375Y00266576D01*
X00588105Y00267707D01*
X00590562Y00269349D01*
X00592651Y00271438D01*
X00594293Y00273895D01*
X00595424Y00276625D01*
X00596000Y00279523D01*
Y00282477D01*
X00595424Y00285375D01*
X00594293Y00288105D01*
X00592651Y00290562D01*
X00590562Y00292651D01*
X00588105Y00294293D01*
X00585375Y00295424D01*
X00582477Y00296000D01*
D02*
G37*
G36*
X00260477D02*
X00257523D01*
X00254625Y00295424D01*
X00251895Y00294293D01*
X00249438Y00292651D01*
X00247349Y00290562D01*
X00245707Y00288105D01*
X00244576Y00285375D01*
X00244000Y00282477D01*
Y00279523D01*
X00244576Y00276625D01*
X00245707Y00273895D01*
X00247349Y00271438D01*
X00249438Y00269349D01*
X00251895Y00267707D01*
X00254625Y00266576D01*
X00257523Y00266000D01*
X00260477D01*
X00263375Y00266576D01*
X00266105Y00267707D01*
X00268562Y00269349D01*
X00270651Y00271438D01*
X00272293Y00273895D01*
X00273424Y00276625D01*
X00274000Y00279523D01*
Y00282477D01*
X00273424Y00285375D01*
X00272293Y00288105D01*
X00270651Y00290562D01*
X00268562Y00292651D01*
X00266105Y00294293D01*
X00263375Y00295424D01*
X00260477Y00296000D01*
D02*
G37*
G36*
X00771712Y00283000D02*
X00768288D01*
X00764982Y00282114D01*
X00762018Y00280403D01*
X00759597Y00277982D01*
X00757886Y00275018D01*
X00757000Y00271712D01*
Y00268288D01*
X00757886Y00264982D01*
X00759597Y00262018D01*
X00762018Y00259597D01*
X00764982Y00257886D01*
X00768288Y00257000D01*
X00771712D01*
X00775018Y00257886D01*
X00777982Y00259597D01*
X00780403Y00262018D01*
X00782114Y00264982D01*
X00783000Y00268288D01*
Y00271712D01*
X00782114Y00275018D01*
X00780403Y00277982D01*
X00777982Y00280403D01*
X00775018Y00282114D01*
X00771712Y00283000D01*
D02*
G37*
G36*
X00071712D02*
X00068288D01*
X00064982Y00282114D01*
X00062018Y00280403D01*
X00059597Y00277982D01*
X00057886Y00275018D01*
X00057000Y00271712D01*
Y00268288D01*
X00057886Y00264982D01*
X00059597Y00262018D01*
X00062018Y00259597D01*
X00064982Y00257886D01*
X00068288Y00257000D01*
X00071712D01*
X00075018Y00257886D01*
X00077982Y00259597D01*
X00080403Y00262018D01*
X00082114Y00264982D01*
X00083000Y00268288D01*
Y00271712D01*
X00082114Y00275018D01*
X00080403Y00277982D01*
X00077982Y00280403D01*
X00075018Y00282114D01*
X00071712Y00283000D01*
D02*
G37*
G36*
X00371317Y00180800D02*
X00368684D01*
X00366140Y00180119D01*
X00363860Y00178802D01*
X00361998Y00176940D01*
X00360682Y00174660D01*
X00360000Y00172117D01*
Y00169484D01*
X00360682Y00166940D01*
X00361998Y00164660D01*
X00363860Y00162798D01*
X00366140Y00161481D01*
X00368684Y00160800D01*
X00371317D01*
X00373860Y00161481D01*
X00376140Y00162798D01*
X00378002Y00164660D01*
X00379319Y00166940D01*
X00380000Y00169484D01*
Y00172117D01*
X00379319Y00174660D01*
X00378002Y00176940D01*
X00376140Y00178802D01*
X00373860Y00180119D01*
X00371317Y00180800D01*
D02*
G37*
G36*
X00071317D02*
X00068684D01*
X00066140Y00180119D01*
X00063860Y00178802D01*
X00061998Y00176940D01*
X00060682Y00174660D01*
X00060000Y00172117D01*
Y00169484D01*
X00060682Y00166940D01*
X00061998Y00164660D01*
X00063860Y00162798D01*
X00066140Y00161481D01*
X00068684Y00160800D01*
X00071317D01*
X00073860Y00161481D01*
X00076140Y00162798D01*
X00078002Y00164660D01*
X00079319Y00166940D01*
X00080000Y00169484D01*
Y00172117D01*
X00079319Y00174660D01*
X00078002Y00176940D01*
X00076140Y00178802D01*
X00073860Y00180119D01*
X00071317Y00180800D01*
D02*
G37*
G36*
X00471316Y00080000D02*
X00468684D01*
X00466140Y00079318D01*
X00463860Y00078002D01*
X00461998Y00076140D01*
X00460681Y00073860D01*
X00460000Y00071316D01*
Y00068684D01*
X00460681Y00066140D01*
X00461998Y00063860D01*
X00463860Y00061998D01*
X00466140Y00060682D01*
X00468684Y00060000D01*
X00471316D01*
X00473860Y00060682D01*
X00476140Y00061998D01*
X00478002Y00063860D01*
X00479319Y00066140D01*
X00480000Y00068684D01*
Y00071316D01*
X00479319Y00073860D01*
X00478002Y00076140D01*
X00476140Y00078002D01*
X00473860Y00079318D01*
X00471316Y00080000D01*
D02*
G37*
%LPD*%
D32*
X00581000Y00571000D02*
D03*
Y00613000D02*
D03*
X00539000Y00571000D02*
D03*
X00301000D02*
D03*
X00259000Y00613000D02*
D03*
Y00571000D02*
D03*
X00581000Y00281000D02*
D03*
Y00323000D02*
D03*
X00539000Y00281000D02*
D03*
X00301000D02*
D03*
X00259000Y00323000D02*
D03*
Y00281000D02*
D03*
D33*
X00744600Y00395400D02*
D03*
X00795400D02*
D03*
Y00344600D02*
D03*
X00744600D02*
D03*
X00044600Y00395400D02*
D03*
X00095400D02*
D03*
Y00344600D02*
D03*
X00044600D02*
D03*
X00744600Y00295400D02*
D03*
X00795400D02*
D03*
Y00244600D02*
D03*
X00744600D02*
D03*
X00044600Y00095400D02*
D03*
X00095400D02*
D03*
Y00044600D02*
D03*
X00044600D02*
D03*
X00344600Y00196200D02*
D03*
X00395400D02*
D03*
Y00145400D02*
D03*
X00344600D02*
D03*
X00495400Y00044600D02*
D03*
X00444600D02*
D03*
Y00095400D02*
D03*
X00495400D02*
D03*
X00044600Y00295400D02*
D03*
X00095400D02*
D03*
Y00244600D02*
D03*
X00044600D02*
D03*
X00044600Y00196200D02*
D03*
X00095400D02*
D03*
Y00145400D02*
D03*
X00044600D02*
D03*
D34*
X00770000Y00370000D02*
D03*
X00070000D02*
D03*
X00770000Y00270000D02*
D03*
X00070000Y00070000D02*
D03*
X00370000Y00170800D02*
D03*
X00470000Y00070000D02*
D03*
X00070000Y00270000D02*
D03*
X00070000Y00170800D02*
D03*
D35*
X00720000Y00620000D02*
D03*
X00700000D02*
D03*
X00680000D02*
D03*
X00660000D02*
D03*
X00640000D02*
D03*
X00200000D02*
D03*
X00180000D02*
D03*
X00160000D02*
D03*
X00140000D02*
D03*
X00120000D02*
D03*
X00570000Y00590000D02*
D03*
X00450000Y00570000D02*
D03*
X00470000D02*
D03*
X00490000D02*
D03*
X00510000D02*
D03*
X00370000D02*
D03*
X00390000D02*
D03*
X00410000D02*
D03*
X00430000D02*
D03*
X00330000D02*
D03*
X00350000D02*
D03*
X00270000Y00590000D02*
D03*
X00230000Y00610000D02*
D03*
Y00570000D02*
D03*
X00610000D02*
D03*
Y00610000D02*
D03*
X00530000Y00590000D02*
D03*
X00550000D02*
D03*
X00530000Y00610000D02*
D03*
X00550000D02*
D03*
X00350000D02*
D03*
X00330000D02*
D03*
X00310000D02*
D03*
X00290000D02*
D03*
X00350000Y00590000D02*
D03*
X00330000D02*
D03*
X00310000D02*
D03*
X00290000D02*
D03*
X00430000Y00610000D02*
D03*
X00410000D02*
D03*
X00390000D02*
D03*
X00370000D02*
D03*
X00430000Y00590000D02*
D03*
X00410000D02*
D03*
X00390000D02*
D03*
X00370000D02*
D03*
X00510000Y00610000D02*
D03*
X00490000D02*
D03*
X00470000D02*
D03*
X00450000D02*
D03*
X00510000Y00590000D02*
D03*
X00490000D02*
D03*
X00470000D02*
D03*
X00450000D02*
D03*
X00610000Y00300000D02*
D03*
Y00320000D02*
D03*
X00230000Y00300000D02*
D03*
Y00320000D02*
D03*
X00290000Y00260000D02*
D03*
X00310000D02*
D03*
X00530000D02*
D03*
X00550000D02*
D03*
X00510000Y00280000D02*
D03*
Y00260000D02*
D03*
X00490000Y00280000D02*
D03*
Y00260000D02*
D03*
X00550000Y00320000D02*
D03*
Y00300000D02*
D03*
X00530000Y00320000D02*
D03*
Y00300000D02*
D03*
X00410000Y00260000D02*
D03*
X00430000D02*
D03*
X00450000D02*
D03*
X00470000D02*
D03*
X00410000Y00280000D02*
D03*
X00430000D02*
D03*
X00450000D02*
D03*
X00470000D02*
D03*
X00330000Y00260000D02*
D03*
X00350000D02*
D03*
X00370000D02*
D03*
X00390000D02*
D03*
X00330000Y00280000D02*
D03*
X00350000D02*
D03*
X00370000D02*
D03*
X00390000D02*
D03*
X00450000Y00300000D02*
D03*
X00470000D02*
D03*
X00490000D02*
D03*
X00510000D02*
D03*
X00450000Y00320000D02*
D03*
X00470000D02*
D03*
X00490000D02*
D03*
X00510000D02*
D03*
X00370000Y00300000D02*
D03*
X00390000D02*
D03*
X00410000D02*
D03*
X00430000D02*
D03*
X00370000Y00320000D02*
D03*
X00390000D02*
D03*
X00410000D02*
D03*
X00430000D02*
D03*
X00290000Y00300000D02*
D03*
X00310000D02*
D03*
X00330000D02*
D03*
X00350000D02*
D03*
X00290000Y00320000D02*
D03*
X00310000D02*
D03*
X00330000D02*
D03*
X00350000D02*
D03*
X00230000Y00730000D02*
D03*
X00250000D02*
D03*
X00270000D02*
D03*
X00290000D02*
D03*
X00310000D02*
D03*
X00410000D02*
D03*
X00390000D02*
D03*
X00370000D02*
D03*
X00350000D02*
D03*
X00330000D02*
D03*
X00530000D02*
D03*
X00550000D02*
D03*
X00570000D02*
D03*
X00590000D02*
D03*
X00610000D02*
D03*
X00510000D02*
D03*
X00490000D02*
D03*
X00470000D02*
D03*
X00450000D02*
D03*
X00430000D02*
D03*
X00230000Y00710000D02*
D03*
X00250000D02*
D03*
X00270000D02*
D03*
X00290000D02*
D03*
X00310000D02*
D03*
X00410000D02*
D03*
X00390000D02*
D03*
X00370000D02*
D03*
X00350000D02*
D03*
X00330000D02*
D03*
X00530000D02*
D03*
X00550000D02*
D03*
X00570000D02*
D03*
X00590000D02*
D03*
X00610000D02*
D03*
X00510000D02*
D03*
X00490000D02*
D03*
X00470000D02*
D03*
X00450000D02*
D03*
X00430000D02*
D03*
X00230000Y00690000D02*
D03*
X00250000D02*
D03*
X00270000D02*
D03*
X00290000D02*
D03*
X00310000D02*
D03*
X00410000D02*
D03*
X00390000D02*
D03*
X00370000D02*
D03*
X00350000D02*
D03*
X00330000D02*
D03*
X00530000D02*
D03*
X00550000D02*
D03*
X00570000D02*
D03*
X00590000D02*
D03*
X00610000D02*
D03*
X00510000D02*
D03*
X00490000D02*
D03*
X00470000D02*
D03*
X00450000D02*
D03*
X00430000D02*
D03*
X00230000Y00670000D02*
D03*
X00250000D02*
D03*
X00270000D02*
D03*
X00290000D02*
D03*
X00310000D02*
D03*
X00410000D02*
D03*
X00390000D02*
D03*
X00370000D02*
D03*
X00350000D02*
D03*
X00330000D02*
D03*
X00530000D02*
D03*
X00550000D02*
D03*
X00570000D02*
D03*
X00590000D02*
D03*
X00610000D02*
D03*
X00510000D02*
D03*
X00490000D02*
D03*
X00470000D02*
D03*
X00450000D02*
D03*
X00430000D02*
D03*
X00230000Y00650000D02*
D03*
X00250000D02*
D03*
X00270000D02*
D03*
X00290000D02*
D03*
X00310000D02*
D03*
X00410000D02*
D03*
X00390000D02*
D03*
X00370000D02*
D03*
X00350000D02*
D03*
X00330000D02*
D03*
X00530000D02*
D03*
X00550000D02*
D03*
X00570000D02*
D03*
X00590000D02*
D03*
X00610000D02*
D03*
X00510000D02*
D03*
X00490000D02*
D03*
X00470000D02*
D03*
X00450000D02*
D03*
X00430000D02*
D03*
X00230000Y00630000D02*
D03*
X00250000D02*
D03*
X00270000D02*
D03*
X00290000D02*
D03*
X00310000D02*
D03*
X00410000D02*
D03*
X00390000D02*
D03*
X00370000D02*
D03*
X00350000D02*
D03*
X00330000D02*
D03*
X00530000D02*
D03*
X00550000D02*
D03*
X00570000D02*
D03*
X00590000D02*
D03*
X00610000D02*
D03*
X00510000D02*
D03*
X00490000D02*
D03*
X00470000D02*
D03*
X00450000D02*
D03*
X00430000D02*
D03*
X00230000Y00550000D02*
D03*
X00250000D02*
D03*
X00270000D02*
D03*
X00290000D02*
D03*
X00310000D02*
D03*
X00410000D02*
D03*
X00390000D02*
D03*
X00370000D02*
D03*
X00350000D02*
D03*
X00330000D02*
D03*
X00530000D02*
D03*
X00550000D02*
D03*
X00570000D02*
D03*
X00590000D02*
D03*
X00610000D02*
D03*
X00510000D02*
D03*
X00490000D02*
D03*
X00470000D02*
D03*
X00450000D02*
D03*
X00430000D02*
D03*
X00230000Y00530000D02*
D03*
X00250000D02*
D03*
X00270000D02*
D03*
X00290000D02*
D03*
X00310000D02*
D03*
X00410000D02*
D03*
X00390000D02*
D03*
X00370000D02*
D03*
X00350000D02*
D03*
X00330000D02*
D03*
X00530000D02*
D03*
X00550000D02*
D03*
X00570000D02*
D03*
X00590000D02*
D03*
X00610000D02*
D03*
X00510000D02*
D03*
X00490000D02*
D03*
X00470000D02*
D03*
X00450000D02*
D03*
X00430000D02*
D03*
X00230000Y00500000D02*
D03*
X00250000D02*
D03*
X00270000D02*
D03*
X00290000D02*
D03*
X00310000D02*
D03*
X00410000D02*
D03*
X00390000D02*
D03*
X00370000D02*
D03*
X00350000D02*
D03*
X00330000D02*
D03*
X00530000D02*
D03*
X00550000D02*
D03*
X00570000D02*
D03*
X00590000D02*
D03*
X00610000D02*
D03*
X00510000D02*
D03*
X00490000D02*
D03*
X00470000D02*
D03*
X00450000D02*
D03*
X00430000D02*
D03*
X00230000Y00480000D02*
D03*
X00250000D02*
D03*
X00270000D02*
D03*
X00290000D02*
D03*
X00310000D02*
D03*
X00410000D02*
D03*
X00390000D02*
D03*
X00370000D02*
D03*
X00350000D02*
D03*
X00330000D02*
D03*
X00530000D02*
D03*
X00550000D02*
D03*
X00570000D02*
D03*
X00590000D02*
D03*
X00610000D02*
D03*
X00510000D02*
D03*
X00490000D02*
D03*
X00470000D02*
D03*
X00450000D02*
D03*
X00430000D02*
D03*
X00230000Y00460000D02*
D03*
X00250000D02*
D03*
X00270000D02*
D03*
X00290000D02*
D03*
X00310000D02*
D03*
X00410000D02*
D03*
X00390000D02*
D03*
X00370000D02*
D03*
X00350000D02*
D03*
X00330000D02*
D03*
X00530000D02*
D03*
X00550000D02*
D03*
X00570000D02*
D03*
X00590000D02*
D03*
X00610000D02*
D03*
X00510000D02*
D03*
X00490000D02*
D03*
X00470000D02*
D03*
X00450000D02*
D03*
X00430000D02*
D03*
X00230000Y00440000D02*
D03*
X00250000D02*
D03*
X00270000D02*
D03*
X00290000D02*
D03*
X00310000D02*
D03*
X00410000D02*
D03*
X00390000D02*
D03*
X00370000D02*
D03*
X00350000D02*
D03*
X00330000D02*
D03*
X00530000D02*
D03*
X00550000D02*
D03*
X00570000D02*
D03*
X00590000D02*
D03*
X00610000D02*
D03*
X00510000D02*
D03*
X00490000D02*
D03*
X00470000D02*
D03*
X00450000D02*
D03*
X00430000D02*
D03*
X00230000Y00420000D02*
D03*
X00250000D02*
D03*
X00270000D02*
D03*
X00290000D02*
D03*
X00310000D02*
D03*
X00410000D02*
D03*
X00390000D02*
D03*
X00370000D02*
D03*
X00350000D02*
D03*
X00330000D02*
D03*
X00530000D02*
D03*
X00550000D02*
D03*
X00570000D02*
D03*
X00590000D02*
D03*
X00610000D02*
D03*
X00510000D02*
D03*
X00490000D02*
D03*
X00470000D02*
D03*
X00450000D02*
D03*
X00430000D02*
D03*
X00230000Y00400000D02*
D03*
X00250000D02*
D03*
X00270000D02*
D03*
X00290000D02*
D03*
X00310000D02*
D03*
X00410000D02*
D03*
X00390000D02*
D03*
X00370000D02*
D03*
X00350000D02*
D03*
X00330000D02*
D03*
X00530000D02*
D03*
X00550000D02*
D03*
X00570000D02*
D03*
X00590000D02*
D03*
X00610000D02*
D03*
X00510000D02*
D03*
X00490000D02*
D03*
X00470000D02*
D03*
X00450000D02*
D03*
X00430000D02*
D03*
X00230000Y00380000D02*
D03*
X00250000D02*
D03*
X00270000D02*
D03*
X00290000D02*
D03*
X00310000D02*
D03*
X00410000D02*
D03*
X00390000D02*
D03*
X00370000D02*
D03*
X00350000D02*
D03*
X00330000D02*
D03*
X00530000D02*
D03*
X00550000D02*
D03*
X00570000D02*
D03*
X00590000D02*
D03*
X00610000D02*
D03*
X00510000D02*
D03*
X00490000D02*
D03*
X00470000D02*
D03*
X00450000D02*
D03*
X00430000D02*
D03*
X00230000Y00360000D02*
D03*
X00250000D02*
D03*
X00270000D02*
D03*
X00290000D02*
D03*
X00310000D02*
D03*
X00410000D02*
D03*
X00390000D02*
D03*
X00370000D02*
D03*
X00350000D02*
D03*
X00330000D02*
D03*
X00530000D02*
D03*
X00550000D02*
D03*
X00570000D02*
D03*
X00590000D02*
D03*
X00610000D02*
D03*
X00510000D02*
D03*
X00490000D02*
D03*
X00470000D02*
D03*
X00450000D02*
D03*
X00430000D02*
D03*
X00230000Y00340000D02*
D03*
X00250000D02*
D03*
X00270000D02*
D03*
X00290000D02*
D03*
X00310000D02*
D03*
X00410000D02*
D03*
X00390000D02*
D03*
X00370000D02*
D03*
X00350000D02*
D03*
X00330000D02*
D03*
X00530000D02*
D03*
X00550000D02*
D03*
X00570000D02*
D03*
X00590000D02*
D03*
X00610000D02*
D03*
X00510000D02*
D03*
X00490000D02*
D03*
X00470000D02*
D03*
X00450000D02*
D03*
X00430000D02*
D03*
Y00240000D02*
D03*
X00450000D02*
D03*
X00470000D02*
D03*
X00490000D02*
D03*
X00510000D02*
D03*
X00610000D02*
D03*
X00590000D02*
D03*
X00570000D02*
D03*
X00550000D02*
D03*
X00530000D02*
D03*
X00330000D02*
D03*
X00350000D02*
D03*
X00370000D02*
D03*
X00390000D02*
D03*
X00410000D02*
D03*
X00310000D02*
D03*
X00290000D02*
D03*
X00270000D02*
D03*
X00250000D02*
D03*
X00230000D02*
D03*
X00110000Y00550000D02*
D03*
X00120000D02*
D03*
Y00560000D02*
D03*
Y00570000D02*
D03*
Y00540000D02*
D03*
Y00530000D02*
D03*
X00130000D02*
D03*
Y00550000D02*
D03*
Y00570000D02*
D03*
Y00560000D02*
D03*
Y00540000D02*
D03*
X00710000D02*
D03*
Y00560000D02*
D03*
Y00570000D02*
D03*
Y00550000D02*
D03*
Y00530000D02*
D03*
X00720000D02*
D03*
Y00540000D02*
D03*
Y00570000D02*
D03*
Y00560000D02*
D03*
Y00550000D02*
D03*
X00730000D02*
D03*
X00310000Y00060000D02*
D03*
Y00030000D02*
D03*
Y00040000D02*
D03*
Y00050000D02*
D03*
X00300000Y00070000D02*
D03*
Y00080000D02*
D03*
Y00090000D02*
D03*
Y00100000D02*
D03*
Y00060000D02*
D03*
Y00050000D02*
D03*
Y00040000D02*
D03*
Y00030000D02*
D03*
X00290000Y00070000D02*
D03*
Y00080000D02*
D03*
Y00090000D02*
D03*
Y00100000D02*
D03*
Y00060000D02*
D03*
Y00050000D02*
D03*
Y00040000D02*
D03*
Y00030000D02*
D03*
X00280000Y00070000D02*
D03*
Y00080000D02*
D03*
Y00090000D02*
D03*
Y00100000D02*
D03*
Y00060000D02*
D03*
Y00050000D02*
D03*
Y00040000D02*
D03*
Y00030000D02*
D03*
X00270000Y00070000D02*
D03*
Y00080000D02*
D03*
Y00090000D02*
D03*
Y00100000D02*
D03*
Y00060000D02*
D03*
Y00050000D02*
D03*
Y00040000D02*
D03*
Y00030000D02*
D03*
X00260000Y00070000D02*
D03*
Y00080000D02*
D03*
Y00090000D02*
D03*
Y00100000D02*
D03*
Y00060000D02*
D03*
Y00050000D02*
D03*
Y00040000D02*
D03*
Y00030000D02*
D03*
X00250000Y00070000D02*
D03*
Y00080000D02*
D03*
Y00090000D02*
D03*
Y00100000D02*
D03*
Y00060000D02*
D03*
Y00050000D02*
D03*
Y00040000D02*
D03*
Y00030000D02*
D03*
X00240000Y00070000D02*
D03*
Y00080000D02*
D03*
Y00090000D02*
D03*
Y00100000D02*
D03*
Y00060000D02*
D03*
Y00050000D02*
D03*
Y00040000D02*
D03*
Y00030000D02*
D03*
X00230000D02*
D03*
Y00040000D02*
D03*
Y00050000D02*
D03*
Y00060000D02*
D03*
X00310000Y00100000D02*
D03*
Y00090000D02*
D03*
Y00080000D02*
D03*
Y00110000D02*
D03*
X00290000D02*
D03*
X00300000D02*
D03*
X00270000D02*
D03*
X00280000D02*
D03*
X00260000D02*
D03*
X00250000D02*
D03*
X00240000D02*
D03*
X00230000D02*
D03*
Y00100000D02*
D03*
Y00090000D02*
D03*
Y00080000D02*
D03*
Y00070000D02*
D03*
M02*
