M48
;Layer_Color=9474304
;FILE_FORMAT=4:4
METRIC
;TYPE=PLATED
T1F00S00C0.3000
T2F00S00C1.1000
T3F00S00C1.1700
T4F00S00C1.5200
%
T01
X00310000Y00030000
Y00040000
Y00050000
Y00060000
Y00080000
Y00090000
Y00100000
Y00110000
Y00240000
Y00260000
X00330000Y00260000
Y00280000
X00350000
Y00260000
X00370000
Y00280000
X00390000
X00410000
Y00260000
X00390000
Y00240000
X00410000
X00430000
Y00260000
X00450000
Y00280000
X00430000
X00470000
Y00260000
X00490000
X00510000
Y00280000
X00490000
Y00240000
X00510000
X00530000
Y00260000
X00550000
X00550000Y00240000
X00570000
X00590000
X00610000
X00470000
X00450000
X00370000
X00350000
X00330000
X00290000
Y00260000
X00270000Y00240000
X00250000
X00230000
Y00110000
X00240000
Y00100000
X00250000
X00260000
X00270000
X00280000
X00290000
X00300000
Y00090000
Y00080000
Y00070000
Y00060000
Y00050000
Y00040000
Y00030000
X00290000
Y00040000
Y00050000
Y00060000
Y00070000
Y00080000
Y00090000
X00280000
Y00080000
Y00070000
Y00060000
Y00050000
Y00040000
Y00030000
X00270000
Y00040000
Y00050000
Y00060000
Y00070000
Y00080000
Y00090000
X00260000
X00250000
Y00080000
X00260000
Y00070000
X00250000
Y00060000
X00260000
Y00050000
X00250000
Y00040000
X00260000
Y00030000
X00250000
X00240000
Y00040000
Y00050000
Y00060000
Y00070000
Y00080000
Y00090000
X00230000
Y00100000
Y00080000
Y00070000
Y00060000
Y00050000
Y00040000
Y00030000
X00250000Y00110000
X00260000
X00270000
X00280000
X00290000
X00300000
X00290000Y00300000
Y00320000
Y00340000
Y00360000
Y00380000
Y00400000
Y00420000
Y00440000
Y00460000
Y00480000
Y00500000
X00270000
X00250000
Y00480000
X00270000
Y00460000
X00250000
Y00440000
X00270000
Y00420000
X00250000
X00230000
Y00440000
Y00460000
Y00480000
Y00500000
Y00530000
Y00550000
Y00570000
Y00610000
Y00630000
Y00650000
Y00670000
Y00690000
X00250000
X00270000
Y00670000
X00250000
Y00650000
X00270000
Y00630000
X00250000
X00290000
Y00650000
Y00670000
Y00690000
Y00610000
Y00590000
X00270000Y00590000
Y00550000
X00250000
Y00530000
X00270000
X00290000
Y00550000
X00200000Y00620000
X00180000
X00160000
X00140000
X00120000
Y00570000
Y00560000
Y00550000
X00110000
X00120000Y00540000
Y00530000
X00130000
Y00540000
Y00550000
Y00560000
Y00570000
X00230000Y00400000
Y00380000
X00250000
Y00400000
X00270000
Y00380000
Y00360000
X00250000
Y00340000
X00270000
X00230000
Y00360000
Y00320000
Y00300000
X00310000
X00330000
Y00320000
X00310000
X00310000Y00340000
Y00360000
Y00380000
Y00400000
Y00420000
Y00440000
Y00460000
Y00480000
Y00500000
X00330000
Y00480000
X00350000
Y00500000
X00370000
Y00480000
X00390000
Y00500000
X00410000
Y00480000
X00430000
Y00500000
X00450000
X00470000
Y00480000
X00450000
Y00460000
X00470000
Y00440000
X00450000
X00430000
Y00460000
X00410000
X00390000
Y00440000
X00410000
Y00420000
X00390000
X00370000
X00350000
Y00440000
Y00460000
X00370000
Y00440000
X00330000
Y00460000
Y00420000
Y00400000
Y00380000
X00350000
Y00400000
X00370000
Y00380000
X00390000
Y00400000
X00410000
Y00380000
X00430000
Y00400000
Y00420000
X00450000
X00470000
X00490000
X00510000
Y00440000
Y00460000
X00490000
Y00440000
Y00480000
Y00500000
X00510000
Y00480000
X00530000
Y00500000
X00550000
X00570000
Y00480000
X00550000
Y00460000
X00570000
Y00440000
X00550000
X00530000
Y00460000
Y00420000
X00550000
X00570000
X00590000
X00610000
Y00440000
Y00460000
X00590000
Y00440000
Y00480000
Y00500000
X00610000
Y00480000
Y00530000
Y00550000
X00590000
Y00530000
X00570000
Y00550000
X00550000
Y00530000
X00530000
Y00550000
X00510000
X00490000
Y00530000
X00510000
X00470000
Y00550000
X00450000
Y00530000
X00430000
Y00550000
X00410000
X00390000
Y00530000
X00410000
X00370000
Y00550000
X00350000
Y00530000
X00330000
Y00550000
X00310000
Y00530000
X00330000Y00570000
Y00590000
Y00610000
X00310000
Y00590000
X00350000
Y00570000
X00370000
Y00590000
Y00610000
X00350000
Y00630000
Y00650000
X00370000
Y00630000
X00390000
Y00650000
X00410000
Y00630000
Y00610000
X00390000
Y00590000
Y00570000
X00410000
Y00590000
X00430000
Y00570000
X00450000
Y00590000
Y00610000
X00430000
Y00630000
Y00650000
Y00670000
Y00690000
X00410000
X00390000
Y00670000
X00410000
X00370000
Y00690000
X00350000
Y00670000
X00330000
Y00690000
X00310000
Y00670000
Y00650000
Y00630000
X00330000
Y00650000
X00450000
X00470000
Y00630000
X00450000
X00470000Y00610000
X00490000
Y00590000
Y00570000
X00470000
Y00590000
X00510000
Y00570000
Y00610000
X00530000
Y00590000
X00550000
Y00610000
Y00630000
Y00650000
X00570000
Y00630000
X00590000
Y00650000
X00610000
Y00630000
Y00610000
X00640000Y00620000
X00660000
X00680000
X00610000Y00570000
X00570000Y00590000
Y00670000
Y00690000
X00550000
Y00670000
X00530000
Y00690000
X00510000
X00490000
Y00670000
X00510000
Y00650000
X00490000
Y00630000
X00510000
X00530000
Y00650000
X00590000Y00670000
Y00690000
X00610000
Y00670000
X00470000
Y00690000
X00450000
Y00670000
Y00400000
X00470000
Y00380000
X00450000
Y00360000
X00470000
Y00340000
X00450000
X00430000
Y00360000
X00410000
X00390000
Y00340000
X00410000
Y00320000
Y00300000
X00390000
Y00320000
X00370000
Y00300000
X00350000
Y00320000
Y00340000
Y00360000
X00370000
Y00340000
X00330000
Y00360000
X00430000Y00320000
X00450000
Y00300000
X00430000
X00470000
X00490000
Y00320000
X00470000
X00510000
Y00300000
X00530000
X00550000
Y00320000
X00530000
Y00340000
Y00360000
Y00380000
Y00400000
X00550000
X00570000
Y00380000
X00550000
Y00360000
X00570000
Y00340000
X00550000
X00590000
Y00360000
X00610000
Y00340000
Y00320000
Y00300000
Y00380000
Y00400000
X00590000
Y00380000
X00510000
Y00400000
X00490000
Y00380000
Y00360000
X00510000
Y00340000
X00490000
X00710000Y00530000
Y00540000
Y00550000
Y00560000
Y00570000
X00720000
Y00560000
Y00550000
Y00540000
Y00530000
X00730000Y00550000
X00720000Y00620000
X00700000
X00610000Y00710000
Y00730000
X00590000
Y00710000
X00570000
Y00730000
X00550000
Y00710000
X00530000
Y00730000
X00510000
X00490000
Y00710000
X00510000
X00470000
Y00730000
X00450000
Y00710000
X00430000
Y00730000
X00410000
X00390000
Y00710000
X00410000
X00370000
Y00730000
X00350000
Y00710000
X00330000
Y00730000
X00310000
Y00710000
X00290000
Y00730000
X00270000
X00250000
Y00710000
X00270000
X00230000
Y00730000
T02
X00539000Y00281000
X00581000
X00301000
X00259000
Y00323000
Y00571000
X00301000
X00259000Y00613000
X00581000
Y00571000
X00539000
X00581000Y00323000
T03
X00770000Y00270000
X00370000Y00170800
X00470000Y00070000
X00070000
X00070000Y00170800
X00070000Y00270000
Y00370000
X00770000
T04
X00744600Y00244600
X00795400
X00395400Y00196200
Y00145400
X00344600
Y00196200
X00444600Y00095400
Y00044600
X00495400
Y00095400
X00095400Y00095400
X00095400Y00145400
Y00196200
X00095400Y00244600
X00044600
X00044600Y00196200
Y00145400
X00044600Y00095400
Y00044600
X00095400
Y00295400
Y00344600
Y00395400
X00044600
Y00344600
Y00295400
X00744600
Y00344600
Y00395400
X00795400
Y00344600
Y00295400
M30
